<svg width="27" height="27" viewBox="0 0 27 27" fill="none" xmlns="http://www.w3.org/2000/svg">
<circle cx="13.6488" cy="13.2162" r="13.2162" fill="#4C240A"/>
<path d="M13.6928 7.15109L13.7079 5.89642H14.0401L14.0552 7.15109C14.0552 7.15109 14.0896 7.77519 14.1231 8.17423C14.144 8.42238 14.1523 8.56195 14.1835 8.80903C14.2183 9.08451 14.2415 9.23887 14.2968 9.51105C14.3446 9.74615 14.3733 9.87801 14.4403 10.1085C14.5064 10.3363 14.5398 10.4667 14.6366 10.6836C14.7218 10.8746 14.7829 10.9761 14.8933 11.1541C14.9788 11.292 15.0276 11.3694 15.1273 11.4976C15.2103 11.6041 15.2604 11.6614 15.3539 11.759C15.4729 11.8833 15.5442 11.9496 15.6785 12.0577C15.8131 12.166 15.895 12.219 16.0409 12.3116C16.1844 12.4027 16.2659 12.4531 16.4185 12.5282C16.5983 12.6168 16.7065 12.6544 16.8937 12.7196L16.9017 12.7224C17.1076 12.7941 17.2255 12.8288 17.4378 12.8792C17.6853 12.9379 17.8282 12.952 18.0796 12.9912C18.3325 13.0308 18.7289 13.0809 18.7289 13.0809C18.7289 13.0809 19.2902 13.1238 19.6501 13.1481C19.8299 13.1602 19.9307 13.1682 20.1106 13.1779C20.6231 13.2056 21.4169 13.2078 21.4169 13.2078V13.6709C21.4169 13.6709 20.6231 13.6731 20.1106 13.7007C19.9307 13.7104 19.8299 13.7184 19.6501 13.7306C19.2902 13.7549 18.7289 13.7978 18.7289 13.7978C18.7289 13.7978 18.3325 13.8479 18.0796 13.8874C17.8282 13.9267 17.6853 13.9407 17.4378 13.9995C17.2255 14.0498 17.1076 14.0846 16.9017 14.1563L16.8937 14.1591C16.7065 14.2242 16.5983 14.2619 16.4185 14.3505C16.2659 14.4256 16.1844 14.476 16.0409 14.567C15.895 14.6597 15.8131 14.7127 15.6785 14.821C15.5442 14.929 15.4729 14.9953 15.3539 15.1197C15.2604 15.2173 15.2103 15.2745 15.1273 15.3811C15.0276 15.5093 14.9788 15.5867 14.8933 15.7246C14.7829 15.9026 14.7218 16.0041 14.6366 16.1951C14.5398 16.412 14.5064 16.5423 14.4403 16.7702C14.3733 17.0007 14.3446 17.1325 14.2968 17.3676C14.2415 17.6398 14.2183 17.7942 14.1835 18.0696C14.1523 18.3167 14.144 18.4563 14.1231 18.7044C14.0896 19.1035 14.0552 19.7276 14.0552 19.7276L14.0401 20.9822H13.7079L13.6928 19.7276C13.6928 19.7276 13.6584 19.1035 13.6248 18.7044C13.6039 18.4563 13.5956 18.3167 13.5644 18.0696C13.5296 17.7942 13.5065 17.6398 13.4511 17.3676C13.4033 17.1325 13.3746 17.0007 13.3077 16.7702C13.2415 16.5423 13.2081 16.412 13.1114 16.1951C13.0261 16.0041 12.965 15.9026 12.8547 15.7246C12.7691 15.5867 12.7204 15.5093 12.6206 15.3811C12.5377 15.2745 12.4875 15.2173 12.3941 15.1197C12.275 14.9953 12.2037 14.929 12.0694 14.821C11.9349 14.7127 11.853 14.6597 11.707 14.567C11.5635 14.476 11.482 14.4256 11.3295 14.3505C11.1497 14.2619 11.0414 14.2242 10.8542 14.1591L10.8462 14.1563C10.6403 14.0846 10.5224 14.0498 10.3101 13.9995C10.0627 13.9407 9.91975 13.9267 9.66836 13.8874C9.41546 13.8479 9.01902 13.7978 9.01902 13.7978C9.01902 13.7978 8.45774 13.7549 8.09786 13.7306C7.91803 13.7184 7.81727 13.7104 7.63728 13.7007C7.12485 13.6731 6.33105 13.6709 6.33105 13.6709V13.2078C6.33105 13.2078 7.12485 13.2056 7.63728 13.1779C7.81727 13.1682 7.91803 13.1602 8.09786 13.1481C8.45774 13.1238 9.01902 13.0809 9.01902 13.0809C9.01902 13.0809 9.41546 13.0308 9.66836 12.9912C9.91975 12.952 10.0627 12.9379 10.3101 12.8792C10.5224 12.8288 10.6403 12.7941 10.8462 12.7224L10.8542 12.7196C11.0414 12.6544 11.1497 12.6168 11.3295 12.5282C11.482 12.4531 11.5635 12.4027 11.707 12.3116C11.853 12.219 11.9349 12.166 12.0694 12.0577C12.2037 11.9496 12.275 11.8833 12.3941 11.759C12.4875 11.6614 12.5377 11.6041 12.6206 11.4976C12.7204 11.3694 12.7691 11.292 12.8547 11.1541C12.965 10.9761 13.0261 10.8746 13.1114 10.6836C13.2081 10.4667 13.2415 10.3363 13.3077 10.1085C13.3746 9.87801 13.4033 9.74615 13.4511 9.51105C13.5065 9.23887 13.5296 9.08451 13.5644 8.80903C13.5956 8.56195 13.6039 8.42238 13.6248 8.17423C13.6584 7.77519 13.6928 7.15109 13.6928 7.15109Z" fill="#F3EBE1"/>
</svg>
