<svg width="27" height="27" viewBox="0 0 27 27" fill="none" xmlns="http://www.w3.org/2000/svg">
<circle cx="13.5136" cy="13.2162" r="13.2162" fill="#4C240A"/>
<path d="M20.3795 10.0573C20.4802 9.7228 20.3795 9.47754 19.9034 9.47754H18.3261C17.9247 9.47754 17.7413 9.68972 17.6406 9.92275C17.6406 9.92275 16.8387 11.8784 15.7023 13.1464C15.3354 13.5154 15.1679 13.6319 14.9679 13.6319C14.8679 13.6319 14.7226 13.5154 14.7226 13.1809V10.0573C14.7226 9.65591 14.6068 9.47754 14.2724 9.47754H11.7939C11.5436 9.47754 11.3925 9.66311 11.3925 9.84004C11.3925 10.2198 11.9607 10.3076 12.019 11.3778V13.6995C12.019 14.208 11.9276 14.3008 11.7262 14.3008C11.1918 14.3008 9.89145 12.338 9.11969 10.0911C8.96937 9.65447 8.81761 9.47826 8.41483 9.47826H6.83824C6.38727 9.47826 6.29736 9.69044 6.29736 9.92347C6.29736 10.3421 6.83176 12.4135 8.78668 15.1531C10.09 17.0239 11.9248 18.038 13.5963 18.038C14.5982 18.038 14.7219 17.8129 14.7219 17.4245V16.0105C14.7219 15.5602 14.8176 15.4696 15.1348 15.4696C15.3678 15.4696 15.7691 15.5876 16.7049 16.4888C17.7737 17.5576 17.9506 18.0373 18.5512 18.0373H20.1278C20.578 18.0373 20.8032 17.8122 20.6737 17.3677C20.532 16.9254 20.0213 16.2816 19.3438 15.5199C18.9755 15.0855 18.4253 14.618 18.2577 14.3843C18.024 14.0829 18.0916 13.9498 18.2577 13.6823C18.2585 13.683 20.1796 10.9772 20.3795 10.0573Z" fill="#F3EBE1"/>
</svg>
