<svg width="27" height="27" viewBox="0 0 27 27" fill="none" xmlns="http://www.w3.org/2000/svg">
<circle cx="13.2162" cy="13.2162" r="13.2162" fill="#4C240A"/>
<path d="M17.9057 8.53287C17.9057 8.53287 19.0695 8.07905 18.9721 9.18111C18.9401 9.63493 18.6492 11.2235 18.4227 12.9414L17.6469 18.0308C17.6469 18.0308 17.5822 18.7764 17.0001 18.9061C16.4184 19.0355 15.5455 18.4523 15.3838 18.3226C15.2544 18.2252 12.9592 16.7664 12.151 16.0534C11.9245 15.8587 11.6657 15.4699 12.1833 15.0161L15.5776 11.7743C15.9655 11.3855 16.3534 10.4779 14.737 11.5799L10.2108 14.6593C10.2108 14.6593 9.69345 14.9837 8.7238 14.692L6.62214 14.0434C6.62214 14.0434 5.84629 13.5573 7.17182 13.0711C10.4049 11.5476 14.3815 9.9917 17.9051 8.53287H17.9057Z" fill="#F3EBE1"/>
</svg>
