<svg width="28" height="27" viewBox="0 0 28 27" fill="none" xmlns="http://www.w3.org/2000/svg">
<circle cx="14.0809" cy="13.2162" r="13.2162" fill="#4C240A"/>
<g clip-path="url(#clip0_447_3754)">
<path fill-rule="evenodd" clip-rule="evenodd" d="M13.9212 7.08981C10.6259 7.08981 7.95459 9.76108 7.95459 13.0565C7.95459 14.1842 8.26784 15.2403 8.81259 16.14L8.28037 17.9491C8.24981 18.053 8.2478 18.1632 8.27455 18.2681C8.3013 18.373 8.35582 18.4688 8.43237 18.5453C8.50893 18.6219 8.6047 18.6764 8.70962 18.7031C8.81453 18.7299 8.92472 18.7279 9.02859 18.6973L10.8377 18.1651C11.7677 18.7278 12.8342 19.0246 13.9212 19.0231C17.2166 19.0231 19.8879 16.3518 19.8879 13.0565C19.8879 9.76108 17.2166 7.08981 13.9212 7.08981ZM12.5716 14.4067C13.7786 15.6132 14.9308 15.7725 15.3377 15.7874C15.9565 15.8101 16.5591 15.3375 16.7936 14.7892C16.8232 14.721 16.8339 14.646 16.8247 14.5723C16.8155 14.4985 16.7866 14.4285 16.7411 14.3697C16.4141 13.9521 15.972 13.6519 15.54 13.3536C15.4498 13.2912 15.339 13.2662 15.2307 13.2838C15.1225 13.3014 15.0253 13.3602 14.9594 13.4479L14.6014 13.9938C14.5826 14.0232 14.5533 14.0442 14.5194 14.0526C14.4856 14.0611 14.4498 14.0563 14.4195 14.0392C14.1766 13.9001 13.8228 13.6639 13.5686 13.4097C13.3144 13.1555 13.0925 12.8178 12.9678 12.5905C12.9523 12.5616 12.9478 12.5281 12.9552 12.4962C12.9625 12.4642 12.9812 12.436 13.0077 12.4168L13.5591 12.0075C13.6377 11.9391 13.6885 11.8442 13.7017 11.7407C13.7149 11.6373 13.6896 11.5326 13.6307 11.4467C13.3634 11.0552 13.0519 10.5576 12.6002 10.2277C12.5419 10.1854 12.4736 10.1591 12.4021 10.1512C12.3305 10.1434 12.2582 10.1543 12.1921 10.1829C11.6432 10.418 11.1682 11.0206 11.1909 11.6406C11.2058 12.0475 11.3651 13.1997 12.5716 14.4067Z" fill="#F3EBE1"/>
</g>
<defs>
<clipPath id="clip0_447_3754">
<rect width="14.3199" height="14.3199" fill="white" transform="translate(6.76123 5.89645)"/>
</clipPath>
</defs>
</svg>
