<svg width="28" height="28" viewBox="0 0 28 28" fill="none" xmlns="http://www.w3.org/2000/svg">
<circle cx="14.1459" cy="13.7953" r="13.2162" fill="#F3EBE1"/>
<path d="M21.0118 10.6364C21.1125 10.3019 21.0118 10.0566 20.5357 10.0566H18.9584C18.5571 10.0566 18.3736 10.2688 18.2729 10.5019C18.2729 10.5019 17.471 12.4575 16.3346 13.7255C15.9678 14.0945 15.8002 14.211 15.6002 14.211C15.5002 14.211 15.355 14.0945 15.355 13.76V10.6364C15.355 10.235 15.2392 10.0566 14.9047 10.0566H12.4262C12.1759 10.0566 12.0248 10.2422 12.0248 10.4191C12.0248 10.7989 12.593 10.8867 12.6513 11.9569V14.2786C12.6513 14.7871 12.56 14.8799 12.3586 14.8799C11.8242 14.8799 10.5238 12.9171 9.75202 10.6702C9.60169 10.2336 9.44993 10.0574 9.04715 10.0574H7.47056C7.01959 10.0574 6.92969 10.2695 6.92969 10.5026C6.92969 10.9212 7.46409 12.9926 9.41901 15.7322C10.7223 17.603 12.5571 18.6171 14.2286 18.6171C15.2305 18.6171 15.3542 18.392 15.3542 18.0036V16.5896C15.3542 16.1393 15.4499 16.0487 15.7671 16.0487C16.0001 16.0487 16.4015 16.1667 17.3372 17.0679C18.406 18.1367 18.5829 18.6164 19.1835 18.6164H20.7601C21.2104 18.6164 21.4355 18.3913 21.306 17.9468C21.1643 17.5045 20.6537 16.8607 19.9761 16.099C19.6079 15.6646 19.0576 15.1971 18.8901 14.9634C18.6563 14.662 18.7239 14.5289 18.8901 14.2614C18.8908 14.2621 20.8119 11.5563 21.0118 10.6364Z" fill="#793B16"/>
</svg>
