<svg width="27" height="28" viewBox="0 0 27 28" fill="none" xmlns="http://www.w3.org/2000/svg">
<circle cx="13.7137" cy="13.7953" r="13.2162" fill="#F3EBE1"/>
<path fill-rule="evenodd" clip-rule="evenodd" d="M8.76709 10.5791C8.76709 9.47453 9.66252 8.5791 10.7671 8.5791H16.7671C17.8717 8.5791 18.7671 9.47453 18.7671 10.5791V16.5791C18.7671 17.6837 17.8717 18.5791 16.7671 18.5791H10.7671C9.66252 18.5791 8.76709 17.6837 8.76709 16.5791V10.5791ZM16.2671 13.5791C16.2671 14.9598 15.1478 16.0791 13.7671 16.0791C12.3864 16.0791 11.2671 14.9598 11.2671 13.5791C11.2671 12.1984 12.3864 11.0791 13.7671 11.0791C15.1478 11.0791 16.2671 12.1984 16.2671 13.5791ZM16.8921 11.0791C17.2373 11.0791 17.5171 10.7993 17.5171 10.4541C17.5171 10.1089 17.2373 9.8291 16.8921 9.8291C16.5469 9.8291 16.2671 10.1089 16.2671 10.4541C16.2671 10.7993 16.5469 11.0791 16.8921 11.0791Z" fill="#793B16"/>
</svg>
