<svg width="27" height="28" viewBox="0 0 27 28" fill="none" xmlns="http://www.w3.org/2000/svg">
<circle cx="13.4164" cy="13.7953" r="13.2162" fill="#F3EBE1"/>
<path d="M18.1059 9.1121C18.1059 9.1121 19.2697 8.65828 19.1723 9.76033C19.1402 10.2142 18.8494 11.8027 18.6229 13.5206L17.8471 18.61C17.8471 18.61 17.7824 19.3556 17.2003 19.4853C16.6186 19.6147 15.7457 19.0315 15.584 18.9018C15.4545 18.8044 13.1594 17.3456 12.3512 16.6327C12.1247 16.438 11.8659 16.0491 12.3835 15.5953L15.7778 12.3536C16.1657 11.9647 16.5536 11.0571 14.9372 12.1592L10.411 15.2386C10.411 15.2386 9.89365 15.563 8.92399 15.2712L6.82233 14.6227C6.82233 14.6227 6.04649 14.1365 7.37201 13.6503C10.6051 12.1268 14.5816 10.5709 18.1053 9.1121H18.1059Z" fill="#793B16"/>
</svg>
