<svg width="28" height="28" viewBox="0 0 28 28" fill="none" xmlns="http://www.w3.org/2000/svg">
<circle cx="13.849" cy="13.7953" r="13.2162" fill="#F3EBE1"/>
<path d="M13.893 7.73025L13.9081 6.47559H14.2403L14.2554 7.73025C14.2554 7.73025 14.2898 8.35435 14.3233 8.7534C14.3442 9.00154 14.3525 9.14112 14.3837 9.3882C14.4185 9.66368 14.4417 9.81804 14.497 10.0902C14.5448 10.3253 14.5735 10.4572 14.6404 10.6877C14.7066 10.9155 14.74 11.0459 14.8368 11.2627C14.922 11.4537 14.9831 11.5552 15.0935 11.7332C15.179 11.8711 15.2278 11.9486 15.3275 12.0768C15.4105 12.1833 15.4606 12.2405 15.5541 12.3381C15.6731 12.4625 15.7444 12.5288 15.8787 12.6369C16.0133 12.7451 16.0952 12.7981 16.2411 12.8908C16.3846 12.9818 16.4661 13.0322 16.6187 13.1074C16.7985 13.1959 16.9067 13.2336 17.0939 13.2988L17.1019 13.3015C17.3078 13.3732 17.4257 13.408 17.638 13.4584C17.8855 13.5171 18.0284 13.5311 18.2798 13.5704C18.5327 13.6099 18.9291 13.66 18.9291 13.66C18.9291 13.66 19.4904 13.7029 19.8503 13.7272C20.0301 13.7394 20.1309 13.7474 20.3108 13.7571C20.8233 13.7847 21.6171 13.787 21.6171 13.787V14.25C21.6171 14.25 20.8233 14.2523 20.3108 14.2799C20.1309 14.2896 20.0301 14.2976 19.8503 14.3098C19.4904 14.3341 18.9291 14.377 18.9291 14.377C18.9291 14.377 18.5327 14.4271 18.2798 14.4666C18.0284 14.5059 17.8855 14.5199 17.638 14.5786C17.4257 14.629 17.3078 14.6638 17.1019 14.7354L17.0939 14.7382C16.9067 14.8034 16.7985 14.8411 16.6187 14.9296C16.4661 15.0048 16.3846 15.0552 16.2411 15.1462C16.0952 15.2389 16.0133 15.2919 15.8787 15.4001C15.7444 15.5082 15.6731 15.5745 15.5541 15.6988C15.4606 15.7965 15.4105 15.8537 15.3275 15.9602C15.2278 16.0884 15.179 16.1659 15.0935 16.3038C14.9831 16.4818 14.922 16.5833 14.8368 16.7743C14.74 16.9911 14.7066 17.1215 14.6404 17.3493C14.5735 17.5798 14.5448 17.7117 14.497 17.9468C14.4417 18.219 14.4185 18.3733 14.3837 18.6488C14.3525 18.8959 14.3442 19.0355 14.3233 19.2836C14.2898 19.6826 14.2554 20.3067 14.2554 20.3067L14.2403 21.5614H13.9081L13.893 20.3067C13.893 20.3067 13.8586 19.6826 13.825 19.2836C13.8041 19.0355 13.7958 18.8959 13.7646 18.6488C13.7298 18.3733 13.7067 18.219 13.6513 17.9468C13.6035 17.7117 13.5748 17.5798 13.5079 17.3493C13.4417 17.1215 13.4083 16.9911 13.3116 16.7743C13.2263 16.5833 13.1652 16.4818 13.0548 16.3038C12.9693 16.1659 12.9206 16.0884 12.8208 15.9602C12.7379 15.8537 12.6877 15.7965 12.5943 15.6988C12.4752 15.5745 12.4039 15.5082 12.2696 15.4001C12.135 15.2919 12.0532 15.2389 11.9072 15.1462C11.7637 15.0552 11.6822 15.0048 11.5297 14.9296C11.3498 14.8411 11.2416 14.8034 11.0544 14.7382L11.0464 14.7354C10.8405 14.6638 10.7226 14.629 10.5103 14.5786C10.2629 14.5199 10.1199 14.5059 9.86855 14.4666C9.61565 14.4271 9.21921 14.377 9.21921 14.377C9.21921 14.377 8.65793 14.3341 8.29806 14.3098C8.11822 14.2976 8.01747 14.2896 7.83748 14.2799C7.32504 14.2523 6.53125 14.25 6.53125 14.25V13.787C6.53125 13.787 7.32504 13.7847 7.83748 13.7571C8.01747 13.7474 8.11822 13.7394 8.29806 13.7272C8.65793 13.7029 9.21921 13.66 9.21921 13.66C9.21921 13.66 9.61565 13.6099 9.86855 13.5704C10.1199 13.5311 10.2629 13.5171 10.5103 13.4584C10.7226 13.408 10.8405 13.3732 11.0464 13.3015L11.0544 13.2988C11.2416 13.2336 11.3498 13.1959 11.5297 13.1074C11.6822 13.0322 11.7637 12.9818 11.9072 12.8908C12.0532 12.7981 12.135 12.7451 12.2696 12.6369C12.4039 12.5288 12.4752 12.4625 12.5943 12.3381C12.6877 12.2405 12.7379 12.1833 12.8208 12.0768C12.9206 11.9486 12.9693 11.8711 13.0548 11.7332C13.1652 11.5552 13.2263 11.4537 13.3116 11.2627C13.4083 11.0459 13.4417 10.9155 13.5079 10.6877C13.5748 10.4572 13.6035 10.3253 13.6513 10.0902C13.7067 9.81804 13.7298 9.66368 13.7646 9.3882C13.7958 9.14112 13.8041 9.00154 13.825 8.7534C13.8586 8.35435 13.893 7.73025 13.893 7.73025Z" fill="#793B16"/>
</svg>
