<?xml version="1.0" standalone="no"?>
<!DOCTYPE svg PUBLIC "-//W3C//DTD SVG 1.1//EN" "http://www.w3.org/Graphics/SVG/1.1/DTD/svg11.dtd" >
<svg xmlns="http://www.w3.org/2000/svg" xmlns:xlink="http://www.w3.org/1999/xlink" version="1.1">
<metadata>
Created by FontForge 20201107 at Sat Jun 10 10:31:38 2023
 By 
Typeface (c) (your company). 2023. All Rights Reserved
</metadata>
<defs>
<font id="Bergamasco" horiz-adv-x="1570" >
  <font-face 
    font-family="Bergamasco"
    font-weight="400"
    font-stretch="normal"
    units-per-em="2048"
    panose-1="2 0 5 0 0 0 0 0 0 0"
    ascent="1638"
    descent="-410"
    x-height="1019"
    cap-height="1435"
    bbox="-402 -445 2128 1806"
    underline-thickness="150"
    underline-position="-292"
    unicode-range="U+0020-FB04"
  />
<missing-glyph horiz-adv-x="1024" 
 />
    <glyph glyph-name=".notdef" horiz-adv-x="1024" 
 />
    <glyph glyph-name=".null" horiz-adv-x="0" 
 />
    <glyph glyph-name="nonmarkingreturn" horiz-adv-x="682" 
 />
    <glyph glyph-name="space" unicode=" " horiz-adv-x="508" 
 />
    <glyph glyph-name="space" unicode="&#xa0;" horiz-adv-x="508" 
 />
    <glyph glyph-name="exclam" unicode="!" horiz-adv-x="347" 
d="M105 197q39 0 67 -28t28 -67q0 -40 -28 -68t-67 -28q-40 0 -68 28t-28 68q0 39 28 67t68 28zM105 1446q39 0 67 -28t28 -68v-1l-52 -1053h-86l-53 1054q0 40 28 68t68 28z" />
    <glyph glyph-name="quotedbl" unicode="&#x22;" horiz-adv-x="646" 
d="M303 1344q0 39 28 67t67 28q40 0 68 -28t28 -67q0 -37 -12 -70.5t-30 -61t-36.5 -47.5t-31.5 -31.5t-15 -13.5l-8 -6l-32 25l11 10q40 42 40 101h-2q-33 8 -54 34t-21 60zM-6 1344q0 39 28 67t67 28q40 0 68 -28t28 -67q0 -37 -12 -70.5t-30 -61t-36.5 -47.5t-31.5 -31.5
t-15 -13.5l-8 -6l-32 25l11 10q40 42 40 101h-2q-33 8 -54 34t-21 60z" />
    <glyph glyph-name="numbersign" unicode="#" horiz-adv-x="1869" 
d="M1389 919l-197 -394h267v-41h-288l-239 -478h-307l-9 42h16q89 0 133 64l185 372h-473l-76 -151l-164 -327h-248l21 42h8q74 0 152.5 48.5t126.5 123.5l132 264h-401v41h422l199 394h-372v42h392l140 277q1 3 2 7v1l96 192h250l-21 -41h-8q-73 0 -151 -48t-126 -123
l-134 -265h472l238 478h305l10 -42h-16q-76 0 -121 -53l-3 -3q-5 -7 -9 -14l-1 -1l-38.5 -77t-143.5 -288h298v-42h-319zM498 525h473l197 394h-472z" />
    <glyph glyph-name="dollar" unicode="$" horiz-adv-x="1156" 
d="M93 874q-95 93 -95 198q0 147 165 242q126 68 287 83v46h40v-44h13q36 0 72 -4v48h41v-53q116 -20 219 -76q13 -8 20 -8q3 0 4 1q5 3 8 8q17 26 17 55v17l40 -1v-391h-42l2 14v7q0 25 -18 52q-21 28 -48 49q-104 87 -202 134v-408q21 -5 43 -12q204 -64 327 -195
q82 -91 82 -198q0 -144 -145 -258q-137 -102 -307 -128v-51h-41v46q-25 -2 -51 -2q-15 0 -31 1h-3v-45h-40v49q-94 14 -178.5 51t-158.5 78l-4 3q-17 11 -34 11q-4 0 -8 -1q-19 -8 -21 -52l-1 -13l-39 1v415h41l-1 -13v-4q0 -25 13.5 -48t30.5 -43q145 -173 328 -245
q15 -6 32 -12v526q-75 14 -172 51q-32 13 -83.5 42.5t-101.5 76.5zM124 1224q-28 -37 -28 -80q0 -78 69 -142q43 -36 94 -58.5t103 -39.5l10 -4q44 -14 78 -21v426q-42 6 -81 6q-87 0 -162 -31q-55 -23 -83 -56zM490 1297v-426q1 0 3 -1q36 -6 82 -16v415q-22 9 -44 16
q-20 7 -41 12zM575 150v528q-42 10 -85 18v-530q42 -11 85 -16zM646 146q57 0 111 12q89 20 153 72q57 46 63 99q1 7 1 14q0 8 -1 16q-15 118 -111 187t-217 110q-14 6 -29 10v-519q15 -1 30 -1z" />
    <glyph glyph-name="percent" unicode="%" horiz-adv-x="1610" 
d="M312 7l-4 -5h-308v42h13q91 0 151 66l973 1326h307v-42h-13q-78 0 -136 -54q-2 -2 -3 -4q-8 -7 -14 -14q-486 -661 -966 -1315zM0 1095q0 97 47.5 176.5t127 126.5t175.5 47q97 0 176.5 -47t126.5 -126.5t47 -176.5q0 -96 -47 -175.5t-126.5 -127t-176.5 -47.5
q-96 0 -175.5 47.5t-127 127t-47.5 175.5zM119 1297q0 -1 -1 -2q0 -1 -1 -2v-1l-1 -2l-1 -1q0 -1 -1 -2l-1 -2q0 -3 -1 -5l-1 -1v-1q-2 -3 -2 -8l-1 -2v-3q0 -1 -1 -2v-5l-1 -3v-6q0 -1 -1 -2v-8q0 -57 35 -125t97 -131q142 -133 256 -133h3q3 0 4 1h11l2 1h3q3 0 7 1
q0 2 2 1q5 2 8 2q2 1 3 1q2 0 2 1h1l1 1h1l2 1l2 1l2 1q11 6 20 14l1 1q1 2 2 2l3 3v1l3 3l4 6l1 2q2 2 3 5l1 2q0 2 1 3t1 2q1 3 2 5q0 2 1 2v2l1 2q0 2 1 3v3q0 2 1 3v2q0 2 1 2v7q1 1 1 2v15q0 113 -132 254l-12 12q-4 4 -8 7q-9 9 -18 16q-2 3 -5 4l-12 10q-3 2 -6 5
l-26 18q-3 1 -6 4q-1 0 -4 2l-6 4q-4 3 -9 5q-3 2 -7 4q-1 0 -3 2q-3 2 -7 3q-4 3 -12 7q-5 2 -11 5q-57 24 -104 24h-16l-2 -1h-5q-11 -2 -21 -6l-2 -1q-3 0 -6 -2l-2 -1l-1 -1q-1 -1 -3 -2h-1l-1 -1q-6 -3 -10 -7l-3 -3q-1 0 -2 -1q0 -1 -2 -2q-1 -1 -3 -4q-3 -4 -6 -9
q-1 0 -2 -2zM1094 702q96 0 175.5 -47.5t127 -126.5t47.5 -176q0 -96 -47.5 -175.5t-127 -127t-175.5 -47.5q-97 0 -176.5 47.5t-126.5 127t-47 175.5q0 97 47 176t126.5 126.5t176.5 47.5zM1313 136q26 29 26 74q0 54 -34.5 122.5t-98.5 132.5q-141 132 -255 132
q-46 0 -74 -25q0 -1 -2 -2l-1 -2q-26 -29 -26 -74q0 -54 34.5 -122.5t98.5 -132.5q141 -132 255 -132q47 0 74 25l2 2q0 2 1 2z" />
    <glyph glyph-name="ampersand" unicode="&#x26;" horiz-adv-x="1125" 
d="M496 6q-136 0 -248 67t-179 179t-67 248q0 156 88 282t236 182l-55 129q-4 10 -9 22l-1 2v1q-14 40 -14 83q0 102 76 179q76 70 173 70q103 0 176 -73t73 -176q0 -81 -50 -149q-49 -65 -126 -89q-22 -7 -46 -10l316 -745q40 62 40 145q0 66 -26 140l-6 18h143v-13
q-3 -192 -133 -334l22 -50q25 -31 64 -48q41 -18 86 -18h13v-42h-312l-21 49q-100 -49 -213 -49zM367 1322l139 -328q79 5 135 60q4 3 17 25.5t21 58.5q3 15 3 31q0 80 -79 148t-156 68q-27 0 -55 -9q-16 -6 -24 -21q-4 -9 -4 -17t3 -16zM342 925q-94 -34 -166 -105
q-64 -68 -64 -172q0 -33 7 -70q31 -157 163 -291q82 -81 177 -126t184 -45q21 0 39 3q-146 348 -326 773q-6 17 -14 33z" />
    <glyph glyph-name="quotesingle" unicode="'" horiz-adv-x="326" 
d="M-6 1345q0 39 28 67t67 28q40 0 68 -28t28 -67q0 -37 -12 -70.5t-30 -61t-36.5 -47.5t-31.5 -31.5t-15 -13.5l-8 -6l-32 25l11 10q40 42 40 101h-2q-33 8 -54 34t-21 60z" />
    <glyph glyph-name="parenleft" unicode="(" horiz-adv-x="758" 
d="M144 1147q136 239 369 387l20 13v-74l-7 -4q-95 -48 -169 -121q-107 -109 -165.5 -260.5t-58.5 -322.5v-12q12 -459 382 -818q4 -5 8 -8l10 -10v-237l-20 12q-233 148 -369 387q-140 254 -140 534q0 281 140 534z" />
    <glyph glyph-name="parenright" unicode=")" horiz-adv-x="662" 
d="M393 79q-136 -239 -369 -387l-20 -12v74l7 3q95 48 168 122q108 109 166.5 260t58.5 322v12q-12 460 -382 819q-5 4 -8 7l-10 10v238l20 -13q233 -148 369 -387q140 -253 140 -534q0 -280 -140 -534z" />
    <glyph glyph-name="asterisk" unicode="*" horiz-adv-x="577" 
d="M445 1280l2 -7l-162 -66l83 -172l-5 -4l-8 -6l-6 -3l-132 144l-117 -145l-6 4q-5 3 -8 6l-6 4l97 166l-175 72l2 7q1 5 2 9l3 7l178 -46l26 195h22l34 -193l171 44l2 -7z" />
    <glyph glyph-name="plus" unicode="+" horiz-adv-x="1014" 
d="M875 763v-88h-392v-392h-87v392h-393v88h393v392h87v-392h392z" />
    <glyph glyph-name="comma" unicode="," horiz-adv-x="298" 
d="M-11 97q0 39 28 67t67 28q40 0 68 -28t28 -67q0 -37 -12 -70.5t-30 -61t-36.5 -47.5t-31.5 -31.5t-15 -13.5l-8 -6l-32 25l11 10q40 42 40 101h-2q-33 8 -54 34t-21 60z" />
    <glyph glyph-name="hyphen" unicode="-" horiz-adv-x="848" 
d="M708 605v-92h-712v92h712z" />
    <glyph glyph-name="hyphen" unicode="&#xad;" horiz-adv-x="848" 
d="M708 605v-92h-712v92h712z" />
    <glyph glyph-name="period" unicode="." horiz-adv-x="340" 
d="M-1 94q0 39 28 67t67 28q40 0 68 -28t28 -67q0 -40 -28 -68t-68 -28q-39 0 -67 28t-28 68z" />
    <glyph glyph-name="slash" unicode="/" horiz-adv-x="1193" 
d="M917 1346l-629 -1348h-296l-4 16q48 0 86.5 19t58.5 54l631 1354h294l5 -15q-86 0 -133 -60q-7 -9 -13 -20z" />
    <glyph glyph-name="zero" unicode="0" horiz-adv-x="1541" 
d="M1200 1237l11 -11q98 -104 149.5 -235t51.5 -275q0 -145 -53 -277.5t-154 -237.5q-101 -104 -230 -158.5t-271 -54.5q-139 0 -266.5 53.5t-228.5 154.5l-11 11q-98 104 -150 235t-52 274q0 146 53.5 278.5t154.5 237.5q101 104 229.5 158.5t270.5 54.5q140 0 267.5 -53.5
t228.5 -154.5zM109 795q31 -252 221 -454q3 -3 5 -6q3 -2 5 -5q110 -111 242.5 -171t265.5 -60q197 0 328 131q128 139 128 341q0 33 -4 67q-31 252 -221 454q-2 3 -5 5q-3 3 -5 6q-110 111 -242.5 171t-265.5 60q-196 0 -328 -131q-128 -138 -128 -338q0 -34 4 -70z" />
    <glyph glyph-name="one" unicode="1" horiz-adv-x="557" 
d="M449 45v-43h-447v43l14 -1q49 1 81.5 33.5t32.5 79.5v1017h-128v36l11 2q23 5 36 8q34 8 65 24q55 29 96 79q19 24 33 51q7 14 13 28q2 6 10 29l3 9h52v-1283q0 -47 33.5 -80t80.5 -33z" />
    <glyph glyph-name="two" unicode="2" horiz-adv-x="1222" 
d="M373 52h-2q-49 0 -116.5 -14.5t-119.5 -29t-53 -14.5l-2 -1h-30l-3 8l-6 13q-34 90 -34 185q0 83 24.5 163.5t73.5 149.5q16 22 34 43q30 36 88.5 82t137.5 69q77 19 157 20h7q57 0 118 2q157 10 254 63q50 26 86 64q47 51 47 113q0 34 -15 66q-1 3 -2 5q-42 84 -154 158
q-174 116 -351 132q-26 2 -50 2q-52 0 -104 -9q-21 -4 -42 -10h-1q-15 -3 -28 -9h-1q-54 -23 -85.5 -69.5t-31.5 -104.5v-13h-42v148l5 4q71 59 156 99q160 73 329 73q93 0 182 -22q150 -39 233 -129q80 -91 87 -212v-16q0 -109 -70 -203q-83 -105 -231 -146
q-109 -29 -246 -29h-49q-25 0 -55.5 -2t-63.5 -10q-65 -16 -130 -60q-102 -67 -151 -169q-34 -67 -34 -144q0 -42 12.5 -82.5t40.5 -74.5q23 8 78 25t120 32.5t111 15.5h2q57 0 114 -8t112 -18q53 -9 105 -17q57 -8 106 -8h11q120 0 202 43l20 11l-1 -23
q-9 -81 -65.5 -133.5t-124.5 -71.5q-47 -13 -104 -13q-49 0 -96 8t-85 17q-26 7 -52 13q-54 15 -110 26.5t-112 11.5z" />
    <glyph glyph-name="three" unicode="3" horiz-adv-x="1242" 
d="M44 1206v-13h-41v241h1006v-41h-13q-90 0 -145 -71l-162 -250q110 -13 204 -72q101 -63 164 -163q77 -125 77 -268q0 -199 -144 -353q-1 -2 -4 -5t-8 -7q-103 -100 -232.5 -153t-271.5 -53q-171 0 -323 76q-13 7 -28 7q-23 0 -40.5 -14.5t-21.5 -38.5q-1 -8 -1 -16l1 -14
h-42v441h42l-1 -14q0 -39 25 -71l15 -15h1v-1q38 -37 81 -70q215 -159 438 -159q165 0 289 90q15 11 29 23l10 10q1 2 4 3q2 3 4 4q61 65 67 145v21q0 177 -119.5 331.5t-304.5 213.5q-61 18 -118 18q-30 0 -58 -5l-29 -5l282 435h-446q-79 -3 -132.5 -56.5t-53.5 -130.5z
" />
    <glyph glyph-name="four" unicode="4" horiz-adv-x="1364" 
d="M774 159v175h-773v31l861 1071h229v-43l-14 2q-48 -2 -80.5 -34.5t-32.5 -79.5v-905h47q80 2 133.5 56.5t53.5 131.5v14h42v-244h-276v-175q0 -47 33 -80t80 -33l14 1v-43h-445v43l14 -1q48 1 81 33.5t33 79.5zM774 1259l-712 -883h712v883z" />
    <glyph glyph-name="five" unicode="5" horiz-adv-x="1227" 
d="M1123 583v-11q0 -81 -27 -162q-57 -166 -217 -279q-149 -103 -332 -125q-41 -5 -83 -5q-148 0 -288 59l-6 2q-33 19 -65 19q-6 0 -13 -1q-19 -5 -31.5 -21.5t-12.5 -35.5v-7l2 -15l-45 -1v443h42v-16q0 -39 26.5 -70.5t53.5 -52.5q177 -144 362 -181q58 -12 115 -12
q153 0 274 77q58 37 94 89q44 66 44 154q0 87 -44 186q-55 118 -162 214q-157 139 -325 144h-5q-79 0 -148.5 -42t-117.5 -120q-27 -45 -48 -109q-11 -39 -14 -75.5t-3 -37.5v-12h-43v807l7 3q6 4 21 11q86 37 203 37q62 0 124.5 -8t115.5 -18q55 -9 112.5 -16t113.5 -7
q117 0 201 39l21 9l-3 -22q-7 -75 -69 -133q-56 -53 -135 -72q-42 -9 -89 -9q-49 0 -99 8.5t-107 22.5l-24 6q-56 15 -113 26.5t-114 11.5q-16 0 -33 -1q-51 -4 -70 -26q-14 -15 -17 -37t-3 -47v-387q90 194 289 273q84 31 174 31q156 0 289 -88q209 -152 222 -410z" />
    <glyph glyph-name="six" unicode="6" horiz-adv-x="1288" 
d="M196 217q-38 42 -69 89q-123 187 -123 403v5q5 302 215 516q105 104 238 159t279 55q92 0 181 -23q41 -10 80 -25q4 -2 7 -2q8 0 14 5.5t6 14.5l-1 14h43v-326h-43l1 14q0 57 -49 94q-3 3 -7 5q-32 20 -65 37q-160 80 -316 80q-202 0 -339 -132q-132 -140 -132 -340
q0 -49 8 -100q69 152 206 242t303 90q224 0 393 -162q159 -162 163 -391v-5q0 -152 -86 -295q-89 -143 -233 -206q-92 -40 -196 -40q-129 0 -261 63q-123 60 -217 161zM363 960q-78 -32 -126.5 -101.5t-51.5 -157.5v-10q0 -90 37 -173t98 -153t136.5 -124.5t153.5 -88.5
q46 -21 101 -39t110 -18q38 0 67 10q64 23 109 67q82 85 82 216q0 34 -6 71q-32 183 -181 335q-100 99 -219 148q-98 40 -188 40q-64 0 -122 -22z" />
    <glyph glyph-name="seven" unicode="7" horiz-adv-x="1313" 
d="M44 1205v-13h-42v243h1210v-42h-13q-82 0 -128 -71l-663 -1172q-13 -28 -13 -51q0 -19 9 -32q15 -23 51 -23l14 1v-43h-445v43l14 -1q38 0 75 23t60 60q299 534 709 1266h-650q-78 0 -133 -55.5t-55 -132.5z" />
    <glyph glyph-name="eight" unicode="8" horiz-adv-x="1323" 
d="M218 121q-116 79 -169 174q-39 72 -39 148q0 46 14 93q28 83 86 139.5t118 93.5q36 23 73 42q2 0 8 4q15 9 26 14q-72 32 -132.5 82t-82.5 134q-7 31 -7 62q0 77 40 146q35 56 93 94q73 44 134 64q111 42 237 42q26 0 51 -2q142 -9 273 -71q49 -22 97.5 -58.5t81 -90.5
t32.5 -129q0 -60 -25 -114q-7 -14 -15 -28q-3 -3 -4 -6q-31 -44 -74 -73.5t-89 -50.5q-10 -3 -20 -8q5 -3 9 -4q9 -4 16 -8q54 -26 116 -71t110 -109q28 -36 43 -80q21 -57 21 -114q0 -54 -19 -105q-39 -108 -188 -210q-190 -125 -411 -125q-72 0 -144 14q-140 29 -260 111z
M1045 950q14 23 14 47q0 27 -13.5 52.5t-30 45t-27.5 28.5q-12 12 -25 22q-61 52 -144 99t-177.5 77t-187.5 30q-118 0 -204 -58q-33 -23 -40 -63q-1 -9 -1 -18q0 -40 27 -79q79 -104 242 -183q154 -73 319 -73q42 0 85 5q49 5 94 19.5t69 48.5zM194 692q-75 -58 -75 -136
q0 -53 35 -109q59 -93 192 -190q116 -84 243 -122q95 -28 189 -28q77 0 146 20q116 34 177 106q37 44 37 95q0 10 -2 20q-9 52 -46.5 100t-75.5 85q-80 84 -179 140q-187 101 -366 101q-160 0 -275 -82z" />
    <glyph glyph-name="nine" unicode="9" horiz-adv-x="1283" 
d="M997 1219q39 -42 70 -88q122 -188 122 -404v-5q0 -292 -215 -516q-105 -104 -238 -158.5t-279 -54.5q-91 0 -181 22q-41 11 -80 26q-3 0 -7 1q-7 0 -13.5 -5.5t-6.5 -14.5l1 -14h-43v326h43l-1 -14q0 -57 49 -94q4 -2 7 -5h1q32 -19 65 -37q159 -79 315 -79
q204 0 339 132q132 139 132 339q0 49 -8 100q-69 -152 -205.5 -242t-303.5 -90q-222 0 -392 162q-160 162 -164 392v5q0 151 86 294q89 143 234 206q92 41 195 41q129 0 262 -63q122 -61 216 -162zM830 476q79 32 127 101.5t51 157.5v10q0 90 -37 173t-98 153t-136 124.5
t-153 88.5q-46 21 -101.5 39t-110.5 18q-36 0 -67 -10q-64 -22 -109 -66q-82 -86 -82 -217q0 -34 6 -71q32 -182 182 -335q99 -98 218 -148q98 -40 188 -40q66 0 122 22z" />
    <glyph glyph-name="colon" unicode=":" horiz-adv-x="348" 
d="M101 2q-40 0 -68 28t-28 68q0 39 28 67t68 28q39 0 67 -28t28 -67q0 -40 -28 -68t-67 -28zM101 848q-40 0 -68 28t-28 68q0 39 28 67t68 28q39 0 67 -28t28 -67q0 -40 -28 -68t-67 -28z" />
    <glyph glyph-name="semicolon" unicode=";" horiz-adv-x="365" 
d="M95 203q40 0 68 -28t28 -68q0 -37 -12.5 -70t-30.5 -60.5t-36 -47.5t-31 -31.5t-15 -13.5l-8 -6l-32 24l11 11q40 42 40 101h-2q-33 8 -54 34t-21 59q0 40 28 68t67 28zM95 1035q40 0 68 -28t28 -67t-28 -67t-68 -28q-39 0 -67 28t-28 67t28 67t67 28z" />
    <glyph glyph-name="less" unicode="&#x3c;" horiz-adv-x="786" 
d="M570 1042h97l-413 -324l413 -323h-97l-566 323z" />
    <glyph glyph-name="equal" unicode="=" horiz-adv-x="1044" 
d="M880 928v-88h-877v88h877zM3 504v88h877v-88h-877z" />
    <glyph glyph-name="greater" unicode="&#x3e;" horiz-adv-x="811" 
d="M101 1042l566 -324l-566 -323h-97l414 323l-414 324h97z" />
    <glyph glyph-name="question" unicode="?" horiz-adv-x="1143" 
d="M-5 1263l5 4q71 60 157 101q163 74 334 74q96 0 186 -23q152 -39 235 -130q83 -92 89 -215v-17q0 -50 -15 -99q-18 -59 -56 -106q-27 -36 -63 -64q-80 -65 -218 -95q-6 -1 -14 -3q-24 -5 -46 -13q-41 -16 -72 -47q-24 -29 -39 -88.5t-16 -104.5l-1 -13h-37l-3 9
q-24 99 -24 168v13q1 26 18 54q30 31 74 41q9 2 20 4q37 7 72 13q35 4 69 11q72 15 131 47q31 16 61.5 41.5t51.5 60t21 78.5q0 35 -15 67q-1 2 -3 5q-41 84 -156 160q-176 117 -356 134q-25 2 -51 2q-52 0 -105 -10q-21 -4 -43 -10h-1q-14 -3 -29 -9l-1 -1
q-55 -23 -86.5 -70t-31.5 -105v-14h-42v150zM434 188q40 0 68 -28.5t28 -67.5q0 -40 -28 -68t-68 -28t-68 28t-28 68q0 39 28 67.5t68 28.5z" />
    <glyph glyph-name="at" unicode="@" horiz-adv-x="1578" 
d="M1450 827q8 -52 8 -108q0 -30 -8 -73q-20 -93 -89 -146.5t-152 -53.5q-78 0 -150 54q-24 19 -36 40q-46 -74 -122.5 -118.5t-168.5 -44.5q-142 0 -242 100t-100 242v2q4 144 102.5 241.5t238.5 97.5h5q86 0 164 -45q58 -35 100.5 -87t73.5 -111q37 -77 70.5 -152.5
t111.5 -120.5q24 -13 49 -13q27 0 50 20q22 26 22 62q0 34 -11.5 70.5t-19.5 63.5q-31 113 -94 213q-19 30 -42 60q-5 7 -10 13q-33 42 -72 82q-122 120 -265 181.5t-281 61.5q-101 0 -192 -34t-161 -103q-69 -70 -103 -160.5t-34 -191.5q0 -138 61.5 -281t182.5 -265
q122 -121 265 -182.5t281 -61.5q101 0 191.5 34t160.5 103q39 39 66 84h26q-101 -141 -255.5 -224.5t-338.5 -83.5q-200 0 -365.5 98t-263.5 263.5t-98 365.5q0 201 98 365.5t263.5 262.5t365.5 98q212 0 383 -108.5t264 -288.5q5 -9 9 -17q45 -96 62 -204zM983 521
q11 28 11 58q0 62 -33 123t-69 104q-99 124 -249 166q-28 8 -56 8q-26 0 -51 -9q-61 -26 -66 -95v-13q0 -59 36 -130t102 -138q48 -49 109 -86.5t130 -49.5q13 -2 25 -2q25 0 48 7.5t41 24.5q14 13 22 32z" />
    <glyph glyph-name="A" unicode="A" horiz-adv-x="1590" 
d="M397 45v-42h-440q-1 0 -1 1v40q0 2 1 1h15q82 3 158.5 57.5t112.5 135.5l402 979q15 38 15 71q0 46 -29 78q-50 35 -97 35h-14v42h308l1 -1l525 -1278q22 -51 70 -85t97 -34l14 1v-43h-440l-1 1v40q0 2 1 1h14q39 0 56 26q10 15 10 37q0 21 -10 46l-1 1l-174 423
q-60 10 -122 10q-187 0 -342 -89t-232 -242q0 -1 -5.5 -15l-5.5 -14q-16 -41 -16 -75q0 -57 42 -88l1 -1q29 -19 71 -19h16zM682 1199l-322 -781q0 -1 1 -1q133 143 336 193q8 2 18 4q68 15 139 16h98q11 2 11 11v3l-251 611l-1 1q-16 -24 -26 -49z" />
    <glyph glyph-name="B" unicode="B" horiz-adv-x="1396" 
d="M833 8q-33 -4 -65 -4h-767v43l14 -1q48 1 80.5 33.5t32.5 79.5v1127q-2 49 -37 82q-34 29 -76 29l-14 -1v42h767q44 0 84 -16q65 -27 103 -83.5t38 -125.5q0 -63 -34 -119q-30 -49 -80 -77q97 -21 179 -77q92 -64 149 -159q74 -124 74 -264q0 -129 -59 -238.5
t-159.5 -181t-229.5 -89.5zM432 46h336q189 0 333 138q41 42 56 90.5t15 92.5q0 23 -3 44q-16 121 -92 235q-104 152 -263 228q-100 45 -192 45h-2q-108 0 -181 -66h-1q0 -1 -1 -2l-2 -1q-82 -82 -116 -192v-499q0 -46 33.5 -79.5t79.5 -33.5zM872 1061q20 13 33 30
q7 9 13 19q6 9 6 16v6q0 29 -10.5 52.5t-22.5 39.5t-18 22q-146 151 -382 151h-59q-46 0 -79.5 -33.5t-33.5 -80.5v-520q127 222 380 262q35 4 69 4q45 0 85 21q10 5 19 11z" />
    <glyph glyph-name="C" unicode="C" horiz-adv-x="1369" 
d="M1270 247l-8 -9q-104 -118 -245.5 -182t-297.5 -64q-145 0 -276 54.5t-234 156.5q-102 103 -156.5 234t-54.5 276t54.5 276t156.5 234q103 102 234 156.5t276 54.5q170 0 321 -75q11 -5 24 -5q30 0 47 29q10 23 10 48l-1 14h42v-441h-42l1 14q0 45 -32 79l-3 3
q-41 40 -86 73q-211 151 -427 151q-201 0 -335 -130q-130 -135 -130 -334q0 -36 4 -72q33 -251 230 -452q113 -112 249.5 -173t274.5 -61q200 0 334 130q15 15 30 33l8 10z" />
    <glyph glyph-name="D" unicode="D" horiz-adv-x="1381" 
d="M728 19v-1q-55 -15 -115 -15h-609v42l14 -1q79 4 108 77q2 7 3 14q3 11 3 23v1123q0 7 -1 14q-1 5 -2 9q-1 7 -3 13q-13 36 -42 57t-66 21l-14 -2v43h612q56 0 109 -15l3 -1q230 -68 378 -258q149 -201 149 -443t-149 -442q-148 -190 -378 -258zM322 1281v-1123
q0 -47 33.5 -80.5t79.5 -33.5h177q57 0 109 15q162 48 283 165h1l1 2l4 4q2 0 3 2q55 55 85 126q40 99 40 197q0 97 -27.5 185.5t-63.5 157.5t-64 111q-98 149 -236 264q-75 65 -144 93q-42 18 -83 25h-2q-7 1 -20 4h-49v-2l-14 2q-58 0 -96 -54q-17 -28 -17 -60z" />
    <glyph glyph-name="E" unicode="E" horiz-adv-x="1288" 
d="M1154 247v-243h-1154v43l13 -1q49 1 81.5 33.5t32.5 79.5v1125q-2 47 -34.5 79t-78.5 32l-14 -2v43h1154v-243h-42v13q0 78 -54 132t-133 56l-6 1h-489q-47 0 -80 -33.5t-33 -80.5v-517q0 -19 24 -23h411q80 2 134 56.5t54 131.5v13h42v-444h-42v13q0 77 -54 131.5
t-134 56.5h-412q-23 -4 -23 -23v-517q0 -47 33 -80t80 -33h495q79 2 133 56t54 132v13h42z" />
    <glyph glyph-name="F" unicode="F" horiz-adv-x="1303" 
d="M445 47v-42h-445v42l14 -1q48 2 81 34.5t33 79.5v1124q-3 47 -35 78.5t-79 31.5l-14 -1v43h1154v-243h-42v13q0 78 -54 132t-133 56h-494q-47 0 -80 -33t-33 -80v-516q0 -20 23 -24h412q79 3 133 57t54 132v13h42v-445h-42v13q0 78 -54 132t-133 57h-412q-23 -5 -23 -24
v-516q0 -47 33 -80.5t80 -33.5z" />
    <glyph glyph-name="G" unicode="G" horiz-adv-x="1378" 
d="M721 4h-11q-293 8 -502 216q-206 218 -206 501v4q0 288 211 508q103 102 233.5 156t274.5 54q170 0 320 -75q11 -5 24 -5q30 0 46 29q11 23 11 48l-1 14h42v-440h-42l1 14q0 45 -32 79l-1 1q-2 1 -2 2q-41 40 -86 73q-210 150 -426 150q-199 0 -334 -130
q-129 -135 -129 -332q0 -35 4 -72q33 -252 229 -451q113 -112 249 -173t273 -61q114 0 211 44v555h-473v41h660v-750h-42l1 14q0 54 -45 90q-19 14 -42 14q-21 0 -39 -11l-8 10l7 -11q-176 -106 -376 -106z" />
    <glyph glyph-name="H" unicode="H" horiz-adv-x="1578" 
d="M1310 1282v-1125q0 -47 33.5 -80.5t80.5 -33.5l14 1v-43h-446v43l14 -1q48 1 80.5 34t32.5 80v518q0 19 -23 24h-852v-468q2 -80 56.5 -134t132.5 -54h13v-42h-446v42h13q78 0 132.5 54t56.5 134v977q-2 79 -56.5 133.5t-132.5 54.5h-13v41h446v-41h-13
q-78 0 -132.5 -54.5t-56.5 -133.5v-468h852q19 0 23 24v521q-2 47 -34.5 79t-78.5 32l-14 -1v42h446v-42l-14 1q-48 -2 -81 -34.5t-33 -79.5z" />
    <glyph glyph-name="I" unicode="I" horiz-adv-x="539" 
d="M452 44v-43h-446v43l14 -1q49 1 81.5 33.5t32.5 79.5v1124q0 47 -33.5 80.5t-79.5 33.5l-15 -2v43h446v-43l-14 2q-48 -2 -81 -34.5t-33 -79.5v-1124q0 -47 33.5 -80t80.5 -33z" />
    <glyph glyph-name="J" unicode="J" horiz-adv-x="1271" 
d="M1044 1279v-530q0 -75 -12.5 -166t-47 -185.5t-99.5 -180.5q-58 -74 -136 -128l-2 -5h-5q-30 -22 -63 -38l-1 -1q-10 -5 -20 -9q-39 -18 -80 -29q-39 -10 -83 -10h-21q-38 3 -79 8l-4 1h-2q-5 1 -9 2l-42 7q-93 21 -189 25h-9q-51 0 -90 -12q-31 -11 -54 -30l-1 -1
l-22 -18l1 29q7 123 105 189q16 10 34 17q37 14 82 14t99 -14q11 -3 21 -6l16 -6q23 -7 45 -15q48 -18 99 -31q32 -7 67 -8q11 -1 22 -1q79 1 159 23q12 3 23 7l4 2q50 20 72 53q25 37 30 106v941q0 48 -33.5 81.5t-80.5 33.5l-14 -1v43h449v-43l-15 1q-48 -1 -81 -34
t-33 -81z" />
    <glyph glyph-name="K" unicode="K" horiz-adv-x="1382" 
d="M820 47l14 -1q47 0 80 33.5t33 80.5v254q0 153 -68 264.5t-172 126.5q-7 0 -14 1h-350q-19 0 -24 -24v-622q0 -47 33.5 -80.5t79.5 -33.5l15 1v-42h-446v42l14 -1q47 0 80 33.5t33 80.5v1127q-2 47 -34 79t-79 32l-14 -1v43h446v-43l-14 1q-47 0 -80.5 -33t-33.5 -80
v-414q0 -19 24 -24h243q11 0 21 1q56 3 110 20q52 17 97 47q45 29 81 69q37 40 61 87q26 50 38 102q5 22 5 44q0 42 -20 80q-45 79 -127 96q-45 8 -54 8v39h446v-42h-24q-55 -3 -100 -35q-44 -32 -65 -81q-5 -12 -8 -25q-3 -12 -4 -25q-1 -4 -1 -9q-4 -39 -14 -80
q-16 -57 -47 -110q-30 -52 -72 -93q-42 -43 -93 -72q-24 -15 -49 -25q27 -5 54 -11q80 -23 147 -74q82 -63 126 -153t44 -191v-254q0 -47 33.5 -80.5t79.5 -33.5l14 1v-42h-445v42z" />
    <glyph glyph-name="L" unicode="L" horiz-adv-x="1275" 
d="M5 46l14 -2q48 2 80.5 34.5t32.5 79.5v1122q0 47 -33 80t-80 33l-14 -1v43h445v-43l-14 1q-49 -1 -81.5 -33.5t-32.5 -79.5v-1122q0 -47 33.5 -80.5t80.5 -33.5h494q79 3 133 57t54 132v13h42v-243h-1154v43z" />
    <glyph glyph-name="M" unicode="M" horiz-adv-x="1742" 
d="M1473 1282v-1122q0 -47 33 -80.5t80 -33.5l14 2v-43h-444v43l13 -2q49 2 81.5 34.5t32.5 79.5v1030l-426 -809l-26 -49l-1 -2l-70 -132l-514 978v-942q2 -80 56.5 -134t131.5 -54h13v-41h-444v41h13q77 0 131.5 54t56.5 134v973q-2 80 -56.5 134t-131.5 54h-13v41h305
l27 -52l3 -5l499 -949l476 904l54 102h233v-42l-14 1q-48 -1 -80.5 -34t-32.5 -79z" />
    <glyph glyph-name="N" unicode="N" horiz-adv-x="1579" 
d="M1448 1394h-13q-78 0 -132 -54t-57 -133v-974q3 -80 57 -134t132 -54h13v-41h-306l-35 47l-857 1167q-1 -6 -1 -11v-974q3 -80 57 -134t132 -54h13v-41h-445v41h13q78 0 132 54t57 134v974q-3 79 -57 133t-132 54h-13v42h308l890 -1213q1 5 1 10v974q-3 79 -57 133
t-132 54h-13v42h445v-42z" />
    <glyph glyph-name="O" unicode="O" horiz-adv-x="1584" 
d="M211 1233q104 103 236.5 158t278.5 55q145 0 277.5 -55t236.5 -158q103 -104 158 -236.5t55 -277.5q0 -146 -55 -278.5t-158 -236.5q-104 -103 -236.5 -158t-277.5 -55q-146 0 -278.5 55t-236.5 158q-103 104 -158 236.5t-55 278.5q0 145 55 277.5t158 236.5zM1106 1099
q-114 113 -251.5 174.5t-276.5 61.5q-202 0 -337 -131q-132 -137 -132 -336q0 -36 5 -74q33 -253 231 -456q114 -113 251.5 -174.5t276.5 -61.5q203 0 338 132q66 67 98.5 153.5t32.5 183.5q0 133 -60 271.5t-176 256.5z" />
    <glyph glyph-name="P" unicode="P" horiz-adv-x="1404" 
d="M7 45l14 -1q48 1 80.5 33.5t32.5 79.5v1123q0 47 -33 80.5t-80 33.5l-14 -2v43h783q6 0 14 -1h2l44 -4v-1q26 -3 50 -10q136 -35 236 -134q150 -157 150 -362t-150 -362q-100 -99 -236 -134q-62 -16 -126 -16q-63 0 -125 16h-2q-135 35 -235 134q-52 52 -87 116v-520
q1 -48 33.5 -80.5t79.5 -32.5l14 1v-43h-445v43zM438 1394q-47 0 -80 -33.5t-33 -80.5v-497q34 -110 116 -192q144 -138 333 -138q188 0 332 138q65 69 65 173q0 98 -53.5 210t-153.5 214q-146 144 -315 191q-15 4 -30 7q-33 6 -64 8h-117z" />
    <glyph glyph-name="Q" unicode="Q" horiz-adv-x="1580" 
d="M1321 -3q-36 -13 -80 -13q-52 0 -108 19q-48 16 -88 61q-151 -74 -320 -74q-35 0 -70 3q-22 2 -43 6q-261 43 -437 243q-177 213 -177 475q0 145 55 277.5t158 236.5q104 103 236.5 158t277.5 55q146 0 278 -55t236 -158q104 -104 158.5 -236.5t54.5 -277.5
q0 -159 -64.5 -301t-184.5 -247q1 0 2 -1q40 -8 81 -10h6q85 0 139 44l22 20l-1 -30q-10 -141 -131 -195zM887 148q-65 0 -129 -36q58 -11 115 -11q64 0 123 14q-47 33 -109 33zM855 206q29 4 60 4q41 0 81 -5.5t78 -12.5q18 -3 34 -6q19 -4 37 -7q35 23 65 53
q66 67 98.5 153.5t32.5 183.5q0 133 -60 271.5t-176 256.5q-114 113 -251 174.5t-276 61.5q-202 0 -338 -131q-97 -99 -123 -244q-7 -45 -7 -92q0 -113 42 -231q68 -180 206 -310q109 -99 237 -161q8 -5 17 -8q16 -9 32.5 -16.5t32.5 -7.5h1q6 0 10 1v1h1q26 22 57 37
q49 27 109 35z" />
    <glyph glyph-name="R" unicode="R" horiz-adv-x="1414" 
d="M1245 47l14 1v-43h-430l-1 44l14 -1q8 0 18 2t14 9q1 3 1 7q0 12 -12 33t-41 51l-2 3l-345 354l-12 9h-1q-30 23 -55 48q-10 11 -21 23q-39 43 -66 93v-519q0 -47 33 -80.5t80 -33.5l14 1v-43h-445v43l14 -1q47 0 80 33.5t33 79.5v1124q0 47 -33 80t-80 33l-14 -1v43h767
q8 0 16 -1h16l33 -3l11 -2q26 -4 50 -10q136 -35 236 -134q75 -76 112.5 -170t37.5 -192q0 -99 -37.5 -193t-112.5 -170q-100 -98 -236 -134q-61 -16 -126 -16h-3l233 -239l4 -5l1 -1q52 -52 121.5 -87t119.5 -35zM320 1284v-498q34 -110 116 -192l14 -14q127 -114 298 -124
h21q188 0 332 138q67 73 67 184q0 99 -50.5 211t-148.5 212q-72 70 -157 114.5t-168 66.5q-15 4 -30 7q-32 7 -64 8h-117q-47 0 -80 -33t-33 -80z" />
    <glyph glyph-name="S" unicode="S" horiz-adv-x="1242" 
d="M714 834q219 -70 353 -210q87 -97 87 -214q0 -154 -156 -277q-165 -122 -370 -143q-30 -2 -59 -2q-16 0 -33 1q-115 8 -217.5 51t-192.5 93l-4 2q-19 13 -37 13q-4 0 -9 -2q-21 -8 -23 -56v-13h-42v447h43l-1 -14v-4q0 -28 14.5 -52.5t33.5 -46.5q156 -185 353 -264
q89 -35 180 -44q33 -3 66 -3q63 0 120 12q96 22 165 78q62 50 68 107q1 8 1 16t-1 17q-9 85 -61.5 145.5t-129.5 103t-162 72.5q-85 29 -170 43q-103 16 -226 63q-35 14 -90 45.5t-109 82.5q-103 99 -103 213q0 167 196 270q88 43 178.5 62t158.5 19q5 1 11 1q188 0 358 -92
q12 -8 22 -8q2 0 4 1q5 3 8 8q20 30 20 64l-1 13h42v-421h-44l2 15v7q0 27 -19 57q-23 30 -52 52q-160 134 -309 182q-89 28 -175 28q-94 0 -174 -33q-60 -25 -91 -62q-30 -39 -30 -85q0 -85 75 -154q46 -38 100.5 -62.5t111.5 -43.5l11 -4q68 -23 130 -32q66 -10 179 -42z
" />
    <glyph glyph-name="T" unicode="T" horiz-adv-x="1355" 
d="M1 1193v243h1224v-243h-42v13q0 78 -54 132t-133 57h-176q-47 -2 -79.5 -34.5t-32.5 -78.5v-1123q0 -47 33.5 -80.5t79.5 -33.5l14 1v-42h-445v42l14 -1q49 1 81.5 34t32.5 80v1125q-2 47 -34 78t-79 33h-175q-79 -3 -133 -57t-54 -132v-13h-42z" />
    <glyph glyph-name="U" unicode="U" horiz-adv-x="1736" 
d="M1167 1392v43h448v-43l-14 1q-49 -1 -81.5 -34t-32.5 -80v-533q0 -296 -129 -490q-123 -182 -338 -246q-61 -17 -108 -17q-129 0 -251 44q-117 43 -214 122q-198 166 -253 416q-16 75 -16 152v442q-2 94 -57 158.5t-133 64.5h-13v44h448v-44h-13q-78 0 -132.5 -64
t-57.5 -159v-190q3 -144 77 -307.5t190 -282.5q118 -125 241 -200t315 -84h9q103 3 173 74t70 173v929q0 28 -14 53q-37 59 -100 59z" />
    <glyph glyph-name="V" unicode="V" horiz-adv-x="1572" 
d="M1100 1396v41h439v-42l-14 1q-49 0 -96.5 -34t-69.5 -84l-1 -2l-500 -1216l-22 -54h-307v42l14 -1q41 0 86 27q14 9 22 22q18 27 18 63q0 33 -15 71l-400 973q-36 82 -114 137.5t-158 55.5h-13v41h438v-41h-13q-43 0 -73 -20h-1q-43 -31 -43 -89q0 -34 16 -74l400 -973
q11 -25 27 -49l450 1095l1 2q10 25 10 46t-10 36q-18 26 -57 26h-14z" />
    <glyph glyph-name="W" unicode="W" horiz-adv-x="1853" 
d="M1397 1435h440v-42l-14 1q-49 0 -93.5 -34t-61.5 -83l-393 -1218l-17 -55h-309v42h17q56 0 92 34q4 4 8 7q30 36 30 85q0 27 -10 57l-138 428l-193 -598l-17 -55h-309v42h17q56 0 92 34l7 7q30 36 30 85q0 28 -9 57l-314 973q-28 82 -101 137t-151 55h-13v41h437v-41h-13
q-45 0 -76 -20h-1q-52 -37 -52 -104q0 -28 10 -60l10 -30l304 -943q4 -10 8 -21l238 738l-80 248q-28 82 -100.5 137t-151.5 55h-13v41h437v-41h-13q-10 0 -20 -1q-32 -4 -56 -19h-1q-51 -36 -51 -103q0 -28 10 -61l313 -973q4 -10 9 -21l186 579q81 252 158 488v2
q7 20 7 37q0 26 -14 45q-19 27 -60 27h-15v41z" />
    <glyph glyph-name="X" unicode="X" horiz-adv-x="1400" 
d="M443 44v-29l-1 -13h-437l1 43l13 -1q50 0 105 34.5t87 85.5l369 619l-252 420q-51 82 -141 138.5t-170 56.5h-13v41h436v-41h-13q-62 -1 -84 -40q-10 -18 -10 -41q0 -43 33 -101l237 -394l278 467l1 2q19 33 19 58q0 13 -5 23q-19 26 -46 25l-13 1v41h436v-41h-13
q-49 0 -104 -34.5t-87 -86.5l-1 -2l-368 -617l249 -415l2 -4q52 -82 142 -138.5t169 -56.5h14v-42h-436v42h12q61 3 83 44q9 18 9 41q0 43 -31 97l-236 394l-279 -469q-21 -37 -21 -63q0 -13 5 -23q7 -12 21 -16.5t26 -4.5h14z" />
    <glyph glyph-name="Y" unicode="Y" horiz-adv-x="1268" 
d="M811 1394v40h435v-41h-13q-49 0 -104 -34.5t-87 -85.5l-296 -497v-620q0 -46 33.5 -79.5t79.5 -33.5l14 1v-42h-444v42l13 -1q47 0 80.5 33.5t33.5 80.5v621l-252 421q-51 82 -140.5 138t-169.5 56h-13v41h434v-41h-12q-62 -1 -84 -39q-10 -18 -10 -42q0 -43 33 -100
l235 -393l279 467q19 32 19 58q0 13 -6 24q-18 25 -46 25z" />
    <glyph glyph-name="Z" unicode="Z" horiz-adv-x="1337" 
d="M7 1434h1218v-41h-13q-87 0 -139 -72l-3 -5l-824 -1269h714q79 3 133 57t54 131v13h41v-242h-1192l901 1387h-661q-79 -3 -133 -57t-54 -131v-13h-42v242z" />
    <glyph glyph-name="bracketleft" unicode="[" horiz-adv-x="550" 
d="M408 1510h-234v-1585h234v-71h-410v1726h410v-70z" />
    <glyph glyph-name="backslash" unicode="\" horiz-adv-x="1167" 
d="M144 1349q-6 11 -13 20q-47 60 -133 60l4 16h295l632 -1356q19 -36 57.5 -55t87.5 -19l-4 -16h-296z" />
    <glyph glyph-name="bracketright" unicode="]" horiz-adv-x="560" 
d="M-2 1510v70h410v-1726h-410v71h234v1585h-234z" />
    <glyph glyph-name="asciicircum" unicode="^" horiz-adv-x="1060" 
d="M980 1051l3 -13h-235l-254 245l-254 -245h-236l4 13q78 0 149 58l259 249l78 76l78 -76l259 -249q71 -58 149 -58z" />
    <glyph glyph-name="underscore" unicode="_" horiz-adv-x="1313" 
d="M0 -206v91h1255v-91h-1255z" />
    <glyph glyph-name="grave" unicode="`" horiz-adv-x="288" 
d="M185 1345q0 -34 -21 -60t-54 -34h-2q0 -59 40 -101l11 -10l-32 -25l-8 6q-2 2 -15 13.5t-31.5 31.5t-36.5 47.5t-30 61t-12 70.5q0 39 28 67t67 28q40 0 68 -28t28 -67z" />
    <glyph glyph-name="a" unicode="a" horiz-adv-x="1267" 
d="M514 5q-142 0 -258 69.5t-185.5 185.5t-69.5 258q0 141 69.5 257.5t185.5 186t258 69.5q191 0 345 -133q76 -70 120 -163q44 -96 47 -203l1 -7v-368q2 -47 34.5 -79t78.5 -32l14 2v-43h-179q-59 0 -103 46l-5 5q-1 2 -3 4q-2 3 -5 7q-1 2 -2 3q-6 10 -10 20q-6 15 -9 30
q-146 -115 -324 -115zM182 852l-3 -2q-35 -36 -52 -83.5t-17 -101.5q0 -91 45 -189.5t130 -185.5q84 -83 182.5 -129.5t192.5 -46.5q107 0 177 61v453q-40 64 -95 118q-84 83 -182.5 129.5t-192.5 46.5q-112 0 -185 -70z" />
    <glyph glyph-name="b" unicode="b" horiz-adv-x="1309" 
d="M20 1397l-14 -1v43h446v-43l-14 1q-48 -1 -80 -33t-33 -80v-367q146 115 324 115q142 0 259 -69.5t186.5 -186.5t69.5 -259t-69.5 -259t-186.5 -186.5t-259 -69.5q-47 0 -94 8q-130 25 -232 108q-10 -50 -48.5 -83t-89.5 -33h-179v43l14 -1q48 1 81 33.5t33 79.5v1126
q0 47 -33.5 80.5t-80.5 33.5zM796 111q114 0 188 71q36 36 53.5 84.5t17.5 103.5q0 91 -45.5 190t-131.5 186q-84 84 -183 130.5t-193 46.5q-106 0 -177 -61v-455q39 -65 95 -119q84 -84 183 -130.5t193 -46.5z" />
    <glyph glyph-name="c" unicode="c" horiz-adv-x="1063" 
d="M522 -11h-3q-213 4 -366 156q-150 159 -150 363v8q6 211 155 361q159 149 364 149q146 0 274 -79h1q1 -1 4 -1t6 3q18 28 18 61l-1 14h43v-423h-43l1 14q0 35 -19 63q-7 10 -15 19q-18 21 -39 41q-24 26 -52 47q-167 131 -326 131q-115 0 -189 -72q-71 -74 -71 -189
q0 -34 6 -70q32 -167 171 -308q85 -84 185 -131t194 -47q116 0 189 72l3 3q14 15 24 30l8 12l13 -10l23 -18l-8 -11q-75 -90 -179.5 -139t-220.5 -49z" />
    <glyph glyph-name="d" unicode="d" horiz-adv-x="1274" 
d="M177 133q-6 5 -17 16q-154 158 -154 367q0 108 44 207t124 173q154 134 346 134q178 0 324 -115v366q-2 48 -34.5 80.5t-79.5 32.5l-14 -1v43h445v-43l-14 1q-48 -1 -80.5 -33.5t-32.5 -79.5v-1124q1 -48 33.5 -81t79.5 -33l14 2v-43h-178q-51 0 -89.5 33t-48.5 83
q-147 -116 -325 -116q-47 0 -93 8q-142 27 -250 123zM844 172v454q-41 63 -95 119q-84 83 -183 129.5t-193 46.5q-109 0 -181 -65l-6 -6q-71 -76 -71 -188q0 -119 79 -253q41 -65 97 -122q84 -83 183 -129.5t193 -46.5q105 0 177 61z" />
    <glyph glyph-name="e" unicode="e" horiz-adv-x="1178" 
d="M883 146q-56 -57 -128 -95q-115 -60 -242 -60q-143 0 -260.5 70t-187.5 188t-70 261t70 261t187.5 188t260.5 70q144 0 261.5 -70t187.5 -188t70 -261q0 -27 -3 -54q0 -7 -1 -16l-2 -11h-857q45 -81 114 -150q178 -172 379 -177q117 0 189 71zM365 918q-115 0 -189 -71
q-63 -65 -70 -164q-1 -14 -1 -28q0 -87 43 -184h759q-41 147 -163 270q-84 84 -184 130.5t-195 46.5z" />
    <glyph glyph-name="f" unicode="f" horiz-adv-x="893" 
d="M125 157v822h-125v41h126q3 38 4 49q10 58 34 111q43 95 129 160q26 19 54 35q85 45 193 45q55 0 120 -12q14 -2 28 -5q72 -15 145 -19h6q73 0 110 32l22 20v-30q-9 -116 -109 -161q-4 -1 -8 -3q-26 -8 -56 -8q-36 0 -78 11q-8 3 -16 5l-12 4q-18 6 -34 12q-38 14 -77 23
q-13 3 -29 7q-28 7 -60 13.5t-63 6.5q-51 0 -77 -24q-18 -16 -28 -48q-8 -26 -11 -59v-165h454v-41h-454v-820q0 -47 33 -80t79 -33l14 2v-43h-439v43l14 -2q47 2 78.5 33t32.5 78z" />
    <glyph glyph-name="g" unicode="g" horiz-adv-x="1264" 
d="M371 17q-160 49 -264 182q-104 141 -104 310q0 141 69 257.5t185.5 185.5t257.5 69q179 0 325 -117q2 20 10 38q4 10 10 20q2 1 2 4l3 3v1q2 2 2 3l3 3q2 3 5 6q45 45 103 45h178v-42l-14 1q-46 0 -78 -31.5t-35 -78.5v-832q0 -57 -5 -103q-9 -57 -33 -112
q-59 -126 -185 -196q-85 -46 -195 -46q-55 0 -121 12q-14 3 -28 5q-36 7 -72.5 13t-73.5 6h-7q-73 0 -111 -32l-22 -20l1 30q9 118 110 163q3 2 7 2q27 9 57 9q36 0 78 -11q9 -3 16 -5t13 -4q18 -6 35 -12q38 -14 77 -24q13 -3 29 -7q28 -7 60.5 -13.5t63.5 -6.5q53 0 78 24
q18 16 28 49q12 47 12 98q0 19 -1 37v214q-31 -26 -66 -46q-5 -4 -11 -6q-11 -7 -22 -12q-107 -53 -226 -53h-13q-12 0 -25 1q-54 4 -106 19zM181 840q-69 -76 -69 -185q0 -90 44.5 -189t130.5 -185q125 -123 276 -163q50 -12 98 -12q26 0 51 4h1q76 12 127 59v445
q-1 0 -1 1q-40 65 -97 122q-83 82 -181.5 128.5t-192.5 46.5q-112 0 -185 -69q0 -1 -1 -1v-1z" />
    <glyph glyph-name="h" unicode="h" horiz-adv-x="1342" 
d="M447 46v-44h-444v44l14 -3q48 2 79.5 33.5t33.5 78.5v1128q0 47 -33 80t-80 33l-14 -1v42h444v-42l-14 1q-47 -1 -79 -33t-34 -80v-467q41 80 112 134q106 79 234 79t234 -79q101 -77 138 -198q16 -54 16 -111v-410q2 -80 56.5 -134t131.5 -54h13v-41h-444v41h13
q77 0 131.5 54t56.5 134v232q-6 26 -18 56q-52 121 -180 253q-4 5 -8 9q-50 50 -107 84q-33 21 -79 39.5t-95 18.5q-60 0 -103 -36q-47 -41 -74.5 -106.5t-27.5 -137.5v-489q0 -4 1 -8q16 -95 112 -103z" />
    <glyph glyph-name="i" unicode="i" horiz-adv-x="564" 
d="M439 47v-42h-440v42l14 -1q48 2 80 34t32 78v710q-2 47 -34 78.5t-78 31.5l-14 -1v42h440v-42l-14 1h-8q-45 -4 -74.5 -36t-29.5 -76v-708q1 -47 33.5 -79.5t78.5 -32.5zM219 1156q-39 0 -66.5 27.5t-27.5 66.5t27.5 66.5t66.5 27.5t66.5 -27.5t27.5 -66.5t-27.5 -66.5
t-66.5 -27.5z" />
    <glyph glyph-name="j" unicode="j" horiz-adv-x="649" 
d="M414 -186q-58 -128 -186 -197q-86 -46 -194 -46q-55 0 -121 12q-15 3 -28 5q-73 16 -147 20h-7q-72 0 -110 -33l-23 -20l1 30q9 118 110 163q4 2 7 3q27 8 58 8q35 0 78 -11q8 -2 16 -5q6 -2 13 -4l34 -12q38 -14 77 -24q14 -3 30 -7q28 -7 60.5 -13.5t63.5 -6.5
q51 0 78 24q17 16 28 50q13 49 13 102q0 19 -1 37v981q-2 48 -34 80.5t-79 32.5l-14 -1v42h443v-42l-13 1q-34 0 -62 -18t-42 -49q-2 -6 -5 -13q-5 -16 -5 -33v-857q0 -42 -5 -87q-11 -60 -34 -112zM359 1161q-40 0 -67.5 28t-27.5 67t27.5 67t67.5 28q39 0 66.5 -28
t27.5 -67t-27.5 -67t-66.5 -28z" />
    <glyph glyph-name="k" unicode="k" horiz-adv-x="1163" 
d="M11 1389l-14 -1v42h178q57 0 98 -40.5t41 -98.5v-688h150q6 1 11 1q22 2 42 8q20 5 40 12q19 8 37 18t34 23q16 12 31 26l27 30q12 17 22 34q11 18 19 37q6 15 9 25v205h244v-42h-22q-11 0 -23 -2h-1q-39 -7 -73 -30q-16 -11 -30 -25q-13 -14 -24 -30q-17 -29 -24 -62
q-4 -17 -10 -35l-1 -2q-4 -10 -10 -24q-8 -20 -20 -40q-12 -19 -25 -36q-14 -17 -30 -33q-16 -15 -33 -29q-18 -13 -37 -24l-10 -6q39 -3 76 -15q38 -13 72 -33q78 -47 123 -125q47 -83 47 -175v-103q0 -46 33.5 -79.5t79.5 -33.5l14 1v-42h-180q-58 2 -96.5 40.5
t-40.5 97.5v119q0 120 -45 214q-43 84 -104 93q-4 1 -8 1h-264v-412q2 -47 34.5 -79.5t78.5 -32.5l14 1v-42h-444v42l14 -1q48 1 80.5 34t32.5 79v1125q0 47 -33 80t-80 33z" />
    <glyph glyph-name="l" unicode="l" horiz-adv-x="543" 
d="M410 46l14 2v-43h-178q-27 0 -53 10q-80 37 -86 125v1145q-3 46 -35.5 78t-77.5 32l-14 -2v43h179q58 0 102 -46q3 -2 5 -5q2 -2 3 -4l2 -2v-1h1l2 -4t2 -3q6 -10 11 -20q7 -19 10 -38v-1154q1 -48 33.5 -80.5t79.5 -32.5z" />
    <glyph glyph-name="m" unicode="m" horiz-adv-x="1645" 
d="M315 890q90 132 237 132q85 0 154.5 -47t102.5 -126q33 79 103 126t155 47q28 0 55 -6q57 -11 104 -44q46 -33 76 -81q15 -23 25 -50q6 -14 10 -31q4 -22 6 -42q3 -40 2 -80v-457q2 -79 55.5 -132.5t130.5 -53.5h13v-41h-440v41h13q77 0 130.5 53.5t55.5 132.5v334
q1 98 -73 191t-229 134q-27 6 -51 6q-21 0 -39 -5q-18 -4 -31 -13q-20 -12 -32 -43q-7 -17 -12 -35q-6 -27 -6 -56v-513q2 -79 56 -132.5t130 -53.5h13v-41h-440v41h13q77 0 130.5 53.5t56.5 132.5v334q0 98 -74 191t-229 134q-27 6 -51 6q-21 0 -39 -5q-18 -4 -31 -13
q-20 -12 -32 -43q-7 -17 -11 -35q-7 -27 -7 -56v-597q17 -94 112 -102l14 3v-44h-441v44l15 -3q47 2 78.5 33t32.5 78v716q-2 46 -34.5 77.5t-77.5 31.5l-14 -1v42h178q57 0 101 -44l1 -1q2 -3 5 -6q1 -2 2 -3q2 -2 3 -4l1 -1l1 -2q2 -2 3 -4l4 -8q3 -5 6 -12t5 -14
q5 -16 5 -33z" />
    <glyph glyph-name="n" unicode="n" horiz-adv-x="1351" 
d="M439 47v-44h-441v44l14 -3q47 2 78.5 33t33.5 78v716q-2 47 -34.5 78t-77.5 31l-14 -1v43h177q58 0 102 -45v-1q3 -2 5 -5q2 -2 3 -4l2 -2l1 -2q1 -1 2 -3q1 -1 2 -3q3 -4 5 -8l6 -12q3 -7 5 -15q5 -16 5 -35v-77q40 79 111 134q105 78 232 78t232 -78q100 -77 136 -197
q16 -54 16 -110v-407q3 -79 56.5 -132.5t130.5 -53.5h13v-41h-441v41h13q77 0 131 53.5t56 132.5v230q-6 27 -18 56q-46 110 -164 238q-37 42 -97 86t-139 67q-36 9 -68 9h-13q-54 -4 -89 -38v-1q-98 -104 -98 -240v-492q17 -93 111 -101z" />
    <glyph glyph-name="o" unicode="o" horiz-adv-x="1162" 
d="M517 1025q142 0 259 -69.5t186.5 -186.5t69.5 -259t-69.5 -259t-186.5 -186.5t-259 -69.5t-258.5 69.5t-186 186.5t-69.5 259q0 110 43 206.5t118 167.5l2 2v-1q69 66 159 103t192 37zM664 105q116 0 188 70q36 36 53.5 84.5t17.5 103.5q0 91 -45.5 190t-131.5 186
q-84 83 -182.5 129.5t-193.5 46.5q-114 0 -187 -71q-71 -73 -71 -185q0 -35 7 -72q31 -166 169 -306q85 -83 183.5 -129.5t192.5 -46.5z" />
    <glyph glyph-name="p" unicode="p" horiz-adv-x="1288" 
d="M451 -421h-179q-28 0 -53 10q-81 37 -88 126v1153q-2 47 -35 79t-78 32l-15 -1v43h180q59 0 104 -46q3 -3 5 -6l3 -3l2 -4l1 -1q1 -1 2 -3q1 -1 2 -3q6 -10 11 -20q6 -15 8 -30q147 116 327 116q142 0 259 -70t187 -187t70 -260q0 -142 -70 -259t-187 -187t-259 -70
q-179 0 -325 115v-368q1 -49 34 -81.5t80 -32.5h-1l15 1v-43zM648 30q95 0 181 35.5t154 103.5q36 37 53.5 85t17.5 104q0 90 -45 189.5t-131 186.5q-85 84 -184 130.5t-194 46.5q-106 0 -177 -61v-691q142 -129 325 -129z" />
    <glyph glyph-name="q" unicode="q" horiz-adv-x="1288" 
d="M846 -283v389q-147 -116 -325 -116q-47 0 -94 9q-142 27 -251 124l-2 1q-8 8 -15 14q-155 159 -155 369q0 109 44 208.5t126 174.5q154 134 347 134q179 0 327 -117q1 9 3 17q2 7 5 14q5 10 11 20l2 4l2 2l1 2q1 1 2 3l3 3q2 3 5 6q45 46 104 46h180v-43l-14 1
q-48 -1 -80 -32.5t-34 -78.5v-1134q1 -49 34 -81.5t80 -32.5l14 1v-43h-180q-27 0 -52 10q-81 37 -88 126zM669 100q105 0 177 61v457q-39 63 -95 119q-85 84 -184 130.5t-194 46.5q-109 0 -182 -65l-6 -6q-71 -76 -71 -188q0 -119 80 -255q40 -66 97 -123
q85 -84 184.5 -130.5t193.5 -46.5z" />
    <glyph glyph-name="r" unicode="r" horiz-adv-x="1042" 
d="M890 672h-42l1 14q-4 53 -44 92.5t-78 64.5q-40 26 -84 47l-8 4q-56 27 -109 27q-33 0 -59 -10q-61 -23 -105 -106q-42 -79 -42 -164v-493q17 -94 112 -101l14 2v-44h-442v44l15 -2q47 1 78.5 32.5t33.5 78.5v717q-3 46 -35 77.5t-78 31.5l-14 -1v43h178q58 0 102 -45
l1 -1q2 -2 4 -5l1 -1q1 -1 2 -3q1 -1 2 -3l1 -1q1 -1 2 -3t2 -3q3 -4 5 -8l6 -12q3 -8 5 -15q5 -16 5 -35v-77q40 79 111 134q105 78 232 78q71 0 136 -25q10 -4 19 -8q4 -2 9 -2q8 0 14.5 6t7.5 16l-1 14h42v-355z" />
    <glyph glyph-name="s" unicode="s" horiz-adv-x="956" 
d="M793 436q11 -21 18 -42q13 -40 13 -81q0 -35 -9 -69q-41 -124 -168.5 -189.5t-255.5 -65.5q-148 0 -278 81q-9 6 -20 6q-12 0 -23 -8t-15 -24q-1 -9 -1 -18l1 -14h-43v448h43l-1 -14q0 -31 17 -60q2 -3 3 -4q38 -57 86 -106q10 -9 19 -18q140 -127 301 -154q33 -5 63 -5
q60 0 108 19q15 6 35.5 19.5t32.5 38.5q6 14 6 31q0 26 -15 62q-29 61 -75.5 98t-81.5 53q-67 31 -141 50l-76 24l-4 2q-113 33 -221 97q-47 28 -80 76t-33 107q0 24 7 49q28 96 160 155q104 45 225 45h5q99 -1 191 -39q18 -6 34 -15q3 -1 6 -1q9 0 12 9q4 15 4 28l-2 14h44
v-329h-44l2 14q0 32 -17 59q-18 29 -42 51q-54 46 -108 76q-85 42 -180 46q-26 3 -52 3t-51 -5t-47 -18q-17 -11 -28.5 -26.5t-11.5 -34.5q0 -27 19.5 -50.5t45 -42t45.5 -31.5q79 -52 168 -78q34 -10 69 -19q70 -17 139 -43q59 -22 108 -55q60 -39 94 -102z" />
    <glyph glyph-name="t" unicode="t" horiz-adv-x="938" 
d="M6 978v42h126v239q0 46 -33 79t-80 33h1l-14 -1v43h443v-43l-14 1q-48 -1 -80 -32.5t-33 -79.5v-239h457v-42h-457v-604q0 -27 8 -53q15 -43 47.5 -76.5t69.5 -58.5q80 -59 159 -76q29 -7 54 -7h2q45 0 77 19q35 23 59 60l8 10l34 -24l-8 -10q-56 -76 -138.5 -118.5
t-174.5 -42.5q-128 0 -234 78q-100 78 -137 198q-16 54 -16 110v595h-126z" />
    <glyph glyph-name="u" unicode="u" horiz-adv-x="1328" 
d="M779 978v44h441v-44l-14 2q-47 -1 -78.5 -32t-33.5 -78v-717q2 -46 34.5 -77.5t77.5 -31.5l14 1v-42h-177q-58 0 -102 44l-1 1q-2 3 -5 6q-1 2 -2 3q-1 2 -2 3l-1 2l-2 2q-1 2 -3 4l-4 8q-3 5 -6 12t-5 14q-5 17 -5 35v77q-40 -79 -111 -133q-105 -78 -232 -78t-232 78
q-100 77 -137 197q-15 54 -15 109v407q-3 79 -56.5 132.5t-130.5 53.5h-13v42h441v-42h-13q-77 0 -131 -53.5t-56 -132.5v-230q6 -26 18 -55q46 -110 164 -239q37 -42 97 -85.5t139 -66.5q36 -10 68 -10q6 0 13 1q54 4 89 38q98 105 98 240v492q-17 94 -112 101z" />
    <glyph glyph-name="v" unicode="v" horiz-adv-x="1293" 
d="M381 46l14 -1q39 0 79.5 24t67.5 62l-267 657q-35 82 -112.5 136.5t-155.5 54.5h-13v41h434v-41h-13q-67 0 -99 -45q-17 -27 -17 -63q0 -34 15 -73l252 -619l282 695q9 24 9 44q0 21 -10 36q-17 25 -56 25l-14 -1v42h434v-42l-14 1h-8q-48 -4 -92 -37t-64 -80l-348 -858
h-304v42z" />
    <glyph glyph-name="w" unicode="w" horiz-adv-x="1678" 
d="M789 47l13 -1q40 0 79 24t63 63l-131 385l-173 -506l-5 -7h-303v42l14 -1q40 0 79 24t63 63l-224 657q-30 80 -103.5 134.5t-151.5 54.5h-13v42h405v-42h-13q-11 0 -33.5 -11.5t-40.5 -34.5q-21 -31 -21 -72q0 -30 11 -63l207 -608l207 606q-33 78 -101 130.5t-122 52.5
h-13v42h405v-42h-13q-45 0 -76 -20q-17 -10 -28 -27q-21 -30 -21 -71q0 -18 4 -37q52 -156 214 -634l233 683q7 20 7 37q0 25 -13 43q-20 26 -59 26l-14 -1v43h435v-43l-14 1h-8q-48 -4 -89 -36.5t-58 -79.5l-293 -858h-305v42z" />
    <glyph glyph-name="x" unicode="x" horiz-adv-x="1182" 
d="M1037 45v-41h-430l-1 41h13q62 0 83 37q9 16 9 38q0 44 -36 104l-120 192q-111 -178 -167 -268q-22 -36 -22 -63q0 -12 5 -21q7 -11 19.5 -15t24.5 -4h15v-41h-431v42l14 -1q49 0 104 34t88 85l253 407l-134 215q-54 82 -143.5 137t-168.5 55h-13v41h430v-41h-13
q-60 0 -82 -36q-9 -16 -9 -38q0 -44 36 -104l5 -9l115 -184l166 267q23 37 23 63q0 12 -5 21q-7 12 -20 16t-25 4h-14v41h431v-42l-14 1q-49 0 -104 -34t-88 -85l-1 -1l-252 -405l134 -216q54 -82 143.5 -137t168.5 -55h13z" />
    <glyph glyph-name="y" unicode="y" horiz-adv-x="1350" 
d="M1099 868v-852q-1 -33 -6 -86q-9 -57 -34 -112q-58 -126 -184 -195q-85 -46 -193 -46q-55 0 -121 12q-13 3 -27 5q-73 16 -146 20h-7q-72 0 -110 -33l-22 -19l1 29q8 118 109 162q4 2 7 3q27 8 57 8q36 0 78 -11q8 -2 16 -5q6 -1 12 -4q18 -5 35 -12q37 -14 76 -23
q14 -3 30 -7q27 -7 59.5 -13.5t63.5 -6.5q51 0 77 24q18 16 28 49q8 26 10.5 54t2.5 56v61l-1 103v185q-40 -79 -111 -133q-106 -78 -232 -78q-127 0 -232 78q-100 77 -137 197q-16 54 -16 109v407q0 77 -54.5 131.5t-131.5 54.5h-13v41h441v-41h-13q-77 0 -132 -54.5
t-55 -131.5v-230q6 -26 18 -56q51 -119 178 -251l8 -8q67 -66 142 -103.5t140 -37.5q14 0 26 2h1q3 0 7 1l2 1q3 0 6 1q3 0 5 1l1 1q5 0 8 2l4 2h1q3 1 5 2q5 3 9 5q3 2 5 3q8 4 14 10l5 5l3 2v1q98 105 98 240v481q0 47 -32.5 79.5t-79.5 32.5l-14 -1v42h441v-42l-14 1
q-33 0 -61 -18t-42 -49q-2 -6 -5 -13q-4 -15 -4 -32z" />
    <glyph glyph-name="z" unicode="z" horiz-adv-x="1016" 
d="M875 244v-242h-881l558 978h-306q-79 -3 -132.5 -56.5t-53.5 -130.5v-13h-42v241h823v-42l-14 1h-8q-77 -4 -142 -119l-467 -817h438q79 2 132.5 56t53.5 131v13h41z" />
    <glyph glyph-name="asciitilde" unicode="~" horiz-adv-x="1491" 
d="M2 604l55 85l7 10q4 6 7 11q9 11 16 21l8 10q5 5 9 10l8 10q5 4 9 10q37 38 82 70q45 31 99 52q53 20 111 26q8 1 15 1q8 0 15 1h29q8 -1 15 -1l15 -2l7 -1q3 0 7 -1l15 -2q58 -11 112 -37l6 -3l7 -4l13 -7q6 -3 12 -7q7 -4 13 -8q24 -16 46 -34l11 -10l3 -2l2 -2l5 -4
l18 -16l15 -13q9 -6 17 -13q33 -24 70 -40l4 -2q3 -1 5 -2l9 -3q6 -3 10 -4l9 -3q19 -6 40 -10l10 -1l10 -2l20 -2h42q85 5 171 44q68 28 168 100l5 -4l-28.5 -43.5t-102.5 -117.5l-10 -8l-11 -9q-10 -7 -21 -16q-12 -7 -23 -15q-12 -6 -24 -13q-49 -26 -105 -40
q-46 -11 -93 -11q-12 0 -23 1q-15 0 -29 2q-7 2 -15 2l-14 3l-15 3q-6 1 -14 4l-14 4q-3 0 -7 2l-7 2q-55 20 -105 52q-12 8 -24 17l-11 8l-5 5l-3 2l-2 1v1h-1l-1 1l-19 16l-4 5l-3 2l-2 1q-3 4 -8 7q-64 55 -141 76q-38 11 -80 12h-14q-34 0 -69 -6q-83 -18 -167 -64
q-72 -36 -164 -111z" />
    <glyph glyph-name="guillemotleft" unicode="&#xab;" horiz-adv-x="873" 
d="M194 677l156 -404q31 -47 93 -47l-2 -10h-143l-231 461l230 462h142l3 -10q-55 0 -85 -39l-8 -12v0zM390 677l113 -313q24 -36 72 -36l-2 -8h-108l-174 357l174 358h107l2 -8q-42 0 -65 -30q-4 -4 -7 -10z" />
    <glyph glyph-name="acute" unicode="&#xb4;" horiz-adv-x="283" 
d="M-6 1350q0 39 28 67t67 28q40 0 68 -28t28 -67q0 -37 -12 -70.5t-30 -61t-36.5 -47.5t-31.5 -31.5t-15 -13.5l-8 -6l-32 25l11 10q40 42 40 101h-2q-33 8 -54 34t-21 60z" />
    <glyph glyph-name="guillemotright" unicode="&#xbb;" horiz-adv-x="822" 
d="M388 677l-155 401v0l-8 12q-30 39 -85 39l3 10h142l230 -462l-232 -461h-142l-2 10q62 0 93 47zM192 677l-112 310q-3 6 -7 10q-23 30 -65 30l2 8h107l174 -358l-175 -357h-107l-2 8q48 0 71 36z" />
    <glyph glyph-name="gravecomb" unicode="&#x300;" horiz-adv-x="0" 
d="M185 1635q0 -34 -21 -60t-54 -34h-2q0 -59 40 -101l11 -10l-32 -25l-8 6q-2 2 -15 13.5t-31.5 31.5t-36.5 47.5t-30 61t-12 70.5q0 39 28 67t67 28q40 0 68 -28t28 -67z" />
    <glyph glyph-name="acutecomb" unicode="&#x301;" horiz-adv-x="0" 
d="M-6 1635q0 39 28 67t67 28q40 0 68 -28t28 -67q0 -37 -12 -70.5t-30 -61t-36.5 -47.5t-31.5 -31.5t-15 -13.5l-8 -6l-32 25l11 10q40 42 40 101h-2q-33 8 -54 34t-21 60z" />
    <glyph glyph-name="u0302" unicode="&#x302;" horiz-adv-x="0" 
d="M877 1377l3 -11h-213l-230 221l-229 -221h-214l4 11q70 0 135 53l234 226l70 68l71 -68l234 -226q65 -53 135 -53z" />
    <glyph glyph-name="u0401" unicode="&#x401;" horiz-adv-x="1285" 
d="M1154 1193h-42v13q0 78 -54 132t-134 57h-494q-47 0 -80 -33.5t-33 -80.5v-15h-1v-502q0 -19 24 -24h412q80 3 134 57t54 132v13h41v-445h-41v13q0 78 -54 132t-134 57h-412q-24 -4 -24 -24v-517q0 -47 33.5 -80t80.5 -33h494q80 2 134 56.5t54 131.5v13h42v-243h-1155
v43l14 -1q48 1 80.5 33.5t32.5 79.5v1126q-2 47 -34.5 79t-78.5 32l-14 -2v43h1155v-243zM344 1682q0 39 28 67t67 28q40 0 68 -28t28 -67q0 -40 -28 -67.5t-68 -27.5q-39 0 -67 27.5t-28 67.5zM869 1587q-39 0 -67 27.5t-28 67.5q0 39 28 67t67 28q40 0 67.5 -28t27.5 -67
q0 -40 -27.5 -67.5t-67.5 -27.5z" />
    <glyph glyph-name="u0410" unicode="&#x410;" 
d="M397 45v-42h-440q-1 0 -1 1v40q0 2 1 1h15q82 3 158.5 57.5t112.5 135.5l402 979q15 38 15 71q0 46 -29 78q-50 35 -97 35h-14v42h308l1 -1l525 -1278q22 -51 70 -85t97 -34l14 1v-43h-440l-1 1v40q0 2 1 1h14q39 0 56 26q10 15 10 37q0 21 -10 46l-1 1l-174 423
q-60 10 -122 10q-187 0 -342 -89t-232 -242q0 -1 -5.5 -15l-5.5 -14q-16 -41 -16 -75q0 -57 42 -88l1 -1q29 -19 71 -19h16zM682 1199l-322 -781q0 -1 1 -1q133 143 336 193q8 2 18 4q68 15 139 16h98q11 2 11 11v3l-251 611l-1 1q-16 -24 -26 -49z" />
    <glyph glyph-name="u0411" unicode="&#x411;" horiz-adv-x="1407" 
d="M768 4h-766v43l13 -1q49 1 81.5 33.5t32.5 79.5v1124q-1 48 -34 80.5t-79 32.5l-14 -1v42h1145l10 -5v-238h-42v13q0 78 -54 132t-134 57h-494q-47 0 -80.5 -33.5t-33.5 -80.5v-519q59 106 160 176q134 89 289 89q142 0 258 -69t185.5 -185.5t69.5 -257.5
q0 -128 -59 -237.5t-159.5 -181t-228.5 -89.5q-33 -4 -66 -4zM433 46h336q188 0 332 137q71 74 71 186q0 34 -7 70q-33 165 -169 305q-84 83 -182.5 129t-191.5 46q-114 0 -186 -70q-82 -82 -117 -192v-498q0 -47 33.5 -80t80.5 -33z" />
    <glyph glyph-name="u0412" unicode="&#x412;" horiz-adv-x="1382" 
d="M833 8q-33 -4 -65 -4h-767v43l14 -1q48 1 80.5 33.5t32.5 79.5v1127q-2 49 -37 82q-34 29 -76 29l-14 -1v42h767q44 0 84 -16q65 -27 103 -83.5t38 -125.5q0 -63 -34 -119q-30 -49 -80 -77q97 -21 179 -77q92 -64 149 -159q74 -124 74 -264q0 -129 -59 -238.5
t-159.5 -181t-229.5 -89.5zM432 46h336q189 0 333 138q41 42 56 90.5t15 92.5q0 23 -3 44q-16 121 -92 235q-104 152 -263 228q-100 45 -192 45h-2q-108 0 -181 -66h-1q0 -1 -1 -2l-2 -1q-82 -82 -116 -192v-499q0 -46 33.5 -79.5t79.5 -33.5zM872 1061q20 13 33 30
q7 9 13 19q6 9 6 16v6q0 29 -10.5 52.5t-22.5 39.5t-18 22q-146 151 -382 151h-59q-46 0 -79.5 -33.5t-33.5 -80.5v-520q127 222 380 262q35 4 69 4q45 0 85 21q10 5 19 11z" />
    <glyph glyph-name="u0413" unicode="&#x413;" horiz-adv-x="1276" 
d="M453 47v-43h-446v43l14 -1q48 1 80.5 34t32.5 80v1127q-2 48 -34.5 79.5t-78.5 31.5l-14 -1v43h1157v-244h-42v13q0 78 -54 132.5t-134 56.5h-495q-47 0 -80.5 -33t-33.5 -80v-1125q0 -47 33.5 -80.5t80.5 -33.5z" />
    <glyph glyph-name="u0414" unicode="&#x414;" horiz-adv-x="1489" 
d="M7 -186v-13h-42v244h84q125 7 212 89t103 206l1 33v2l5 87l40 751v9q11 142 141 200q40 17 84 17h645v-43l-14 1q-48 -1 -80 -32.5t-34 -78.5v-1128q0 -46 32 -78.5t80 -34.5h192v-244h-41v13q0 77 -54 131.5t-134 57.5h-1032q-80 -2 -134 -56.5t-54 -132.5zM848 1397
h-66q-122 0 -215.5 -117.5t-120.5 -304.5q-22 -314 -39 -604q0 -21 -3 -43q-30 -192 -198 -283h644q47 2 79 34.5t32 78.5v1126q0 24 -10 46l-1 2q-36 65 -102 65z" />
    <glyph glyph-name="u0415" unicode="&#x415;" horiz-adv-x="1270" 
d="M1154 247v-243h-1154v43l13 -1q49 1 81.5 33.5t32.5 79.5v1125q-2 47 -34.5 79t-78.5 32l-14 -2v43h1154v-243h-42v13q0 78 -54 132t-133 56l-6 1h-489q-47 0 -80 -33.5t-33 -80.5v-517q0 -19 24 -23h411q80 2 134 56.5t54 131.5v13h42v-444h-42v13q0 77 -54 131.5
t-134 56.5h-412q-23 -4 -23 -23v-517q0 -47 33 -80t80 -33h495q79 2 133 56t54 132v13h42z" />
    <glyph glyph-name="u0416" unicode="&#x416;" horiz-adv-x="1712" 
d="M450 46v-43h-445v43l14 -1q48 1 80.5 33.5t32.5 79.5v253q0 102 44 191t125 152q67 51 147 74q5 1 9 2q-114 47 -182 147t-68 223v6q-3 79 -57 133t-132 54h-13v41h445v-41h-13q-75 0 -129 -50.5t-60 -127.5v-21q6 -146 101.5 -243.5t241.5 -106.5h90q23 4 23 23v415
q-2 47 -34.5 79t-78.5 32l-14 -1v42h444v-42l-13 1q-33 0 -60 -17q-6 -4 -11 -8q-43 -36 -43 -88v-413q0 -19 24 -23h92q147 9 244.5 110.5t97.5 245.5v15q-6 77 -59.5 127.5t-128.5 50.5h-13v41h444v-41h-13q-78 0 -132 -54t-56 -134v-5q0 -124 -68.5 -223.5t-183.5 -146.5
l8 -2q80 -23 147 -74q81 -63 125 -152t44 -191v-253q0 -47 33 -80t80 -33l14 1v-43h-444v43l14 -1q48 1 80.5 33.5t32.5 79.5v253q0 108 -35 196.5t-94 141.5t-130 53h-99q-20 0 -24 -23v-621q0 -47 32.5 -79.5t80.5 -33.5l14 2v-44h-444v44l14 -2q48 1 80.5 33.5t32.5 79.5
v621q0 9 -7 16t-16 7h-99q-72 0 -131 -53t-94 -141.5t-35 -196.5v-253q0 -47 33.5 -80t80.5 -33h-1z" />
    <glyph glyph-name="u0417" unicode="&#x417;" horiz-adv-x="1174" 
d="M-5 11l-7 -6l-24 -21l3 33q0 8 1 12q1 17 4 30v2q2 6 3 11q5 17 11 33q20 44 51 75q65 60 165 74q15 3 31 3q40 0 77.5 -11t74.5 -25l16 -6q81 -27 161 -37t151 -12q15 -1 27 -1q137 0 181 68q18 24 25 61q7 34 7 68q0 73 -26 142.5t-66.5 130.5t-86.5 107
q-85 83 -182 129.5t-188 46.5q-42 0 -82 -10q-20 -6 -44 -17.5t-42 -22t-19 -11.5l-9 -5l-25 27l10 10q71 66 163 102.5t189 36.5h7q46 1 89.5 26t60.5 71v4q0 30 -10.5 54t-22.5 40t-19 22q-121 123 -276 148q-13 2 -28 2q-84 0 -145 -72q-17 -22 -29 -54
q-7 -22 -8.5 -41.5l-1.5 -19.5v-14h-42v245h425q92 0 159 -67t67 -159v-10q-2 -71 -48 -130q-32 -38 -73 -59q10 -2 19 -4q43 -9 85 -26q69 -31 125 -79q69 -59 114 -138q64 -113 66 -249q0 -147 -74 -273q-73 -120 -177.5 -186.5t-222.5 -68.5h-5q-42 0 -83 6.5t-82 14.5
l-13 3q-13 3 -30 6q-56 11 -113 20.5t-113 9.5q-25 0 -47 -3q-65 -6 -103 -35z" />
    <glyph glyph-name="u0418" unicode="&#x418;" 
d="M342 52l-34 -47h-309v42h13q78 0 132.5 54t56.5 134v975q-2 79 -56.5 133t-132.5 54h-13v42h446v-42h-14q-77 0 -131.5 -54t-56.5 -133v-987l858 1168l35 48h307v-42h-13q-76 0 -133 -54q-55 -56 -56 -133v-975q2 -80 56.5 -134t132.5 -54h13v-42h-445v42h13
q77 0 131.5 54t56.5 134v984z" />
    <glyph glyph-name="u0419" unicode="&#x419;" 
d="M1200 231v974q0 5 -1 9l-856 -1166l-35 -47h-308v42h13q78 0 133.5 55t55.5 133v974q0 77 -55.5 132.5t-133.5 55.5h-13v41h367q-24 50 -24 101q0 90 72 166q67 69 163 87q28 5 61 5q35 0 69 -4.5t63 -10.5q15 -2 28 -5q73 -16 148 -20h6q74 0 111 33l23 20l-1 -30
q-9 -118 -110 -163q-30 -12 -65 -12q-36 0 -78 12q-9 2 -17 4q-6 3 -12 4q-18 6 -35 12q-38 15 -77 24q-41 9 -82 9q-25 0 -50 -3q-51 -6 -101 -27.5t-70 -65.5q-5 -13 -5 -28q0 -28 15 -58.5t41 -52.5l5 -4v-34h-13q-15 0 -29 -3q-68 -11 -113 -62q-46 -55 -46 -123v-986
l857 1167l35 48h307v-41h-13q-75 0 -133 -55q-56 -58 -56 -133v-974q3 -80 57 -134t132 -54h13v-42h-445v42h13q77 0 131.5 54t57.5 134z" />
    <glyph glyph-name="u041A" unicode="&#x41a;" horiz-adv-x="1372" 
d="M820 47l14 -1q47 0 80 33.5t33 80.5v254q0 153 -68 264.5t-172 126.5q-7 0 -14 1h-350q-19 0 -24 -24v-622q0 -47 33.5 -80.5t79.5 -33.5l15 1v-42h-446v42l14 -1q47 0 80 33.5t33 80.5v1127q-2 47 -34 79t-79 32l-14 -1v43h446v-43l-14 1q-47 0 -80.5 -33t-33.5 -80
v-414q0 -19 24 -24h243q11 0 21 1q56 3 110 20q52 17 97 47q45 29 81 69q37 40 61 87q26 50 38 102q5 22 5 44q0 42 -20 80q-45 79 -127 96q-45 8 -54 8v39h446v-42h-24q-55 -3 -100 -35q-44 -32 -65 -81q-5 -12 -8 -25q-3 -12 -4 -25q-1 -4 -1 -9q-4 -39 -14 -80
q-16 -57 -47 -110q-30 -52 -72 -93q-42 -43 -93 -72q-24 -15 -49 -25q27 -5 54 -11q80 -23 147 -74q82 -63 126 -153t44 -191v-254q0 -47 33.5 -80.5t79.5 -33.5l14 1v-42h-445v42z" />
    <glyph glyph-name="u041B" unicode="&#x41b;" horiz-adv-x="1402" 
d="M5 348h42l-1 -14q0 -32 16 -58q29 -48 95 -76q25 -11 44 -13q5 -1 10 -1q44 1 70 36q10 13 14 29q11 42 14 88l1 16l6 113l39 743v8q12 142 141 200q40 17 84 17h711v-43l-14 1q-48 -1 -80 -32.5t-34 -78.5v-1127q0 -46 33.5 -79.5t80.5 -33.5l14 1v-43h-446v43l14 -1
q48 1 81 34t33 79v1125q0 24 -10 46q-37 67 -104 67h-132q-33 0 -65 -9q-32 -10 -62 -28q-29 -18 -56 -45q-27 -26 -51 -60q-23 -33 -42 -73t-33 -84q-15 -46 -23 -94q-7 -46 -8 -92q-1 -13 -2 -27q0 -15 -2 -30q0 -8 -1 -15l-32 -501v-6l-1 -3q-9 -114 -60 -201
q-44 -75 -109 -106q0 -1 -1 -1q-37 -17 -76 -17q-38 0 -74 16q-9 4 -18 10l-6 3v317z" />
    <glyph glyph-name="u041C" unicode="&#x41c;" horiz-adv-x="1722" 
d="M1473 1282v-1122q0 -47 33 -80.5t80 -33.5l14 2v-43h-444v43l13 -2q49 2 81.5 34.5t32.5 79.5v1030l-426 -809l-26 -49l-1 -2l-70 -132l-514 978v-942q2 -80 56.5 -134t131.5 -54h13v-41h-444v41h13q77 0 131.5 54t56.5 134v973q-2 80 -56.5 134t-131.5 54h-13v41h305
l27 -52l3 -5l499 -949l476 904l54 102h233v-42l-14 1q-48 -1 -80.5 -34t-32.5 -79z" />
    <glyph glyph-name="u041D" unicode="&#x41d;" horiz-adv-x="1559" 
d="M1310 1282v-1125q0 -47 33.5 -80.5t80.5 -33.5l14 1v-43h-446v43l14 -1q48 1 80.5 34t32.5 80v518q0 19 -23 24h-852v-468q2 -80 56.5 -134t132.5 -54h13v-42h-446v42h13q78 0 132.5 54t56.5 134v977q-2 79 -56.5 133.5t-132.5 54.5h-13v41h446v-41h-13
q-78 0 -132.5 -54.5t-56.5 -133.5v-468h852q19 0 23 24v521q-2 47 -34.5 79t-78.5 32l-14 -1v42h446v-42l-14 1q-48 -2 -81 -34.5t-33 -79.5z" />
    <glyph glyph-name="u041E" unicode="&#x41e;" 
d="M211 1233q104 103 236.5 158t278.5 55q145 0 277.5 -55t236.5 -158q103 -104 158 -236.5t55 -277.5q0 -146 -55 -278.5t-158 -236.5q-104 -103 -236.5 -158t-277.5 -55q-146 0 -278.5 55t-236.5 158q-103 104 -158 236.5t-55 278.5q0 145 55 277.5t158 236.5zM1106 1099
q-114 113 -251.5 174.5t-276.5 61.5q-202 0 -337 -131q-132 -137 -132 -336q0 -36 5 -74q33 -253 231 -456q114 -113 251.5 -174.5t276.5 -61.5q203 0 338 132q66 67 98.5 153.5t32.5 183.5q0 133 -60 271.5t-176 256.5z" />
    <glyph glyph-name="u041F" unicode="&#x41f;" horiz-adv-x="1534" 
d="M1270 1281v-1121q0 -46 33 -79.5t80 -33.5l14 1v-42h-444v42l14 -1q48 2 80.5 34.5t32.5 78.5v1123q-2 47 -34.5 79t-78.5 32h-535q-77 0 -131 -54t-57 -133v-972q3 -80 57 -134t131 -54h13v-41h-443v41h13q77 0 131 54t57 134v972q-3 79 -57 133t-131 54h-13v41h1395
v-42l-14 1q-48 -1 -80.5 -33.5t-32.5 -79.5z" />
    <glyph glyph-name="u0420" unicode="&#x420;" horiz-adv-x="1397" 
d="M7 45l14 -1q48 1 80.5 33.5t32.5 79.5v1123q0 47 -33 80.5t-80 33.5l-14 -2v43h783q6 0 14 -1h2l44 -4v-1q26 -3 50 -10q136 -35 236 -134q150 -157 150 -362t-150 -362q-100 -99 -236 -134q-62 -16 -126 -16q-63 0 -125 16h-2q-135 35 -235 134q-52 52 -87 116v-520
q1 -48 33.5 -80.5t79.5 -32.5l14 1v-43h-445v43zM438 1394q-47 0 -80 -33.5t-33 -80.5v-497q34 -110 116 -192q144 -138 333 -138q188 0 332 138q65 69 65 173q0 98 -53.5 210t-153.5 214q-146 144 -315 191q-15 4 -30 7q-33 6 -64 8h-117z" />
    <glyph glyph-name="u0421" unicode="&#x421;" horiz-adv-x="1367" 
d="M1270 247l-8 -9q-104 -118 -245.5 -182t-297.5 -64q-145 0 -276 54.5t-234 156.5q-102 103 -156.5 234t-54.5 276t54.5 276t156.5 234q103 102 234 156.5t276 54.5q170 0 321 -75q11 -5 24 -5q30 0 47 29q10 23 10 48l-1 14h42v-441h-42l1 14q0 45 -32 79l-3 3
q-41 40 -86 73q-211 151 -427 151q-201 0 -335 -130q-130 -135 -130 -334q0 -36 4 -72q33 -251 230 -452q113 -112 249.5 -173t274.5 -61q200 0 334 130q15 15 30 33l8 10z" />
    <glyph glyph-name="u0422" unicode="&#x422;" horiz-adv-x="1351" 
d="M1 1193v243h1224v-243h-42v13q0 78 -54 132t-133 57h-176q-47 -2 -79.5 -34.5t-32.5 -78.5v-1123q0 -47 33.5 -80.5t79.5 -33.5l14 1v-42h-445v42l14 -1q49 1 81.5 34t32.5 80v1125q-2 47 -34 78t-79 33h-175q-79 -3 -133 -57t-54 -132v-13h-42z" />
    <glyph glyph-name="u0423" unicode="&#x423;" horiz-adv-x="1463" 
d="M921 1393v43h451v-43l-14 1q-49 -1 -82 -34t-33 -81v-532q0 -75 -12.5 -166.5t-47.5 -186.5t-100 -181q-59 -76 -139 -131h-1q-32 -23 -67 -41l-1 -1q-9 -4 -20 -9q-38 -18 -80 -29q-39 -10 -84 -10h-20q-9 1 -19 2q-23 2 -41 4q-19 2 -40 6q-18 3 -37 7q-94 20 -190 24
h-8q-52 0 -90 -12q-32 -11 -55 -30l-1 -1l-22 -18l1 29q7 123 105 190q17 10 34 17q38 14 82 14q46 0 100 -14q11 -3 21 -7q8 -2 16 -5q23 -7 45 -15q49 -19 100 -31q32 -7 67 -9h22q78 0 159 23q12 3 23 7q3 1 5 2q49 20 72 53q26 37 30 106v195q-15 -14 -32 -27
q-70 -53 -154 -80l-1 -1q-77 -24 -158 -24q-85 0 -165 26l-2 1q-92 31 -166 93l-3 3q-41 30 -101 117.5t-76 234.5l-6 125v213q-5 79 -59 131.5t-132 52.5h-13v42h450v-42h-13q-73 0 -131 -52q-44 -42 -56 -101q-4 -18 -4 -37v-120q1 -15 3 -29v-1q37 -188 201 -348
q95 -91 209 -144q108 -49 211 -55h1q117 1 188 71q4 3 7 7l2 2v692q0 48 -33.5 81.5t-81.5 33.5z" />
    <glyph glyph-name="u0424" unicode="&#x424;" horiz-adv-x="1798" 
d="M612 46l14 -1q48 1 81 34t33 80v408q-53 -35 -112 -55h-2q-14 -5 -28 -8q-60 -16 -122 -16t-122 16q-159 44 -256 171t-97 288q0 162 97 288.5t256 171.5q60 16 122 16h721q62 0 122 -16q159 -45 256 -171.5t97 -288.5q0 -161 -97 -288t-256 -171q-60 -16 -122 -16
t-122 16q-78 20 -145 66v-411q0 -47 33.5 -80.5t80.5 -33.5l14 1v-43h-446v43zM626 1397h-168q-168 -8 -289 -127q-54 -59 -54 -148q0 -90 50.5 -195.5t146.5 -201.5q98 -98 211 -151q36 -16 73 -16q41 0 77 18q35 18 67 42v669q-3 47 -35.5 78.5t-78.5 31.5zM1179 529h36
q169 10 289 127q54 56 54 148q0 43 -12 92q-43 162 -186 306q-133 134 -286 180q-14 4 -26 7h-1q-9 3 -20 3q-27 0 -50 -17q-47 -37 -47 -91v-663q110 -85 249 -92z" />
    <glyph glyph-name="u0425" unicode="&#x425;" horiz-adv-x="1377" 
d="M443 44v-29l-1 -13h-437l1 43l13 -1q50 0 105 34.5t87 85.5l369 619l-252 420q-51 82 -141 138.5t-170 56.5h-13v41h436v-41h-13q-62 -1 -84 -40q-10 -18 -10 -41q0 -43 33 -101l237 -394l278 467l1 2q19 33 19 58q0 13 -5 23q-19 26 -46 25l-13 1v41h436v-41h-13
q-49 0 -104 -34.5t-87 -86.5l-1 -2l-368 -617l249 -415l2 -4q52 -82 142 -138.5t169 -56.5h14v-42h-436v42h12q61 3 83 44q9 18 9 41q0 43 -31 97l-236 394l-279 -469q-21 -37 -21 -63q0 -13 5 -23q7 -12 21 -16.5t26 -4.5h14z" />
    <glyph glyph-name="u0426" unicode="&#x426;" horiz-adv-x="1585" 
d="M1275 4h-1272v42h13q78 0 132 53.5t57 133.5v973q-3 79 -57 133t-132 54h-13v42h445v-42h-13q-78 0 -132 -54t-57 -133v-973q3 -79 55.5 -132t132.5 -55h432q48 1 80 33.5t32 79.5v1124q-2 47 -34.5 78.5t-78.5 31.5l-14 -1v43h444v-43l-14 1q-48 -1 -80.5 -33.5
t-32.5 -79.5v-1121q0 -47 32.5 -79.5t79.5 -33.5h223v-243h-41v13q0 77 -54 131.5t-133 56.5z" />
    <glyph glyph-name="u0427" unicode="&#x427;" horiz-adv-x="1508" 
d="M951 1394v43h446v-43l-14 2q-49 -2 -81.5 -34.5t-32.5 -79.5v-1125q0 -47 33.5 -80t80.5 -33l14 1v-43h-446v43l14 -1q48 1 81 33.5t33 79.5v413q-30 -31 -63 -57q-68 -51 -149 -78l-4 -2h-1q-76 -24 -156 -24q-84 0 -163 26l-2 1q-91 31 -164 93l-3 2q-41 29 -100 115.5
t-75 232.5l-6 124v210q-5 79 -58.5 131t-130.5 52h-13v41h446v-41h-13q-68 0 -119.5 -42.5t-66.5 -108.5q-3 -19 -3 -37v-119q0 -15 3 -29q37 -187 198 -345q95 -90 207 -142q107 -49 209 -55h1q115 1 186 71q21 21 40 45v648q0 47 -33.5 80.5t-80.5 33.5z" />
    <glyph glyph-name="u0428" unicode="&#x428;" horiz-adv-x="1697" 
d="M1130 1396v43h445v-43l-14 1q-48 -1 -81 -33.5t-33 -79.5v-1123q0 -47 33.5 -80t80.5 -33l14 1v-43h-1573v42h13q78 0 132 54t57 133v968l-1 6q-2 80 -56 134t-132 54h-13v42h445v-42h-13q-78 0 -132.5 -54t-56.5 -134v-974q2 -79 56.5 -133t132.5 -54h145q78 0 132 54
t57 133v974q-3 80 -57 134t-132 54h-13v42h445v-42h-13q-78 0 -132.5 -54t-56.5 -134v-974q3 -79 57 -133t132 -54h146q47 0 80 33t33 80v1125q-2 47 -34.5 79t-78.5 32z" />
    <glyph glyph-name="u0429" unicode="&#x429;" horiz-adv-x="1838" 
d="M1449 1281v-1124q0 -47 33.5 -80.5t80.5 -33.5h228v-243h-41v13q0 77 -54 131.5t-134 57.5h-1560v41h13q78 0 132 54t57 134v975q-3 80 -57 134t-132 54h-13v42h445v-42h-13q-78 0 -132 -54t-57 -134v-975q3 -80 57 -134t132 -54h146q77 0 131.5 54t57.5 134v969l-1 6
q-2 80 -56.5 134t-131.5 54h-13v42h445v-42h-13q-78 0 -132 -54t-57 -134v-975q3 -80 57 -134t132 -54h146q47 0 80.5 33.5t33.5 80.5v1126q-2 48 -34.5 79.5t-79.5 31.5h1l-15 -1v43h446v-43l-14 1q-48 -1 -81 -33.5t-33 -79.5z" />
    <glyph glyph-name="u042A" unicode="&#x42a;" horiz-adv-x="1595" 
d="M966 1027q142 0 258 -69.5t185.5 -186t69.5 -257.5q0 -129 -58.5 -238.5t-159.5 -181t-229 -89.5q-33 -4 -66 -4h-768v43l14 -1q49 1 81.5 33.5t32.5 79.5v1128q-2 44 -31 75t-74 35q-76 -6 -126.5 -59.5t-50.5 -128.5v-13h-42v243h642v-43l-14 2q-48 -2 -80.5 -34.5
t-32.5 -79.5v-520q58 106 160 176q133 90 289 90zM1299 181q71 73 71 185q0 34 -7 71q-31 165 -169 305q-84 83 -182.5 129t-192.5 46q-114 0 -186 -70q-82 -82 -116 -192v-499q0 -46 33 -79.5t80 -33.5h336q189 0 333 138z" />
    <glyph glyph-name="u042B" unicode="&#x42b;" horiz-adv-x="1904" 
d="M1338 1393v42h445v-42l-14 1q-48 -1 -80.5 -33.5t-32.5 -79.5v-1121q0 -47 33 -80.5t80 -33.5l14 1v-42h-445v42l14 -1q48 2 81 34.5t33 78.5v1124q-3 47 -35 79t-79 32zM771 1027q141 0 257 -69t185 -185t69 -257q0 -128 -58.5 -237.5t-158.5 -180.5t-229 -89
q-32 -4 -65 -4h-765v42l14 -1q48 2 80.5 34.5t32.5 78.5v1124q-2 48 -34.5 79.5t-78.5 31.5l-14 -1v42h444v-42l-14 1q-48 -1 -80.5 -33.5t-32.5 -79.5v-519q59 106 160 176q133 89 288 89zM1103 184q71 73 71 186q0 33 -7 69q-31 166 -169 304q-83 83 -181.5 129t-191.5 46
q-114 0 -186 -70q-81 -82 -116 -191v-498q0 -46 33.5 -79.5t79.5 -33.5h335q189 0 332 138z" />
    <glyph glyph-name="u042C" unicode="&#x42c;" horiz-adv-x="1397" 
d="M769 1025q141 0 257 -69t185.5 -185t69.5 -257q0 -129 -59 -238.5t-159 -181t-229 -88.5q-33 -4 -65 -4h-767v42l14 -1q48 2 81 34.5t33 79.5v1125q-3 47 -35 79t-79 32l-14 -1v42h445v-42l-14 1q-48 -2 -80.5 -34.5t-32.5 -79.5v-519q59 106 160 176q133 89 289 89z
M1101 181q36 36 53.5 83.5t17.5 102.5q0 90 -45 188.5t-131 185.5q-84 83 -182 129t-192 46q-114 0 -186 -70q-81 -82 -116 -192v-497q0 -47 33.5 -80.5t79.5 -33.5h336q188 0 332 138z" />
    <glyph glyph-name="u042D" unicode="&#x42d;" horiz-adv-x="1284" 
d="M482 1447q296 -8 508 -218q102 -104 155.5 -235t53.5 -275q0 -146 -55 -278.5t-159 -236.5t-236 -158.5t-278 -54.5q-172 0 -325 76q-14 7 -29 7q-48 0 -63 -53q0 -7 -1 -16l1 -14h-42v444h42l-1 -14q0 -39 26 -71q6 -9 15 -16h1q38 -39 81 -71q217 -161 442 -161
q167 0 292 91q25 19 46 40q131 136 131 334q0 40 -5 81q-7 18 -22 18h-832v41h831q5 0 6.5 3t1.5 19q-52 201 -207 362q-112 120 -253.5 187t-284.5 67q-171 0 -300 -98l-21 -16v45l5 4q48 39 102 71q171 97 363 97q5 0 11 -1z" />
    <glyph glyph-name="u042E" unicode="&#x42e;" horiz-adv-x="2077" 
d="M1228 1448q146 0 279 -55t238 -159q104 -105 159 -238t55 -279q0 -147 -55 -280t-159 -237q-105 -104 -238 -159t-279 -55t-278 54t-237 157q-205 208 -216 499h-148q-24 -4 -24 -24v-518q0 -47 33.5 -80.5t80.5 -33.5l14 1v-43h-447v43l14 -1q49 1 81.5 34t32.5 80v1126
q0 47 -33 80.5t-80 33.5l-15 -1v42h447v-42l-14 1q-48 -2 -80 -33t-34 -79v-521q0 -19 24 -23h148q11 291 216 498q105 103 237 157.5t278 54.5zM740 1204q-132 -138 -132 -338q0 -68 16 -139q2 -6 3 -15q53 -210 219 -377q114 -114 252.5 -176t277.5 -62q204 0 339 132
q67 67 99.5 154.5t32.5 185.5q0 133 -60 272t-177 258q-115 114 -253 175.5t-278 61.5q-202 0 -339 -132z" />
    <glyph glyph-name="u042F" unicode="&#x42f;" horiz-adv-x="1392" 
d="M1280 35l14 1v-43h-449v43l14 -1q49 1 82 34t33 80v490q-120 -351 -337 -546q-45 -39 -92 -67q-71 -41 -150 -41q-24 0 -48 4q-43 9 -79 25q-34 15 -57 17h-16q-38 -1 -68 -8q-42 -11 -70 -35l-22 -19l1 30q2 78 48 127q12 15 25 27q29 28 66 42t82 14t99 -15l21 -6
q7 -2 16 -5q22 -7 44 -15q49 -19 100 -31h2q13 -3 27 -3q64 12 99 51q153 150 247 400q-56 -66 -132 -110q-122 -70 -259 -70h-2q-212 3 -364 152q-150 158 -150 365q4 199 128.5 341t321.5 171h1q32 4 65 4h773v-43l-14 1q-49 -1 -81.5 -34t-32.5 -80v-1133
q0 -47 33.5 -80.5t80.5 -33.5zM856 585v1q74 75 111 173q4 15 7 29v494q0 47 -34 80.5t-81 33.5h-338q-190 0 -336 -139q-36 -36 -53 -84t-17 -103q0 -91 45 -190.5t132 -187.5q84 -84 183.5 -130.5t193.5 -46.5q114 0 187 70z" />
    <glyph glyph-name="u0430" unicode="&#x430;" horiz-adv-x="1270" 
d="M514 5q-142 0 -258 69.5t-185.5 185.5t-69.5 258q0 141 69.5 257.5t185.5 186t258 69.5q191 0 345 -133q76 -70 120 -163q44 -96 47 -203l1 -7v-368q2 -47 34.5 -79t78.5 -32l14 2v-43h-179q-59 0 -103 46l-5 5q-1 2 -3 4q-2 3 -5 7q-1 2 -2 3q-6 10 -10 20q-6 15 -9 30
q-146 -115 -324 -115zM182 852l-3 -2q-35 -36 -52 -83.5t-17 -101.5q0 -91 45 -189.5t130 -185.5q84 -83 182.5 -129.5t192.5 -46.5q107 0 177 61v453q-40 64 -95 118q-84 83 -182.5 129.5t-192.5 46.5q-112 0 -185 -70z" />
    <glyph glyph-name="u0431" unicode="&#x431;" horiz-adv-x="1164" 
d="M518 -14q-143 0 -261 70.5t-188.5 188t-70.5 261.5q0 154 87 287q18 27 39 52q11 13 23 24q42 43 92 75q-68 33 -108.5 96t-40.5 139q0 74 38 136t105 96q42 22 92 29q24 3 51 3q69 0 134 -15q14 -2 28 -5q74 -16 150 -20h6q75 0 113 33l23 20l-1 -30q-9 -120 -112 -166
q-30 -11 -66 -11t-79 12q-9 2 -17 4l-12 4q-18 6 -36 13q-38 14 -78 24q-33 7 -70 7q-67 0 -136 -22q-31 -9 -55 -32t-25 -60v-1q0 -80 60 -136.5t144 -56.5q20 0 40 3l22 6q54 11 109 11h11q13 0 25 -1q192 -16 331 -151q152 -159 152 -367q0 -144 -70 -261.5t-188 -188
t-261 -70.5zM665 96q116 0 189 72q72 74 72 189q0 34 -6 71q-33 167 -171 309q-13 12 -25 23q-114 103 -247 139l-1 1q-55 14 -106 14q-114 0 -187 -69l-3 -3q-12 -11 -22 -24q-47 -65 -50 -158v-9q0 -94 47 -193.5t130 -183.5q85 -85 185 -131.5t195 -46.5z" />
    <glyph glyph-name="u0432" unicode="&#x432;" horiz-adv-x="1098" 
d="M898 548q63 -91 63 -199q0 -113 -69 -207q-67 -89 -173 -124h-2q-50 -15 -102 -15h-612v42l14 -1q48 1 80.5 33.5t32.5 78.5v711q0 46 -33 79t-80 33l-14 -1v42h613q40 0 76 -16q49 -23 78 -68t29 -99q0 -80 -64 -139q-11 -9 -23 -16q13 -4 25 -9q99 -38 161 -125z
M507 979h-77q-46 0 -79 -32.5t-33 -79.5v-339q37 61 95 103q66 46 143 60q29 5 59 5h1q30 0 57 11q41 20 48 64q1 9 1 18q0 36 -18 65.5t-51 62.5q-24 22 -67.5 42t-78.5 20zM318 422v-268q2 -47 34 -78.5t78 -31.5h185q120 0 214 87v1l1 1q2 1 2 2q25 29 25 73
q0 54 -34 122t-97 131q-41 41 -88 72q-91 59 -165 59q-12 0 -24 -2q-30 -6 -49 -23q0 -1 -1 -2l-2 -2q-59 -60 -79 -141z" />
    <glyph glyph-name="u0433" unicode="&#x433;" horiz-adv-x="921" 
d="M444 47v-42h-441v42l14 -1h1q47 2 79 34t32 79v711q0 44 -29.5 75.5t-74.5 36.5h-8l-14 -1v42h806v-241h-41v13q0 77 -53.5 130.5t-132.5 56.5h-152q-66 0 -102 -67q-3 -6 -5 -13q-5 -15 -5 -31v-712q0 -17 5 -33q2 -7 5 -13q36 -67 102 -67z" />
    <glyph glyph-name="u0434" unicode="&#x434;" horiz-adv-x="1271" 
d="M371 17q-160 49 -264 182q-104 141 -104 310q0 141 69 257.5t185.5 185.5t257.5 69q179 0 325 -117q2 20 10 38q4 10 10 20q2 1 2 4l3 3v1q2 2 2 3l3 3q2 3 5 6q45 45 103 45h178v-42l-14 1q-46 0 -78 -31.5t-35 -78.5v-832q0 -57 -5 -103q-9 -57 -33 -112
q-59 -126 -185 -196q-85 -46 -195 -46q-55 0 -121 12q-14 3 -28 5q-36 7 -72.5 13t-73.5 6h-7q-73 0 -111 -32l-22 -20l1 30q9 118 110 163q3 2 7 2q27 9 57 9q36 0 78 -11q9 -3 16 -5t13 -4q18 -6 35 -12q38 -14 77 -24q13 -3 29 -7q28 -7 60.5 -13.5t63.5 -6.5q53 0 78 24
q18 16 28 49q12 47 12 98q0 19 -1 37v214q-31 -26 -66 -46q-5 -4 -11 -6q-11 -7 -22 -12q-107 -53 -226 -53h-13q-12 0 -25 1q-54 4 -106 19zM181 840q-69 -76 -69 -185q0 -90 44.5 -189t130.5 -185q125 -123 276 -163q50 -12 98 -12q26 0 51 4h1q76 12 127 59v445
q-1 0 -1 1q-40 65 -97 122q-83 82 -181.5 128.5t-192.5 46.5q-112 0 -185 -69q0 -1 -1 -1v-1z" />
    <glyph glyph-name="u0435" unicode="&#x435;" horiz-adv-x="1170" 
d="M883 146q-56 -57 -128 -95q-115 -60 -242 -60q-143 0 -260.5 70t-187.5 188t-70 261t70 261t187.5 188t260.5 70q144 0 261.5 -70t187.5 -188t70 -261q0 -27 -3 -54q0 -7 -1 -16l-2 -11h-857q45 -81 114 -150q178 -172 379 -177q117 0 189 71zM365 918q-115 0 -189 -71
q-63 -65 -70 -164q-1 -14 -1 -28q0 -87 43 -184h759q-41 147 -163 270q-84 84 -184 130.5t-195 46.5z" />
    <glyph glyph-name="u0436" unicode="&#x436;" horiz-adv-x="1438" 
d="M316 259v-119q-2 -58 -40 -96.5t-96 -40.5h-179v43l14 -1q47 1 79.5 33t32.5 79v102q0 92 47 174q45 77 122 124q34 20 71 32t76 15l-10 6q-19 11 -36 24q-18 14 -34 29q-15 15 -29 33q-13 17 -25 36q-11 19 -20 39q-4 9 -8 19q-5 14 -8 27q-2 6 -3 11l-2 12q-3 9 -6 19
q-7 18 -18 34q-10 17 -24 31q-13 14 -30 24q-16 11 -34 19q-9 3 -19 6q-2 1 -3 1h-1q-1 0 -2 1q-4 1 -8 1q-1 1 -2 1h-3l-2 1h-2q-2 0 -4 1h-7q-1 1 -3 1h-27v41h242v-203q3 -10 9 -25q8 -19 18 -36q11 -18 23 -34t27 -30q14 -14 30 -26q17 -13 34 -23q18 -10 37 -17
q19 -8 39 -13q21 -5 42 -7v263q-1 46 -33.5 78t-78.5 32l-14 -1v42h441v-42l-14 1h-8q-44 -4 -74 -36t-30 -76v-260q16 2 32 6q20 5 39 13q19 7 37 17q17 10 34 23q16 12 30 26q15 14 27 30t23 34q10 17 18 36q6 15 9 25v203h242v-41h-21q-12 0 -24 -2l-8 -2q-1 0 -3 -1
l-8 -2q-2 0 -4 -1l-2 -1q-7 -2 -13 -4q-18 -8 -35 -19q-16 -10 -29 -24q-14 -14 -24 -31q-11 -16 -18 -34q-3 -10 -6 -19l-2 -12v-1q-1 -5 -3 -10v-1q0 -3 -1 -5l-1 -3q-1 -2 -1 -4l-1 -2l-2 -6q-4 -11 -10 -25q-9 -20 -20 -39t-25 -36t-29 -33q-16 -15 -34 -29
q-17 -13 -36 -24l-10 -6q39 -3 76 -15t71 -32q77 -47 122 -124q47 -82 47 -174v-102q0 -47 33 -79.5t79 -32.5l14 1v-43h-179q-58 2 -96 40.5t-40 96.5v119q0 119 -44 212q-43 83 -103 93h-101v-407q1 -48 33.5 -80.5t78.5 -32.5l14 2v-43h-441v43l14 -2q48 2 80 34t32 79
v407h-111q-60 -10 -103 -93q-44 -93 -44 -212z" />
    <glyph glyph-name="u0437" unicode="&#x437;" horiz-adv-x="920" 
d="M139 31h-6q-75 0 -112 -32l-22 -20l1 30q9 118 110 163q4 2 7 3q7 3 14 4q11 3 24 4q11 0 20 1q36 0 78 -12q9 -2 16 -5q27 -8 52 -17q45 -15 90 -27q66 -16 134 -25q13 -1 25 -1q48 0 73 23q18 16 28 49q6 18 9 38q2 14 2 28q0 59 -26.5 116t-60.5 95q-11 13 -23 25
q-142 132 -256 132q-48 0 -75 -27l-3 -3l-9 -10l-31 29l9 9q78 80 186 101q28 5 55 6h9q50 2 86 36q4 3 7 7q8 11 8 29q0 26 -15 59t-44 63q-25 25 -55 46q-44 32 -97 32q-75 -4 -128 -57q-53 -57 -53 -131v-13h-42v243h327q24 0 49 -7q58 -18 93 -65t35 -106
q0 -91 -79 -148q76 -20 136 -71q74 -63 105 -154q19 -56 19 -113q0 -91 -42 -173t-113 -131q-42 -28 -90 -43q-51 -16 -105 -16h-23q-55 0 -121 12q-14 2 -29 5q-73 16 -147 19z" />
    <glyph glyph-name="u0438" unicode="&#x438;" horiz-adv-x="1270" 
d="M913 797l-630 -793h-284v41h13q84 0 145 69l1 2q40 51 40 115v564q-2 78 -55.5 132t-130.5 54h-13v41h441v-41h-13q-77 0 -131 -54t-56 -132v-574l635 801h279v-41h-13q-83 0 -143 -66l-6 -8q-37 -50 -38 -112v-564q2 -79 56 -132.5t131 -53.5h13v-41h-441v41h13
q77 0 130.5 53.5t56.5 132.5v566z" />
    <glyph glyph-name="u0439" unicode="&#x439;" horiz-adv-x="1281" 
d="M241 222l635 799h278v-41h-13q-82 0 -142 -66l-7 -8q-38 -50 -38 -112v-562q3 -79 56.5 -132.5t130.5 -53.5h13v-41h-440v41h13q77 0 131.5 55t54.5 131v565l-629 -792h-283v41h13q84 0 144 69l2 2q40 52 40 115v562q0 77 -54.5 131.5t-131.5 54.5h-13v41h289
q-21 43 -21 86q0 75 60 139q56 57 135 71q24 5 51 5q29 0 57 -4t52 -9q12 -2 23 -4q61 -12 121 -16h6q59 0 90 26l22 20l-1 -30q-7 -98 -92 -136q-25 -9 -54 -9q-30 0 -65 9l-14 4q-5 2 -10 3q-14 5 -29 10q-31 12 -63 20q-34 7 -67 7q-21 0 -40 -3q-42 -5 -83 -22t-57 -53
q-6 -11 -6 -31q0 -18 11 -39.5t41 -43.5h84v-41h-13q-77 0 -130.5 -53.5t-56.5 -132.5v-572z" />
    <glyph glyph-name="u043A" unicode="&#x43a;" horiz-adv-x="1159" 
d="M440 45v-42h-442v42l14 -1q48 1 80.5 33.5t32.5 78.5v714q-2 47 -34.5 78.5t-78.5 31.5l-14 -1v43h442v-43l-14 1h-8q-45 -4 -75 -36t-30 -76v-262h150q6 0 11 1q21 2 41 7q21 5 40 13q19 7 37 17q17 10 33 23q17 12 31 26t27 30q12 16 22 34q11 18 19 36q6 15 8 25v204
h243v-42h-21q-12 0 -24 -2q-5 -1 -8 -2q-1 0 -3 -1q-4 -1 -7 -1l-1 -1q-2 0 -3 -1h-2q-8 -3 -14 -5q-18 -7 -35 -18q-16 -11 -29 -25q-14 -14 -24 -30q-11 -17 -18 -35l-3 -9q-2 -5 -3 -10v-2q-2 -5 -3 -11v-2l-2 -8v-2q-1 -2 -1 -4q-1 -2 -1 -3v-1q-1 -1 -1 -3q-1 -1 -1 -3
l-2 -4v-1q-4 -11 -10 -25q-9 -20 -20 -39q-12 -19 -25 -36q-14 -17 -30 -33q-15 -15 -33 -29q-17 -13 -36 -24q-5 -3 -11 -6q39 -3 76 -15q38 -12 72 -32q77 -47 122 -124q47 -83 47 -174v-102q0 -47 33 -80t79 -33l14 1v-42h-179q-58 2 -96 40.5t-40 96.5v119
q0 119 -45 212q-43 84 -103 93h-8l-1 1h-262v-409q2 -47 34 -79.5t79 -32.5z" />
    <glyph glyph-name="u043B" unicode="&#x43b;" horiz-adv-x="1179" 
d="M98 35q-60 0 -101 -33l-22 -20v30q9 118 110 163q22 9 46 9q23 0 44 -6.5t40 -14.5l9 -3q43 -18 87 -30q6 -1 13 -1q35 0 54 36q0 2 1 3q41 103 75 204q44 133 77 271q24 102 44 215l1 6q2 14 2 27q0 43 -20 72q-16 21 -43 24h-19v42h562v-43l-14 1q-34 0 -62 -18
t-42 -49q-2 -7 -5 -14q-4 -15 -4 -30v-719q0 -16 4 -33q3 -6 5 -13q37 -67 104 -67l14 1v-43h-445v43l14 -1h1q47 0 80 33.5t33 79.5v717q0 42 -27.5 73.5t-70.5 38.5q-3 0 -16 1l6 -12q6 -15 6 -33q0 -7 -1 -15v-1q-43 -232 -120 -495q-43 -140 -95 -275
q-60 -157 -174 -157h-1q-20 0 -38 6t-35 13q-27 12 -55 16q-11 1 -22 1z" />
    <glyph glyph-name="u043C" unicode="&#x43c;" horiz-adv-x="1291" 
d="M755 49l14 -1q47 1 79.5 34.5t32.5 80.5v642l-313 -704l-21 46l-300 678q-3 -15 -3 -31v-787h-240v41h13q75 0 129.5 55t56.5 135v556q-2 79 -55.5 132t-130.5 53h-13v41h352l16 -35l272 -615l289 650h261v-42l-13 1q-48 -1 -80 -33t-32 -79v-705q1 -48 33.5 -81
t78.5 -33h-1l14 1v-42h-439v42z" />
    <glyph glyph-name="u043D" unicode="&#x43d;" horiz-adv-x="1260" 
d="M712 45l14 -1q48 1 80.5 33.5t32.5 78.5v337h-600v-263q2 -79 56 -132.5t131 -53.5h13v-41h-441v41h13q77 0 130.5 53.5t56.5 132.5v564q-3 79 -56.5 132.5t-130.5 53.5h-13v42h441v-42h-13q-77 0 -131 -53.5t-56 -132.5v-260h600v334q0 47 -33 79.5t-80 32.5l-14 -1v43
h442v-43l-14 1q-48 -1 -80 -33t-32 -79v-713q1 -47 33.5 -79t78.5 -32l14 1v-42h-442v42z" />
    <glyph glyph-name="u043E" unicode="&#x43e;" horiz-adv-x="1164" 
d="M517 1025q142 0 259 -69.5t186.5 -186.5t69.5 -259t-69.5 -259t-186.5 -186.5t-259 -69.5t-258.5 69.5t-186 186.5t-69.5 259q0 110 43 206.5t118 167.5l2 2v-1q69 66 159 103t192 37zM664 105q116 0 188 70q36 36 53.5 84.5t17.5 103.5q0 91 -45.5 190t-131.5 186
q-84 83 -182.5 129.5t-193.5 46.5q-114 0 -187 -71q-71 -73 -71 -185q0 -35 7 -72q31 -166 169 -306q85 -83 183.5 -129.5t192.5 -46.5z" />
    <glyph glyph-name="u043F" unicode="&#x43f;" horiz-adv-x="1275" 
d="M1154 977l-14 1q-48 -1 -80 -33.5t-32 -78.5v-713q1 -46 33.5 -78t78.5 -32l14 1v-42h-441v42l14 -1q48 1 80 33.5t32 78.5v711q0 46 -33 79t-79 33h-300q-77 0 -131 -53.5t-56 -132.5v-563q2 -79 56 -132.5t131 -53.5h13v-41h-441v41h13q77 0 130.5 53.5t56.5 132.5v563
q-3 79 -56.5 132.5t-130.5 53.5h-13v41h1155v-42z" />
    <glyph glyph-name="u0440" unicode="&#x440;" horiz-adv-x="1316" 
d="M451 -421h-179q-28 0 -53 10q-81 37 -88 126v1153q-2 47 -35 79t-78 32l-15 -1v43h180q59 0 104 -46q3 -3 5 -6l3 -3l2 -4l1 -1q1 -1 2 -3q1 -1 2 -3q6 -10 11 -20q6 -15 8 -30q147 116 327 116q142 0 259 -70t187 -187t70 -260q0 -142 -70 -259t-187 -187t-259 -70
q-179 0 -325 115v-368q1 -49 34 -81.5t80 -32.5h-1l15 1v-43zM648 30q95 0 181 35.5t154 103.5q36 37 53.5 85t17.5 104q0 90 -45 189.5t-131 186.5q-85 84 -184 130.5t-194 46.5q-106 0 -177 -61v-691q142 -129 325 -129z" />
    <glyph glyph-name="u0441" unicode="&#x441;" horiz-adv-x="1042" 
d="M522 -11h-3q-213 4 -366 156q-150 159 -150 363v8q6 211 155 361q159 149 364 149q146 0 274 -79h1q1 -1 4 -1t6 3q18 28 18 61l-1 14h43v-423h-43l1 14q0 35 -19 63q-7 10 -15 19q-18 21 -39 41q-24 26 -52 47q-167 131 -326 131q-115 0 -189 -72q-71 -74 -71 -189
q0 -34 6 -70q32 -167 171 -308q85 -84 185 -131t194 -47q116 0 189 72l3 3q14 15 24 30l8 12l13 -10l23 -18l-8 -11q-75 -90 -179.5 -139t-220.5 -49z" />
    <glyph glyph-name="u0442" unicode="&#x442;" horiz-adv-x="991" 
d="M339 981h-114q-77 0 -130.5 -53.5t-56.5 -132.5v-13h-41v240h873v-240h-41v13q-3 79 -56.5 132.5t-130.5 53.5h-114v-825q2 -47 34 -79t78 -32l14 1v-42h-441v42l14 -1q47 1 79.5 33.5t32.5 79.5v823z" />
    <glyph glyph-name="u0443" unicode="&#x443;" horiz-adv-x="1341" 
d="M1099 868v-852q-1 -33 -6 -86q-9 -57 -34 -112q-58 -126 -184 -195q-85 -46 -193 -46q-55 0 -121 12q-13 3 -27 5q-73 16 -146 20h-7q-72 0 -110 -33l-22 -19l1 29q8 118 109 162q4 2 7 3q27 8 57 8q36 0 78 -11q8 -2 16 -5q6 -1 12 -4q18 -5 35 -12q37 -14 76 -23
q14 -3 30 -7q27 -7 59.5 -13.5t63.5 -6.5q51 0 77 24q18 16 28 49q8 26 10.5 54t2.5 56v61l-1 103v185q-40 -79 -111 -133q-106 -78 -232 -78q-127 0 -232 78q-100 77 -137 197q-16 54 -16 109v407q0 77 -54.5 131.5t-131.5 54.5h-13v41h441v-41h-13q-77 0 -132 -54.5
t-55 -131.5v-230q6 -26 18 -56q51 -119 178 -251l8 -8q67 -66 142 -103.5t140 -37.5q14 0 26 2h1q3 0 7 1l2 1q3 0 6 1q3 0 5 1l1 1q5 0 8 2l4 2h1q3 1 5 2q5 3 9 5q3 2 5 3q8 4 14 10l5 5l3 2v1q98 105 98 240v481q0 47 -32.5 79.5t-79.5 32.5l-14 -1v42h441v-42l-14 1
q-33 0 -61 -18t-42 -49q-2 -6 -5 -13q-4 -15 -4 -32z" />
    <glyph glyph-name="u0444" unicode="&#x444;" horiz-adv-x="1707" 
d="M1008 -413h-177q-28 0 -53 10q-80 37 -87 124v305q-87 -33 -181 -33q-141 0 -257.5 69.5t-185.5 185.5t-69 258q0 141 69 257.5t185.5 186t257.5 69.5q27 0 54 -3v3h179q59 0 103 -46l4 -4q105 50 221 50q141 0 257.5 -69.5t186 -186t69.5 -257.5q0 -142 -69.5 -258
t-186 -185.5t-257.5 -69.5q-99 0 -190 36v-288q2 -48 34.5 -80.5t78.5 -32.5l14 1v-42zM1071 35q189 0 333 138q36 36 53.5 83.5t17.5 102.5q0 90 -45 189t-131 186q-84 83 -182.5 129.5t-191.5 46.5q-24 0 -46 -4q1 -3 2 -7v-825q91 -39 190 -39zM178 840l-2 -2
q-35 -36 -52 -83.5t-17 -102.5q0 -90 44.5 -188.5t130.5 -185.5q84 -83 182.5 -129.5t192.5 -46.5h13q5 0 8 1h8q3 0 5 1v763q0 20 -7 38q-6 13 -13 24q-3 5 -7 8q-10 13 -25 22q-63 18 -129 18q-187 0 -332 -137z" />
    <glyph glyph-name="u0445" unicode="&#x445;" horiz-adv-x="1169" 
d="M1037 45v-41h-430l-1 41h13q62 0 83 37q9 16 9 38q0 44 -36 104l-120 192q-111 -178 -167 -268q-22 -36 -22 -63q0 -12 5 -21q7 -11 19.5 -15t24.5 -4h15v-41h-431v42l14 -1q49 0 104 34t88 85l253 407l-134 215q-54 82 -143.5 137t-168.5 55h-13v41h430v-41h-13
q-60 0 -82 -36q-9 -16 -9 -38q0 -44 36 -104l5 -9l115 -184l166 267q23 37 23 63q0 12 -5 21q-7 12 -20 16t-25 4h-14v41h431v-42l-14 1q-49 0 -104 -34t-88 -85l-1 -1l-252 -405l134 -216q54 -82 143.5 -137t168.5 -55h13z" />
    <glyph glyph-name="u0446" unicode="&#x446;" horiz-adv-x="1250" 
d="M1076 45h103v-240h-41v13q-3 78 -55.5 130.5t-131.5 54.5h-949v42h13q77 0 131 53t56 132v563q-2 79 -56 132.5t-131 53.5h-13v41h441v-41h-13q-77 0 -131 -53.5t-56 -132.5v-563q2 -79 56 -132t131 -53h234q46 0 79 32.5t33 79.5v710q0 46 -33 79t-79 33l-14 -1v42h440
v-42l-14 1q-47 -2 -79.5 -34t-32.5 -78v-712q2 -47 33.5 -78t78.5 -32z" />
    <glyph glyph-name="u0447" unicode="&#x447;" horiz-adv-x="1265" 
d="M1145 44l14 1v-42h-440v42l13 -1q71 3 103 67q3 6 5 13q5 16 5 32v177q-119 -118 -277 -118q-127 0 -232 78q-100 77 -136 197q-16 53 -16 109v194q-2 79 -56 132.5t-131 53.5h-13v41h441v-41h-13q-77 0 -131 -53.5t-56 -132.5v-17q6 -26 18 -56q52 -119 178 -251
q4 -4 9 -8q140 -135 280 -141q14 0 27 2l8 2h1q3 1 6 1l6 2h1q4 1 7 2t5 2l1 1q2 0 5 2q5 2 9 4q2 2 5 3q7 5 13 10q2 2 4 3q1 2 2 3l2 2h1q17 18 32 38v470q0 46 -32.5 78t-79.5 34h-1l-13 -2v43h440v-43l-14 2q-71 -3 -102 -67q-3 -6 -5 -13q-5 -16 -5 -32v-711
q1 -47 32.5 -78.5t78.5 -33.5h1z" />
    <glyph glyph-name="u0448" unicode="&#x448;" horiz-adv-x="1443" 
d="M1012 158v864h314v-42l-14 1q-47 -1 -79.5 -33.5t-32.5 -78.5v-712q2 -47 34.5 -79t77.5 -32l14 1v-42h-1324v41h13q76 0 130 53.5t56 132.5v563q-2 79 -55.5 132.5t-130.5 53.5h-13v41h241v-790q2 -79 56 -132.5t130 -53.5h33q77 0 130.5 53.5t56.5 132.5v563
q-3 79 -56.5 132.5t-130.5 53.5h-13v41h441v-41h-13q-77 0 -131 -53.5t-56 -132.5v-563q2 -79 56 -132.5t131 -53.5h22q47 0 80 33t33 79z" />
    <glyph glyph-name="u0449" unicode="&#x449;" horiz-adv-x="1478" 
d="M0 44h13q77 0 130.5 53.5t56.5 132.5v563q-3 79 -56.5 132.5t-130.5 53.5h-13v41h241v-790q2 -79 56 -132.5t131 -53.5h32q77 0 130.5 53.5t56.5 132.5v563q-3 79 -56.5 132.5t-130.5 53.5h-13v41h440v-41h-13q-76 0 -130 -53.5t-56 -132.5v-563q2 -79 56 -132.5
t130 -53.5h23q47 0 79.5 33t32.5 80v863h315v-42l-14 1q-48 -2 -80 -34t-32 -78v-712q1 -47 33.5 -79t78.5 -32h103v-221l-1 -2v-16h-41v13q-2 78 -56 131.5t-130 53.5h-1185v41z" />
    <glyph glyph-name="u044A" unicode="&#x44a;" horiz-adv-x="1250" 
d="M795 697h10q139 -6 238 -105q96 -102 98 -241q-1 -115 -69 -207q-67 -89 -173 -123q-1 0 -2 -1q-50 -15 -102 -15h-610v42l14 -1q47 1 79.5 33.5t32.5 78.5v710q-6 90 -94 110q-3 1 -6 1q-2 0 -5 -1q-72 -9 -117.5 -60t-47.5 -124v-13h-40v240h624v-43l-14 2
q-47 -2 -79.5 -34t-32.5 -78v-338q38 63 100 106q91 61 196 61zM1010 137q26 33 26 79q0 27 -10 60q-30 97 -119 186q-48 48 -100 80q-85 52 -150 52q-19 0 -37 -5q-40 -12 -71 -59q-50 -69 -50 -105v-268q2 -47 34 -79t78 -32h184q107 0 195 71q12 9 20 20z" />
    <glyph glyph-name="u044B" unicode="&#x44b;" horiz-adv-x="1549" 
d="M615 696q96 0 174.5 -46.5t125.5 -125.5t47 -174q0 -113 -69 -207q-68 -89 -174 -124h-1q-50 -16 -103 -16h-611v43l14 -2q48 2 80 34t32 79v711q-1 47 -33.5 79.5t-78.5 32.5l-14 -2v43h441v-43l-14 2q-48 -2 -80 -34t-32 -79v-338q38 64 100 106q91 61 196 61zM431 44
l14 2v-2h170q122 0 214 88h1q0 2 1 2q2 0 2 1q25 29 25 73q0 54 -34 122t-97 131q-62 61 -129.5 96t-123.5 35q-46 0 -73 -25q-1 0 -2 -1q0 -1 -1 -2q-59 -60 -79 -141v-268q2 -47 34 -79t78 -32zM1433 46v-43h-441v43l14 -2q48 2 80 34t32 79v710q0 47 -33 80t-79 33
l-14 -1v42h441v-42l-14 1q-48 -2 -80 -34t-32 -79v-712q1 -47 33.5 -79t78.5 -32z" />
    <glyph glyph-name="u044C" unicode="&#x44c;" horiz-adv-x="1073" 
d="M611 697q95 0 174 -47t125.5 -125.5t46.5 -174.5q0 -113 -68 -207q-68 -89 -174 -123q-1 -1 -2 -1q-50 -15 -102 -15h-612v42l14 -1q48 1 80 33.5t32 78.5v712q-1 47 -33.5 79.5t-78.5 32.5l-14 -1v42h441v-42l-14 1q-47 -2 -79.5 -34t-32.5 -79v-338q38 63 100 106
q91 61 197 61zM426 45l14 1v-1h171q120 0 214 88q2 0 2 1q0 2 1 2q25 29 25 74q0 54 -34 121.5t-96 130.5q-62 61 -129.5 96t-124.5 35q-45 0 -73 -25l-1 -2q-1 0 -2 -1q-59 -60 -79 -142v-267q2 -47 34 -79t78 -32z" />
    <glyph glyph-name="u044D" unicode="&#x44d;" horiz-adv-x="987" 
d="M377 1022h3q211 -4 364 -155q151 -159 151 -365v-6q0 -4 -1 -10q-9 -208 -157 -354q-157 -145 -360 -145q-145 0 -273 78l-2 1q-1 0 -3 1q-4 0 -7 -4q-17 -28 -17 -61l1 -14h-43v423h43l-1 -14q0 -34 19 -63q6 -9 14 -18l1 -1q18 -21 38 -41q25 -26 52 -47
q167 -130 326 -130q116 0 189 71q71 74 71 187q0 56 -18 118h-585v42h571q-46 120 -145 220q-85 84 -184.5 130.5t-194.5 46.5q-114 0 -188 -71q-2 -3 -4 -4l-3 -3l-9 -10l-30 29l9 10q160 159 373 159z" />
    <glyph glyph-name="u044E" unicode="&#x44e;" 
d="M930 1021q140 0 255.5 -68.5t184 -184t68.5 -255.5t-68.5 -255.5t-184 -184t-255.5 -68.5q-138 0 -252 66.5t-182.5 178.5t-73.5 250h-108v-343q2 -47 34 -78.5t78 -32.5h1l13 1v-42h-440v42l14 -1q48 2 80 34t32 78v710q0 47 -32 79t-80 33l-14 -1v42h440v-42l-13 1
q-48 -1 -80.5 -33.5t-32.5 -78.5v-327h108q13 197 154 337q154 143 354 143zM1260 183q35 36 52.5 83.5t17.5 101.5q0 89 -44.5 187t-129.5 184q-83 82 -181 128t-190 46q-114 0 -185 -70q-71 -73 -71 -184q0 -60 21 -127q3 -8 5 -14q45 -127 149 -231q82 -82 180 -128
t191 -46q113 0 185 70z" />
    <glyph glyph-name="u044F" unicode="&#x44f;" horiz-adv-x="1063" 
d="M247 1002l1 1q50 15 103 15h612v-42l-14 1q-48 -1 -80 -33.5t-32 -78.5v-712q0 -47 33 -80t79 -33l14 1v-42h-441v42l13 -1q47 1 78 31t35 76v322q-4 -11 -8 -23q-9 -25 -18 -48q-57 -150 -123 -243q-28 -38 -58 -72q-30 -33 -62 -55q-42 -28 -91 -28q-15 0 -29 2h-1
q-11 2 -22 7q-11 4 -20 8q-19 10 -39 14q-11 2 -23 2q-18 0 -42 -4q-41 -7 -67 -29l-22 -20l1 30q1 34 15 58t39 48q9 9 19 16q17 13 36 20q30 11 65 11t77 -11q9 -3 16 -5t13 -4q24 -8 47 -15q15 -5 30 -5q59 25 81 62l1 1q62 88 118 226v-1q-14 -12 -28 -22
q-65 -46 -144 -60q-29 -5 -58 -5h-2q-30 0 -59 5q-32 6 -62 18q-99 38 -161 125q-63 91 -63 199q0 113 69 207q67 90 174 124zM648 598v268q-2 47 -34 79t-79 32h-184q-121 0 -214 -88h-1q0 -1 -1 -2q-1 0 -2 -1q-25 -29 -25 -73q0 -54 34 -122t97 -132q42 -41 88 -72
q93 -59 165 -59q14 0 25 2q16 3 28 9q7 3 13 8q7 5 14 13q8 9 15 16q44 55 61 122z" />
    <glyph glyph-name="u0451" unicode="&#x451;" horiz-adv-x="1154" 
d="M894 146q-55 -56 -126 -93q-116 -60 -243 -60q-144 0 -262.5 70.5t-189 189t-70.5 262.5t70.5 262.5t189 189.5t262.5 71t262.5 -71t189 -189.5t70.5 -262.5q0 -27 -2 -54l-2 -16l-2 -12h-863q45 -81 114 -150q180 -174 382 -179q118 1 190 72zM157 476h764
q-41 148 -164 272q-85 84 -185.5 131.5t-195.5 47.5q-117 0 -191 -72q-63 -66 -70 -165q-1 -14 -1 -28q0 -88 43 -186zM210 1244q0 40 28 68t68 28t68.5 -28t28.5 -68q0 -41 -28.5 -69t-68.5 -28t-68 28t-28 69zM647 1244q0 40 28.5 68t68.5 28t68 -28t28 -68q0 -41 -28 -69
t-68 -28t-68.5 28t-28.5 69z" />
    <glyph glyph-name="endash" unicode="&#x2013;" horiz-adv-x="1407" 
d="M-5 534v91h1255v-91h-1255z" />
    <glyph glyph-name="emdash" unicode="&#x2014;" horiz-adv-x="1704" 
d="M-5 534v91h1539v-91h-1539z" />
    <glyph glyph-name="quoteleft" unicode="&#x2018;" horiz-adv-x="289" 
d="M185 1352q0 -39 -28 -67t-68 -28q-39 0 -67 28t-28 67q0 38 12 71t30 60.5t36.5 48t31.5 32t15 12.5l8 6l32 -24l-11 -11q-40 -42 -40 -101h2q33 -8 54 -34t21 -60z" />
    <glyph glyph-name="quoteright" unicode="&#x2019;" horiz-adv-x="294" 
d="M-6 1345q0 39 28 67t67 28q40 0 68 -28t28 -67q0 -37 -12 -70.5t-30 -61t-36.5 -47.5t-31.5 -31.5t-15 -13.5l-8 -6l-32 25l11 10q40 42 40 101h-2q-33 8 -54 34t-21 60z" />
    <glyph glyph-name="quotesinglbase" unicode="&#x201a;" horiz-adv-x="340" 
d="M-6 92q0 39 28 67t67 28q40 0 68 -28t28 -67q0 -37 -12 -70.5t-30 -61t-36.5 -47.5t-31.5 -31.5t-15 -13.5l-8 -6l-32 25l11 10q40 42 40 101h-2q-33 8 -54 34t-21 60z" />
    <glyph glyph-name="quotedblleft" unicode="&#x201c;" horiz-adv-x="636" 
d="M505 1347q0 -39 -28 -67t-68 -28q-39 0 -67 28t-28 67q0 38 12 71t30 60.5t36.5 48t31.5 32t15 12.5l8 6l32 -24l-11 -11q-40 -42 -40 -101h2q33 -8 54 -34t21 -60zM185 1347q0 -39 -28 -67t-68 -28q-39 0 -67 28t-28 67q0 38 12 71t30 60.5t36.5 48t31.5 32t15 12.5l8 6
l32 -24l-11 -11q-40 -42 -40 -101h2q33 -8 54 -34t21 -60z" />
    <glyph glyph-name="quotedblright" unicode="&#x201d;" horiz-adv-x="662" 
d="M-6 1356q0 39 28 67t67 28q40 0 68 -28t28 -67q0 -37 -12 -70.5t-30 -61t-36.5 -47.5t-31.5 -31.5t-15 -13.5l-8 -6l-32 25l11 10q40 42 40 101h-2q-33 8 -54 34t-21 60zM314 1356q0 39 28 67t67 28q40 0 68 -28t28 -67q0 -37 -12 -70.5t-30 -61t-36.5 -47.5t-31.5 -31.5
t-15 -13.5l-8 -6l-32 25l11 10q40 42 40 101h-2q-33 8 -54 34t-21 60z" />
    <glyph glyph-name="quotedblbase" unicode="&#x201e;" horiz-adv-x="666" 
d="M-1 89q0 39 28 67t67 28q40 0 68 -28t28 -67q0 -37 -12 -70.5t-30 -61t-36.5 -47.5t-31.5 -31.5t-15 -13.5l-8 -6l-32 25l11 10q40 42 40 101h-2q-33 8 -54 34t-21 60zM319 89q0 39 28 67t67 28q40 0 68 -28t28 -67q0 -37 -12 -70.5t-30 -61t-36.5 -47.5t-31.5 -31.5
t-15 -13.5l-8 -6l-32 25l11 10q40 42 40 101h-2q-33 8 -54 34t-21 60z" />
    <glyph glyph-name="ellipsis" unicode="&#x2026;" horiz-adv-x="1034" 
d="M674 94q0 39 28 67t67 28q40 0 68 -28t28 -67q0 -40 -28 -68t-68 -28q-39 0 -67 28t-28 68zM333 94q0 39 28 67t67 28q40 0 68 -28t28 -67q0 -40 -28 -68t-68 -28q-39 0 -67 28t-28 68zM-1 94q0 39 28 67t67 28q40 0 68 -28t28 -67q0 -40 -28 -68t-68 -28q-39 0 -67 28
t-28 68z" />
    <glyph glyph-name="fraction" unicode="&#x2044;" horiz-adv-x="1174" 
d="M847 1346l-629 -1348h-226l-4 16q48 0 86.5 19t58.5 54l631 1354h224l5 -15q-86 0 -133 -60q-7 -9 -13 -20z" />
    <glyph glyph-name="fraction" unicode="&#x2215;" horiz-adv-x="1174" 
d="M847 1346l-629 -1348h-226l-4 16q48 0 86.5 19t58.5 54l631 1354h224l5 -15q-86 0 -133 -60q-7 -9 -13 -20z" />
    <glyph glyph-name="u2116" unicode="&#x2116;" horiz-adv-x="2261" 
d="M1237 1218v-994q3 -87 62 -146t144 -59v-15h-293l-31 43l-894 1217q-5 -22 -6 -46v-994q3 -87 62 -146t144 -59v-15h-427v15q85 0 144 59t62 146v994q-3 87 -62 146t-144 59v16h294l31 -43l893 -1216q5 22 5 44v994q-2 88 -61 146.5t-144 58.5v16h427v-16
q-85 0 -144 -58.5t-62 -146.5zM1766 754q-143 0 -244.5 101.5t-101.5 244.5t101.5 244t244.5 101t244 -101t101 -244t-101 -244.5t-244 -101.5zM1501 1256v-8q0 -59 36 -132t104 -141t141 -104t132 -36h8q2 1 3 1h6q2 0 3 1h3q5 1 8 2h3q6 2 10 3q2 0 3 1l2 1q2 0 3 1
q2 0 3 1t2 1l2 1q14 7 24 17l4 4q2 1 3 4h1q2 2 3 4q2 4 4 7l2 2l3 6l1 2q1 3 2 4q0 2 1 2q1 3 2 7l1 2q0 2 1 2v2q1 3 1 4q0 2 1 3q0 2 1 4v4q1 2 1 3v5q1 1 1 2v17q0 58 -36 130.5t-103 139.5q-6 6 -13 12q-3 5 -8 8q-9 9 -19 17q-3 1 -5 4q-6 5 -13 10q-3 3 -7 5
q-12 10 -26 19q-3 2 -7 4q-1 2 -4 2q-3 3 -7 5q-4 3 -9 5q-3 3 -7 4q-1 1 -3 2q-3 2 -7 4q-7 3 -13 6l-12 6q-61 26 -110 26h-17q-1 0 -3 -1h-6q-1 0 -2 -1q-12 -1 -23 -6q-1 0 -3 -1q-3 -1 -7 -3q-1 0 -2 -1q-1 0 -2 -1q-3 -1 -4 -2l-2 -2q-6 -3 -11 -8q-3 -1 -4 -3
q-2 0 -2 -2q-2 0 -2 -2l-4 -4q-5 -5 -8 -11q0 -1 -1 -3q-1 0 -2 -2q0 -1 -1 -2q0 -1 -1 -2l-1 -2l-1 -2l-1 -2v-2l-3 -6v-2l-3 -9v-3q-1 -1 -1 -3q0 -1 -1 -2v-6q-1 -1 -1 -3v-6q0 -1 -1 -3zM2128 594h-698v67h698v-67z" />
    <glyph glyph-name="minus" unicode="&#x2212;" horiz-adv-x="999" 
d="M5 686v91h834v-91h-834z" />
    <glyph glyph-name="uFB00" unicode="&#xfb00;" horiz-adv-x="1838" 
d="M1558 1386h6q73 0 110 32l22 19v-29q-9 -117 -109 -162l-8 -2q-26 -9 -56 -9q-36 0 -78 11q-8 3 -16 5q-6 2 -13 4l-34 12q-37 14 -76 24q-14 3 -29 6q-28 8 -60.5 14.5t-63.5 6.5q-51 0 -77 -24q-17 -16 -28 -49q-8 -26 -11 -59v-165h455v-41h-455v-822q0 -47 33 -80
t80 -33l13 2v-43h-440v43l14 -2q47 2 79 33.5t33 78.5v823h-534v-822q0 -47 32.5 -80t79.5 -33l14 2v-43h-441v43l14 -2q47 2 79 33.5t33 78.5v823h-126v41h127q3 37 4 49q10 58 34 111q43 95 129 160q26 20 54 35q86 46 193 46q56 0 121 -12q14 -3 27 -5q73 -16 146 -19h7
q72 0 109 32l23 19l-1 -29q-9 -117 -109 -162l-8 -2q-26 -9 -56 -9q-36 0 -78 11q-8 3 -16 5l-12 4q-18 6 -35 12q-37 14 -76 24q-14 3 -29 6q-28 8 -60.5 14.5t-62.5 6.5q-52 0 -78 -24q-17 -16 -28 -49q-8 -26 -10 -59v-165h535q3 37 4 49q10 58 34 111q43 95 129 160
q26 20 54 35q86 46 193 46q55 0 121 -12q13 -3 27 -5q72 -16 146 -19z" />
    <glyph glyph-name="uFB01" unicode="&#xfb01;" horiz-adv-x="1276" 
d="M311 1020h853v-42l-14 1h-8q-45 -4 -74.5 -36t-29.5 -76v-708q1 -48 33.5 -80t78.5 -32l14 1v-42h-439v42l13 -1q48 1 80 33.5t32 78.5v710q-1 46 -32.5 77.5t-78.5 32.5h-428v-820q0 -46 32.5 -79t79.5 -33l14 1v-42h-440v42l14 -1q47 1 78.5 32.5t33.5 78.5v821h-126
v41h127q2 38 4 49q9 58 33 111q43 95 129 160q26 19 55 35q85 45 192 45q55 0 120 -12q14 -2 28 -5q72 -15 145 -19h7q72 0 109 32l22 20v-30q-9 -116 -109 -161l-8 -2q-26 -9 -56 -9q-35 0 -77 11q-9 3 -16 5t-13 4l-34 12q-38 14 -76 23q-14 3 -30 7q-28 7 -60 13.5
t-62 6.5q-52 0 -78 -24q-17 -16 -28 -48q-8 -26 -10 -59v-165zM850 1151q0 39 27.5 66.5t66.5 27.5t66.5 -27.5t27.5 -66.5t-27.5 -66.5t-66.5 -27.5t-66.5 27.5t-27.5 66.5z" />
    <glyph glyph-name="uFB02" unicode="&#xfb02;" horiz-adv-x="1263" 
d="M1191 47l14 1v-42h-178q-27 0 -52 10q-80 36 -86 124v993q-8 86 -90 109q-33 1 -72 12l-16 4q-6 2 -13 4l-34 12q-38 14 -77 24q-13 3 -29 7q-28 7 -60.5 13.5t-63.5 6.5q-52 0 -77 -24q-18 -16 -29 -49q-8 -26 -10 -60v-165h456v-42h-456v-825q1 -48 33.5 -80.5
t78.5 -32.5l14 1v-42h-442v42l14 -1q47 1 79 32.5t33 79.5v826h-126v42h127q3 38 4 49q10 58 34 112q43 95 130 161q26 19 55 35q85 46 194 46q55 0 120 -12q14 -3 28 -5q73 -16 147 -20h6q73 0 111 33l22 19l-1 -29q-4 -80 -60 -132h21v-1q59 0 103 -45q2 -3 5 -6
q1 -1 2 -3q1 -1 2 -3l1 -1q1 -1 2 -3q2 -2 3 -4q6 -9 10 -20q8 -18 10 -37v-1002q1 -47 33.5 -79.5t79.5 -32.5z" />
    <glyph glyph-name="uFB03" unicode="&#xfb03;" horiz-adv-x="2036" 
d="M1039 1023h855v-43l-14 1h-8q-44 -4 -74 -36t-30 -76v-710q2 -47 34 -79.5t78 -32.5l14 1v-42h-440v42l14 -1q47 2 79.5 34t32.5 78v712q-2 47 -33.5 78t-78.5 32h-429v-821q0 -47 33 -80t79 -33l14 1v-42h-440v42l14 -1q47 2 78.5 33t33.5 79v822h-535v-821
q0 -47 33 -80t79 -33l14 1v-42h-440v42l13 -1q48 2 79.5 33t32.5 79v822h-125v42h126q3 37 4 49q10 58 34 111q43 95 129 160q26 20 55 35q85 46 193 46q55 0 120 -12q14 -3 28 -5q72 -16 145 -19q4 -1 7 -1q72 0 110 33l22 19l-1 -29q-9 -117 -109 -162q-3 -1 -7 -2
q-27 -9 -57 -9q-35 0 -77 11q-9 3 -17 5l-12 4q-18 6 -34 12q-38 14 -77 23q-13 4 -29 7q-28 8 -60.5 14.5t-62.5 6.5q-52 0 -77 -24q-18 -17 -29 -49q-8 -26 -10 -60v-164h536q2 37 4 49q9 58 33 111q43 95 129 160q26 20 55 35q85 46 193 46q55 0 120 -12q14 -3 28 -5
q72 -16 146 -19q3 -1 6 -1q73 0 110 33l22 19v-29q-9 -117 -109 -162l-8 -2q-26 -9 -57 -9q-35 0 -77 11q-9 3 -16 5q-6 2 -13 4l-34 12q-38 14 -76 23q-14 4 -30 7q-28 8 -60 14.5t-63 6.5q-51 0 -77 -24q-18 -17 -28 -49q-8 -26 -11 -60v-164zM1580 1154q0 39 27.5 66.5
t66.5 27.5t66.5 -27.5t27.5 -66.5t-27.5 -67t-66.5 -28t-66.5 28t-27.5 67z" />
    <glyph glyph-name="uFB04" unicode="&#xfb04;" horiz-adv-x="2016" 
d="M1916 44l14 1v-42h-177q-27 0 -52 10q-79 36 -86 123v990q-8 86 -89 109q-33 1 -72 11q-8 3 -16 5q-6 2 -13 4l-34 12q-37 14 -76 23q-14 4 -30 7q-28 8 -60 14.5t-63 6.5q-52 0 -77 -24q-18 -17 -28 -49q-9 -26 -11 -60v-165h455v-41h-455v-823q1 -48 33.5 -80t78.5 -32
l14 1v-42h-441v42l14 -1q48 1 79.5 32.5t32.5 78.5v824h-540v-823q1 -48 33 -80t79 -32l14 1v-42h-441v42l14 -1q47 1 79 32.5t33 78.5v824h-126v41h127q2 38 4 50q9 57 34 111q43 95 129 160q26 20 55 35q85 46 193 46q55 0 120 -12q14 -3 28 -5q72 -16 146 -19h6
q73 0 110 32l22 19v-29q-9 -117 -109 -162q-4 -1 -8 -3q-26 -8 -57 -8q-35 0 -77 11q-9 3 -16 5t-13 4l-34 12q-38 14 -77 23q-13 4 -29 7q-28 8 -60.5 14.5t-62.5 6.5q-52 0 -78 -24q-17 -17 -28 -49q-8 -26 -10 -60v-165h541q3 38 4 50q10 57 34 111q43 95 129 160
q26 20 55 35q85 46 193 46q55 0 120 -12q14 -3 28 -5q72 -16 146 -19h7q72 0 110 32l22 19l-1 -29q-4 -80 -60 -132h21q59 0 103 -45l4 -6l3 -3q1 -1 2 -3l1 -1q1 -2 2 -3l2 -4q6 -9 11 -20q7 -18 9 -37q1 -2 1 -3v-995q1 -48 33 -80t79 -32z" />
  </font>
</defs>
</svg>
