<?xml version="1.0" standalone="no"?>
<!DOCTYPE svg PUBLIC "-//W3C//DTD SVG 1.1//EN" "http://www.w3.org/Graphics/SVG/1.1/DTD/svg11.dtd" >
<svg xmlns="http://www.w3.org/2000/svg" xmlns:xlink="http://www.w3.org/1999/xlink" version="1.1">
<metadata>
Created by FontForge 20201107 at Sat Jun 10 11:29:07 2023
 By 
Blue Curve Designstudio. 2023. All Rights Reserved
</metadata>
<defs>
<font id="Bergamasco-Semibold" horiz-adv-x="0" >
  <font-face 
    font-family="Bergamasco Semibold"
    font-weight="600"
    font-stretch="normal"
    units-per-em="2048"
    panose-1="2 0 5 0 0 0 0 0 0 0"
    ascent="1638"
    descent="-410"
    x-height="1018"
    cap-height="1439"
    bbox="-317 -424 2204 1834"
    underline-thickness="0"
    underline-position="0"
    unicode-range="U+0020-FB04"
  />
<missing-glyph horiz-adv-x="1024" 
 />
    <glyph glyph-name=".notdef" horiz-adv-x="1024" 
 />
    <glyph glyph-name=".null" 
 />
    <glyph glyph-name="nonmarkingreturn" horiz-adv-x="682" 
 />
    <glyph glyph-name="space" unicode=" " horiz-adv-x="579" 
 />
    <glyph glyph-name="space" unicode="&#xa0;" horiz-adv-x="579" 
 />
    <glyph glyph-name="exclam" unicode="!" horiz-adv-x="403" 
d="M111 212q44 0 75.5 -31.5t31.5 -75.5t-31.5 -75.5t-75.5 -31.5t-75 31.5t-31 75.5t31 75.5t75 31.5zM166 284h-109l-52 1051v1q0 44 31 75.5t75 31.5t75.5 -31.5t31.5 -75.5v-1z" />
    <glyph glyph-name="quotedbl" unicode="&#x22;" horiz-adv-x="738" 
d="M83 1237q-34 11 -55 39t-21 63q0 43 31.5 74.5t74.5 31.5q44 0 75 -31.5t31 -74.5q0 -39 -12.5 -73t-30.5 -62t-36.5 -48.5t-32 -32.5t-15.5 -13l-15 -12l-50 38l20 20q33 34 36 81zM392 1237q-34 11 -55 39t-21 63q0 43 31.5 74.5t74.5 31.5q44 0 75 -31.5t31 -74.5
q0 -39 -12.5 -73t-30.5 -62t-36.5 -48.5t-32 -32.5t-15.5 -13l-15 -12l-50 38l20 20q33 34 36 81z" />
    <glyph glyph-name="numbersign" unicode="#" horiz-adv-x="1935" 
d="M1403 902l-180 -362h254v-65h-287l-234 -468h-318l-15 65h31q81 0 119 57l173 346h-436l-48 -96l-188 -372h-270l33 66h16q68 0 142.5 46t119.5 116l121 240h-386v65h419l181 362h-356v65h389l133 264l2 6v1l98 197h273l-33 -66h-16q-68 0 -141.5 -45t-119.5 -115
l-122 -242h435l234 468h316l15 -65h-31q-69 0 -109 -47l-2 -4q-6 -6 -9 -12q-47 -93 -170 -340h285v-65h-318zM543 540h436l180 362h-434z" />
    <glyph glyph-name="dollar" unicode="$" horiz-adv-x="1228" 
d="M101 863q-97 94 -97 203q0 150 168 248q121 65 275 81v46h64v-43h1q29 0 59 -2v45h64v-54q110 -20 209 -74q9 -5 13 -5l2 3q15 23 15 50v25h63v-408h-66l3 27v4q0 21 -16 46q-19 26 -45 45q-92 78 -178 122v-371q17 -6 33 -10q203 -64 327 -195q83 -92 83 -203
q0 -147 -147 -262q-132 -99 -296 -126v-52h-64v44q-20 -1 -38 -1h-22v-43h-64v50q-90 15 -171 51t-152 76l-4 2q-14 10 -28 10q-1 0 -4 -1q-11 -6 -13 -40l-1 -24l-62 1v431h65l-1 -26v-4q0 -21 12 -42t28 -39q140 -166 317 -237q7 -2 14 -5v489q-70 13 -160 49
q-33 13 -84.5 42.5t-101.5 76.5zM149 1207q-25 -33 -25 -70q0 -72 65 -131q40 -34 89 -55.5t100 -38.5l10 -4q33 -11 59 -17v393q-34 4 -67 4q-82 0 -153 -29q-52 -21 -78 -52zM511 1271v-393q27 -4 60 -12v385q-18 7 -35 12q-12 4 -25 8zM571 175v495q-30 7 -60 13v-496
q30 -8 60 -12zM635 169h17q56 0 107 12q84 18 145 68q51 42 57 89q1 7 1 14q0 6 -1 13q-14 111 -106 176.5t-208 105.5l-12 4v-482z" />
    <glyph glyph-name="percent" unicode="%" horiz-adv-x="1666" 
d="M329 9l-8 -10h-322v65h25q83 0 139 61l964 1313h321v-66h-25q-71 0 -125 -50q-2 -1 -4 -3q-7 -7 -12 -13q-482 -656 -953 -1297zM356 732q-98 0 -179.5 48.5t-129.5 129.5t-48 180t48 180t129.5 129.5t179.5 48.5q99 0 180.5 -48.5t129.5 -129.5t48 -180t-48 -180
t-129.5 -129.5t-180.5 -48.5zM127 1242v-10q0 -53 34 -119t93 -126q60 -59 124.5 -92.5t118.5 -33.5h15l1 1h5q3 1 6 1q2 0 2 1q5 0 7 2h1l1 1h2l2 1h1l1 1q2 0 2 1l2 1q10 5 16 11l6 6q2 2 2 3q2 2 3 5l2 1q0 3 2 5l1 1q0 2 1 3v1l1 1q0 2 1 4q1 1 1 2v1q0 2 1 2v1q0 2 1 2
v3l1 1v5l1 2v8q1 1 1 2v7q0 108 -127 245q-6 6 -12 11l-7 7l-18 16q-2 2 -4 3l-12 9q-3 3 -6 5q-12 9 -25 17q-3 3 -6 5l-3 2q-3 1 -7 4q-3 2 -8 4q-3 3 -6 4q-1 1 -3 2q-4 2 -7 3q-4 3 -12 6q-5 3 -10 5q-54 24 -98 24h-2l-2 -1h-11q-1 0 -1 -1h-5q-9 -2 -18 -5l-2 -1
q-1 0 -5 -2h-1l-1 -1h-1l-2 -2h-1l-1 -1q-4 -2 -8 -5v-1q-1 0 -3 -2q0 -1 -1 -1l-2 -2q0 -1 -2 -3q-3 -3 -6 -7q0 -1 -1 -2q0 -1 -1 -2l-1 -1v-2l-1 -1v-1q-1 0 -1 -2l-1 -2q0 -1 -1 -4l-1 -1v-1l-2 -6v-2q-1 -1 -1 -3v-3l-1 -1v-6q0 -1 -1 -3zM1448 356q0 -98 -48.5 -179.5
t-129.5 -129.5t-180 -48t-180 48t-129.5 129.5t-48.5 179.5q0 99 48.5 180.5t129.5 129.5t180 48t180 -48t129.5 -129.5t48.5 -180.5zM1295 148l3 3q22 25 22 64q0 52 -33.5 117.5t-93.5 126.5q-136 127 -244 127q-40 0 -64 -22l-3 -3q-22 -25 -22 -64q0 -51 33.5 -116.5
t93.5 -126.5q136 -127 244 -127q41 0 64 21z" />
    <glyph glyph-name="ampersand" unicode="&#x26;" horiz-adv-x="1191" 
d="M502 6q-137 0 -250 67.5t-180.5 180.5t-67.5 250q0 155 85.5 279.5t229.5 183.5l-49 115q-4 11 -9 22l-2 4v1q-14 42 -14 85q0 105 79 185q79 72 178 72q107 0 182.5 -75.5t75.5 -181.5q0 -85 -51 -155q-51 -66 -130 -91q-16 -5 -32 -8l295 -695q26 50 26 114
q0 63 -26 134l-12 34h171v-25q-3 -189 -128 -331l17 -40q23 -27 58 -42q37 -17 79 -17h25v-66h-328l-18 44q-97 -44 -204 -44zM388 1318l133 -315q67 7 115 54q6 6 21.5 34t15.5 69q0 31 -16 66.5t-57 71.5q-74 64 -146 64q-24 0 -50 -8q-11 -5 -16 -14q-2 -5 -2 -11t2 -11z
M345 906q-84 -32 -148 -96q-60 -63 -60 -160q0 -32 7 -67q31 -151 157 -280q79 -78 170 -121t177 -43q9 0 20 1q-104 245 -314 744q-4 12 -9 22z" />
    <glyph glyph-name="quotesingle" unicode="'" horiz-adv-x="392" 
d="M83 1237q-34 11 -55 39t-21 63q0 43 31.5 74.5t74.5 31.5q44 0 75 -31.5t31 -74.5q0 -39 -12.5 -73t-30.5 -62t-36.5 -48.5t-32 -32.5t-15.5 -13l-15 -12l-50 38l20 20q33 34 36 81z" />
    <glyph glyph-name="parenleft" unicode="(" horiz-adv-x="788" 
d="M148 1194q148 260 401 420l42 27v-112l-15 -8q-100 -50 -177 -128q-115 -115 -176.5 -275.5t-61.5 -341.5v-12q13 -488 407 -870l23 -23v-285l-42 26q-253 161 -401 421q-152 276 -152 580q0 306 152 581z" />
    <glyph glyph-name="parenright" unicode=")" horiz-adv-x="723" 
d="M439 33q-148 -260 -401 -421l-42 -26v112l15 7q100 51 177 128q114 115 176 276t62 342v12q-14 488 -407 870q-4 4 -9 8l-14 14v286l42 -27q253 -160 401 -420q152 -275 152 -581q0 -304 -152 -580z" />
    <glyph glyph-name="asterisk" unicode="*" horiz-adv-x="633" 
d="M79 1042l90 155l-164 68l4 13q1 4 3 8l4 13l167 -43l25 182h33l31 -180l161 41l4 -13q2 -4 3 -8l4 -13l-152 -62l77 -162l-9 -7q-4 -3 -8 -5l-10 -8l-124 136l-110 -136l-11 8q-4 2 -8 5z" />
    <glyph glyph-name="plus" unicode="+" horiz-adv-x="1090" 
d="M860 741v-108h-376v-376h-108v376h-377v108h377v377h108v-377h376z" />
    <glyph glyph-name="comma" unicode="," horiz-adv-x="359" 
d="M73 10q-34 11 -55 39t-21 63q0 43 31.5 74.5t74.5 31.5q44 0 75 -31.5t31 -74.5q0 -39 -12.5 -73t-30.5 -62t-36.5 -48.5t-32 -32.5t-15.5 -13l-15 -12l-50 38l20 20q33 34 36 81z" />
    <glyph glyph-name="hyphen" unicode="-" horiz-adv-x="930" 
d="M708 618v-112h-706v112h706z" />
    <glyph glyph-name="hyphen" unicode="&#xad;" horiz-adv-x="930" 
d="M708 618v-112h-706v112h706z" />
    <glyph glyph-name="period" unicode="." horiz-adv-x="391" 
d="M105 -6q-44 0 -75 31t-31 74q0 44 31 75t75 31t75 -31t31 -75q0 -43 -31 -74t-75 -31z" />
    <glyph glyph-name="slash" unicode="/" horiz-adv-x="1221" 
d="M737 1439h278l18 -66h-33q-69 0 -107 -47l-3 -3q-5 -7 -8 -12q-306 -656 -604 -1295l-7 -15h-280l-18 66h33q81 0 118 56z" />
    <glyph glyph-name="zero" unicode="0" horiz-adv-x="1587" 
d="M1216 1225q98 -104 150 -235t52 -275q0 -145 -53.5 -277.5t-154.5 -237.5q-101 -103 -230 -158t-271 -55q-139 0 -266.5 53.5t-228.5 154.5l-11 11q-98 104 -150 235t-52 274q0 146 53.5 278.5t153.5 236.5q102 104 230.5 159t270.5 55q140 0 267.5 -53.5t228.5 -154.5
q5 -6 11 -11zM1164 246q122 131 122 323q0 33 -4 67q-29 244 -213 440h-1q-2 3 -4 5l-5 5q-107 107 -234.5 165.5t-256.5 58.5q-187 0 -313 -126q-122 -131 -122 -323q0 -33 4 -67q29 -243 213 -439l10 -10v-1q233 -223 491 -223q188 0 313 125z" />
    <glyph glyph-name="one" unicode="1" horiz-adv-x="633" 
d="M437 71l27 2v-68h-463v68l27 -2q42 1 70.5 29.5t28.5 69.5v985h-126v58l20 4l36 8q32 8 61 22q51 28 90 74q18 23 31 49q7 12 12 26l9 27l6 18h73v-1271q0 -41 28.5 -69.5t69.5 -29.5z" />
    <glyph glyph-name="two" unicode="2" horiz-adv-x="1288" 
d="M1079 228l39 21l-3 -45q-7 -73 -59.5 -131t-134.5 -82q-48 -13 -105 -13q-49 0 -95.5 8t-83.5 17q-25 7 -51 13q-105 31 -214 37h-2q-46 0 -111.5 -14t-116 -28.5t-51.5 -14.5l-3 -1h-39l-7 15l-5 13q-35 89 -35 186q0 36 5 73q19 134 94 243q12 18 26 34q85 103 207 152
q57 21 119.5 25.5t124.5 4.5h48q136 2 256 62q47 25 81 61q42 46 42 102q0 31 -13 60q-2 3 -2 4q-39 79 -146 151q-167 112 -337 128q-24 2 -48 2q-51 0 -99 -10q-20 -3 -41 -9h-1q-13 -3 -26 -8l-1 -1q-49 -20 -77.5 -63t-28.5 -96v-25h-65v164l9 8q71 59 155 98
q158 74 326 74q93 0 181 -23q150 -39 233 -130q82 -92 89 -216v-12q0 -114 -71 -212q-57 -74 -146 -116l-2 -1q0 -1 -2 -1q-77 -34 -158.5 -45.5t-164.5 -12.5h-41q-58 0 -114 -9q-58 -15 -109 -45q-108 -63 -166 -177q-32 -64 -32 -137q0 -37 10.5 -72.5t33.5 -66.5
q45 16 138.5 43t158.5 27h2q57 0 113 -8t110 -17q50 -9 102 -17q54 -8 102 -8h10q114 0 192 41z" />
    <glyph glyph-name="three" unicode="3" horiz-adv-x="1288" 
d="M1066 843q78 -127 78 -271q0 -201 -145 -358q-2 -2 -5 -4q-3 -4 -8 -8q-103 -100 -233 -153t-273 -53q-171 0 -324 76q-11 5 -23 5q-16 0 -30.5 -10.5t-18.5 -30.5q-1 -6 -1 -14l2 -26h-67v460h67l-2 -26q0 -34 22 -63l13 -13h1l1 -1q37 -37 79 -69q209 -155 425 -155
q159 0 278 87q15 11 28 23q3 2 5 5q3 2 4 3l8 8q57 60 63 135v19q0 171 -115.5 320.5t-294.5 207.5q-59 17 -113 17q-28 0 -55 -5l-57 -10l282 434h-418q-70 0 -120.5 -50.5t-50.5 -121.5v-25h-66v263h1021v-66h-28q-82 0 -132 -64l-150 -230q100 -17 187 -70
q103 -64 166 -166z" />
    <glyph glyph-name="four" unicode="4" horiz-adv-x="1424" 
d="M1245 327h-272v-161q0 -41 28.5 -69.5t70.5 -29.5l26 2v-68h-463v68l27 -2q42 1 70.5 29.5t28.5 69.5v161h-761v47l854 1063h244v-68l-26 2q-42 -1 -70.5 -29.5t-28.5 -69.5v-880h34q73 3 122.5 52.5t49.5 121.5v25h66v-264zM761 1215l-663 -823h663v823z" />
    <glyph glyph-name="five" unicode="5" horiz-adv-x="1289" 
d="M1133 591v-11q0 -82 -27 -164q-59 -169 -220 -283q-150 -104 -335 -127q-42 -5 -84 -5q-148 0 -290 60l-6 2q-15 7 -30 12.5t-29 5.5q-6 0 -11 -1q-15 -3 -24.5 -16.5t-9.5 -28.5v-5l5 -29h-71v463l66 1l-1 -26v-2q0 -34 25 -63.5t50 -49.5q174 -142 353 -177
q57 -11 112 -11q149 0 265 74q55 35 90 85q23 34 32 70.5t9 72.5q0 59 -15.5 108.5t-26.5 72.5q-54 115 -157 208q-153 135 -315 140h-5q-75 0 -140.5 -40t-111.5 -115q-26 -43 -47 -105q-10 -38 -13 -73l-3 -35v-25h-68v820l14 7q7 4 22 11q88 37 205 37q62 0 124.5 -8
t115.5 -17q55 -9 111 -16t111 -7q114 0 195 37l39 19l-4 -44q-4 -38 -22 -64.5t-50 -55.5q-59 -54 -140 -74q-43 -9 -91 -9q-49 0 -99.5 8.5t-107.5 22.5l-24 6q-55 15 -110.5 26t-111.5 11q-16 0 -32 -1q-45 1 -61 -21q-11 -26 -14 -49.5t-3 -46.5v-331q95 162 270 230
q86 31 177 31q158 0 294 -88q102 -72 162 -181.5t63 -235.5z" />
    <glyph glyph-name="six" unicode="6" horiz-adv-x="1365" 
d="M1039 938q162 -165 166 -397q0 -156 -88 -303q-91 -145 -237 -209q-94 -41 -198 -41q-130 0 -257 59.5t-226 166.5q-38 42 -70 89q-123 189 -123 407v5q0 296 217 520q226 215 520 215q93 0 182 -23q41 -10 81 -25q2 -1 3 -1q5 0 7 7l-2 27h68v-338h-68l2 27q0 50 -43 82
q-3 2 -7 4q-31 20 -63 36q-75 31 -153 49.5t-154 18.5q-196 0 -328 -127q-127 -133 -127 -326q0 -29 3 -58q75 138 207.5 218t289.5 80q225 0 398 -163zM378 947q-74 -30 -119.5 -96t-48.5 -149v-10q0 -87 36 -167.5t95.5 -148.5t132.5 -120.5t149 -86.5q47 -21 97.5 -37.5
t102.5 -16.5q24 0 49 5q101 24 149.5 105t48.5 176q0 30 -5 59q-31 178 -177 325q-96 96 -212 144q-95 38 -181 38q-63 0 -117 -20z" />
    <glyph glyph-name="seven" unicode="7" horiz-adv-x="1384" 
d="M3 1437h1217v-66h-26q-73 0 -115 -65l-653 -1154q-11 -25 -11 -45q0 -14 6 -24q12 -17 40 -17l27 2l-1 -68h-463v68l27 -2q34 0 67.5 20.5t54.5 54.5v1q270 481 689 1229h-620q-72 0 -122.5 -51t-50.5 -122v-26h-66v265z" />
    <glyph glyph-name="eight" unicode="8" horiz-adv-x="1384" 
d="M1224 548q21 -58 21 -117q0 -55 -19 -108q-41 -111 -191 -214q-191 -126 -412 -126q-75 0 -146 15q-140 29 -261 111q-117 80 -171 177q-40 73 -40 150q0 48 15 97q28 84 86.5 141.5t119.5 95.5q36 23 74 42q2 0 7 4q3 2 4 2q-67 32 -121 82t-75 130q-8 33 -8 66
q0 78 42 148q36 58 95 97q74 45 135 65q112 41 238 41q26 0 51 -1q143 -11 274 -71q217 -104 217 -286q0 -61 -27 -118q-6 -15 -16 -29q-1 -3 -4 -6q-31 -45 -74 -74.5t-87 -49.5q0 -1 1 -1q54 -26 116 -71.5t111 -109.5q29 -38 45 -82zM1029 945q12 20 12 40q0 25 -12.5 48
t-28 40.5t-25.5 26.5q-12 12 -24 22q-59 50 -140 95.5t-173 75t-182 29.5q-114 0 -194 -55q-29 -20 -35 -54q-1 -7 -1 -15q0 -37 25 -71q76 -100 235 -177q149 -71 309 -71q41 0 82 5q46 5 88.5 18t63.5 43zM1001 518q-78 82 -175 136q-182 99 -355 99q-154 0 -264 -80
q-69 -53 -69 -125q0 -48 32 -99q58 -91 187 -185q112 -82 236 -119q93 -27 183 -27q75 0 142 19q110 33 168 101q33 41 33 87q0 8 -1 17q-9 48 -44.5 94t-72.5 82z" />
    <glyph glyph-name="nine" unicode="9" horiz-adv-x="1350" 
d="M171 500q-165 171 -165 396v5q0 154 87 299q91 144 237 209q95 41 198 41q130 0 257 -60t226 -167q39 -42 70 -89q124 -190 124 -412q-5 -303 -217 -519q-106 -105 -240 -160t-281 -55q-93 0 -182 22q-41 11 -81 26h-3q-4 0 -7 -6l2 -27h-68v338h68l-2 -27q0 -49 43 -82
q4 -3 7 -4v-1q31 -19 64 -36q75 -31 152.5 -49t153.5 -18q197 0 328 127q127 134 127 326q0 28 -3 57q-75 -137 -207 -217.5t-290 -80.5q-112 0 -215 42t-183 122zM832 491q75 30 120 96t48 149v10q0 87 -36 167.5t-95.5 148.5t-132.5 120.5t-149 85.5q-47 22 -98 38.5
t-103 16.5q-24 0 -48 -5q-101 -24 -149.5 -105.5t-48.5 -176.5q0 -30 5 -59q32 -177 177 -325q96 -94 212 -144q96 -38 181 -38q63 0 117 21z" />
    <glyph glyph-name="colon" unicode=":" horiz-adv-x="394" 
d="M105 3q-43 0 -74 31t-31 75q0 43 31 74t74 31q44 0 75 -31t31 -74q0 -44 -31 -75t-75 -31zM105 828q-43 0 -74 31t-31 74q0 44 31 75t74 31q44 0 75 -31t31 -75q0 -43 -31 -74t-75 -31z" />
    <glyph glyph-name="semicolon" unicode=";" horiz-adv-x="415" 
d="M107 213q44 0 75.5 -31t31.5 -75q0 -39 -12.5 -73t-31 -62t-37 -49t-32 -32.5t-15.5 -13.5l-15 -12l-50 39l20 20q32 34 36 81q-34 11 -55 39t-21 63q0 44 31 75t75 31zM107 1045q44 0 75.5 -31.5t31.5 -75.5t-31.5 -75t-75.5 -31t-75 31t-31 75t31 75.5t75 31.5z" />
    <glyph glyph-name="less" unicode="&#x3c;" horiz-adv-x="888" 
d="M572 1046h135l-423 -332l423 -332h-135l-580 332z" />
    <glyph glyph-name="equal" unicode="=" horiz-adv-x="1104" 
d="M860 974v-108h-862v108h862zM-2 544v108h862v-108h-862z" />
    <glyph glyph-name="greater" unicode="&#x3e;" horiz-adv-x="887" 
d="M127 1046l580 -332l-580 -332h-135l424 332l-424 332h135z" />
    <glyph glyph-name="question" unicode="?" horiz-adv-x="1199" 
d="M72 1122v-26h-66v166l9 8q72 60 158 100q162 75 334 75q95 0 186 -23q154 -40 238 -132q83 -94 91 -220v-10q0 -55 -16 -108q-19 -60 -57 -108q-27 -36 -64 -65q-81 -67 -220 -96q-6 -1 -14 -3q-23 -5 -43 -12q-38 -15 -66 -44q-21 -25 -35.5 -81.5t-15.5 -99.5l-1 -25
h-58l-6 18q-24 99 -24 169v13q0 29 20 60q18 22 44 32.5t36 12.5q9 2 20 4q36 8 72 12q34 5 67 12q68 14 125 44q29 16 57.5 39t48 54.5t19.5 70.5v2q0 32 -13 61q-2 2 -2 5q-40 80 -150 153q-171 113 -345 129q-23 2 -49 2q-51 0 -101 -9q-21 -4 -41 -10h-2q-12 -3 -26 -8
l-1 -1q-50 -21 -79.5 -64.5t-29.5 -96.5zM451 210q44 0 75.5 -31.5t31.5 -75.5t-31.5 -75.5t-75.5 -31.5q-45 0 -76 31.5t-31 75.5t31 75.5t76 31.5z" />
    <glyph glyph-name="at" unicode="@" horiz-adv-x="1649" 
d="M738 -17q-147 0 -281 55t-239 160t-160 239t-55 281q0 148 55 281.5t160 238.5t239 160.5t281 55.5q207 0 389 -112q174 -109 266 -290l9 -18q47 -98 63 -206q8 -54 8 -110q0 -28 -8 -76q-19 -96 -92 -156t-169 -60q-88 0 -163 58l-17 17q-44 -59 -108 -95
q-85 -47 -178 -47q-144 0 -255 106q-104 109 -104 252v4q5 151 106 251.5t252 105.5h1q93 0 177 -48q101 -58 180 -203q21 -41 38 -83q22 -54 50 -100t79 -74q19 -10 37 -10t30 12q14 17 14 43q0 23 -6.5 48.5t-14.5 48.5q-4 15 -8 27q-29 105 -89 201q-19 30 -40 57
q-4 7 -9 13q-32 41 -69 77q-112 111 -246 171t-270 60q-195 0 -326 -127q-64 -65 -95.5 -148.5t-31.5 -177.5q0 -130 58.5 -265.5t172.5 -250.5q112 -110 246 -170t270 -60q195 0 326 126q35 35 61 78l7 12h88l-28 -40q-101 -144 -257 -227q-164 -85 -344 -85zM945 512
q9 10 15 23q9 23 9 47q0 41 -18.5 83t-40.5 74.5t-35 48.5q-99 119 -230 154q-26 6 -49 6q-22 0 -40 -6q-28 -12 -37.5 -33.5t-10.5 -37.5v-12q0 -54 34 -119.5t93 -124.5q38 -39 94 -76t125 -49q12 -2 22 -2q44 0 69 24z" />
    <glyph glyph-name="A" unicode="A" horiz-adv-x="1601" 
d="M1525 71v-69h-458v66h25q11 0 24 4t22 16q8 12 8 30t-9 40l-1 2l-168 408q-54 9 -111 9q-181 0 -330 -85.5t-223 -232.5l-9 -22l-2 -5q-15 -37 -15 -69q0 -50 37 -77l1 -1q26 -17 65 -17h26l-1 -66h-458l1 66h25q75 0 149 52.5t108 130.5l2 5l393 957q14 34 14 65
q0 40 -24 67q-46 31 -87 31l-27 -2v68h324l520 -1265q20 -46 64.5 -77.5t87.5 -31.5zM843 643h95l-237 576q-7 -13 -13 -26l-4 -10l-292 -711q123 110 294 151q8 2 18 4q68 15 139 16z" />
    <glyph glyph-name="B" unicode="B" horiz-adv-x="1432" 
d="M1202 784q74 -125 74 -265q0 -126 -56 -234t-152 -180t-220 -95l-22 -3q-33 -4 -66 -4h-766v68l27 -2q42 1 70 29.5t28 69.5l1 1106q-2 42 -33 71q-29 25 -66 25l-27 -2v68h766q45 0 87 -17q68 -28 107 -86.5t39 -130.5q0 -65 -35 -123q-23 -38 -58 -64q81 -23 151 -71
q93 -64 151 -160zM900 1117q1 6 1 13l-3 18q-4 19 -13 35q-8 15 -17 27q-7 8 -14 15q-140 145 -366 145h-58q-42 -1 -70.5 -29.5t-28.5 -69.5v-466q130 189 360 224q34 5 69 5q41 0 78 19q10 5 19 11q20 14 34 34q5 7 8 15q0 2 1 4zM430 69h330q180 0 318 131q66 68 66 174
v7l-1 2v10q0 8 -1 16q0 3 -1 7v2q0 3 -1 6q-1 9 -3 17q0 3 -1 7v1q-1 4 -2 7v1q0 2 -1 5q0 2 -1 4v1q-9 33 -22 66q-4 14 -12 27q-2 5 -4 9l-7 14q-2 3 -2 4l-1 1l-10 19l-3 4q-1 2 -2 3q-2 4 -5 8q-5 8 -11 17q-5 8 -10 15l-2 2q-2 3 -5 7l-6 8q-1 2 -3 4h-1q0 2 -2 4h-1
q0 2 -2 3l-1 1q-1 2 -3 4q-2 3 -4 5q-12 15 -26 29l-22 22q-6 6 -11 10t-11 10l-5 5q-2 2 -5 4q-8 7 -17 14q-6 5 -13 9q-9 8 -19 14q-3 2 -4 3h-1l-3 3h-1q-1 2 -4 3q-5 4 -11 7q-5 3 -11 7q-2 2 -5 3l-2 1q-1 0 -4 2q-6 4 -13 7q-5 2 -8 4l-1 1l-2 1l-2 1q-1 0 -4 2
q-5 1 -8 4h-1q-9 4 -16 7q-1 1 -3 2q-6 2 -11 4q-1 0 -4 1l-1 1q-7 3 -15 5q-2 1 -4 1v1q-3 0 -6 2q-4 2 -9 2q-4 2 -8 3h-1q-5 2 -11 3q-16 4 -33 7h-3l-3 1q-12 2 -21 2q-2 1 -5 1h-8q-1 0 -4 1h-33q-1 0 -3 -1h-8q-3 0 -5 -1h-7q-2 -1 -4 -1h-2q-3 -1 -6 -1h-1
q-3 -1 -6 -1l-2 -1h-3l-4 -2h-1q-1 0 -4 -1h-1q-1 0 -3 -1h-1q-1 0 -3 -1h-1l-4 -1l-3 -1l-2 -1h-1q-5 -2 -11 -4q-2 -2 -5 -2q-1 -1 -3 -2h-1l-2 -1l-1 -1q-4 -1 -9 -4q-1 0 -3 -1v-1q-3 0 -4 -2h-1l-1 -1h-1l-1 -1q-1 0 -3 -2l-3 -2h-1l-3 -3h-1l-1 -1h-1l-4 -4h-1l-1 -1
q-3 -3 -8 -6q0 -2 -2 -2l-5 -5h-1v-1l-1 -1h-1l-6 -6q-75 -77 -108 -179v-487q0 -41 29 -70t70 -29z" />
    <glyph glyph-name="C" unicode="C" horiz-adv-x="1420" 
d="M1234 302l52 -44l-17 -19q-105 -118 -246.5 -182t-297.5 -64q-291 0 -512 212q-103 103 -157.5 234.5t-54.5 276.5t54.5 276.5t157.5 235.5q221 212 512 212q170 0 322 -76q8 -4 17 -4q23 0 36 22q9 20 9 41l-3 27h68v-459h-68l3 27q0 39 -29 68v1l-2 2q-40 39 -84 71
q-204 146 -414 146q-192 0 -321 -124q-124 -130 -124 -319q0 -35 4 -71q31 -244 223 -439q110 -109 242 -168t265 -59q194 0 321 125q16 15 28 31z" />
    <glyph glyph-name="D" unicode="D" horiz-adv-x="1442" 
d="M1110 1165q150 -201 150 -444t-150 -444q-148 -191 -379 -260h-1q-56 -16 -116 -16h-614v68l27 -2q69 4 94 68q2 5 3 11q2 10 2 20v1112q0 5 -1 10q0 4 -1 8l-3 12q-25 64 -94 67l-27 -2v68h617q57 0 111 -15l3 -1q231 -69 379 -260zM1000 249q52 53 82 120q38 95 38 189
t-27 180t-61.5 153.5t-62.5 108.5q-97 146 -230 259q-74 61 -140 89q-40 17 -79 24l-9 1q-11 2 -23 2h-50q-51 0 -84 -46q-15 -24 -15 -53v-1110q0 -40 29 -69.5t70 -29.5h175q54 0 104 14q58 18 112 45q95 47 171 123z" />
    <glyph glyph-name="E" unicode="E" horiz-adv-x="1318" 
d="M1154 1169h-65v25q0 71 -49.5 120.5t-122.5 52.5h-484q-42 -2 -70 -30t-28 -69v-506q0 -9 11 -11h403q72 3 121.5 52.5t49.5 120.5v25h65v-460h-65v25q0 71 -49.5 120.5t-121.5 51.5h-404q-10 -2 -10 -11v-505q0 -41 28 -69.5t70 -29.5h484q73 2 122.5 51.5t49.5 120.5
v25h65v-262h-1154v67l26 -2q42 1 70 29.5t28 69.5v1100q-2 41 -29.5 68t-68.5 29l-26 -3v68h1154v-263z" />
    <glyph glyph-name="F" unicode="F" horiz-adv-x="1348" 
d="M-7 1435h1156v-263h-66v25q0 71 -49 120.5t-122 52.5h-485q-42 -2 -70 -30t-28 -69v-507q0 -9 10 -11h398l6 1q73 2 122.5 51.5t49.5 120.5v25h65v-460h-65v25q0 71 -49.5 120.5t-122.5 51.5h-404q-10 -2 -10 -11v-506q0 -41 28 -69.5t70 -29.5l26 2v-67h-460v67l26 -2
q42 1 70.5 29.5t28.5 69.5v1102q-2 41 -30 68t-69 29l-26 -3v68z" />
    <glyph glyph-name="G" unicode="G" horiz-adv-x="1440" 
d="M599 759h677v-766h-68l2 27q0 47 -39 78q-15 11 -35 11q-16 0 -32 -9q-178 -107 -379 -107h-11q-295 8 -504 217q-208 222 -208 508q5 298 212 510q104 103 235 157.5t276 54.5q170 0 322 -76q9 -4 18 -4q23 0 35 22q9 20 9 42l-2 26h67v-459h-67l2 27q0 39 -28 69h-1
q0 2 -1 2h-1q-39 39 -83 71q-204 146 -414 146q-192 0 -321 -124q-124 -130 -124 -319q0 -35 4 -71q31 -244 223 -438q110 -109 242 -168t265 -59q107 0 195 39v528h-466v65z" />
    <glyph glyph-name="H" unicode="H" horiz-adv-x="1624" 
d="M1318 1274v-1105q0 -41 28 -69.5t70 -29.5l27 2v-68h-463v68l27 -2q42 1 70.5 29.5t28.5 69.5v509q0 9 -11 11h-825v-447q2 -73 52 -122.5t122 -49.5h25v-66h-463v66h25q72 0 121.5 49.5t52.5 122.5v959q-3 73 -52.5 122.5t-121.5 49.5h-25v66h463v-66h-25
q-72 0 -122 -49.5t-52 -122.5v-447h825q9 0 11 11v511q-2 41 -30 68.5t-69 28.5l-27 -2v68h463v-68l-27 2q-42 -1 -70 -29.5t-28 -69.5z" />
    <glyph glyph-name="I" unicode="I" horiz-adv-x="620" 
d="M334 1268v-1100q0 -41 28.5 -69t70.5 -29l26 2v-68h-460v68l26 -2q42 1 70 29t28 69v1102q-2 41 -29.5 68t-68.5 28l-26 -2v67h460v-67l-26 2q-42 -1 -70.5 -29.5t-28.5 -68.5z" />
    <glyph glyph-name="J" unicode="J" horiz-adv-x="1337" 
d="M738 1436h468v-69l-27 2q-42 -1 -71 -30t-29 -70v-523q0 -75 -12 -166t-47 -185.5t-100 -180.5q-57 -73 -133 -127l-14 -9q-29 -21 -60 -37l-2 -1h-1q-9 -4 -19 -9q-39 -18 -81 -29q-39 -10 -85 -10h-20q-69 4 -137 18q-91 20 -184 24h-9q-48 0 -84 -11
q-43 -13 -68 -30.5l-25 -17.5l1 40q7 128 110 197q17 11 35 18q39 15 85 15q47 0 101 -15q12 -3 21 -6t17 -5q22 -8 44 -15q49 -19 97 -30q30 -7 63 -8q11 -1 21 -1q43 0 89 6.5t86 22.5q72 28 90 100q4 17 6 34q1 20 1 40v901q0 41 -28.5 70t-71.5 30l-27 -2v69z" />
    <glyph glyph-name="K" unicode="K" horiz-adv-x="1432" 
d="M1244 68l26 2v-68h-463v68l27 -2q41 0 70 29t29 70v250q0 146 -64.5 252t-161.5 120q-5 1 -13 1h-344q-9 0 -11 -11v-612q0 -41 29.5 -70t69.5 -29l27 2v-68h-464v68l27 -2q41 0 70 29t29 70v1109q-2 42 -30 69.5t-69 27.5l-27 -2v68h464v-68l-27 2q-41 0 -70 -29
t-29 -70v-407q0 -9 11 -11h239q21 0 40 2q38 3 72 14t67 26q32 16 60 38q29 21 53 47q25 26 44 56q20 31 33 64q15 34 22 69q4 18 4 36v8q-2 23 -10 45q-12 34 -37 58q-24 26 -56 40q-34 14 -70 14h-25v66h463v-66h-25q-22 0 -45 -6q-35 -9 -64 -32t-46 -55q-9 -16 -13 -34
q-6 -23 -7 -47l-3 -24q-22 -126 -107 -226q-58 -64 -132 -105q9 -2 17 -4q81 -22 149 -75q82 -64 127 -154.5t45 -193.5v-250q0 -41 29 -70t70 -29z" />
    <glyph glyph-name="L" unicode="L" horiz-adv-x="1325" 
d="M1093 269h66v-264h-1161v67l26 -2q42 2 69.5 29t29.5 68v1107q0 41 -28.5 69.5t-70.5 30.5l-26 -3v68h462v-68l-26 3q-42 -2 -70.5 -30.5t-28.5 -69.5v-1105q0 -40 28.5 -68.5t70.5 -30.5h487q73 3 122.5 52.5t49.5 121.5v25z" />
    <glyph glyph-name="M" unicode="M" horiz-adv-x="1782" 
d="M1475 1273v-1105q0 -41 28.5 -69.5t70.5 -29.5l26 2v-68h-463v68l27 -2q42 1 70.5 29.5t28.5 69.5v965l-397 -753l-23 -45l-3 -5l-79 -151l-495 940v-878q2 -73 52 -122.5t121 -49.5h26v-66h-463v66h25q71 0 121 49.5t52 122.5v959q-2 73 -52 122.5t-121 49.5h-25v66h320
l31 -58l4 -8l479 -911l433 822l25 47l56 108h250v-68l-26 2q-42 -1 -70.5 -29.5t-28.5 -69.5z" />
    <glyph glyph-name="N" unicode="N" horiz-adv-x="1634" 
d="M1249 1199v-959q3 -73 52.5 -122.5t121.5 -49.5h25v-66h-320l-38 53l-822 1119v-934q2 -73 52 -122.5t121 -49.5h25v-66h-463v66h26q71 0 121 49.5t52 123.5v958q-2 74 -52 123.5t-121 49.5h-26v65h322l38 -51l821 -1118v931q-2 73 -52 123t-122 50h-25v65h463v-65h-25
q-72 0 -121.5 -50t-52.5 -123z" />
    <glyph glyph-name="O" unicode="O" horiz-adv-x="1630" 
d="M1240 1238q104 -104 158.5 -235.5t54.5 -277.5q0 -145 -54.5 -277t-158.5 -236q-103 -103 -235 -158t-278 -55q-145 0 -277 55t-236 158q-103 104 -157.5 236t-54.5 277q0 146 54.5 277.5t157.5 235.5q104 104 236 158.5t277 54.5q146 0 278 -54.5t235 -158.5zM1194 258
q63 64 94 147t31 175q0 129 -57.5 262t-170.5 247q-110 109 -242.5 168.5t-266.5 59.5q-192 0 -322 -125q-124 -130 -124 -320q0 -35 4 -71q31 -244 223 -440q110 -109 243 -168.5t266 -59.5q194 0 322 125z" />
    <glyph glyph-name="P" unicode="P" horiz-adv-x="1445" 
d="M1130 1285q75 -76 113 -170.5t38 -193.5t-38 -194t-113 -171q-101 -100 -237 -135q-63 -16 -128 -16q-63 0 -124 15l-3 1q-137 35 -238 135q-36 36 -64 78v-467q0 -40 29 -69.5t70 -29.5l26 2v-67h-462v67l26 -2q42 2 69.5 29t29.5 68v1107q0 41 -29 70t-70 29l-26 -2v67
h797l1 -1q17 0 34 -3l22 -2v-1q20 -3 39 -8q137 -36 238 -136zM336 1272v-488q33 -104 111 -182q138 -132 318 -132t318 132q60 62 60 162q0 41 -11 88q-41 171 -188 320q-143 140 -304 185q-15 3 -29 6q-31 7 -61 8h-115q-41 0 -70 -29t-29 -70z" />
    <glyph glyph-name="Q" unicode="Q" horiz-adv-x="1641" 
d="M1415 218l43 38l-1 -58q-3 -69 -40.5 -124t-97.5 -79q-38 -14 -83 -14q-53 0 -110 19q-47 16 -85 57q-149 -70 -313 -70q-35 0 -71 3q-22 2 -43 6q-262 43 -438 244q-177 213 -177 476q0 146 55 278.5t158 236.5q105 104 237.5 159t278.5 55t278.5 -55t236.5 -159
t159 -236.5t55 -278.5q0 -153 -60 -290.5t-171 -242.5q28 -5 55 -6h5q80 0 129 41zM894 183q-34 0 -68 -12q-22 -7 -42 -22q-9 -8 -26 -23q33 -7 69 -10q18 -1 42 -1q29 0 53 2q21 2 41 8q11 4 18.5 7.5t9.5 3.5h1q-16 15 -34 29q-29 18 -64 18zM850 243q27 5 54 5
q23 0 46 -3q51 -5 100 -17q24 -6 46 -16q12 -4 23 -9q11 -4 18 -4h2q31 21 58 48q63 64 94 147t31 176q0 129 -57.5 263t-170.5 248q-111 110 -244 169.5t-268 59.5q-193 0 -323 -125q-93 -95 -118 -233q-8 -45 -8 -92q0 -108 41 -221q66 -175 200 -300q106 -96 231 -157
q8 -5 16 -8q32 -19 60 -23h1q2 0 3 1q36 30 73.5 55t83.5 35q5 0 8 1z" />
    <glyph glyph-name="R" unicode="R" horiz-adv-x="1474" 
d="M1002 196l9 -9q48 -49 114 -83t112 -34l27 3v-68h-447l-1 68l27 -2q14 0 16 15q0 4 -2 8q-7 18 -42 56l-4 3l-338 347q-5 5 -11 8v1h-1q-29 22 -55 49q-12 10 -21 22q-24 27 -44 56v-467q0 -40 29 -69.5t70 -29.5l26 2v-67h-462v67l27 -2q41 0 69.5 29.5t28.5 69.5v1104
q0 41 -28.5 70t-69.5 29l-27 -2v68h782q8 0 15 -1h1q17 -1 34 -3l22 -3q20 -4 40 -9q136 -35 237 -135q75 -76 113 -170.5t38 -193.5t-38 -194t-113 -171q-101 -100 -237 -135v-1q-51 -12 -102 -15zM341 1273v-487q34 -104 111 -182q6 -6 14 -13q120 -110 284 -118
q11 -1 20 -1q180 0 318 132q60 62 60 161q0 42 -11 89q-41 170 -188 320q-141 139 -304 184q-14 4 -29 7q-31 7 -61 7h-115q-40 0 -69.5 -29t-29.5 -70z" />
    <glyph glyph-name="S" unicode="S" horiz-adv-x="1323" 
d="M1065 636q89 -100 89 -217q0 -105 -54.5 -184.5t-141.5 -133t-191 -80.5t-204 -27q-91 0 -168 23q-150 51 -288 131q-4 2 -9 2q-9 0 -17 -12q-5 -16 -5 -31l2 -27h-68v462h68l-2 -26q0 -31 18 -57q40 -57 91 -107q5 -4 9 -10q109 -105 240 -162t263 -57q102 0 188 35
q146 59 146 163q0 7 -1 14q-8 80 -58 137.5t-124.5 97.5t-155.5 69q-81 27 -163 41q-103 16 -224 63q-35 14 -90.5 45.5t-109.5 82.5q-103 102 -103 217q0 161 185 265q142 76 314 91q28 2 55 2q14 0 28 -1q74 -5 156.5 -31.5t135.5 -48.5q9 -3 17 -3q18 0 31 12t13 30v1
l-2 27h67v-437h-67l2 26q0 39 -28 69l-1 1q-2 1 -2 2l-1 1q-41 40 -84 73q-99 77 -209.5 119.5t-211.5 42.5q-61 0 -136.5 -21.5t-115.5 -75.5q-19 -31 -19 -66q0 -72 56 -130q44 -43 100.5 -69t114.5 -45l12 -4q65 -21 126 -31q65 -10 176 -42q218 -69 351 -209z" />
    <glyph glyph-name="T" unicode="T" horiz-adv-x="1352" 
d="M0 1437h1230v-264h-66v25q0 71 -49.5 121t-122.5 52h-173q-41 -1 -69.5 -29.5t-28.5 -69.5v-1106q0 -41 28.5 -69.5t70.5 -29.5l26 2v-68h-462v68l26 -2q42 1 70.5 29.5t28.5 69.5v1108q-2 41 -29.5 68.5t-68.5 28.5h-173q-73 -2 -122.5 -52t-49.5 -121v-25h-66v264z" />
    <glyph glyph-name="U" unicode="U" horiz-adv-x="1787" 
d="M1165 1436h466v-68l-27 2q-42 -1 -71 -29.5t-29 -69.5v-525q0 -293 -128 -488q-123 -182 -339 -246q-62 -18 -109 -18q-130 0 -252 44q-117 43 -214 122q-197 166 -253 416q-15 75 -15 152v434q-3 88 -53 147.5t-122 59.5h-25v68h465v-68h-25q-72 0 -122 -59.5
t-52 -146.5v-187q3 -140 74.5 -298t183.5 -273q115 -122 234 -194.5t304 -80.5h9q96 2 161 68t65 161v913q0 25 -12 46q-29 50 -87 52l-27 -2v68z" />
    <glyph glyph-name="V" unicode="V" horiz-adv-x="1683" 
d="M1117 1440h458v-68l-27 2q-43 0 -87.5 -31.5t-64.5 -77.5l-1 -2l-493 -1199l-25 -61h-323v68l27 -2q30 0 65 18q36 18 43 57q3 11 3 24q0 30 -14 64l-395 960q-34 77 -108 129.5t-149 52.5h-25v66h457v-66h-25q-39 0 -65 -17l-1 -1q-37 -27 -37 -77q0 -31 15 -68
l395 -960q5 -13 12 -26l435 1058l1 2q9 22 9 41q0 17 -8 29q-9 12 -22 15.5t-24 3.5h-26v66z" />
    <glyph glyph-name="W" unicode="W" horiz-adv-x="1954" 
d="M1390 1439h459v-68l-27 2q-43 0 -84 -31t-56 -76l-387 -1201l-21 -62h-326v65h30q51 2 82 31q4 3 7 6q26 31 26 75q0 25 -9 53l-124 386l-178 -554l-21 -62h-326v65h30q51 2 82 31q4 3 7 6q26 31 26 75q0 25 -9 53l-309 960q-27 76 -96 128t-143 52h-22l1 66h451v-66h-23
q-40 0 -68 -17l-1 -1q-45 -32 -45 -92q0 -26 9 -55l10 -30l295 -916l223 690l-78 241q-27 76 -95 128t-142 52h-8v66h438v-66h-25q-9 0 -19 -1q-27 -3 -49 -16l-1 -1q-45 -32 -45 -92q0 -26 9 -55l305 -946l173 537q83 253 155 481l1 2q6 18 6 33q0 22 -11 37q-15 21 -50 21
h-27v66z" />
    <glyph glyph-name="X" unicode="X" horiz-adv-x="1446" 
d="M1245 68h25v-66h-452v65l24 1q19 0 39 8t31 28q8 16 8 37q0 38 -28 87l-4 5l-218 364l-240 -403l-23 -39l-1 -1q-19 -36 -19 -56q0 -10 4 -16q5 -9 15.5 -11.5t19.5 -2.5h26v-66h-455l2 68l26 -2q44 0 95.5 32.5t80.5 79.5l359 602l-243 405q-50 79 -134.5 132.5
t-160.5 53.5h-25v66h453v-66h-25q-19 0 -39.5 -6.5t-32.5 -25.5q-8 -15 -8 -35q0 -40 31 -93l221 -369l263 441l1 2q17 29 17 50q0 10 -4 18q-14 18 -35 18l-24 1v65h453v-66h-25q-45 0 -96.5 -32.5t-80.5 -79.5l-1 -2l-358 -600l240 -400l3 -6q50 -78 134.5 -131.5
t160.5 -53.5z" />
    <glyph glyph-name="Y" unicode="Y" horiz-adv-x="1385" 
d="M819 1434h451v-65h-25q-44 0 -95.5 -32.5t-80.5 -79.5l-289 -485v-605q0 -40 28 -68.5t70 -30.5l27 3v-68h-461v68l26 -3q42 2 70 30.5t28 68.5v607l-245 410q-49 79 -133.5 132t-160.5 53h-25v65h451v-65h-25q-18 0 -39 -6.5t-32 -25.5q-8 -15 -8 -35q0 -39 31 -92
l220 -368l263 441q17 29 17 51q0 10 -4 17q-14 18 -35 18l-24 1v64z" />
    <glyph glyph-name="Z" unicode="Z" horiz-adv-x="1413" 
d="M1250 1374h-25q-80 0 -127 -66l-3 -4v-1l-801 -1232h682q73 2 122.5 52t49.5 121v25h66v-264h-1211l889 1369h-630q-73 -3 -122.5 -52.5t-49.5 -121.5v-25h-66v264h1226v-65z" />
    <glyph glyph-name="bracketleft" unicode="[" horiz-adv-x="602" 
d="M-4 -176v1775h428v-115h-235v-1545h235v-115h-428z" />
    <glyph glyph-name="backslash" unicode="\" horiz-adv-x="1203" 
d="M269 1439l614 -1316q36 -56 117 -56h33l-18 -66h-280l-7 15q-298 639 -604 1295q-3 5 -8 12l-3 3q-38 47 -107 47h-33l18 66h278z" />
    <glyph glyph-name="bracketright" unicode="]" horiz-adv-x="617" 
d="M424 -176h-428v115h235v1545h-235v115h428v-1775z" />
    <glyph glyph-name="asciicircum" unicode="^" horiz-adv-x="1060" 
d="M965 1073h15l16 -53h-261l-6 6l-229 221l-235 -227h-261l16 53h14q69 0 130 50l247 238l89 86l89 -86l247 -238q61 -50 129 -50z" />
    <glyph glyph-name="underscore" unicode="_" horiz-adv-x="1374" 
d="M-7 -236v112h1237v-112h-1237z" />
    <glyph glyph-name="grave" unicode="`" horiz-adv-x="354" 
d="M118 1238q3 -47 36 -81l20 -20l-50 -38l-16 12q-2 1 -15 13t-31.5 32.5t-37 48.5t-31 62t-12.5 73q0 43 31.5 74.5t74.5 31.5q44 0 75 -31.5t31 -74.5q0 -35 -20.5 -63t-54.5 -39z" />
    <glyph glyph-name="a" unicode="a" horiz-adv-x="1313" 
d="M1128 68l26 2v-67h-200q-12 0 -24 3q-42 13 -72 46l-6 6q-1 2 -3 4q0 1 -1 2l-3 3q0 1 -1 2l-2 4q-7 10 -12 21q-2 6 -4 13q-141 -104 -309 -104q-141 0 -257.5 69.5t-186 186t-69.5 257.5t69.5 257.5t186 186t257.5 69.5q192 0 345 -133q76 -70 120 -163q45 -96 48 -203
v-366q2 -41 29.5 -68t68.5 -28zM201 834l-2 -2q-64 -71 -64 -173q0 -85 43 -179.5t125 -177.5q80 -79 174 -123.5t183 -44.5q95 0 160 53v433q-38 59 -89 110q-80 79 -174 123.5t-183 44.5q-105 0 -173 -64z" />
    <glyph glyph-name="b" unicode="b" horiz-adv-x="1339" 
d="M644 1034q142 0 259 -70t186.5 -186.5t69.5 -258.5t-69.5 -259t-186.5 -186.5t-259 -69.5q-47 0 -93 8q-121 23 -218 96q-15 -46 -53.5 -75t-88.5 -29h-187v67l27 -2q42 1 70 29.5t28 69.5v1099q0 40 -28 68.5t-70 29.5l-27 -2v67h460v-67l-26 2q-41 -1 -69 -29t-29 -69
v-333q139 100 304 100zM788 135q107 0 174 66q65 68 65 173q0 32 -6 67q-30 159 -162 293q-80 79 -174.5 123.5t-184.5 44.5q-94 0 -160 -53v-434q38 -60 89 -111q80 -80 174.5 -124.5t184.5 -44.5z" />
    <glyph glyph-name="c" unicode="c" horiz-adv-x="1099" 
d="M908 230l33 -25l-17 -21q-75 -91 -179.5 -140t-221.5 -49h-2q-215 4 -368 157q-150 161 -150 363v8q7 213 155 362q160 150 365 150q131 0 249 -63q5 -3 11 -3q15 0 22 19q2 9 2 19l-2 27h68v-440h-68l2 27q0 30 -16 54q-7 9 -14 17q-18 21 -37 40q-24 25 -50 46
q-160 124 -312 124q-108 0 -176 -66q-66 -69 -66 -176q0 -32 6 -67q31 -159 164 -295q82 -80 177 -125t185 -45q108 0 176 66q1 2 4 4q12 13 22 27l15 23z" />
    <glyph glyph-name="d" unicode="d" horiz-adv-x="1340" 
d="M1154 1365l-27 2q-42 -1 -70 -29.5t-28 -69.5v-1103q0 -41 28 -69.5t70 -29.5l27 2v-67h-188q-49 0 -88 29t-54 75q-142 -104 -312 -104q-48 0 -94 8q-143 27 -252 124l-2 2q-8 7 -15 14q-154 159 -154 369q0 109 44 208.5t125 173.5q155 135 348 135q166 0 305 -100v334
q-1 42 -29 69.5t-70 28.5l-26 -2v68h462v-68zM817 186v436q-38 60 -89 111q-81 80 -176 125t-184 45q-103 0 -170 -61l-5 -5q-66 -71 -66 -176q0 -113 76 -242q38 -63 93 -117q81 -80 175.5 -124.5t184.5 -44.5q96 0 161 53z" />
    <glyph glyph-name="e" unicode="e" horiz-adv-x="1219" 
d="M890 149q-55 -55 -125 -92q-115 -60 -241 -60q-143 0 -260.5 70t-187.5 188t-70 260q0 143 70 260.5t187.5 187.5t260.5 70t260.5 -70t187.5 -187.5t70 -260.5q0 -27 -3 -53q0 -8 -1 -16l-3 -22h-825q40 -67 98 -125q170 -164 361 -169q109 0 175 66zM176 490h715
q-41 131 -150 242q-81 80 -176 124.5t-185 44.5q-108 0 -176 -66q-58 -59 -65 -150q-1 -12 -1 -25q0 -80 38 -170z" />
    <glyph glyph-name="f" unicode="f" horiz-adv-x="954" 
d="M824 1376h6q49 3 80.5 14t46 21.5l14.5 10.5l-1 -37q-9 -121 -114 -168q-3 -2 -8 -3q-27 -9 -59 -9q-36 0 -78 12q-9 2 -16 4t-13 4l-34 12q-37 14 -73 23q-13 3 -28 6q-27 7 -58 13.5t-60 6.5q-45 0 -67 -20q-15 -14 -24 -43q-7 -23 -10 -54v-149h444v-64h-444v-789
q0 -40 28 -68t69 -30l26 3v-67h-453v67l26 -3q41 2 68 29t29 68v790h-123v64h124q2 29 4 38q9 58 33 112q43 95 130 160q26 20 55 35q86 47 194 47q54 0 119 -12q14 -3 27 -5q71 -16 140 -19z" />
    <glyph glyph-name="g" unicode="g" horiz-adv-x="1310" 
d="M937 1030h207v-67l-27 2q-39 0 -66.5 -27.5t-30.5 -67.5v-815q0 -56 -5 -97q-9 -58 -33 -111q-60 -128 -186 -197q-85 -47 -195 -47q-55 0 -120 12q-13 3 -27 5q-72 16 -141 19h-6q-33 0 -58 -4.5t-51 -20.5l-33 -25l1 41q10 122 115 169q3 2 8 3q28 9 59 9q36 0 79 -12
q9 -2 16 -4q7 -3 13 -4l34 -12q37 -14 73 -23q14 -3 29 -7q27 -6 58.5 -12.5t59.5 -6.5q45 0 67 20q15 13 24 43q6 22 8 59.5t2 67.5v183q-21 -16 -45 -30q-6 -3 -11 -6l-22 -12q-107 -52 -226 -52h-12q-13 0 -25 1q-54 4 -106 19q-160 48 -263 181q-104 140 -104 309
q0 141 69 256.5t185 184.5t256 69q168 0 308 -104q3 11 7 20q2 4 4 10q8 12 15 23q6 7 8 10q34 36 82 47q3 0 6 1zM697 137h2q67 11 112 51v423q-38 62 -91 115q-79 79 -172.5 123t-182.5 44q-105 0 -172 -64l-2 -2q-64 -71 -64 -172q0 -85 42.5 -178.5t124.5 -176.5
q120 -118 263 -155q49 -12 92 -12q26 0 48 4z" />
    <glyph glyph-name="h" unicode="h" horiz-adv-x="1378" 
d="M1235 69h25v-65h-461v65h25q71 0 121 49.5t52 122.5v227q-6 24 -18 52q-50 116 -173 245q-5 4 -9 8q-48 48 -102 81q-93 55 -165 55q-54 0 -93 -33q-50 -44 -73 -109t-23 -121v-488q15 -81 98 -89l27 5v-70h-462v70l28 -5q41 2 68.5 29.5t28.5 68.5v1108q0 41 -28 69.5
t-70 29.5l-27 -2v68h462v-68l-27 2q-41 -1 -69 -29t-29 -69v-414q37 56 90 96q108 80 238 80t237 -80q102 -79 140 -201q16 -55 16 -112v-404q2 -73 52 -122.5t121 -49.5z" />
    <glyph glyph-name="i" unicode="i" horiz-adv-x="564" 
d="M433 957h-7q-39 -3 -64.5 -31t-25.5 -66v-694q1 -41 28.5 -68.5t68.5 -28.5l26 2v-67h-455v67l26 -2q42 1 69.5 29t27.5 68v695q-1 41 -28.5 68t-68.5 28l-26 -2v67h455v-67zM232 1145q-43 0 -74 30.5t-31 73.5t31 73.5t74 30.5t73.5 -30.5t30.5 -73.5t-30.5 -73.5
t-73.5 -30.5z" />
    <glyph glyph-name="j" unicode="j" horiz-adv-x="745" 
d="M188 1025h438v-64l-25 2q-55 0 -85 -56q-2 -5 -5 -11q-4 -13 -4 -27v-803q0 -39 -5 -83q-10 -57 -33 -108q-57 -122 -178 -189q-83 -45 -188 -45q-52 0 -115 12q-13 2 -27 5q-68 14 -135 18h-8q-36 0 -67 -10.5t-49.5 -21.5l-18.5 -11l1 34q9 118 111 163q4 2 7 2
q27 9 57 9q36 0 76 -11q9 -2 16 -5l12 -3l33 -12q36 -12 71 -22q12 -2 27 -6q26 -6 56 -12.5t58 -6.5q44 0 65 20q14 12 23 41q12 44 12 92q0 18 -1 35v30l-1 888q0 39 -27.5 66.5t-65.5 27.5l-25 -2v64zM407 1144q-42 0 -71.5 29.5t-29.5 71.5t29.5 71t71.5 29t71 -29
t29 -71t-29 -71.5t-71 -29.5z" />
    <glyph glyph-name="k" unicode="k" horiz-adv-x="1203" 
d="M1021 69l26 2v-67h-187q-60 2 -103 44q-41 42 -42 102v116q0 112 -38.5 194t-95.5 92q-3 1 -7 1h-244v-388q2 -40 29 -67.5t68 -28.5l27 2v-67h-456v67l26 -2q41 1 69 29t28 68v1093q0 40 -28 68t-69 29l-26 -2v67h185q61 0 104 -43t43 -104v-656h144q19 3 38 7
q19 5 37 12t35 17q16 9 32 21q15 11 28 24q14 14 25 29q12 15 22 31q9 17 17 34q5 13 7 22v209h262v-64l-25 -1h-8q-10 0 -21 -2q-36 -6 -67 -27q-14 -10 -27 -22q-12 -13 -22 -28q-15 -26 -22 -57q-4 -17 -10 -35v-1q-4 -11 -10 -24q-9 -21 -21 -40q-12 -20 -25 -37
q-14 -17 -30 -33t-34 -29q-8 -7 -17 -12q22 -5 42 -11q38 -12 73 -33q78 -47 124 -126q47 -83 47 -176v-100q0 -40 28 -68t69 -29z" />
    <glyph glyph-name="l" unicode="l" horiz-adv-x="594" 
d="M428 67l26 3v-68h-185q-29 0 -56 11q-85 39 -92 132v1114q-2 41 -29.5 67.5t-67.5 27.5l-26 -2v67h186q62 0 109 -48q2 -3 5 -6v-1l3 -3q1 -1 1 -2l3 -3q1 -1 1 -2q2 -2 3 -4q6 -11 11 -22q8 -19 10 -40v-1123q1 -41 28.5 -69t69.5 -29z" />
    <glyph glyph-name="m" unicode="m" horiz-adv-x="1685" 
d="M1504 69h25v-64h-453v64h24q71 0 120.5 49.5t49.5 119.5v325q0 33 -9 66q-27 94 -103 157q-43 36 -102 62t-115 26q-8 0 -15 -1q-54 -3 -76 -51q-7 -16 -11 -32q-6 -26 -6 -52v-500q0 -70 50 -119.5t120 -49.5h25v-64h-454v64h25q70 0 118.5 48.5t51.5 120.5v325
q0 92 -69.5 179.5t-216.5 125.5q-25 6 -46 6q-23 0 -44.5 -8t-35.5 -27q-14 -23 -19 -49q-7 -26 -7 -52v-574q0 -4 1 -7q14 -81 95 -88l27 5v-69h-453v69l27 -5q40 2 67 29t29 67v697q-2 40 -30 67t-67 27l-26 -2v67h185q60 0 107 -47l1 -1q3 -3 5 -6t3 -4q2 -1 3 -4l1 -1
v-1q2 0 1 -1q2 -3 3 -4q3 -4 5 -9q3 -5 6 -12q3 -8 5 -16q1 -1 1 -3q90 109 223 109q80 0 147 -41t104 -111q37 70 104 111t147 41q29 0 56 -6q58 -12 106 -45q47 -33 78 -82q14 -25 25 -51q6 -14 10 -33q4 -22 6 -41q2 -41 2 -80v-445q0 -70 49.5 -119.5t119.5 -49.5z" />
    <glyph glyph-name="n" unicode="n" horiz-adv-x="1396" 
d="M1210 67h25v-64h-454v64h25q70 0 118.5 49t51.5 121v222q-6 25 -17 52q-44 105 -158 228q-35 41 -92 82.5t-132 62.5q-34 9 -63 9h-12q-48 -4 -79 -33v-1q-92 -98 -92 -226v-478q14 -80 96 -88l27 5v-69h-455v69l27 -5q41 2 68 29t28 67v698q-2 40 -29 67t-67 28l-27 -2
v66h186q61 0 107 -47l1 -1q3 -2 5 -6h1q1 -2 2 -3l2 -2v-1l2 -3l2 -2l2 -4q3 -4 5 -8q3 -6 6 -13l6 -15v-1q5 -17 5 -37v-30q36 55 89 95q105 78 233 78t234 -78q100 -78 137 -199q16 -53 16 -110v-396q2 -72 51 -121t119 -49z" />
    <glyph glyph-name="o" unicode="o" horiz-adv-x="1192" 
d="M522 1034q144 0 262 -70.5t188 -188.5t70 -261t-70 -261t-188 -188.5t-262 -70.5q-143 0 -261 70.5t-188 188.5t-70 261q0 112 43.5 209t119.5 169l1 1q70 66 161 103.5t194 37.5zM667 127q108 0 176 66q66 69 66 176q0 32 -6 67q-30 160 -163 295q-82 81 -177 125.5
t-185 44.5q-108 0 -177 -66q-66 -69 -66 -175q0 -32 7 -68q30 -159 163 -295q82 -80 177 -125t185 -45z" />
    <glyph glyph-name="p" unicode="p" horiz-adv-x="1323" 
d="M630 1020q142 0 258.5 -69t186 -185.5t69.5 -258.5q0 -141 -69.5 -257.5t-186 -186t-258.5 -69.5q-164 0 -303 99v-333q1 -41 29 -69t69 -29l27 2v-67h-187q-29 0 -56 11q-85 39 -92 132v1120q-2 40 -29.5 67t-68.5 28l-26 -2v67h189q46 0 85 -27q12 -10 23 -21
q2 -3 5 -6q1 -2 3 -4q1 -1 1 -2l3 -3l4 -6q6 -11 11 -22l4 -12q141 103 309 103zM630 59q180 0 317 131q66 69 66 175q0 31 -6 65q-31 158 -162 291q-80 80 -174.5 124t-183.5 44q-94 0 -160 -52v-660q134 -118 303 -118z" />
    <glyph glyph-name="q" unicode="q" horiz-adv-x="1313" 
d="M1120 -333l27 2v-67h-186q-29 0 -56 11q-85 39 -92 132v352q-138 -99 -302 -99q-47 0 -93 8q-142 27 -250 123l-2 2l-14 14q-154 157 -154 365q0 108 44 206.5t124 172.5q153 133 345 133q168 0 308 -103q2 6 5 12q4 11 11 22l2 4q1 1 2 1v2l4 4l2 4l6 6q44 47 109 48
h187v-67l-27 2q-40 -1 -67.5 -28t-29.5 -67v-1097q1 -42 28.5 -69.5t68.5 -28.5zM653 129q96 0 160 52v432q-37 60 -89 111q-79 79 -173 123t-183 44q-102 0 -168 -59l-6 -6q-65 -70 -65 -174q0 -112 75 -240q39 -62 93 -116q80 -79 174 -123t182 -44z" />
    <glyph glyph-name="r" unicode="r" horiz-adv-x="1073" 
d="M818 1023h67v-370h-67l2 26q-2 43 -36 78t-77 64q-38 26 -81 46l-7 4q-52 24 -102 24q-29 0 -52 -9q-55 -21 -97 -97q-40 -74 -40 -155v-108q0 -207 1 -364v-7q14 -81 96 -88l27 4v-69h-455v69l27 -4q40 2 67 29t29 67v700q-2 40 -29.5 66.5t-67.5 27.5l-26 -2v67h185
q64 -1 108 -47l1 -1q3 -3 5 -6q2 -2 3 -4q1 -1 1 -2h1l2 -3l2 -2l2 -4q3 -4 5 -9q3 -5 6 -12q3 -8 5 -16q5 -18 5 -37v-31q37 55 90 95q106 79 234 79q70 0 137 -25q9 -4 19 -8h3q8 0 9 8z" />
    <glyph glyph-name="s" unicode="s" horiz-adv-x="1002" 
d="M841 395q14 -41 14 -84q0 -36 -10 -72q-36 -125 -177 -199q-126 -64 -257 -64q-151 0 -283 82q-7 4 -13 4q-8 0 -15.5 -5t-10.5 -16q0 -7 -1 -15l2 -27h-69v471h69l-2 -27q0 -28 16 -53q1 -1 2 -3v-1q37 -54 84 -103q9 -8 19 -17q137 -125 292 -151q33 -5 61 -5
q59 0 103 19q45 18 61 51q5 11 5 26q0 23 -14 56q-40 89 -150 144q-66 30 -139 50q-38 11 -76 24l-4 1q-112 34 -222 98q-49 29 -84 79.5t-35 112.5q0 26 8 53q29 101 166 162q106 46 229 46h5q101 -1 195 -39q8 -3 15 -7q3 -1 6 -1q14 0 17 16l-3 27h70v-358h-70l3 27
q0 27 -15 52q-16 26 -39 47q-45 41 -91 63q-41 22 -117 44t-143 22q-33 0 -59 -8.5t-39 -27.5q-11 -19 -11 -36q0 -27 21.5 -50.5t49.5 -42t50 -30.5q105 -57 220 -85q70 -17 139 -44q54 -19 110 -55q63 -41 98 -107q12 -21 19 -44z" />
    <glyph glyph-name="t" unicode="t" horiz-adv-x="1009" 
d="M791 217l53 -37l-14 -21q-57 -76 -140.5 -119t-176.5 -43q-129 0 -236 79q-101 79 -139 201q-16 54 -16 111v570h-124v65h124v222q0 41 -28 69t-70 29l-26 -2v67h458v-67l-26 2q-41 -1 -69 -28.5t-29 -68.5v-223h448v-65h-448v-579q0 -25 8 -49q13 -39 44 -70.5t66 -55.5
q76 -55 151 -72q27 -6 51 -7h2q40 0 69 17q31 21 54 55z" />
    <glyph glyph-name="u" unicode="u" horiz-adv-x="1404" 
d="M24 956h-25v64h455v-64h-25q-70 0 -119 -49t-51 -120v-223q5 -24 17 -51q43 -105 157 -229q36 -40 92.5 -81.5t131.5 -63.5q34 -9 64 -9h11q49 4 79 34h1q92 98 92 226v471q0 4 -1 7q-14 81 -95 88l-27 -4v68h454v-68l-27 4q-40 -2 -67 -29t-29 -67v-698
q2 -40 29.5 -66.5t67.5 -28.5l26 3v-67h-185q-61 0 -108 47l-1 1q-2 3 -5 6q-2 2 -3 4q-1 1 -1 2h-1l-2 3q-1 1 -1 2q-1 2 -3 4q-2 4 -5 8q-3 6 -6 13q-3 8 -5 16q-5 17 -5 37v30q-37 -55 -89 -95q-106 -78 -234 -78q-127 0 -233 78q-101 78 -138 199q-16 54 -16 110v397
q-2 72 -51 120.5t-119 48.5z" />
    <glyph glyph-name="v" unicode="v" horiz-adv-x="1359" 
d="M1220 1024v-67l-27 2h-6q-96 -15 -143 -107l-345 -850h-319v67l26 -3q76 6 130 74l-260 640q-33 76 -105.5 127.5t-146.5 51.5h-25v65h451v-65h-25q-58 0 -86 -38q-16 -24 -16 -56q0 -31 15 -67l235 -580l266 655q8 21 8 39q0 17 -7 28q-9 12 -21.5 15.5t-23.5 3.5
l-26 -2v67h451z" />
    <glyph glyph-name="w" unicode="w" horiz-adv-x="1699" 
d="M1554 1021v-67l-26 2h-6q-95 -15 -134 -105l-290 -850h-320v67l26 -2q69 0 125 74l-115 339l-159 -465l-10 -13h-314v67l26 -2q69 0 125 74l-218 639q-27 75 -95.5 126t-142.5 51h-25v65h418v-65h-5q-55 0 -82 -35q-17 -25 -17 -62q0 -29 11 -64l192 -563l190 556
q-30 78 -84.5 123t-117.5 45h-5v65h398v-65h-25q-40 0 -68 -18q-15 -9 -24 -23q-19 -26 -19 -64q0 -15 4 -32q53 -157 198 -587l217 636q6 18 6 34q0 20 -10 34q-9 12 -23 16t-25 4l-26 -2v67h450z" />
    <glyph glyph-name="x" unicode="x" horiz-adv-x="1223" 
d="M1042 66v-64h-445v64h24q19 0 39 6t31 24q8 13 8 32q0 39 -34 95l-107 171q-109 -174 -153 -245q-19 -36 -19 -55q0 -10 3 -15q5 -7 14.5 -10t18.5 -3h26v-64h-446v66l26 -2q46 2 96.5 33.5t80.5 77.5l2 2l243 389l-128 205q-50 77 -135 129.5t-160 52.5h-25v64h446v-64
h-25q-18 0 -38.5 -6t-31.5 -24q-7 -13 -7 -32q0 -39 33 -94l5 -8l102 -164l152 244q21 38 21 57q0 9 -3 14q-5 7 -15 10t-19 3h-25v64h445v-66l-26 2q-44 0 -95.5 -32.5t-81.5 -78.5l-1 -1l-243 -390l127 -204q51 -78 136 -130.5t159 -52.5h25z" />
    <glyph glyph-name="y" unicode="y" horiz-adv-x="1405" 
d="M780 1018h455v-67l-26 2q-58 0 -89 -58q-3 -5 -4 -11q-4 -14 -4 -28v-825q0 -1 -1 -32q-3 -47 -5 -62q-10 -58 -34 -112q-59 -128 -185 -196q-87 -47 -195 -47q-55 0 -120 12q-13 3 -27 5q-71 16 -141 19h-6q-42 -1 -73.5 -11t-49.5 -20.5l-18 -10.5l1 41q9 117 114 161
l8 2q28 9 59 9q36 0 79 -11q9 -2 16 -5q7 -1 13 -4l34 -12q37 -13 73 -22q14 -3 29 -7q26 -7 55.5 -13t57.5 -6h5q45 0 67 20q15 14 24 42q12 44 12 92q0 18 -1 35v274q-36 -56 -89 -95q-106 -79 -234 -79q-129 0 -234 79q-101 77 -138 198q-16 54 -16 111v398
q-3 72 -51.5 120.5t-119.5 48.5h-24v65h455v-65h-25q-70 0 -119 -48.5t-52 -120.5v-224q6 -24 17 -51q49 -115 172 -242q4 -3 8 -8q64 -63 134.5 -98.5t131.5 -35.5q14 0 25 2q3 0 6 1h2q3 1 5 2q3 0 6 1q4 2 7 2q1 1 4 2h1l4 2q5 2 8 4t4 3q8 3 12 8l7 7l1 1q92 99 92 226
v470q0 40 -28.5 68.5t-68.5 28.5l-26 -2v67z" />
    <glyph glyph-name="z" unicode="z" horiz-adv-x="1061" 
d="M890 2h-892l544 953h-278q-72 -2 -120.5 -51t-48.5 -119v-25h-65v260h827v-67l-26 2h-7q-69 -3 -129 -109l-445 -780h406q72 2 121 51t49 120v24h64v-259z" />
    <glyph glyph-name="asciitilde" unicode="~" horiz-adv-x="1572" 
d="M1350 862l15 11l37 -27l-9 -19q-1 -1 -7.5 -13t-22 -33.5t-40.5 -51t-62 -65.5q-5 -5 -9 -8q-1 -1 -3 -2l-10 -9q-8 -6 -16 -11q-3 -2 -6 -5h-1q-11 -8 -23 -15l-1 -1l-6 -3q-8 -5 -18 -10q-52 -28 -108 -41q-46 -11 -97 -11h-21q-14 1 -26 2l-4 1q-8 1 -15 2l-16 3
l-15 3q-2 0 -4 1q-5 1 -11 3l-16 4l-6 2l-7 2q-55 19 -107 53q-9 6 -17 12q-3 3 -7 5l-12 9l-10 9l-2 1l-25 22l-4 4l-6 4q-59 50 -127 69q-37 10 -72 11h-10q-31 0 -65 -6q-66 -12 -154 -59q-71 -35 -155 -105l-18 -15l-34 35l11 17q14 22 54 82l7 11q3 4 7 11q2 2 4 5
l12 16l8 10l2 2q3 4 7 9l9 9l1 2l8 8q38 41 83 72q49 33 101 53q55 21 115 27q6 1 11 1h8q6 1 11 1h31l4 -1h11l15 -2l7 -1h6l17 -3q58 -11 115 -38q1 -1 2 -1q3 -1 5 -3l7 -3l13 -7l9 -6q1 -1 3 -2h1q2 -1 3 -2l9 -6q26 -17 48 -35l10 -9l4 -3l23 -21l14 -12q4 -2 7 -5
l9 -6q30 -22 63 -37l5 -2h1q1 -1 2 -1l10 -4q1 -1 4 -1q2 -1 3 -2l9 -3q18 -5 35 -8l9 -2l10 -1q5 -1 11 -1q3 0 7 -1h37q77 4 157 40q75 34 158 95z" />
    <glyph glyph-name="guillemotleft" unicode="&#xab;" horiz-adv-x="903" 
d="M196 751l193 -499q32 -49 101 -49h22l-13 -46h-201l-290 594l288 595h202l12 -46h-22q-59 0 -92 -41q-1 -2 -2 -3q-4 -5 -7 -10q-85 -221 -191 -495zM441 751l140 -385q23 -36 74 -36h22l-11 -43h-159l-218 464l218 465h157l12 -44h-22q-44 0 -68 -30l-2 -2q-3 -4 -5 -7
q-38 -106 -138 -382z" />
    <glyph glyph-name="acute" unicode="&#xb4;" horiz-adv-x="379" 
d="M154 1237q-34 11 -55 39t-21 63q0 43 31.5 74.5t74.5 31.5q44 0 75 -31.5t31 -74.5q0 -39 -12.5 -73t-30.5 -62t-36.5 -48.5t-32 -32.5t-15.5 -13l-15 -12l-50 38l20 20q33 34 36 81z" />
    <glyph glyph-name="guillemotright" unicode="&#xbb;" horiz-adv-x="878" 
d="M297 252l193 499q-106 274 -191 495q-3 5 -7 10q-1 1 -2 3q-33 41 -93 41h-21l12 46h202l287 -595l-289 -594h-202l-12 46h22q69 0 101 49zM105 366l140 385q-100 276 -138 382q-2 3 -5 7l-2 2q-24 30 -68 30h-22l11 44h158l218 -465l-218 -464h-159l-12 43h22
q51 0 75 36z" />
    <glyph glyph-name="gravecomb" unicode="&#x300;" 
d="M134 1521q3 -47 36 -81l20 -20l-50 -38l-16 12q-2 1 -15 13t-31.5 32.5t-37 48.5t-31 62t-12.5 73q0 43 31.5 74.5t74.5 31.5q44 0 75 -31.5t31 -74.5q0 -35 -20.5 -63t-54.5 -39z" />
    <glyph glyph-name="acutecomb" unicode="&#x301;" 
d="M58 1521q-34 11 -55 39t-21 63q0 43 31.5 74.5t74.5 31.5q44 0 75 -31.5t31 -74.5q0 -39 -12.5 -73t-30.5 -62t-36.5 -48.5t-32 -32.5t-15.5 -13l-15 -12l-50 38l20 20q33 34 36 81z" />
    <glyph glyph-name="u0302" unicode="&#x302;" 
d="M479 1467h8l7 -26h-127l-3 3l-112 108l-116 -111h-127l8 26h7q33 0 63 25l121 116l44 42l43 -42l121 -116q30 -25 63 -25z" />
    <glyph glyph-name="u0401" unicode="&#x401;" horiz-adv-x="1335" 
d="M434 1620q-44 0 -75.5 31.5t-31.5 75.5t31.5 75.5t75.5 31.5t75 -31.5t31 -75.5t-31 -75.5t-75 -31.5zM874 1620q-45 0 -76 31.5t-31 75.5t31 75.5t76 31.5q44 0 75 -31.5t31 -75.5t-31 -75.5t-75 -31.5zM1154 1169h-65v25q0 71 -49.5 120.5t-122.5 52.5h-484
q-42 -2 -70 -30t-28 -69v-506q0 -9 11 -11h403q72 3 121.5 52.5t49.5 120.5v25h65v-460h-65v25q0 71 -49.5 120.5t-121.5 51.5h-404q-10 -2 -10 -11v-505q0 -41 28 -69.5t70 -29.5h484q73 2 122.5 51.5t49.5 120.5v25h65v-262h-1154v67l26 -2q42 1 70 29.5t28 69.5v1100
q-2 41 -29.5 68t-68.5 29l-26 -3v68h1154v-263z" />
    <glyph glyph-name="u0410" unicode="&#x410;" horiz-adv-x="1600" 
d="M1525 71v-69h-458v66h25q11 0 24 4t22 16q8 12 8 30t-9 40l-1 2l-168 408q-54 9 -111 9q-181 0 -330 -85.5t-223 -232.5l-9 -22l-2 -5q-15 -37 -15 -69q0 -50 37 -77l1 -1q26 -17 65 -17h26l-1 -66h-458l1 66h25q75 0 149 52.5t108 130.5l2 5l393 957q14 34 14 65
q0 40 -24 67q-46 31 -87 31l-27 -2v68h324l520 -1265q20 -46 64.5 -77.5t87.5 -31.5zM843 643h95l-237 576q-7 -13 -13 -26l-4 -10l-292 -711q123 110 294 151q8 2 18 4q68 15 139 16z" />
    <glyph glyph-name="u0411" unicode="&#x411;" horiz-adv-x="1448" 
d="M771 1034q142 0 258.5 -70t186.5 -186.5t70 -258.5q0 -130 -59 -240t-160 -182t-231 -89q-32 -4 -65 -4h-765v67l26 -2q42 1 70.5 29.5t28.5 69.5v1105q-2 41 -30 68t-69 29l-26 -3v68h1158v-263h-65v25q0 71 -49.5 120.5t-122.5 52.5h-486q-42 -2 -70.5 -30.5
t-28.5 -68.5v-467q55 83 138 140q134 90 291 90zM342 655v-487q0 -40 29 -69.5t70 -29.5h330q180 0 318 132q65 68 65 173q0 32 -6 67q-31 158 -163 292q-80 80 -174.5 124.5t-183.5 44.5q-106 0 -174 -66q-77 -77 -111 -181z" />
    <glyph glyph-name="u0412" unicode="&#x412;" horiz-adv-x="1408" 
d="M1202 784q74 -125 74 -265q0 -126 -56 -234t-152 -180t-220 -95l-22 -3q-33 -4 -66 -4h-766v68l27 -2q42 1 70 29.5t28 69.5l1 1106q-2 42 -33 71q-29 25 -66 25l-27 -2v68h766q45 0 87 -17q68 -28 107 -86.5t39 -130.5q0 -65 -35 -123q-23 -38 -58 -64q81 -23 151 -71
q93 -64 151 -160zM900 1117q1 6 1 13l-3 18q-4 19 -13 35q-8 15 -17 27q-7 8 -14 15q-140 145 -366 145h-58q-42 -1 -70.5 -29.5t-28.5 -69.5v-466q130 189 360 224q34 5 69 5q41 0 78 19q10 5 19 11q20 14 34 34q5 7 8 15q0 2 1 4zM430 69h330q180 0 318 131q66 68 66 174
v7l-1 2v10q0 8 -1 16q0 3 -1 7v2q0 3 -1 6q-1 9 -3 17q0 3 -1 7v1q-1 4 -2 7v1q0 2 -1 5q0 2 -1 4v1q-9 33 -22 66q-4 14 -12 27q-2 5 -4 9l-7 14q-2 3 -2 4l-1 1l-10 19l-3 4q-1 2 -2 3q-2 4 -5 8q-5 8 -11 17q-5 8 -10 15l-2 2q-2 3 -5 7l-6 8q-1 2 -3 4h-1q0 2 -2 4h-1
q0 2 -2 3l-1 1q-1 2 -3 4q-2 3 -4 5q-12 15 -26 29l-22 22q-6 6 -11 10t-11 10l-5 5q-2 2 -5 4q-8 7 -17 14q-6 5 -13 9q-9 8 -19 14q-3 2 -4 3h-1l-3 3h-1q-1 2 -4 3q-5 4 -11 7q-5 3 -11 7q-2 2 -5 3l-2 1q-1 0 -4 2q-6 4 -13 7q-5 2 -8 4l-1 1l-2 1l-2 1q-1 0 -4 2
q-5 1 -8 4h-1q-9 4 -16 7q-1 1 -3 2q-6 2 -11 4q-1 0 -4 1l-1 1q-7 3 -15 5q-2 1 -4 1v1q-3 0 -6 2q-4 2 -9 2q-4 2 -8 3h-1q-5 2 -11 3q-16 4 -33 7h-3l-3 1q-12 2 -21 2q-2 1 -5 1h-8q-1 0 -4 1h-33q-1 0 -3 -1h-8q-3 0 -5 -1h-7q-2 -1 -4 -1h-2q-3 -1 -6 -1h-1
q-3 -1 -6 -1l-2 -1h-3l-4 -2h-1q-1 0 -4 -1h-1q-1 0 -3 -1h-1q-1 0 -3 -1h-1l-4 -1l-3 -1l-2 -1h-1q-5 -2 -11 -4q-2 -2 -5 -2q-1 -1 -3 -2h-1l-2 -1l-1 -1q-4 -1 -9 -4q-1 0 -3 -1v-1q-3 0 -4 -2h-1l-1 -1h-1l-1 -1q-1 0 -3 -2l-3 -2h-1l-3 -3h-1l-1 -1h-1l-4 -4h-1l-1 -1
q-3 -3 -8 -6q0 -2 -2 -2l-5 -5h-1v-1l-1 -1h-1l-6 -6q-75 -77 -108 -179v-487q0 -41 29 -70t70 -29z" />
    <glyph glyph-name="u0413" unicode="&#x413;" horiz-adv-x="1327" 
d="M2 1441h1162v-264h-66v25q0 71 -49.5 121t-122.5 52h-488q-42 -1 -70 -29.5t-28 -69.5v-1106q0 -41 28 -69.5t70 -29.5l27 2v-68h-463v68l27 -2q42 1 70 29.5t28 69.5v1109q-2 41 -29.5 68t-68.5 28l-27 -2v68z" />
    <glyph glyph-name="u0414" unicode="&#x414;" horiz-adv-x="1555" 
d="M1215 71h201v-263h-66v25q0 70 -49 120t-122 53h-1011q-73 -3 -122.5 -52.5t-49.5 -120.5v-25h-66v263h94q118 7 200 84t97 195l1 31v1l5 87l39 735v9q12 146 146 207q42 17 87 17h644v-68l-27 3q-41 -2 -68.5 -29t-29.5 -68v-1105q0 -40 28 -68.5t69 -30.5zM223 71h586
q41 2 69 30.5t28 68.5v1103q0 21 -8 40l-1 2q-28 54 -89 57h-65q-115 0 -203.5 -112.5t-113.5 -290.5l-38 -591q0 -25 -4 -49l-2 -10t-2 -11l-2 -10q-1 -4 -2 -9l-2 -8l-2 -8t-3 -7l-2 -8q-2 -4 -3 -8q-1 -3 -3 -7q-1 -4 -3 -8q-2 -3 -3 -7q-2 -4 -4 -7q-1 -4 -3 -7l-4 -8
q-2 -3 -4 -7q-1 -3 -3 -7q-3 -3 -5 -6q-2 -4 -4 -7q-2 -4 -4 -7t-5 -6q-2 -4 -4 -7q-3 -3 -5 -6q-3 -3 -5 -7q-3 -3 -5 -6q-3 -3 -5 -6l-6 -6q-2 -3 -5 -6q-3 -2 -6 -5t-5 -6q-3 -3 -6 -5l-6 -6q-3 -2 -6 -5q-3 -2 -6 -5t-7 -5q-3 -2 -6 -5q-3 -2 -7 -5z" />
    <glyph glyph-name="u0415" unicode="&#x415;" horiz-adv-x="1321" 
d="M1154 1169h-65v25q0 71 -49.5 120.5t-122.5 52.5h-484q-42 -2 -70 -30t-28 -69v-506q0 -9 11 -11h403q72 3 121.5 52.5t49.5 120.5v25h65v-460h-65v25q0 71 -49.5 120.5t-121.5 51.5h-404q-10 -2 -10 -11v-505q0 -41 28 -69.5t70 -29.5h484q73 2 122.5 51.5t49.5 120.5
v25h65v-262h-1154v67l26 -2q42 1 70 29.5t28 69.5v1100q-2 41 -29.5 68t-68.5 29l-26 -3v68h1154v-263z" />
    <glyph glyph-name="u0416" unicode="&#x416;" horiz-adv-x="1747" 
d="M1391 1199v-25q-7 -112 -66.5 -202.5t-157.5 -140.5q67 -23 124 -67q82 -64 127 -154.5t45 -193.5v-250q0 -41 28.5 -69.5t70.5 -29.5l26 2v-68h-463v68l27 -2q42 1 70 29.5t28 69.5v250q0 152 -74 268q-74 105 -169 105h-98q-9 0 -10 -11v-612q0 -41 28 -69.5t70 -29.5
l27 4v-70h-463v70l27 -4q42 1 70 29.5t28 69.5v612q0 6 -3 8q-2 3 -8 3h-97q-95 0 -169 -105q-75 -116 -75 -268v-250q0 -41 28.5 -69.5t70.5 -29.5l27 2v-68h-463v68l26 -2q42 1 70.5 29.5t28.5 69.5v250q0 103 44.5 193.5t127.5 154.5q57 44 125 68q-98 49 -157.5 139.5
t-65.5 202.5l-1 12v13q-2 74 -52 123.5t-121 49.5h-25v66h463v-66h-25q-69 0 -118.5 -46.5t-55.5 -117.5v-20q6 -138 96.5 -231t229.5 -102h89q10 2 10 11v409q-2 41 -29.5 68.5t-69.5 28.5l-26 -2v68h463v-68l-27 2q-28 0 -51 -15q-5 -3 -10 -7q-37 -32 -37 -77v-407
q0 -9 10 -11h91q140 9 233 105.5t93 233.5q0 2 -1 5v9q-5 71 -54.5 117.5t-118.5 46.5h-25v66h463v-66h-25q-72 0 -122 -49.5t-52 -123.5z" />
    <glyph glyph-name="u0417" unicode="&#x417;" horiz-adv-x="1204" 
d="M1000 774q65 -115 65 -249v-5q0 -145 -74 -269q-155 -246 -402 -256h-5q-42 0 -82.5 6.5t-80.5 14.5l-13 2q-14 3 -29 6q-55 12 -110.5 21t-109.5 9q-22 0 -45 -3q-59 -5 -94 -32h-1l-6 -6l-47 -41l5 63q1 8 1 12q1 16 5 31v2q2 6 3 11q5 17 12 34q20 46 52 77
q68 62 168 77q16 2 32 2q41 0 79 -11t74 -24q9 -3 16 -6q79 -26 156 -36t146 -12q14 -1 26 -1q128 0 168 61q15 22 22 56q6 32 6 64q0 69 -24.5 135.5t-63.5 124.5t-84 103q-81 80 -174 124.5t-179 44.5q-39 0 -77 -10q-59 -22 -99 -48l-18 -11l-40 43l19 18
q157 140 353 140h6q72 2 120 58q14 18 14 40q0 9 -2 17q-8 30 -22 50t-22 27q-116 116 -263 141q-12 2 -26 2q-76 0 -132 -66q-15 -20 -27 -50q-6 -19 -7.5 -37l-1.5 -18v-26h-65v265h428q95 0 164.5 -69.5t69.5 -164.5v-10q-3 -73 -49 -134q-23 -29 -50 -46q38 -8 75 -23
q69 -31 125 -79q70 -60 115 -139z" />
    <glyph glyph-name="u0418" unicode="&#x418;" horiz-adv-x="1605" 
d="M1299 1322q-50 -51 -51 -122v-958q2 -73 52 -123t121 -50h25v-65h-462v65h25q71 0 121 50t52 123v930l-858 -1168h-321v65h25q71 0 121 50t52 123v958q-2 73 -52 122.5t-121 49.5h-25v66h462v-66h-25q-71 0 -121 -49.5t-52 -122.5v-933l821 1119l38 52h320v-66h-25
q-69 0 -122 -50z" />
    <glyph glyph-name="u0419" unicode="&#x419;" horiz-adv-x="1600" 
d="M1295 1320q-49 -50 -51 -122v-958q3 -73 53 -122.5t121 -49.5h25v-66h-463v66h26q71 0 120.5 49.5t52.5 122.5v931l-858 -1169h-322v66h25q71 0 122 50.5t51 121.5v958q0 72 -51 122.5t-122 50.5h-25v65h355q-18 44 -18 87q0 93 74 172q70 71 167 89q30 5 63 5
q71 0 132 -15q13 -2 28 -5q37 -7 72 -12.5t70 -5.5q4 -1 7 -1q68 0 101 30l43 37l-1 -57q-10 -124 -117 -172q-30 -12 -68 -12q-37 0 -80 12q-8 2 -17 5q-6 1 -12 4q-17 5 -35 11q-37 14 -74 24q-39 8 -78 8q-24 0 -47 -3q-48 -6 -95 -25t-64 -59q-4 -10 -4 -23
q0 -23 13 -50.5t38 -48.5l9 -8v-52h-25q-13 0 -27 -2q-62 -10 -104 -58q-42 -50 -42 -113v-932l822 1118l38 52h320v-65h-25q-69 0 -123 -51z" />
    <glyph glyph-name="u041A" unicode="&#x41a;" horiz-adv-x="1423" 
d="M1244 68l26 2v-68h-463v68l27 -2q41 0 70 29t29 70v250q0 146 -64.5 252t-161.5 120q-5 1 -13 1h-344q-9 0 -11 -11v-612q0 -41 29.5 -70t69.5 -29l27 2v-68h-464v68l27 -2q41 0 70 29t29 70v1109q-2 42 -30 69.5t-69 27.5l-27 -2v68h464v-68l-27 2q-41 0 -70 -29
t-29 -70v-407q0 -9 11 -11h239q21 0 40 2q38 3 72 14t67 26q32 16 60 38q29 21 53 47q25 26 44 56q20 31 33 64q15 34 22 69q4 18 4 36v8q-2 23 -10 45q-12 34 -37 58q-24 26 -56 40q-34 14 -70 14h-25v66h463v-66h-25q-22 0 -45 -6q-35 -9 -64 -32t-46 -55q-9 -16 -13 -34
q-6 -23 -7 -47l-3 -24q-22 -126 -107 -226q-58 -64 -132 -105q9 -2 17 -4q81 -22 149 -75q82 -64 127 -154.5t45 -193.5v-250q0 -41 29 -70t70 -29z" />
    <glyph glyph-name="u041B" unicode="&#x41b;" horiz-adv-x="1448" 
d="M1291 1367l-27 2q-40 0 -68.5 -27.5t-30.5 -69.5v-1108q0 -41 29.5 -70t69.5 -29l27 2v-68h-463v68l26 -2q41 0 70 29t29 70v1106q0 21 -9 41v1q-31 57 -90 57h-130q-24 0 -48 -6q-36 -7 -67 -27q-33 -20 -60 -47q-30 -29 -52 -65q-25 -38 -43 -80q-20 -46 -32 -94
q0 -6 -3 -12q-1 -6 -3 -13q-3 -12 -5 -25q-10 -63 -11 -125q-3 -39 -5 -79q-1 -2 -1 -5q-1 -31 -4 -63q-4 -32 -4 -62q-2 -38 -5 -76q-2 -37 -5 -75q-1 -33 -4 -68l-3 -48q-1 -23 -3 -47q-3 -61 -19 -121q-15 -54 -43 -103q-46 -77 -112 -110q-1 0 -2 -1q-39 -18 -80 -18
q-40 0 -79 18l-18 9l-12 8v330h68l-3 -26v-6q0 -28 19 -51.5t45 -40.5t49 -26q19 -8 37 -8q24 0 43.5 13.5t27.5 40.5q10 38 13 79l1 21l6 111l38 730q0 5 1 9q12 147 146 208q42 17 87 17h712v-68z" />
    <glyph glyph-name="u041C" unicode="&#x41c;" horiz-adv-x="1763" 
d="M1475 1273v-1105q0 -41 28.5 -69.5t70.5 -29.5l26 2v-68h-463v68l27 -2q42 1 70.5 29.5t28.5 69.5v965l-397 -753l-23 -45l-3 -5l-79 -151l-495 940v-878q2 -73 52 -122.5t121 -49.5h26v-66h-463v66h25q71 0 121 49.5t52 122.5v959q-2 73 -52 122.5t-121 49.5h-25v66h320
l31 -58l4 -8l479 -911l433 822l25 47l56 108h250v-68l-26 2q-42 -1 -70.5 -29.5t-28.5 -69.5z" />
    <glyph glyph-name="u041D" unicode="&#x41d;" horiz-adv-x="1614" 
d="M1318 1274v-1105q0 -41 28 -69.5t70 -29.5l27 2v-68h-463v68l27 -2q42 1 70.5 29.5t28.5 69.5v509q0 9 -11 11h-825v-447q2 -73 52 -122.5t122 -49.5h25v-66h-463v66h25q72 0 121.5 49.5t52.5 122.5v959q-3 73 -52.5 122.5t-121.5 49.5h-25v66h463v-66h-25
q-72 0 -122 -49.5t-52 -122.5v-447h825q9 0 11 11v511q-2 41 -30 68.5t-69 28.5l-27 -2v68h463v-68l-27 2q-42 -1 -70 -29.5t-28 -69.5z" />
    <glyph glyph-name="u041E" unicode="&#x41e;" horiz-adv-x="1600" 
d="M1240 1238q104 -104 158.5 -235.5t54.5 -277.5q0 -145 -54.5 -277t-158.5 -236q-103 -103 -235 -158t-278 -55q-145 0 -277 55t-236 158q-103 104 -157.5 236t-54.5 277q0 146 54.5 277.5t157.5 235.5q104 104 236 158.5t277 54.5q146 0 278 -54.5t235 -158.5zM1194 258
q63 64 94 147t31 175q0 129 -57.5 262t-170.5 247q-110 109 -242.5 168.5t-266.5 59.5q-192 0 -322 -125q-124 -130 -124 -320q0 -35 4 -71q31 -244 223 -440q110 -109 243 -168.5t266 -59.5q194 0 322 125z" />
    <glyph glyph-name="u041F" unicode="&#x41f;" horiz-adv-x="1570" 
d="M1282 1274v-1105q0 -41 28.5 -69.5t70.5 -29.5l26 2v-68h-462v68l26 -2q42 1 70.5 29.5t28.5 69.5v1107q-2 41 -29.5 68.5t-69.5 28.5h-527q-72 0 -121.5 -49.5t-52.5 -122.5v-959q3 -73 52.5 -122.5t121.5 -49.5h25v-66h-463v66h26q71 0 121 49.5t52 122.5v959
q-2 73 -52 122.5t-121 49.5h-26v66h1401v-68l-26 2q-42 -1 -70.5 -29.5t-28.5 -69.5z" />
    <glyph glyph-name="u0420" unicode="&#x420;" horiz-adv-x="1439" 
d="M1130 1285q75 -76 113 -170.5t38 -193.5t-38 -194t-113 -171q-101 -100 -237 -135q-63 -16 -128 -16q-63 0 -124 15l-3 1q-137 35 -238 135q-36 36 -64 78v-467q0 -40 29 -69.5t70 -29.5l26 2v-67h-462v67l26 -2q42 2 69.5 29t29.5 68v1107q0 41 -29 70t-70 29l-26 -2v67
h797l1 -1q17 0 34 -3l22 -2v-1q20 -3 39 -8q137 -36 238 -136zM336 1272v-488q33 -104 111 -182q138 -132 318 -132t318 132q60 62 60 162q0 41 -11 88q-41 171 -188 320q-143 140 -304 185q-15 3 -29 6q-31 7 -61 8h-115q-41 0 -70 -29t-29 -70z" />
    <glyph glyph-name="u0421" unicode="&#x421;" horiz-adv-x="1402" 
d="M1234 302l52 -44l-17 -19q-105 -118 -246.5 -182t-297.5 -64q-291 0 -512 212q-103 103 -157.5 234.5t-54.5 276.5t54.5 276.5t157.5 235.5q221 212 512 212q170 0 322 -76q8 -4 17 -4q23 0 36 22q9 20 9 41l-3 27h68v-459h-68l3 27q0 39 -29 68v1l-2 2q-40 39 -84 71
q-204 146 -414 146q-192 0 -321 -124q-124 -130 -124 -319q0 -35 4 -71q31 -244 223 -439q110 -109 242 -168t265 -59q194 0 321 125q16 15 28 31z" />
    <glyph glyph-name="u0422" unicode="&#x422;" horiz-adv-x="1388" 
d="M0 1437h1230v-264h-66v25q0 71 -49.5 121t-122.5 52h-173q-41 -1 -69.5 -29.5t-28.5 -69.5v-1106q0 -41 28.5 -69.5t70.5 -29.5l26 2v-68h-462v68l26 -2q42 1 70.5 29.5t28.5 69.5v1108q-2 41 -29.5 68.5t-68.5 28.5h-173q-73 -2 -122.5 -52t-49.5 -121v-25h-66v264z" />
    <glyph glyph-name="u0423" unicode="&#x423;" horiz-adv-x="1509" 
d="M919 1435h465v-68l-27 2q-42 -1 -70.5 -30t-28.5 -70v-520q0 -74 -12.5 -165t-47 -185t-99.5 -179q-56 -73 -132 -126l-13 -10q-29 -20 -60 -36l-2 -1h-1q-9 -5 -19 -9q-39 -18 -81 -29q-39 -10 -84 -10h-21q-38 2 -78 8l-5 1h-2q-5 1 -9 1l-5 1q-18 4 -36 7
q-91 20 -184 24h-8q-49 0 -84 -11q-29 -10 -49 -27l-1 -1l-43 -35l1 55q8 127 110 196q16 11 35 18q39 14 85 14t100 -14q11 -3 21 -6q9 -3 16 -5q23 -8 44 -16q49 -18 96 -29q31 -7 64 -8q10 -1 20 -1q75 0 153 22q11 3 22 7q2 0 4 1q45 18 65 48q23 33 27 98v162l-12 -9
q-70 -54 -154 -81l-3 -1h-1q-76 -24 -155 -24q-84 0 -163 26l-4 2q-92 31 -166 93l-3 2q-42 30 -102 118t-76 235l-5 123v177l-1 26v5q-4 72 -53.5 120t-120.5 48h-25v66h465v-66h-25q-67 0 -120 -47q-40 -39 -51 -92q-3 -17 -3 -34v-117q0 -14 2 -27q36 -181 193 -334
q92 -88 201 -138q103 -47 202 -53q107 0 175 66l5 5v671q0 41 -28.5 70t-70.5 30l-27 -2v68z" />
    <glyph glyph-name="u0424" unicode="&#x424;" horiz-adv-x="1823" 
d="M1315 1422q160 -45 258 -173t98 -290q0 -163 -98 -290.5t-258 -173.5q-60 -15 -123 -15t-123 16q-67 17 -126 54v-381q0 -41 28 -69.5t70 -29.5l27 2v-68h-463v68l27 -2q42 1 70.5 29.5t28.5 69.5v379q-45 -27 -94 -44l-4 -1l-26 -8q-60 -15 -123 -15q-62 0 -123 16
q-159 45 -257.5 172.5t-98.5 290.5q0 162 98.5 290t257.5 173q61 16 123 16h708q63 0 123 -16zM943 1273v-645q103 -77 232 -83h34q161 8 276 121q49 52 49 137q0 41 -11 87q-41 155 -179 295q-129 128 -276 173q-12 4 -25 7h-1q-8 2 -16 2q-22 0 -42 -14q-41 -32 -41 -80z
M632 1372h-165q-161 -8 -275 -121q-50 -51 -50 -136q0 -41 12 -88q40 -154 178 -294q95 -94 204 -145q32 -15 66 -15q36 0 70 17q31 15 59 36v650q-3 41 -31 68.5t-68 27.5z" />
    <glyph glyph-name="u0425" unicode="&#x425;" horiz-adv-x="1422" 
d="M1245 68h25v-66h-452v65l24 1q19 0 39 8t31 28q8 16 8 37q0 38 -28 87l-4 5l-218 364l-240 -403l-23 -39l-1 -1q-19 -36 -19 -56q0 -10 4 -16q5 -9 15.5 -11.5t19.5 -2.5h26v-66h-455l2 68l26 -2q44 0 95.5 32.5t80.5 79.5l359 602l-243 405q-50 79 -134.5 132.5
t-160.5 53.5h-25v66h453v-66h-25q-19 0 -39.5 -6.5t-32.5 -25.5q-8 -15 -8 -35q0 -40 31 -93l221 -369l263 441l1 2q17 29 17 50q0 10 -4 18q-14 18 -35 18l-24 1v65h453v-66h-25q-45 0 -96.5 -32.5t-80.5 -79.5l-1 -2l-358 -600l240 -400l3 -6q50 -78 134.5 -131.5
t160.5 -53.5z" />
    <glyph glyph-name="u0426" unicode="&#x426;" horiz-adv-x="1626" 
d="M1275 69h233v-264h-66v25q0 71 -49.5 121t-122.5 53h-1268v65h26q71 0 121 50t52 123v960q-2 74 -52 123.5t-121 49.5h-26v66h464v-66h-25q-72 0 -122 -49.5t-52 -123.5v-960q2 -73 51 -121.5t121 -51.5h428q41 2 69.5 30.5t28.5 69.5v1109q-2 41 -30 68.5t-69 28.5
l-27 -2v68h464v-68l-27 2q-42 -1 -70.5 -29.5t-28.5 -69.5v-1107q0 -41 28.5 -69.5t69.5 -30.5z" />
    <glyph glyph-name="u0427" unicode="&#x427;" horiz-adv-x="1552" 
d="M1410 1371l-26 2q-42 -1 -70.5 -30t-28.5 -69v-1109q2 -41 29.5 -68.5t69.5 -28.5l26 2v-68h-463v68l27 -2q42 1 70.5 29.5t28.5 69.5v376q-20 -19 -42 -35q-68 -52 -148 -79l-7 -2l-2 -1h-1q-75 -23 -155 -23q-83 0 -162 26l-4 1q-91 31 -165 93l-3 2q-41 30 -101 117.5
t-75 234.5l-6 121v208q-5 71 -54 119t-120 48h-25v65h463v-65h-25q-62 0 -109 -38.5t-61 -100.5q-4 -17 -4 -34l1 -116q0 -14 2 -27q36 -180 192 -332q91 -87 200 -138q102 -46 201 -52q107 0 174 65q19 19 36 40v634q0 40 -28.5 69t-70.5 30l-27 -2v67h463v-67z" />
    <glyph glyph-name="u0428" unicode="&#x428;" horiz-adv-x="1738" 
d="M1445 1272v-1104q0 -40 28 -68.5t70 -30.5l27 3v-68h-1571v65h25q72 0 121.5 50t51.5 123v957q-2 73 -51.5 122.5t-121.5 49.5h-25v65h462v-65h-25q-71 0 -121 -49.5t-52 -122.5v-957q2 -73 52 -123t121 -50h143q71 0 120.5 50t52.5 123v957q-3 73 -52.5 122.5
t-120.5 49.5h-26v65h462v-65h-25q-71 0 -121 -49.5t-52 -122.5v-957q2 -73 52 -123t121 -50h144q42 2 70.5 30.5t28.5 68.5v1106q-2 41 -29.5 68.5t-69.5 28.5l-26 -2v67h462v-67l-27 2q-42 -1 -70 -29.5t-28 -69.5z" />
    <glyph glyph-name="u0429" unicode="&#x429;" horiz-adv-x="1894" 
d="M1549 69h238v-264h-66v25q0 71 -49.5 121t-122.5 53h-1549v65h25q71 0 121 50t53 123v960q-3 74 -53 123.5t-121 49.5h-25v66h463v-66h-25q-72 0 -121.5 -49.5t-52.5 -123.5v-960q3 -73 53 -123t121 -50h143q72 0 122 50t52 123v960q-2 74 -52 123.5t-122 49.5h-25v66
h463v-66h-25q-71 0 -121 -49.5t-52 -123.5v-960q2 -73 52 -123t121 -50h145q42 2 70.5 30.5t28.5 69.5v1109q-2 41 -30 68.5t-69 28.5l-27 -2v68h464v-68l-27 2q-42 -1 -70.5 -29.5t-28.5 -69.5v-1107q0 -41 28.5 -69.5t70.5 -30.5z" />
    <glyph glyph-name="u042A" unicode="&#x42a;" horiz-adv-x="1625" 
d="M959 1031q142 0 258.5 -69.5t186 -186t69.5 -258.5q0 -129 -58.5 -239t-159.5 -181.5t-230 -89.5q-33 -4 -66 -4h-763v68l27 -3q41 2 69.5 30.5t28.5 68.5v1103q-9 82 -90 96q-70 -6 -116 -55t-46 -117v-25h-65v263h653v-68l-27 2q-42 -1 -70 -29.5t-28 -69.5v-465
q55 83 137 139q134 90 290 90zM1277 200q65 68 65 174q0 32 -6 66q-31 158 -162 291q-81 80 -175 124t-183 44q-106 0 -174 -65q-77 -77 -110 -181v-486q0 -40 28 -68.5t70 -30.5h329q180 0 318 132z" />
    <glyph glyph-name="u042B" unicode="&#x42b;" horiz-adv-x="1904" 
d="M1596 1272v-1104q0 -41 27.5 -69.5t67.5 -30.5l26 3v-68h-448v68l26 -3q41 2 68.5 30.5t27.5 69.5v1106q-2 41 -29 68t-67 29l-26 -3v68h448v-68l-26 3q-41 -2 -68 -30.5t-27 -68.5zM741 1034q137 0 250.5 -69.5t181 -186.5t67.5 -259q0 -130 -57 -240t-155 -182
t-224 -90q-31 -4 -63 -4h-742v68l26 -3q41 2 68 30.5t27 69.5v1106q-1 41 -28 68t-67 29l-26 -3v68h448v-68l-26 3q-41 -2 -68 -30.5t-27 -68.5v-27h-1v-440q54 82 134 139q130 90 282 90zM325 655v-487q0 -41 27.5 -69.5t68.5 -30.5h320q174 0 308 132q63 68 63 174
q0 32 -6 67q-30 158 -157 292q-78 80 -169.5 124.5t-178.5 44.5q-103 0 -168 -65q-76 -78 -108 -182z" />
    <glyph glyph-name="u042C" unicode="&#x42c;" horiz-adv-x="1423" 
d="M765 1033q142 0 259 -69.5t187 -186.5t70 -260q0 -129 -59.5 -239.5t-160.5 -182t-230 -89.5q-33 -4 -66 -4h-766v68l26 -3q42 2 70.5 30t28.5 69v1107q-2 41 -30 68.5t-69 28.5l-26 -2v67h462v-67l-27 2q-42 -2 -70 -30.5t-28 -68.5v-467q55 82 138 139q134 90 291 90z
M336 654v-488q0 -40 28 -68.5t70 -30.5h331q180 0 318 132q65 68 65 174q0 32 -6 67q-30 158 -162 292q-81 80 -175.5 124.5t-183.5 44.5q-108 0 -175 -65q-77 -78 -110 -182z" />
    <glyph glyph-name="u042D" unicode="&#x42d;" horiz-adv-x="1330" 
d="M981 1227q102 -103 155 -233.5t53 -273.5q0 -145 -54.5 -276t-157.5 -235q-103 -102 -234.5 -156.5t-276.5 -54.5q-169 0 -322 75q-11 6 -23 6q-16 0 -30.5 -10.5t-18.5 -30.5q0 -7 -1 -14l3 -26h-68v458h68l-3 -26q0 -34 23 -62q6 -7 13 -13v-1l1 -1q37 -36 79 -68
q208 -154 424 -154q158 0 276 86q24 18 44 39q125 129 125 318q0 37 -5 75q-2 8 -10 8h-824v65h819v7q-50 192 -199 346q-108 116 -243.5 180.5t-271.5 64.5q-163 0 -286 -94l-40 -31v75l9 8q48 39 101 70q171 96 360 96h12q294 -8 503 -217z" />
    <glyph glyph-name="u042E" unicode="&#x42e;" horiz-adv-x="2118" 
d="M1746 1238q105 -106 160.5 -239.5t55.5 -281.5q0 -147 -55.5 -281t-160.5 -239t-239 -160.5t-281 -55.5t-280 55t-238 158q-202 205 -217 490h-135q-11 -2 -11 -11v-513q0 -41 28.5 -70t71.5 -30l27 2v-68h-467v68l27 -2q42 1 70.5 30t28.5 70v1114q0 42 -28.5 70.5
t-70.5 29.5l-27 -2v69h467v-69l-27 2q-42 -1 -70 -28.5t-30 -68.5v-516q0 -9 11 -11h135q15 286 217 490q105 104 238 158.5t280 54.5t281 -55.5t239 -159.5zM1699 244q64 65 95.5 148.5t31.5 177.5q0 130 -58.5 265.5t-172.5 250.5q-112 111 -246 171t-270 60
q-196 0 -327 -126q-127 -133 -127 -325q0 -66 16 -136q2 -6 3 -14q51 -206 213 -368q111 -111 245.5 -171t270.5 -60q195 0 326 127z" />
    <glyph glyph-name="u042F" unicode="&#x42f;" horiz-adv-x="1428" 
d="M1255 67l27 2v-68h-463v68l27 -2q41 0 70 29t29 70v406q-119 -301 -308 -470q-45 -39 -93 -67q-71 -42 -152 -42q-24 0 -49 4q-53 15 -105 33q-26 7 -52 7t-52 -6q-38 -10 -63 -31l-43 -38l1 57q3 74 50 132q12 15 26 28q30 28 68 43q39 14 84 14q47 0 100 -14
q12 -3 21 -6q7 -2 16 -5q23 -7 44 -15q48 -19 95 -30h2q12 -3 24 -3q33 5 52.5 17t35.5 29q129 126 215 329q-40 -37 -87 -65q-123 -69 -260 -69h-1q-207 0 -365 151q-150 158 -150 365q0 130 59 240t160.5 182t230.5 90h2q33 4 64 4h767v-68l-27 2q-40 0 -69 -29t-29 -70
v-1105q0 -41 29 -70t69 -29zM833 600l1 1q70 71 104 164q4 13 7 25v481q0 41 -29 70t-70 29h-331q-180 0 -318 -132q-66 -68 -66 -174q0 -32 6 -67q31 -158 163 -292q81 -80 175.5 -124.5t183.5 -44.5q107 0 174 64z" />
    <glyph glyph-name="u0430" unicode="&#x430;" horiz-adv-x="1291" 
d="M1128 68l26 2v-67h-200q-12 0 -24 3q-42 13 -72 46l-6 6q-1 2 -3 4q0 1 -1 2l-3 3q0 1 -1 2l-2 4q-7 10 -12 21q-2 6 -4 13q-141 -104 -309 -104q-141 0 -257.5 69.5t-186 186t-69.5 257.5t69.5 257.5t186 186t257.5 69.5q192 0 345 -133q76 -70 120 -163q45 -96 48 -203
v-366q2 -41 29.5 -68t68.5 -28zM201 834l-2 -2q-64 -71 -64 -173q0 -85 43 -179.5t125 -177.5q80 -79 174 -123.5t183 -44.5q95 0 160 53v433q-38 59 -89 110q-80 79 -174 123.5t-183 44.5q-105 0 -173 -64z" />
    <glyph glyph-name="u0431" unicode="&#x431;" horiz-adv-x="1189" 
d="M889 883q153 -159 153 -369q0 -143 -70.5 -261.5t-188.5 -189t-262 -70.5q-143 0 -261.5 70.5t-189 189t-70.5 261.5q0 155 87 288q18 27 39 53q12 12 23 24q35 36 75 64q-62 36 -98 97t-36 134q0 76 39 139.5t108 98.5q42 23 93 30q25 3 52 3q71 0 133 -15q15 -2 29 -5
q73 -15 144 -19h6q34 0 57 4t45 19l43 30l-1 -43q-10 -126 -117 -174q-31 -12 -69 -12q-37 0 -81 12q-8 2 -17 4q-6 3 -13 5q-17 5 -34 12q-38 14 -76 23q-38 8 -81 8q-69 0 -130 -26q-28 -14 -40.5 -36.5t-12.5 -48.5q0 -38 23 -76q26 -43 70.5 -67t93.5 -24q18 0 36 3
q11 3 22 5q54 12 109 12q6 0 11 -1q14 0 26 -1q193 -15 331 -151zM665 126q108 0 177 66q66 69 66 176q0 33 -6 68q-30 161 -164 296l-23 23q-110 99 -237 133h-1q-53 14 -101 14q-106 0 -174 -64l-3 -3q-11 -10 -20 -22q-44 -61 -47 -148v-8q6 -191 170 -361
q82 -81 177 -125.5t186 -44.5z" />
    <glyph glyph-name="u0432" unicode="&#x432;" horiz-adv-x="1128" 
d="M893 555q63 -92 63 -201q0 -114 -69 -209q-69 -89 -175 -124q-1 0 -2 -1q-51 -15 -103 -15h-607v66l26 -2q41 1 68.5 29t27.5 68v692q0 40 -27.5 68t-68.5 29l-26 -2v66h608q42 0 79 -17q51 -24 81 -70.5t30 -102.5q0 -83 -67 -144l-3 -3q1 -1 2 -1q100 -39 163 -126z
M502 955h-75q-40 0 -68.5 -28.5t-28.5 -68.5v-290q31 40 73 70q66 47 145 61q29 4 59 4h1q27 0 51 11q33 16 39 52q1 9 1 17q0 32 -17 59t-47 56q-22 21 -62 39t-71 18zM330 424v-259q2 -41 29.5 -68.5t67.5 -27.5h180q113 0 199 82h1q0 2 1 1q1 1 1 2h1q21 24 21 62
q0 51 -32.5 115t-91.5 123q-40 41 -84 69q-30 20 -69.5 38.5t-79.5 18.5q-28 0 -54 -14q-36 -25 -57 -63q-12 -17 -22.5 -37.5t-10.5 -41.5z" />
    <glyph glyph-name="u0433" unicode="&#x433;" horiz-adv-x="961" 
d="M6 1026h813v-261h-65v25q0 71 -49 120t-121 51h-148q-62 -3 -89 -58q-3 -6 -5 -12q-4 -13 -4 -26v-698q0 -14 4 -28q2 -6 5 -12q27 -55 89 -58l26 2v-66h-456v66l26 -2q41 1 69 29.5t28 68.5v696q0 39 -26 66.5t-65 31.5h-6l-26 -2v67z" />
    <glyph glyph-name="u0434" unicode="&#x434;" horiz-adv-x="1296" 
d="M937 1030h207v-67l-27 2q-39 0 -66.5 -27.5t-30.5 -67.5v-815q0 -56 -5 -97q-9 -58 -33 -111q-60 -128 -186 -197q-85 -47 -195 -47q-55 0 -120 12q-13 3 -27 5q-72 16 -141 19h-6q-33 0 -58 -4.5t-51 -20.5l-33 -25l1 41q10 122 115 169q3 2 8 3q28 9 59 9q36 0 79 -12
q9 -2 16 -4q7 -3 13 -4l34 -12q37 -14 73 -23q14 -3 29 -7q27 -6 58.5 -12.5t59.5 -6.5q45 0 67 20q15 13 24 43q6 22 8 59.5t2 67.5v183q-21 -16 -45 -30q-6 -3 -11 -6l-22 -12q-107 -52 -226 -52h-12q-13 0 -25 1q-54 4 -106 19q-160 48 -263 181q-104 140 -104 309
q0 141 69 256.5t185 184.5t256 69q168 0 308 -104q3 11 7 20q2 4 4 10q8 12 15 23q6 7 8 10q34 36 82 47q3 0 6 1zM697 137h2q67 11 112 51v423q-38 62 -91 115q-79 79 -172.5 123t-182.5 44q-105 0 -172 -64l-2 -2q-64 -71 -64 -172q0 -85 42.5 -178.5t124.5 -176.5
q120 -118 263 -155q49 -12 92 -12q26 0 48 4z" />
    <glyph glyph-name="u0435" unicode="&#x435;" horiz-adv-x="1215" 
d="M890 149q-55 -55 -125 -92q-115 -60 -241 -60q-143 0 -260.5 70t-187.5 188t-70 260q0 143 70 260.5t187.5 187.5t260.5 70t260.5 -70t187.5 -187.5t70 -260.5q0 -27 -3 -53q0 -8 -1 -16l-3 -22h-825q40 -67 98 -125q170 -164 361 -169q109 0 175 66zM176 490h715
q-41 131 -150 242q-81 80 -176 124.5t-185 44.5q-108 0 -176 -66q-58 -59 -65 -150q-1 -12 -1 -25q0 -80 38 -170z" />
    <glyph glyph-name="u0436" unicode="&#x436;" horiz-adv-x="1514" 
d="M1300 69l26 3v-67h-188q-59 1 -102 43q-42 43 -42 103v116q0 111 -38.5 193t-94.5 93h-86v-386q1 -41 28.5 -68.5t68.5 -29.5l27 3v-67h-456v67l26 -3q41 2 69 30t28 68v386h-96q-57 -11 -95 -93t-38 -193v-116q-1 -60 -42 -103q-43 -42 -102 -43h-188v67l26 -3
q41 2 69 30t28 68v100q0 93 47 176q46 79 125 126q34 21 72 33q21 7 42 11q-9 5 -17 12q-18 13 -34 29q-15 15 -29 33t-26 37q-11 19 -20 40q-4 8 -8 18q-6 15 -9 28l-2 12t-3 11q-2 8 -5 17q-6 16 -16 32q-10 15 -22 27q-12 13 -27 23t-32 16q-8 4 -17 6l-1 1h-3l-1 1
q-4 1 -7 1h-1l-1 1h-3l-2 1h-6q-3 1 -6 1h-3q-2 1 -5 1h-33v64h262v-209q2 -9 8 -21q7 -18 17 -35q9 -16 21 -31t25 -28q14 -14 29 -25q15 -12 32 -21q16 -10 34 -17t37 -12q13 -3 26 -5v243q-1 41 -28.5 68.5t-68.5 28.5l-26 -3v67h456v-67l-27 3h-6q-39 -4 -65 -32
t-26 -66v-240q8 1 16 3q19 5 37 12t34 17q17 9 32 21q15 11 29 25q13 13 25 28t21 31q10 17 17 35q5 12 8 21v209h262v-64h-33q-11 -1 -21 -3q-4 0 -8 -1q-1 0 -3 -1q-3 -1 -6 -1l-1 -1q-2 0 -4 -1h-1q-7 -2 -12 -5q-17 -6 -32 -16t-27 -23q-13 -13 -22 -27q-10 -16 -16 -32
q-3 -9 -5 -17q-2 -5 -3 -11v-1q-1 -5 -2 -11v-1q-1 -3 -2 -5v-3h-1q0 -2 -1 -4l-1 -2q0 -3 -1 -6h-1q-4 -11 -10 -25q-9 -21 -20 -40q-12 -19 -26 -37q-13 -17 -29 -33t-34 -29q-8 -6 -17 -12q21 -4 42 -11q38 -12 72 -33q78 -47 125 -126q47 -83 47 -176v-100q0 -40 28 -68
t69 -30z" />
    <glyph glyph-name="u0437" unicode="&#x437;" horiz-adv-x="955" 
d="M750 479q19 -55 19 -114q0 -91 -42.5 -173t-114.5 -132q-41 -29 -90 -44q-52 -16 -106 -16h-22q-54 0 -120 12q-13 3 -27 5q-73 16 -141 19h-6q-22 0 -36 1q-23 0 -47 -9q-20 -7 -37 -21l-23 -17l1 37q10 123 115 169q4 2 8 3q8 3 14 4q12 3 26 4q10 1 20 1q36 0 79 -11
q9 -2 16 -5q26 -8 51 -17q43 -15 86 -26q64 -16 128 -24q13 -1 23 -1q15 0 32.5 3.5t30.5 15.5q15 13 24 43q6 15 8 35q1 11 1 23q0 53 -24 107t-57 92q-10 12 -22 23q-132 125 -239 125q-42 0 -65 -23q-1 0 -2 -2l-17 -18l-48 44l17 18q79 81 187 101q17 3 42 4.5t50 6.5
t42 17.5t17 37.5v1q-7 63 -54 107q-24 23 -52 44q-39 28 -87 28q-68 -3 -116 -52q-48 -52 -48 -118v-25h-65v260h329q27 0 52 -7q60 -19 96.5 -67.5t36.5 -110.5q0 -81 -62 -139q62 -21 113 -64q74 -63 106 -155z" />
    <glyph glyph-name="u0438" unicode="&#x438;" horiz-adv-x="1316" 
d="M963 791v-551q2 -72 51.5 -121t119.5 -49h25v-65h-456v65h25q70 0 119 49t52 121v519l-599 -754h-296v65h25q77 0 132 63l2 2q36 46 37 105v551q-3 72 -52 121t-119 49h-25v65h456v-65h-25q-70 0 -119.5 -49t-51.5 -121v-526l604 761h291v-65h-25q-75 0 -130 -60l-6 -7
q-34 -46 -35 -103z" />
    <glyph glyph-name="u0439" unicode="&#x439;" horiz-adv-x="1311" 
d="M954 789v-549q0 -70 50 -120t120 -50h25v-64h-454v64h25q70 0 118.5 49t51.5 121v516l-597 -750h-294v64h24q78 0 132 63l2 2q36 47 36 105v549q0 70 -49.5 119.5t-120.5 49.5h-24v64h276q-14 36 -14 72q0 78 61 144q58 58 139 73q25 5 52 5q29 0 56.5 -4t52.5 -9
q11 -1 22 -4q60 -12 116 -15h25q18 0 33 2t30 11q4 2 7 5l32 28l-1 -43q-7 -103 -97 -144q-26 -10 -58 -10q-30 0 -66 10q-7 1 -14 4q-5 2 -10 3q-15 4 -28 10q-31 11 -61 18q-32 7 -62 7q-19 0 -38 -2q-39 -5 -76 -20t-51 -46q-5 -11 -5 -26t9 -33t33 -36h91v-64h-25
q-70 0 -120 -49.5t-50 -119.5v-524l601 757h290v-64h-25q-75 0 -129 -60l-6 -7q-35 -46 -35 -102z" />
    <glyph glyph-name="u043A" unicode="&#x43a;" horiz-adv-x="1189" 
d="M1016 69l26 2v-66h-186q-60 2 -102 43q-41 43 -42 102v116q0 110 -38.5 192t-94.5 92q-4 0 -7 1h-243v-385q1 -41 28.5 -68.5t68.5 -28.5l26 2v-66h-453v66l26 -2q41 2 69 29.5t28 67.5v693q-2 40 -29 67t-68 29l-26 -3v67h453v-67l-26 3q-3 0 -6 -1q-39 -3 -65 -30.5
t-26 -65.5v-243h133q5 0 10 1q20 2 39 6l36 12q18 7 34 17q17 9 32 20q15 12 29 25q13 13 25 28q11 15 21 32q9 16 17 34q5 12 7 21v208h260v-64h-25q-3 0 -7 -1q-11 0 -21 -2h-1q-6 -1 -10 -2l-6 -2l-4 -1h-2q-7 -3 -12 -5q-17 -6 -32 -16q-14 -10 -27 -23q-12 -12 -21 -27
q-10 -15 -16 -32q-2 -4 -3 -8l-3 -9v-2q-1 -4 -2 -9l-1 -3q0 -3 -1 -8l-1 -1v-1q0 -2 -1 -4q0 -2 -1 -3v-1q-1 -2 -1 -3q0 -2 -1 -3q-1 -2 -1 -4l-1 -2q-4 -11 -10 -24q-9 -20 -20 -40q-12 -19 -25 -36q-14 -18 -30 -33q-16 -16 -33 -29q-9 -6 -17 -12q21 -4 41 -11
q38 -12 72 -33q78 -46 124 -124q47 -83 47 -175v-100q0 -40 27.5 -67.5t68.5 -29.5z" />
    <glyph glyph-name="u043B" unicode="&#x43b;" horiz-adv-x="1220" 
d="M1060 65l26 2v-67h-457v67l26 -2q41 0 69.5 29t28.5 69v697q0 35 -22.5 62t-56.5 34q5 -14 5 -29q0 -9 -2 -17v-1q-41 -227 -117 -484q-42 -137 -93 -268q-26 -67 -62 -106q-50 -55 -119 -55h-1q-41 3 -75 20q-26 11 -51 15q-10 1 -19 1q-41 -1 -70.5 -10.5t-46 -19.5
l-16.5 -10l2 47q2 56 33 95t81 58q24 9 48 9t46 -6.5t41 -14.5l8 -4q42 -16 84 -28q5 0 9 -1q27 0 42 28v2l1 1q40 99 72 197q43 129 75 263q24 99 43 209l1 5q2 13 2 26q0 37 -17 62q-13 17 -33 18h-31v65h572v-67l-26 2q-58 0 -89 -58q-3 -6 -5 -12q-4 -12 -4 -26v-699
q0 -15 4 -29q3 -6 5 -11q31 -58 89 -58z" />
    <glyph glyph-name="u043C" unicode="&#x43c;" horiz-adv-x="1337" 
d="M1071 858v-694q1 -42 28.5 -70.5t68.5 -30.5l26 2v-67h-457v67l27 -2q41 2 69 31t28 70v575l-296 -666l-32 73l-274 618v-766h-261v65h25q69 0 119 51t52 124v548q-2 72 -51 121t-120 49h-25v65h367l19 -43l256 -580l277 623h277v-67l-26 2q-41 -1 -69 -29.5t-28 -68.5z
" />
    <glyph glyph-name="u043D" unicode="&#x43d;" horiz-adv-x="1296" 
d="M1159 956l-26 2q-42 -1 -70 -29t-28 -68v-698q2 -40 29.5 -67.5t68.5 -28.5l26 2v-67h-456v67l26 -2q42 1 69.5 29t27.5 69v316h-562v-244q2 -72 51.5 -121t119.5 -49h25v-65h-456v65h25q70 0 119 49t51 121v551q-2 72 -51 121t-119 49h-25v65h456v-65h-25
q-70 0 -119.5 -49t-51.5 -121v-242h562v315q0 40 -27.5 68t-69.5 29l-26 -2v67h456v-67z" />
    <glyph glyph-name="u043E" unicode="&#x43e;" horiz-adv-x="1200" 
d="M522 1034q144 0 262 -70.5t188 -188.5t70 -261t-70 -261t-188 -188.5t-262 -70.5q-143 0 -261 70.5t-188 188.5t-70 261q0 112 43.5 209t119.5 169l1 1q70 66 161 103.5t194 37.5zM667 127q108 0 176 66q66 69 66 176q0 32 -6 67q-30 160 -163 295q-82 81 -177 125.5
t-185 44.5q-108 0 -177 -66q-66 -69 -66 -175q0 -32 7 -68q30 -159 163 -295q82 -80 177 -125t185 -45z" />
    <glyph glyph-name="u043F" unicode="&#x43f;" horiz-adv-x="1326" 
d="M1164 960l-26 2q-42 -2 -70 -30t-28 -68v-700q2 -41 29.5 -68.5t68.5 -28.5l26 2v-67h-458v67l27 -2q41 1 69 29.5t28 68.5v699q0 40 -28 68t-69 30h-296q-70 0 -119.5 -49.5t-51.5 -121.5v-554q2 -72 51.5 -121t119.5 -49h25v-65h-458v65h25q71 0 120.5 49t51.5 121v554
q-2 72 -51.5 121.5t-120.5 49.5h-25v65h1160v-67z" />
    <glyph glyph-name="u0440" unicode="&#x440;" horiz-adv-x="1341" 
d="M630 1020q142 0 258.5 -69t186 -185.5t69.5 -258.5q0 -141 -69.5 -257.5t-186 -186t-258.5 -69.5q-164 0 -303 99v-333q1 -41 29 -69t69 -29l27 2v-67h-187q-29 0 -56 11q-85 39 -92 132v1120q-2 40 -29.5 67t-68.5 28l-26 -2v67h189q46 0 85 -27q12 -10 23 -21
q2 -3 5 -6q1 -2 3 -4q1 -1 1 -2l3 -3l4 -6q6 -11 11 -22l4 -12q141 103 309 103zM630 59q180 0 317 131q66 69 66 175q0 31 -6 65q-31 158 -162 291q-80 80 -174.5 124t-183.5 44q-94 0 -160 -52v-660q134 -118 303 -118z" />
    <glyph glyph-name="u0441" unicode="&#x441;" horiz-adv-x="1098" 
d="M908 230l33 -25l-17 -21q-75 -91 -179.5 -140t-221.5 -49h-2q-215 4 -368 157q-150 161 -150 363v8q7 213 155 362q160 150 365 150q131 0 249 -63q5 -3 11 -3q15 0 22 19q2 9 2 19l-2 27h68v-440h-68l2 27q0 30 -16 54q-7 9 -14 17q-18 21 -37 40q-24 25 -50 46
q-160 124 -312 124q-108 0 -176 -66q-66 -69 -66 -176q0 -32 6 -67q31 -159 164 -295q82 -80 177 -125t185 -45q108 0 176 66q1 2 4 4q12 13 22 27l15 23z" />
    <glyph glyph-name="u0442" unicode="&#x442;" horiz-adv-x="1036" 
d="M0 1021h875v-259h-64l-1 25q-2 72 -51 120.5t-119 48.5h-98v-792q1 -40 28.5 -67t67.5 -29l27 3v-67h-455v67l27 -3q41 2 68.5 30t27.5 68v790h-98q-70 0 -119 -48.5t-51 -120.5l-1 -25h-64v259z" />
    <glyph glyph-name="u0443" unicode="&#x443;" horiz-adv-x="1377" 
d="M780 1018h455v-67l-26 2q-58 0 -89 -58q-3 -5 -4 -11q-4 -14 -4 -28v-825q0 -1 -1 -32q-3 -47 -5 -62q-10 -58 -34 -112q-59 -128 -185 -196q-87 -47 -195 -47q-55 0 -120 12q-13 3 -27 5q-71 16 -141 19h-6q-42 -1 -73.5 -11t-49.5 -20.5l-18 -10.5l1 41q9 117 114 161
l8 2q28 9 59 9q36 0 79 -11q9 -2 16 -5q7 -1 13 -4l34 -12q37 -13 73 -22q14 -3 29 -7q26 -7 55.5 -13t57.5 -6h5q45 0 67 20q15 14 24 42q12 44 12 92q0 18 -1 35v274q-36 -56 -89 -95q-106 -79 -234 -79q-129 0 -234 79q-101 77 -138 198q-16 54 -16 111v398
q-3 72 -51.5 120.5t-119.5 48.5h-24v65h455v-65h-25q-70 0 -119 -48.5t-52 -120.5v-224q6 -24 17 -51q49 -115 172 -242q4 -3 8 -8q64 -63 134.5 -98.5t131.5 -35.5q14 0 25 2q3 0 6 1h2q3 1 5 2q3 0 6 1q4 2 7 2q1 1 4 2h1l4 2q5 2 8 4t4 3q8 3 12 8l7 7l1 1q92 99 92 226
v470q0 40 -28.5 68.5t-68.5 28.5l-26 -2v67z" />
    <glyph glyph-name="u0444" unicode="&#x444;" horiz-adv-x="1742" 
d="M1065 1021q142 0 258.5 -69.5t186 -186t69.5 -257.5q0 -142 -69.5 -258.5t-186 -186t-258.5 -69.5q-89 0 -173 30v-264q1 -42 29 -69.5t69 -28.5l26 2v-67h-186q-29 0 -56 11q-85 39 -92 132v281q-80 -27 -165 -27q-141 0 -258 69.5t-186 186t-69 258.5q0 141 69 257.5
t186 186t258 69.5h227q56 0 101 -39l7 -7q101 46 213 46zM892 889v-795q83 -35 173 -35q180 0 317 131q66 69 66 176q0 31 -6 65q-31 158 -162 291q-80 79 -174.5 123.5t-183.5 44.5q-15 0 -30 -1zM201 826l-2 -3q-64 -71 -64 -172q0 -86 43 -180.5t125 -177.5
q80 -79 174.5 -123.5t182.5 -44.5h13q3 0 7 1h2v735q0 17 -7 32q-4 12 -11 21l-6 8q-8 9 -20 17q-59 17 -121 17q-178 0 -316 -130z" />
    <glyph glyph-name="u0445" unicode="&#x445;" horiz-adv-x="1205" 
d="M1042 66v-64h-445v64h24q19 0 39 6t31 24q8 13 8 32q0 39 -34 95l-107 171q-109 -174 -153 -245q-19 -36 -19 -55q0 -10 3 -15q5 -7 14.5 -10t18.5 -3h26v-64h-446v66l26 -2q46 2 96.5 33.5t80.5 77.5l2 2l243 389l-128 205q-50 77 -135 129.5t-160 52.5h-25v64h446v-64
h-25q-18 0 -38.5 -6t-31.5 -24q-7 -13 -7 -32q0 -39 33 -94l5 -8l102 -164l152 244q21 38 21 57q0 9 -3 14q-5 7 -15 10t-19 3h-25v64h445v-66l-26 2q-44 0 -95.5 -32.5t-81.5 -78.5l-1 -1l-243 -390l127 -204q51 -78 136 -130.5t159 -52.5h25z" />
    <glyph glyph-name="u0446" unicode="&#x446;" horiz-adv-x="1291" 
d="M1067 69h113v-259h-65v25q-2 72 -50 120t-120 49h-942v65h25q70 0 119 49t52 121v551q-3 72 -52 121t-119 49h-25v65h456v-65h-25q-70 0 -119.5 -49t-51.5 -121v-551q2 -72 51.5 -121t119.5 -49h230q41 1 69 29t28 69v695q0 41 -28 69t-70 29l-26 -2v67h456v-67l-26 2
q-42 -1 -69.5 -29t-27.5 -69v-697q1 -40 28.5 -67.5t68.5 -28.5z" />
    <glyph glyph-name="u0447" unicode="&#x447;" horiz-adv-x="1316" 
d="M1148 70l26 2v-66h-453v66l26 -2q61 3 88 57q3 6 5 12q4 14 4 28v143q-113 -98 -257 -98q-128 0 -233 78q-101 78 -137 198q-16 54 -16 110v188q-2 72 -51 120.5t-119 48.5h-25v64h453v-64h-24q-70 0 -119 -48.5t-51 -120.5v-15q6 -24 17 -51q49 -114 170 -240l8 -8
q63 -63 133.5 -98t131.5 -35q13 0 24 1h1q3 1 6 1l2 1q3 0 5 1q3 1 5 1h1q4 2 7 3q2 0 3 1h1l1 1q2 0 4 1l8 4v1l4 2q6 4 12 9q2 1 3 2l2 2l2 2v1q15 15 28 32v453q0 40 -28 68t-69 29l-26 -2v66h453v-66l-26 2q-61 -3 -88 -57q-3 -6 -4 -12q-5 -14 -5 -28v-692
q2 -40 29 -67.5t68 -28.5z" />
    <glyph glyph-name="u0448" unicode="&#x448;" horiz-adv-x="1483" 
d="M1327 955l-26 2q-41 -1 -69 -29t-28 -68v-697q1 -40 28.5 -67.5t68.5 -28.5l26 2v-67h-1320v65h25q70 0 119 48.5t51 120.5v552q-2 72 -51 120.5t-119 48.5h-25v65h260v-785q2 -72 51 -121t120 -49h31q71 0 120 49t51 121v551q-2 72 -51 120.5t-120 48.5h-24v65h455v-65
h-25q-70 0 -119 -48.5t-51 -120.5v-551q2 -71 49 -119t118 -51h26q41 1 69 29t28 69v857h332v-67z" />
    <glyph glyph-name="u0449" unicode="&#x449;" horiz-adv-x="1539" 
d="M1303 69h114v-232q-1 -1 -1 -2v-25h-64v25q-2 72 -51.5 121t-119.5 49h-1174v64h25q71 0 120 49t51 121v552q-2 72 -51 121t-120 49h-25v65h261v-787q2 -72 51 -121t120 -49h31q71 0 120 49t51 121v552q-2 72 -51 121t-120 49h-24v65h456v-65h-25q-71 0 -120 -49
t-51 -121v-552q2 -71 49 -119t118 -51h27q41 2 69 30t28 68v859h332v-67l-26 2q-41 -1 -69 -29.5t-28 -68.5v-697q1 -41 28.5 -68.5t68.5 -28.5z" />
    <glyph glyph-name="u044A" unicode="&#x44a;" horiz-adv-x="1290" 
d="M790 705q97 0 176.5 -47.5t127 -127t47.5 -176.5q0 -115 -69 -210q-69 -90 -176 -125l-2 -1q-50 -15 -104 -15h-610v66l27 -2q40 0 68.5 29t28.5 69v695q0 48 -39 78q-24 17 -52 17q-12 0 -23 -3q-56 -16 -91 -61t-35 -103l-1 -25h-63v259h636v-67l-26 2q-40 0 -69 -28.5
t-29 -68.5v-292q34 44 79 75q93 62 199 62zM512 423v-260q2 -41 30 -68.5t67 -27.5h181q42 0 84 12q61 20 109 63q17 16 24.5 36t7.5 41q0 15 -3 30q-12 59 -45.5 111t-75.5 94q-132 125 -239 125q-4 0 -8 -1q-26 -1 -48 -15q-21 -17 -37 -41q-17 -23 -28 -47
q-6 -13 -11 -26q-2 -6 -4 -13q-4 -7 -4 -13z" />
    <glyph glyph-name="u044B" unicode="&#x44b;" horiz-adv-x="1595" 
d="M613 705q97 0 176.5 -47t126.5 -126.5t47 -176.5q0 -114 -69 -209q-68 -90 -175 -125h-2q-51 -16 -104 -16h-608v67l26 -2q41 1 69 29t28 68v694q-1 40 -28.5 67.5t-68.5 28.5l-26 -2v67h454v-67l-26 2q-41 -1 -69 -29t-28 -68v-291q34 43 79 75q92 61 198 61zM336 425
v-259q2 -41 29.5 -68.5t67.5 -27.5h180q65 0 123 27q32 15 61.5 37.5t38.5 58.5q2 12 2 25q0 25 -7 50.5t-18 47.5q-37 78 -99 140q-133 124 -238 124q-39 0 -67 -25t-46.5 -60.5t-26.5 -69.5zM1423 955l-26 2q-42 -1 -69.5 -29t-27.5 -68v-694q1 -41 28.5 -68t68.5 -28
l26 2v-67h-454v67l26 -2q41 1 69 29t28 68v693q0 40 -28 68t-69 29l-26 -2v67h454v-67z" />
    <glyph glyph-name="u044C" unicode="&#x44c;" horiz-adv-x="1103" 
d="M613 705q97 0 176.5 -47t126.5 -126.5t47 -176.5q0 -114 -69 -209q-68 -90 -175 -125h-2q-51 -16 -104 -16h-608v67l26 -2q41 1 69 29t28 68v694q-1 40 -28.5 67.5t-68.5 28.5l-26 -2v67h454v-67l-26 2q-41 -1 -69 -29t-28 -68v-291q34 43 79 75q92 61 198 61zM336 425
v-259q2 -41 29.5 -68.5t67.5 -27.5h180q65 0 123 27q32 15 61.5 37.5t38.5 58.5q2 12 2 25q0 25 -7 50.5t-18 47.5q-37 78 -99 140q-133 124 -238 124q-39 0 -67 -25t-46.5 -60.5t-26.5 -69.5z" />
    <glyph glyph-name="u044D" unicode="&#x44d;" horiz-adv-x="1042" 
d="M759 878q151 -159 151 -362v-20q-10 -208 -158 -355q-157 -146 -361 -146q-123 0 -236 57q-7 4 -15 4q-12 0 -22 -9t-10 -23v-1l2 -26h-68v438h68l-2 -27q0 -28 16 -54l12 -14l1 -1l2 -3q17 -19 36 -39q24 -23 50 -45q160 -124 311 -124q108 0 176 66q66 70 66 175
q0 48 -14 102h-576v66h553q-45 105 -133 194q-81 80 -176 125t-185 45q-108 0 -176 -66q-1 -3 -3 -4h-1q0 -1 -2 -3l-17 -19l-48 46l17 19q73 75 168 116q100 43 206 43h3q212 -4 365 -155z" />
    <glyph glyph-name="u044E" unicode="&#x44e;" horiz-adv-x="1610" 
d="M923 1023q141 0 256.5 -69t184.5 -184.5t69 -255.5q0 -141 -69 -256.5t-184.5 -184.5t-256.5 -69q-136 0 -249 65t-182 174.5t-77 245.5h-82v-324q2 -41 29.5 -68t68.5 -28l26 2v-67h-455v67l26 -2q41 1 69 29t28 68v695q0 40 -28 68t-69 29l-26 -2v67h455v-67l-26 2
q-42 -1 -70 -29t-28 -68v-308h82q17 191 153 326q155 144 355 144zM1065 134q107 0 173 65q65 68 65 174q0 31 -6 64q-31 157 -161 289q-79 79 -172.5 123t-182.5 44q-105 0 -172 -65q-65 -68 -65 -171q0 -57 20 -121q2 -8 4 -14q43 -121 143 -221q79 -79 172.5 -123
t181.5 -44z" />
    <glyph glyph-name="u044F" unicode="&#x44f;" horiz-adv-x="1123" 
d="M846 859v-699q0 -40 28.5 -69t68.5 -29l27 2v-67h-458v67l26 -2q40 0 67.5 26.5t30.5 66.5v246l-2 -4q-56 -149 -122 -241q-27 -38 -58 -72q-30 -33 -63 -56q-45 -30 -97 -30q-19 0 -37 4q-28 10 -54 21q-21 7 -44 7q-9 0 -18 -1q-61 -5 -111 -38q-3 -2 -7 -5l1 30
q3 70 56 116q9 11 21 18q17 12 38 20q31 12 67 12t79 -11q9 -3 17 -5l12 -4q17 -6 47 -15q13 -4 26 -4q15 0 35.5 19t33.5 37h1q49 71 96 177q-62 -42 -137 -55q-29 -5 -59 -5h-2q-30 0 -60 6q-33 6 -63 17q-101 39 -164 127q-64 94 -64 203q0 116 70 211q69 91 176 126h2
q51 16 105 16h613v-67l-27 2q-40 0 -68.5 -28.5t-28.5 -69.5zM579 486q41 50 57 113v261q-2 41 -29.5 68.5t-68.5 28.5h-181q-34 0 -67 -8t-63 -23q-31 -15 -57 -37q-21 -16 -32 -40q-8 -19 -8 -40q0 -24 7 -48q7 -27 19 -53q13 -29 30 -55q19 -29 42 -55q13 -16 27 -30
q39 -39 83 -68l2 -1q85 -55 156 -56q11 0 22 2q13 2 24 7q22 13 37 34z" />
    <glyph glyph-name="u0451" unicode="&#x451;" horiz-adv-x="1194" 
d="M295 1171q-45 0 -76.5 31.5t-31.5 76.5t31.5 76.5t76.5 31.5q44 0 76 -31.5t32 -76.5t-32 -76.5t-76 -31.5zM740 1171q-44 0 -76 31.5t-32 76.5t32 76.5t76 31.5q45 0 76.5 -31.5t31.5 -76.5t-31.5 -76.5t-76.5 -31.5zM890 149q-55 -55 -125 -92q-115 -60 -241 -60
q-143 0 -260.5 70t-187.5 188t-70 260q0 143 70 260.5t187.5 187.5t260.5 70t260.5 -70t187.5 -187.5t70 -260.5q0 -27 -3 -53q0 -8 -1 -16l-3 -22h-825q40 -67 98 -125q170 -164 361 -169q109 0 175 66zM176 490h715q-41 131 -150 242q-81 80 -176 124.5t-185 44.5
q-108 0 -176 -66q-58 -59 -65 -150q-1 -12 -1 -25q0 -80 38 -170z" />
    <glyph glyph-name="endash" unicode="&#x2013;" horiz-adv-x="1483" 
d="M3 550v112h1237v-112h-1237z" />
    <glyph glyph-name="emdash" unicode="&#x2014;" horiz-adv-x="1780" 
d="M11 537v113h1528v-113h-1528z" />
    <glyph glyph-name="quoteleft" unicode="&#x2018;" horiz-adv-x="355" 
d="M134 1453q34 -11 54.5 -38.5t20.5 -62.5q0 -44 -31 -75t-75 -31q-43 0 -74.5 31t-31.5 75q0 38 12.5 72t31 62t37 48.5t31.5 32.5t15 13l16 13l50 -39l-20 -20q-33 -34 -36 -81z" />
    <glyph glyph-name="quoteright" unicode="&#x2019;" horiz-adv-x="360" 
d="M68 1233q-34 11 -55 39t-21 63q0 43 31.5 74.5t74.5 31.5q44 0 75 -31.5t31 -74.5q0 -39 -12.5 -73t-30.5 -62t-36.5 -48.5t-32 -32.5t-15.5 -13l-15 -12l-50 38l20 20q33 34 36 81z" />
    <glyph glyph-name="quotesinglbase" unicode="&#x201a;" horiz-adv-x="416" 
d="M73 -4q-34 11 -55 39t-21 63q0 43 31.5 74.5t74.5 31.5q44 0 75 -31.5t31 -74.5q0 -39 -12.5 -73t-30.5 -62t-36.5 -48.5t-32 -32.5t-15.5 -13l-15 -12l-50 38l20 20q33 34 36 81z" />
    <glyph glyph-name="quotedblleft" unicode="&#x201c;" horiz-adv-x="706" 
d="M443 1442q34 -11 54.5 -38.5t20.5 -62.5q0 -44 -31 -75t-75 -31q-43 0 -74.5 31t-31.5 75q0 38 12.5 72t31 62t37 48.5t31.5 32.5t15 13l16 13l50 -39l-20 -20q-33 -34 -36 -81zM134 1442q34 -11 54.5 -38.5t20.5 -62.5q0 -44 -31 -75t-75 -31q-43 0 -74.5 31t-31.5 75
q0 38 12.5 72t31 62t37 48.5t31.5 32.5t15 13l16 13l50 -39l-20 -20q-33 -34 -36 -81z" />
    <glyph glyph-name="quotedblright" unicode="&#x201d;" horiz-adv-x="728" 
d="M83 1237q-34 11 -55 39t-21 63q0 43 31.5 74.5t74.5 31.5q44 0 75 -31.5t31 -74.5q0 -39 -12.5 -73t-30.5 -62t-36.5 -48.5t-32 -32.5t-15.5 -13l-15 -12l-50 38l20 20q33 34 36 81zM392 1237q-34 11 -55 39t-21 63q0 43 31.5 74.5t74.5 31.5q44 0 75 -31.5t31 -74.5
q0 -39 -12.5 -73t-30.5 -62t-36.5 -48.5t-32 -32.5t-15.5 -13l-15 -12l-50 38l20 20q33 34 36 81z" />
    <glyph glyph-name="quotedblbase" unicode="&#x201e;" horiz-adv-x="732" 
d="M83 5q-34 11 -55 39t-21 63q0 43 31.5 74.5t74.5 31.5q44 0 75 -31.5t31 -74.5q0 -39 -12.5 -73t-30.5 -62t-36.5 -48.5t-32 -32.5t-15.5 -13l-15 -12l-50 38l20 20q33 34 36 81zM392 5q-34 11 -55 39t-21 63q0 43 31.5 74.5t74.5 31.5q44 0 75 -31.5t31 -74.5
q0 -39 -12.5 -73t-30.5 -62t-36.5 -48.5t-32 -32.5t-15.5 -13l-15 -12l-50 38l20 20q33 34 36 81z" />
    <glyph glyph-name="ellipsis" unicode="&#x2026;" horiz-adv-x="1309" 
d="M886 -6q-44 0 -75 31t-31 74q0 44 31 75t75 31t75 -31t31 -75q0 -43 -31 -74t-75 -31zM501 -6q-44 0 -75 31t-31 74q0 44 31 75t75 31t75 -31t31 -75q0 -43 -31 -74t-75 -31zM105 -6q-44 0 -75 31t-31 74q0 44 31 75t75 31t75 -31t31 -75q0 -43 -31 -74t-75 -31z" />
    <glyph glyph-name="fraction" unicode="&#x2044;" horiz-adv-x="1173" 
d="M737 1439h228l18 -66h-33q-69 0 -107 -47l-3 -3q-5 -7 -8 -12q-306 -656 -604 -1295l-7 -15h-230l-18 66h33q81 0 118 56z" />
    <glyph glyph-name="fraction" unicode="&#x2215;" horiz-adv-x="1173" 
d="M737 1439h228l18 -66h-33q-69 0 -107 -47l-3 -3q-5 -7 -8 -12q-306 -656 -604 -1295l-7 -15h-230l-18 66h33q81 0 118 56z" />
    <glyph glyph-name="u2116" unicode="&#x2116;" horiz-adv-x="2398" 
d="M1249 1199v-959q3 -73 52.5 -122.5t121.5 -49.5h25v-66h-320l-38 53l-822 1119v-934q2 -73 52 -122.5t121 -49.5h25v-66h-463v66h26q71 0 121 49.5t52 123.5v958q-2 74 -52 123.5t-121 49.5h-26v65h322l38 -51l821 -1118v931q-2 73 -52 123t-122 50h-25v65h463v-65h-25
q-72 0 -121.5 -50t-52.5 -123zM1838 721q-98 0 -179.5 48.5t-129.5 129.5t-48 180t48 180t129.5 129.5t179.5 48.5q99 0 180.5 -48.5t129.5 -129.5t48 -180t-48 -180t-129.5 -129.5t-180.5 -48.5zM1609 1231v-10q0 -53 34 -119t93 -126q60 -59 124.5 -92.5t118.5 -33.5h15
l1 1h5q3 1 6 1q2 0 2 1q5 0 7 2h1l1 1h2l2 1h1l1 1q2 0 2 1l2 1q10 5 16 11l6 6q2 2 2 3q2 2 3 5l2 1q0 3 2 5l1 1q0 2 1 3v1l1 1q0 2 1 4q1 1 1 2v1q0 2 1 2v1q0 2 1 2v3l1 1v5l1 2v8q1 1 1 2v7q0 108 -127 245q-6 6 -12 11l-7 7l-18 16q-2 2 -4 3l-12 9q-3 3 -6 5
q-12 9 -25 17q-3 3 -6 5l-3 2q-3 1 -7 4q-3 2 -8 4q-3 3 -6 4q-1 1 -3 2q-4 2 -7 3q-4 3 -12 6q-5 3 -10 5q-54 24 -98 24h-2l-2 -1h-11q-1 0 -1 -1h-5q-9 -2 -18 -5l-2 -1q-1 0 -5 -2h-1l-1 -1h-1l-2 -2h-1l-1 -1q-4 -2 -8 -5v-1q-1 0 -3 -2q0 -1 -1 -1l-2 -2q0 -1 -2 -3
q-3 -3 -6 -7q0 -1 -1 -2q0 -1 -1 -2l-1 -1v-2l-1 -1v-1q-1 0 -1 -2l-1 -2q0 -1 -1 -4l-1 -1v-1l-2 -6v-2q-1 -1 -1 -3v-3l-1 -1v-6q0 -1 -1 -3zM2204 607v-112h-706v112h706z" />
    <glyph glyph-name="minus" unicode="&#x2212;" horiz-adv-x="1054" 
d="M873 808v-108h-864v108h864z" />
    <glyph glyph-name="uFB00" unicode="&#xfb00;" horiz-adv-x="1899" 
d="M1595 1376h6q49 3 80.5 13.5t46 21l14.5 10.5l-1 -36q-9 -122 -114 -169l-8 -2q-27 -9 -59 -9q-36 0 -78 11q-9 3 -16 5t-13 4l-34 12q-37 13 -73 22q-13 3 -28 7q-27 7 -58 13t-60 6q-45 0 -67 -20q-14 -13 -24 -42q-7 -24 -9 -55v-148h443v-64h-443v-789
q0 -40 27.5 -68t68.5 -30l26 3v-67h-453v67l26 -3q41 2 68 29t29 68v790h-562v-789q0 -40 28 -68t69 -30l26 3v-67h-454v67l26 -3q41 2 68.5 29t28.5 68v790h-123v64h125q2 29 3 38q10 58 34 111q43 96 129 161q26 20 55 35q86 46 194 46q55 0 119 -12q14 -2 28 -5
q71 -15 139 -18h7q49 3 80 13.5t46 21l15 10.5l-1 -36q-10 -122 -114 -169l-8 -2q-28 -9 -59 -9q-36 0 -79 11q-8 3 -16 5l-12 4q-18 6 -34 12q-37 13 -73 22q-14 3 -29 7q-27 7 -58 13t-59 6q-46 0 -67 -20q-15 -13 -24 -42q-8 -24 -10 -55v-148h563q2 29 4 38q9 58 33 111
q44 96 130 161q26 20 55 35q86 46 194 46q54 0 119 -12q14 -2 27 -5q71 -15 140 -18z" />
    <glyph glyph-name="uFB01" unicode="&#xfb01;" horiz-adv-x="1332" 
d="M1141 958q-39 -3 -64.5 -31t-25.5 -66v-695q1 -41 28.5 -68.5t68.5 -28.5l26 2v-67h-455v67l26 -2q41 1 69 29t28 68v696q-1 41 -28.5 68t-68.5 29h-408v-793q0 -40 28 -68t70 -29l26 2v-67h-455v67l26 -2q41 1 68 28.5t29 68.5v793h-123v64h124q3 29 4 38q9 58 33 112
q44 96 131 161q26 20 55 35q86 47 194 47q55 0 120 -12q14 -3 27 -5q72 -16 141 -19h6q66 0 99 29l43 37l-1 -56q-10 -123 -115 -170l-8 -2q-27 -9 -59 -9q-36 0 -79 11q-9 2 -16 5q-6 2 -13 4q-17 6 -33 11q-38 14 -74 23q-13 3 -29 7q-27 7 -58 13t-59 6q-46 0 -68 -20
q-15 -13 -24 -42q-7 -24 -10 -55v-149h837v-67l-26 3q-3 0 -7 -1zM867 1139q0 33 23.5 56.5t56.5 23.5q32 0 55.5 -23.5t23.5 -56.5t-23.5 -56t-55.5 -23q-33 0 -56.5 23t-23.5 56z" />
    <glyph glyph-name="uFB02" unicode="&#xfb02;" horiz-adv-x="1339" 
d="M1173 67l26 2v-67h-184q-29 0 -56 11q-85 39 -92 132v968q-6 74 -77 95q-32 1 -71 11q-8 2 -16 5q-6 1 -13 4q-17 5 -33 11q-38 14 -74 23q-13 3 -29 7q-27 7 -58 13t-59 6q-46 0 -68 -20q-15 -14 -24 -43q-8 -23 -10 -54v-149h445v-65h-445v-792q0 -41 28 -69t69 -29
l27 2v-67h-456v67l26 -2q41 1 68.5 28.5t29.5 68.5v793h-124v65h125q2 29 3 38q10 58 34 112q44 95 130 161q27 20 56 35q86 47 194 47q55 0 120 -12q14 -3 27 -5q72 -16 141 -19h6q67 0 100 29l42 37l-1 -57q-3 -66 -43 -116q60 -4 102 -48q2 -3 5 -6q1 -2 3 -4q0 -1 1 -2
l3 -3q0 -1 1 -2q1 -2 3 -4q6 -10 11 -21q8 -20 10 -41v-977q1 -41 28.5 -68.5t68.5 -28.5z" />
    <glyph glyph-name="uFB03" unicode="&#xfb03;" horiz-adv-x="2087" 
d="M1899 959h-7q-39 -3 -65 -31t-26 -66v-695q2 -41 29 -68.5t69 -28.5l26 2v-66h-455v66l26 -2q41 1 69 29t28 69v695q-2 41 -29 68t-68 28h-408v-791q0 -41 28 -69t69 -29l27 2v-66h-455v66l26 -2q41 1 68 28.5t29 68.5v792h-542v-791q0 -41 28 -69t70 -29l26 2v-66h-455
v66l26 -2q41 1 68.5 28.5t28.5 68.5v792h-123v65h125q2 29 3 38q9 58 34 112q43 95 130 161q26 20 55 35q86 46 194 46q55 0 120 -11q14 -3 27 -5q72 -16 141 -19h6q66 0 99 29l43 37l-2 -57q-9 -122 -114 -169q-4 -1 -8 -3q-27 -8 -59 -8q-36 0 -79 11q-9 2 -16 5
q-6 2 -13 4q-17 5 -33 11q-38 14 -74 23q-13 3 -29 7q-27 7 -58 13t-59 6q-46 0 -68 -20q-14 -14 -24 -43q-7 -23 -10 -54v-149h543q2 29 4 38q9 58 33 112q44 95 131 161q26 20 55 35q86 46 194 46q55 0 120 -11q13 -3 27 -5q72 -16 141 -19h6q66 0 99 29l43 37l-2 -57
q-9 -122 -114 -169q-4 -1 -8 -3q-28 -8 -59 -8q-37 0 -79 11q-9 2 -16 5q-7 2 -13 4q-17 5 -34 11q-37 14 -73 23q-13 3 -29 7q-27 7 -58 13t-59 6q-46 0 -68 -20q-15 -14 -24 -43q-7 -23 -10 -54v-149h837v-67zM1618 1140q0 33 23 56t56 23t56.5 -23t23.5 -56t-23.5 -56
t-56.5 -23t-56 23t-23 56z" />
    <glyph glyph-name="uFB04" unicode="&#xfb04;" horiz-adv-x="2072" 
d="M1929 68l26 2v-66h-184q-29 0 -56 10q-85 39 -91 132v966q-7 74 -77 95q-33 1 -72 12l-16 4l-12 4q-18 6 -34 12q-37 14 -73 23q-14 3 -29 6q-27 7 -58 13.5t-60 6.5q-45 0 -67 -20q-15 -14 -24 -43q-8 -24 -10 -55v-148h444v-65h-444v-791q0 -41 28 -69t69 -29l26 2v-66
h-455v66l26 -2q41 1 68.5 28.5t29.5 68.5v792h-551v-791q0 -41 27.5 -69t69.5 -29l26 2v-66h-455v66l26 -2q41 1 68.5 28.5t28.5 68.5v792h-123v65h125q2 29 3 38q10 58 34 111q43 96 130 162q26 19 55 35q86 46 194 46q55 0 120 -12q14 -2 27 -5q72 -15 141 -18q3 -1 6 -1
q66 0 99 29l43 37l-2 -56q-9 -122 -114 -169q-4 -2 -8 -3q-28 -9 -59 -9q-36 0 -79 12q-9 2 -16 4q-6 2 -13 4l-33 12q-38 14 -74 23q-13 3 -29 6q-27 7 -57.5 13.5t-59.5 6.5q-46 0 -67 -20q-15 -14 -25 -43q-7 -24 -9 -55v-148h552q2 29 3 38q10 58 34 111q44 96 130 162
q26 19 55 35q86 46 195 46q55 0 119 -12q14 -2 28 -5q71 -15 140 -18q3 -1 6 -1q67 0 100 29l42 37l-1 -56q-3 -66 -43 -117q60 -3 102 -47q2 -3 5 -7l3 -3q0 -1 1 -2l2 -3v-1l2 -2q1 -2 2 -3q7 -11 11 -22q8 -19 11 -40v-976q1 -41 28.5 -68.5t68.5 -28.5z" />
  </font>
</defs>
</svg>
