<?xml version="1.0" standalone="no"?>
<!DOCTYPE svg PUBLIC "-//W3C//DTD SVG 1.1//EN" "http://www.w3.org/Graphics/SVG/1.1/DTD/svg11.dtd" >
<svg xmlns="http://www.w3.org/2000/svg" xmlns:xlink="http://www.w3.org/1999/xlink" version="1.1">
<metadata>
Created by FontForge 20201107 at Wed Jan 31 22:20:22 2024
 By 
Copyright 2023 The NT Somic project
</metadata>
<defs>
<font id="NTSomic-Regular" horiz-adv-x="580" >
  <font-face 
    font-family="NT Somic"
    font-weight="400"
    font-stretch="normal"
    units-per-em="1000"
    panose-1="0 0 0 0 0 0 0 0 0 0"
    ascent="800"
    descent="-200"
    x-height="500"
    cap-height="700"
    bbox="-71 -225 1134 1010"
    underline-thickness="50"
    underline-position="-125"
    unicode-range="U+000A-2212"
  />
<missing-glyph horiz-adv-x="938" 
d="M311 187q-10 -17 -17.5 -35t-7.5 -40q0 -26 11.5 -49t33.5 -40t53 -27t71 -10q45 0 82 14t64 38.5t41.5 59t14.5 76.5h-125q0 -25 -17 -42t-44 -17q-25 0 -39 14t-14 34q0 23 17 35.5t38 12.5h184v116h-201l-24 -86h-9v145h-128v-166h117v-9zM545 546q0 -12 -13.5 -18.5
t-29 -14.5t-29 -21t-13.5 -39q0 -45 43.5 -67t119.5 -22h34v111h-25q-20 0 -32.5 10t-12.5 25t12 25.5t26.5 22t26.5 25.5t12 36q0 15 -7 30.5t-22 28t-38.5 20.5t-57.5 8q-25 0 -46 -5t-41 -17l-29 -104h-8v117h-120v-274h128v58q0 49 21.5 75.5t53.5 26.5q25 0 36 -13
t11 -24zM106 624q0 128 66 192t187 64h220q121 0 187 -64t66 -192v-548q0 -128 -66 -192t-187 -64h-220q-121 0 -187 64t-66 192v548z" />
    <glyph glyph-name="uni04570457" unicode="&#x457;&#x457;" horiz-adv-x="464" 
d="M76 500h81v-500h-81v500zM307 500h81v-500h-81v500zM-2 611q23 0 39 16t16 39t-16 39t-39 16t-39 -16t-16 -39t16 -39t39 -16zM466 611q23 0 39 16t16 39t-16 39t-39 16t-39 -16t-16 -39t16 -39t39 -16zM154 611q23 0 39 16t16 39t-16 39t-39 16t-39 -16t-16 -39t16 -39
t39 -16zM310 611q23 0 39 16t16 39t-16 39t-39 16t-39 -16t-16 -39t16 -39t39 -16z" />
    <glyph glyph-name="uni04070407" unicode="&#x407;&#x407;" horiz-adv-x="536" 
d="M92 700h87v-700h-87v700zM357 700h87v-700h-87v700zM7 786q-24 0 -41 17t-17 41t17 41t41 17t41 -17t17 -41t-17 -41t-41 -17zM181 786q-24 0 -41 17t-17 41t17 41t41 17t41 -17t17 -41t-17 -41t-41 -17zM355 786q-24 0 -41 17t-17 41t17 41t41 17t41 -17t17 -41t-17 -41
t-41 -17zM529 786q-24 0 -41 17t-17 41t17 41t41 17t41 -17t17 -41t-17 -41t-41 -17z" />
    <glyph glyph-name="uni04560457" unicode="&#x456;&#x457;" horiz-adv-x="464" 
d="M76 500h80v-500h-80v500zM308 500h80v-500h-80v500zM51 665q0 23 15.5 38.5t38.5 15.5t38.5 -15.5t15.5 -38.5t-15.5 -38.5t-38.5 -15.5t-38.5 15.5t-15.5 38.5zM211 665q0 23 15.5 38.5t38.5 15.5t38.5 -15.5t15.5 -38.5t-15.5 -38.5t-38.5 -15.5t-38.5 15.5t-15.5 38.5
zM371 665q0 23 15.5 38.5t38.5 15.5t38.5 -15.5t15.5 -38.5t-15.5 -38.5t-38.5 -15.5t-38.5 15.5t-15.5 38.5z" />
    <glyph glyph-name=".notdef" horiz-adv-x="938" 
d="M311 187q-10 -17 -17.5 -35t-7.5 -40q0 -26 11.5 -49t33.5 -40t53 -27t71 -10q45 0 82 14t64 38.5t41.5 59t14.5 76.5h-125q0 -25 -17 -42t-44 -17q-25 0 -39 14t-14 34q0 23 17 35.5t38 12.5h184v116h-201l-24 -86h-9v145h-128v-166h117v-9zM545 546q0 -12 -13.5 -18.5
t-29 -14.5t-29 -21t-13.5 -39q0 -45 43.5 -67t119.5 -22h34v111h-25q-20 0 -32.5 10t-12.5 25t12 25.5t26.5 22t26.5 25.5t12 36q0 15 -7 30.5t-22 28t-38.5 20.5t-57.5 8q-25 0 -46 -5t-41 -17l-29 -104h-8v117h-120v-274h128v58q0 49 21.5 75.5t53.5 26.5q25 0 36 -13
t11 -24zM106 624q0 128 66 192t187 64h220q121 0 187 -64t66 -192v-548q0 -128 -66 -192t-187 -64h-220q-121 0 -187 64t-66 192v548z" />
    <glyph glyph-name=".null" horiz-adv-x="0" 
 />
    <glyph glyph-name=".null" horiz-adv-x="0" 
 />
    <glyph glyph-name="uni000D" unicode="&#xd;" horiz-adv-x="389" 
 />
    <glyph glyph-name="uni000A" unicode="&#xa;" horiz-adv-x="0" 
 />
    <glyph glyph-name="space" unicode=" " horiz-adv-x="260" 
 />
    <glyph glyph-name="exclam" unicode="!" horiz-adv-x="246" 
d="M62 57q0 26 17.5 43.5t43.5 17.5t43.5 -17.5t17.5 -43.5t-17.5 -43.5t-43.5 -17.5t-43.5 17.5t-17.5 43.5zM81 700h82l-3 -524h-76z" />
    <glyph glyph-name="quotedbl" unicode="&#x22;" horiz-adv-x="354" 
d="M68 700h72l-5 -230h-62zM214 700h72l-5 -230h-62z" />
    <glyph glyph-name="numbersign" unicode="#" horiz-adv-x="655" 
d="M387 274l27 161h-150l-27 -161h150zM34 204v70h128l27 161h-118v70h129l32 195l73 -10l-30 -185h150l32 195l73 -10l-30 -185h121v-70h-132l-27 -161h121v-70h-132l-33 -204l-74 11l32 193h-150l-33 -204l-74 11l32 193h-117z" />
    <glyph glyph-name="dollar" unicode="$" horiz-adv-x="619" 
d="M350 -100h-78v86q-167 17 -238 164l75 44q60 -130 205 -130q77 0 122 33t45 90q0 35 -18 57.5t-47 37.5t-66.5 24.5t-76 20t-76 23.5t-66.5 34t-47 52.5t-18 78.5q0 42 14.5 77t41.5 61t65 42t85 20v85h78v-87q70 -10 124 -46.5t85 -99.5l-73 -45q-56 114 -184 114
q-69 0 -110.5 -31t-41.5 -82q0 -44 30.5 -67t77 -37.5t100 -26t100 -33t77 -59t30.5 -103.5q0 -91 -57.5 -146.5t-157.5 -64.5v-86z" />
    <glyph glyph-name="percent" unicode="%" horiz-adv-x="830" 
d="M205 -16l480 691l-60 41l-480 -691zM207 346q-35 0 -64.5 13.5t-51 37.5t-33.5 57.5t-12 73.5t12 73.5t33.5 57.5t51 37.5t64.5 13.5t64.5 -13.5t51 -37.5t33.5 -57.5t12 -73.5t-12 -73.5t-33.5 -57.5t-51 -37.5t-64.5 -13.5zM207 420q35 0 60 28.5t25 79.5t-25 79.5
t-60 28.5t-60 -28.5t-25 -79.5t25 -79.5t60 -28.5zM623 -10q-35 0 -64.5 13.5t-51 37.5t-33.5 57.5t-12 73.5t12 73.5t33.5 57.5t51 37.5t64.5 13.5t64.5 -13.5t51 -37.5t33.5 -57.5t12 -73.5t-12 -73.5t-33.5 -57.5t-51 -37.5t-64.5 -13.5zM623 64q35 0 60 28.5t25 79.5
t-25 79.5t-60 28.5t-60 -28.5t-25 -79.5t25 -79.5t60 -28.5z" />
    <glyph glyph-name="ampersand" unicode="&#x26;" horiz-adv-x="658" 
d="M257 335q-25 -12 -47 -25t-38.5 -29.5t-26 -37.5t-9.5 -48q0 -31 13 -56t35.5 -42t51.5 -26t62 -9q45 0 82.5 16.5t67.5 43.5zM281 420q26 12 49 24.5t40 27.5t27 34.5t10 44.5q0 41 -26 66.5t-74 25.5q-47 0 -72.5 -25t-25.5 -65q0 -29 16 -58.5t56 -74.5zM306 716
q35 0 66.5 -10.5t55.5 -30.5t38.5 -50.5t14.5 -71.5q0 -39 -12.5 -67.5t-33.5 -50t-48.5 -38t-57.5 -30.5l171 -186q19 27 34 56t26 58l66 -23q-17 -44 -35 -81t-39 -67l74 -81l-58 -55l-68 76q-84 -80 -206 -80q-49 0 -93 13t-77 38.5t-52.5 63.5t-19.5 88q0 42 13 73.5
t35 55t50.5 41t59.5 31.5q-23 27 -38 49.5t-23.5 41.5t-12 36t-3.5 34q0 39 13.5 70t36.5 52.5t54.5 33t68.5 11.5z" />
    <glyph glyph-name="quotesingle" unicode="'" horiz-adv-x="201" 
d="M63 700h72l-5 -230h-62z" />
    <glyph glyph-name="parenleft" unicode="(" horiz-adv-x="293" 
d="M60 289q0 130 40.5 247t121.5 217l59 -47q-67 -92 -105 -193t-38 -224t38 -224t105 -193l-59 -47q-81 100 -121.5 217t-40.5 247z" />
    <glyph glyph-name="parenright" unicode=")" horiz-adv-x="293" 
d="M233 289q0 -130 -40.5 -247t-121.5 -217l-59 47q67 92 105 193t38 224t-38 224t-105 193l59 47q81 -100 121.5 -217t40.5 -247z" />
    <glyph glyph-name="asterisk" unicode="*" horiz-adv-x="416" 
d="M316 446l-83 63l4 -113h-59l4 112l-82 -62l-33 51l92 51l-92 50l33 51l82 -61l-4 112h59l-4 -113l83 62l33 -51l-92 -50l92 -51z" />
    <glyph glyph-name="plus" unicode="+" horiz-adv-x="550" 
d="M40 403h195v205h80v-205h195v-78h-195v-205h-80v205h-195v78z" />
    <glyph glyph-name="comma" unicode="," horiz-adv-x="221" 
d="M48 58q0 26 17 43t43 17q27 0 46 -20.5t19 -61.5q0 -44 -23 -88t-61 -78l-36 35q29 26 44.5 48t21.5 47q-8 -2 -14 -2q-24 0 -40.5 17t-16.5 43z" />
    <glyph glyph-name="hyphen" unicode="-" horiz-adv-x="363" 
d="M56 306h251v-74h-251v74z" />
    <glyph glyph-name="period" unicode="." horiz-adv-x="218" 
d="M48 57q0 26 17.5 43.5t43.5 17.5t43.5 -17.5t17.5 -43.5t-17.5 -43.5t-43.5 -17.5t-43.5 17.5t-17.5 43.5z" />
    <glyph glyph-name="slash" unicode="/" horiz-adv-x="444" 
d="M30 -161l313 925l73 -21l-313 -925z" />
    <glyph glyph-name="zero" unicode="0" horiz-adv-x="682" 
d="M341 -16q-64 0 -115 27t-87 75.5t-55.5 116t-19.5 147.5t19.5 147.5t55.5 116t87 75.5t115 27t115 -27t87 -75.5t55.5 -116t19.5 -147.5t-19.5 -147.5t-55.5 -116t-87 -75.5t-115 -27zM341 637q-45 0 -81 -21t-61 -59.5t-38.5 -91t-13.5 -115.5t13.5 -115.5t38.5 -91
t61 -59.5t81 -21t81 21t61 59.5t38.5 91t13.5 115.5t-13.5 115.5t-38.5 91t-61 59.5t-81 21z" />
    <glyph glyph-name="one" unicode="1" horiz-adv-x="385" 
d="M207 0v607l-145 -98l-40 67l186 124h79v-700h-80z" />
    <glyph glyph-name="two" unicode="2" horiz-adv-x="571" 
d="M37 0v89l273 220q63 51 91.5 96t28.5 93q0 63 -41.5 102t-110.5 39q-60 0 -102.5 -32t-68.5 -94l-76 28q32 85 95 130t152 45q53 0 96 -16t73.5 -44.5t47 -68.5t16.5 -89q0 -68 -35 -126t-115 -122l-220 -175h382v-75h-486z" />
    <glyph glyph-name="three" unicode="3" horiz-adv-x="582" 
d="M281 -16q-94 0 -158 42.5t-99 124.5l73 36q30 -68 75.5 -97t108.5 -29q78 0 125 37t47 100q0 56 -36.5 90t-96.5 34h-139v77h136q54 0 88 31.5t34 83.5q0 56 -40.5 90.5t-112.5 34.5q-60 0 -102.5 -27t-71.5 -82l-70 38q36 72 98.5 110t147.5 38q52 0 95 -14t73.5 -40
t47.5 -62t17 -80q0 -56 -26.5 -96t-72.5 -60q54 -22 83.5 -65t29.5 -103q0 -47 -18.5 -86t-51.5 -67t-80 -43.5t-104 -15.5z" />
    <glyph glyph-name="four" unicode="4" horiz-adv-x="616" 
d="M124 251h261v348zM385 0v175h-343v92l328 433h95v-449h103v-76h-103v-175h-80z" />
    <glyph glyph-name="five" unicode="5" horiz-adv-x="570" 
d="M269 -16q-80 0 -140.5 34.5t-96.5 103.5l68 40q59 -102 169 -102q38 0 69.5 11.5t54 32.5t34.5 51t12 66q0 72 -45 114t-123 42q-91 0 -143 -65l-66 24l19 364h400v-76h-326l-12 -214q60 42 143 42q53 0 96.5 -16.5t74 -46.5t47 -72.5t16.5 -94.5q0 -54 -18 -98
t-50.5 -75t-79 -48t-103.5 -17z" />
    <glyph glyph-name="six" unicode="6" horiz-adv-x="617" 
d="M325 59q37 0 67.5 12.5t52 34t33.5 51.5t12 65q0 71 -46 112t-119 41q-39 0 -69.5 -11.5t-51.5 -32.5t-32.5 -49.5t-11.5 -61.5q0 -35 12 -64.5t34 -51t52.5 -33.5t66.5 -12zM325 -16q-124 0 -192.5 87t-68.5 253v44q0 168 71 258t203 90q152 0 226 -125l-67 -42
q-27 46 -66 69t-94 23q-94 0 -144 -66t-50 -193v-16t1 -16q64 100 191 100q52 0 95.5 -17t75 -47.5t49 -73t17.5 -93.5q0 -52 -18 -95t-50.5 -74t-78 -48.5t-100.5 -17.5z" />
    <glyph glyph-name="seven" unicode="7" horiz-adv-x="534" 
d="M411 622h-371v78h458v-79l-277 -621h-88z" />
    <glyph glyph-name="eight" unicode="8" horiz-adv-x="586" 
d="M293 58q77 0 121 37.5t44 96.5q0 58 -44.5 95.5t-120.5 37.5t-120.5 -37.5t-44.5 -95.5q0 -59 44 -96.5t121 -37.5zM293 395q69 0 109 33t40 87q0 56 -40 91.5t-109 35.5t-109 -35.5t-40 -91.5q0 -54 40 -87t109 -33zM293 -16q-55 0 -100.5 15t-77.5 41.5t-50 64
t-18 82.5q0 59 30 104t84 69q-48 23 -73 64t-25 95q0 44 16.5 80t46.5 62t72.5 40.5t94.5 14.5t94.5 -14.5t72.5 -40.5t46.5 -62t16.5 -80q0 -54 -25 -95t-73 -64q54 -24 84 -69t30 -104q0 -45 -18 -82.5t-50 -64t-77.5 -41.5t-100.5 -15z" />
    <glyph glyph-name="nine" unicode="9" horiz-adv-x="622" 
d="M292.02 641.004q-36.9971 0 -67.4951 -12.5q-30.499 -12.499 -51.9971 -33.9971q-21.499 -21.499 -33.498 -51.4971t-11.999 -64.9961q0 -70.9961 45.9971 -111.993q45.9971 -40.998 118.992 -40.998q38.998 0 69.4961 11.5q30.498 11.499 51.4971 32.498
q20.998 20.998 32.498 49.4971q11.499 28.498 11.499 61.4961q0 34.998 -11.999 64.4961t-33.998 50.9971q-21.999 21.498 -52.4971 33.4971q-30.498 12 -66.4961 12zM292.02 715.999q123.993 0 192.488 -86.9951q68.4961 -86.9941 68.4961 -252.984v-43.9971
q0 -167.989 -70.9961 -257.984q-70.9951 -89.9941 -202.987 -89.9941q-151.99 0 -225.986 124.992l66.9961 41.9971q26.998 -45.9971 65.9961 -68.9951q38.9971 -22.999 93.9941 -22.999q93.9941 0 143.991 65.9961t49.9971 192.988v15.999q0 7.99902 -1 15.999
q-63.9961 -99.9941 -190.988 -99.9941q-51.9971 0 -95.4941 16.999t-74.9951 47.4971t-48.9971 72.9961q-17.499 42.4971 -17.499 93.4941q0 51.9961 17.999 94.9941q17.999 42.9971 50.4961 73.9951q32.498 30.998 77.9961 48.4971q45.4971 17.499 100.493 17.499z" />
    <glyph glyph-name="colon" unicode=":" horiz-adv-x="218" 
d="M48 457q0 26 17.5 43.5t43.5 17.5t43.5 -17.5t17.5 -43.5t-17.5 -43.5t-43.5 -17.5t-43.5 17.5t-17.5 43.5zM48 57q0 26 17.5 43.5t43.5 17.5t43.5 -17.5t17.5 -43.5t-17.5 -43.5t-43.5 -17.5t-43.5 17.5t-17.5 43.5z" />
    <glyph glyph-name="semicolon" unicode=";" horiz-adv-x="221" 
d="M48 457q0 26 17.5 43.5t43.5 17.5t43.5 -17.5t17.5 -43.5t-17.5 -43.5t-43.5 -17.5t-43.5 17.5t-17.5 43.5zM48 58q0 26 17 43t43 17q27 0 46 -20.5t19 -61.5q0 -44 -23 -88t-61 -78l-36 35q29 26 44.5 48t21.5 47q-8 -2 -14 -2q-24 0 -40.5 17t-16.5 43z" />
    <glyph glyph-name="less" unicode="&#x3c;" horiz-adv-x="527" 
d="M68 320v70l391 213l28 -64l-346 -184l346 -184l-28 -64z" />
    <glyph glyph-name="equal" unicode="=" horiz-adv-x="568" 
d="M56 270h456v-72h-456v72zM56 473h456v-72h-456v72z" />
    <glyph glyph-name="greater" unicode="&#x3e;" horiz-adv-x="527" 
d="M459 320l-391 -213l-28 64l346 184l-346 184l28 64l391 -213v-70z" />
    <glyph glyph-name="question" unicode="?" horiz-adv-x="567" 
d="M208 57q0 26 17.5 43.5t43.5 17.5t43.5 -17.5t17.5 -43.5t-17.5 -43.5t-43.5 -17.5t-43.5 17.5t-17.5 43.5zM230 215q0 37 7 65.5t22 51.5t37.5 42t52.5 37q41 24 62.5 54t21.5 65q0 50 -40 80t-105 30t-109.5 -32t-64.5 -92l-78 24q27 85 92 130.5t159 45.5
q50 0 91.5 -13t71.5 -37t46.5 -58t16.5 -75q0 -54 -28 -97t-82 -76q-27 -16 -45 -32t-29.5 -33t-16 -37.5t-4.5 -46.5v-35h-78v39z" />
    <glyph glyph-name="at" unicode="@" horiz-adv-x="908" 
d="M322 280q0 -27 9.5 -51t26.5 -41.5t40 -27.5t50 -10t50.5 10t40 27.5t26 41.5t9.5 51q0 28 -9.5 51.5t-26.5 41t-40 27.5t-50 10t-50 -10t-40 -27.5t-26.5 -41t-9.5 -51.5zM248 280q0 42 14.5 78.5t40 64t60.5 43.5t77 16q45 0 78 -17.5t56 -49.5v56h74v-210
q0 -37 14 -59.5t43 -22.5q34 0 51 32t17 92q0 71 -23 128.5t-64 98.5t-99 63.5t-127 22.5q-72 0 -132 -24t-103 -68.5t-66.5 -106.5t-23.5 -137q0 -76 24 -138t68 -106t105 -68t134 -24q151 0 238 98l53 -56q-56 -57 -130 -86.5t-162 -29.5t-162.5 30t-128.5 84t-84 129
t-30 165q0 92 31 168t85 130t127 84t157 30t155.5 -29.5t123 -82t80.5 -123.5t29 -154q0 -97 -38 -147.5t-104 -50.5q-42 0 -68.5 20t-40.5 55q-23 -48 -64 -74t-94 -26q-42 0 -77 16t-60.5 43.5t-39.5 64.5t-14 78z" />
    <glyph glyph-name="A" unicode="A" horiz-adv-x="662" 
d="M208 262h245l-122 347zM379 700l257 -700h-91l-66 186h-297l-66 -186h-90l257 700h96z" />
    <glyph glyph-name="B" unicode="B" horiz-adv-x="637" 
d="M175 322v-244h198q60 0 96 34t36 90q0 53 -36 86.5t-96 33.5h-198zM175 400h179q55 0 88 31.5t33 82.5q0 48 -33 78t-88 30h-179v-222zM92 700h269q45 0 81.5 -12t62.5 -35t40 -56t14 -75q0 -111 -104 -153q66 -19 100 -65t34 -112q0 -45 -15.5 -80.5t-43.5 -60t-67 -38
t-86 -13.5h-285v700z" />
    <glyph glyph-name="C" unicode="C" horiz-adv-x="760" 
d="M417 -16q-77 0 -142.5 27t-113 75.5t-74.5 115.5t-27 148t27 148t74.5 115.5t113 75.5t142.5 27q101 0 180 -45.5t124 -130.5l-75 -42q-35 66 -91.5 101t-134.5 35q-61 0 -111 -20.5t-86 -58t-55.5 -90t-19.5 -115.5t19.5 -115.5t55.5 -90t86 -58t110 -20.5
q79 0 136.5 36t92.5 105l74 -42q-43 -87 -122.5 -134t-182.5 -47z" />
    <glyph glyph-name="D" unicode="D" horiz-adv-x="717" 
d="M92 700h220q78 0 142 -26.5t109 -73.5t69.5 -111t24.5 -139t-24.5 -139t-69.5 -111t-109 -73.5t-142 -26.5h-220v700zM179 619v-538h132q60 0 108 20t81 56t51 85.5t18 107.5t-18 107.5t-51 85.5t-81 56t-108 20h-132z" />
    <glyph glyph-name="E" unicode="E" 
d="M92 700h428v-81h-341v-214h309v-81h-309v-243h341v-81h-428v700z" />
    <glyph glyph-name="F" unicode="F" horiz-adv-x="570" 
d="M92 700h418v-81h-331v-230h299v-81h-299v-308h-87v700z" />
    <glyph glyph-name="G" unicode="G" horiz-adv-x="790" 
d="M742 316q0 -74 -23 -135.5t-65.5 -105t-102.5 -67.5t-134 -24q-81 0 -146.5 28t-112.5 77.5t-72.5 116.5t-25.5 145q0 80 26.5 147t74 115.5t112.5 75.5t143 27q99 0 177 -43.5t122 -121.5l-69 -46q-32 63 -91 97t-137 34q-61 0 -111 -20.5t-86 -58t-55.5 -90
t-19.5 -116.5t19.5 -116.5t55 -90.5t85.5 -59t110 -21q53 0 96 16t74.5 45.5t49.5 70.5t21 92h-306v78h389q1 -13 1.5 -25t0.5 -25z" />
    <glyph glyph-name="H" unicode="H" horiz-adv-x="716" 
d="M92 700h87v-289h358v289h87v-700h-87v330h-358v-330h-87v700z" />
    <glyph glyph-name="I" unicode="I" horiz-adv-x="271" 
d="M92 700h87v-700h-87v700z" />
    <glyph glyph-name="J" unicode="J" horiz-adv-x="583" 
d="M275 68q61 0 98.5 41t37.5 111v480h86v-491q0 -50 -16 -91t-45 -70.5t-70 -45.5t-91 -16t-91 16.5t-70 47.5t-45 76t-16 103v24l86 7v-24q0 -83 37 -125.5t99 -42.5z" />
    <glyph glyph-name="K" unicode="K" horiz-adv-x="643" 
d="M311 349l-132 -160v-189h-87v700h87v-391l318 391h103l-233 -283l250 -417h-101z" />
    <glyph glyph-name="L" unicode="L" horiz-adv-x="558" 
d="M92 700h87v-619h341v-81h-428v700z" />
    <glyph glyph-name="M" unicode="M" horiz-adv-x="878" 
d="M440 196l234 504h112v-700h-86v572l-227 -491h-68l-227 491v-572h-86v700h114z" />
    <glyph glyph-name="N" unicode="N" horiz-adv-x="724" 
d="M92 0v700h90l368 -561v561h82v-700h-90l-368 561v-561h-82z" />
    <glyph glyph-name="O" unicode="O" horiz-adv-x="829" 
d="M415 -16q-76 0 -141.5 27.5t-112.5 76t-74 116t-27 146.5q0 80 27 147t74 115.5t112.5 76t141.5 27.5q77 0 141.5 -27.5t112 -76t74 -115.5t26.5 -147q0 -79 -26.5 -146.5t-74 -116t-112 -76t-141.5 -27.5zM415 66q59 0 108 21t84 58.5t54.5 89.5t19.5 115t-19.5 115.5
t-54.5 90t-84 58t-108 20.5t-108 -20.5t-84.5 -58t-55 -90t-19.5 -115.5t19.5 -115t55 -89.5t84.5 -58.5t108 -21z" />
    <glyph glyph-name="P" unicode="P" horiz-adv-x="627" 
d="M175 336h176q65 0 104.5 38t39.5 104q0 32 -10.5 58t-29.5 44.5t-45.5 29t-58.5 10.5h-176v-284zM92 0v700h262q50 0 91.5 -16t71 -45t46 -69.5t16.5 -90.5t-16.5 -91t-46 -70.5t-71 -45.5t-91.5 -16h-179v-256h-83z" />
    <glyph glyph-name="Q" unicode="Q" horiz-adv-x="829" 
d="M415 66q43 0 80.5 11.5t68.5 31.5l-89 112l56 46l87 -109q30 37 46.5 85.5t16.5 106.5q0 62 -19.5 114t-54.5 89.5t-84 59t-108 21.5t-108 -21.5t-84.5 -59t-55 -89.5t-19.5 -114q0 -63 19.5 -115t55 -89.5t84.5 -58.5t108 -21zM415 -16q-76 0 -141.5 27.5t-112.5 76.5
t-74 116t-27 146t27 146t74 116t112.5 76.5t141.5 27.5q77 0 141.5 -27.5t112 -76.5t74 -116t26.5 -146q0 -78 -25.5 -144t-72.5 -115l76 -94l-55 -47l-76 94q-42 -29 -93 -44.5t-108 -15.5z" />
    <glyph glyph-name="R" unicode="R" horiz-adv-x="629" 
d="M175 345h177q66 0 105.5 37.5t39.5 100.5t-39.5 100t-105.5 37h-177v-275zM321 265h-146v-265h-83v700h267q50 0 91 -15.5t70 -44t45 -68.5t16 -89q0 -85 -45 -141t-123 -72l190 -270h-99z" />
    <glyph glyph-name="S" unicode="S" horiz-adv-x="619" 
d="M312 -16q-199 0 -278 166l75 44q60 -130 205 -130q77 0 122 33t45 90q0 35 -18 57.5t-47 37.5t-66.5 24.5t-76 20t-76 23.5t-66.5 34t-47 52.5t-18 78.5q0 45 17 82.5t48 63.5t75 40.5t97 14.5q87 0 153.5 -38.5t102.5 -110.5l-73 -45q-56 114 -184 114q-69 0 -110.5 -31
t-41.5 -82q0 -44 30.5 -67t77 -37.5t100 -26t100 -33t77 -59t30.5 -103.5q0 -49 -17.5 -88.5t-50.5 -67t-80 -42.5t-105 -15z" />
    <glyph glyph-name="T" unicode="T" horiz-adv-x="595" 
d="M557 700v-81h-216v-619h-87v619h-216v81h519z" />
    <glyph glyph-name="U" unicode="U" horiz-adv-x="700" 
d="M350 -16q-58 0 -106.5 19t-83.5 54.5t-54.5 86.5t-19.5 116v440h87v-427q0 -99 48 -151.5t129 -52.5t129 52.5t48 151.5v427h87v-440q0 -65 -19.5 -116t-54.5 -86.5t-83.5 -54.5t-106.5 -19z" />
    <glyph glyph-name="V" unicode="V" horiz-adv-x="662" 
d="M282 0l-256 700h94l212 -598l211 598h93l-256 -700h-98z" />
    <glyph glyph-name="W" unicode="W" horiz-adv-x="1010" 
d="M237 0l-211 700h95l168 -580l171 580h90l173 -582l167 582h94l-211 -700h-95l-173 571l-174 -571h-94z" />
    <glyph glyph-name="X" unicode="X" horiz-adv-x="626" 
d="M26 0l235 363l-218 337h98l174 -274l173 274h95l-218 -337l235 -363h-100l-188 298l-189 -298h-97z" />
    <glyph glyph-name="Y" unicode="Y" horiz-adv-x="612" 
d="M263 0v288l-237 412h98l182 -331l182 331h98l-237 -412v-288h-86z" />
    <glyph glyph-name="Z" unicode="Z" horiz-adv-x="673" 
d="M90 700h505v-87l-421 -531h421v-82h-517v88l422 530h-410v82z" />
    <glyph glyph-name="bracketleft" unicode="[" horiz-adv-x="345" 
d="M79 750h226v-74h-148v-774h148v-74h-226v922z" />
    <glyph glyph-name="backslash" unicode="\" horiz-adv-x="444" 
d="M414.002 -161l-312.981 925l-72.9951 -21l312.98 -925z" />
    <glyph glyph-name="bracketright" unicode="]" horiz-adv-x="345" 
d="M40 -172v74h148v774h-148v74h226v-922h-226z" />
    <glyph glyph-name="asciicircum" unicode="^" horiz-adv-x="376" 
d="M10 412l145 288h66l145 -288h-75l-103 211l-103 -211h-75z" />
    <glyph glyph-name="underscore" unicode="_" 
d="M50 -38h480v-69h-480v69z" />
    <glyph glyph-name="grave" unicode="`" horiz-adv-x="208" 
d="M20 746h84l84 -146h-78z" />
    <glyph glyph-name="a" unicode="a" horiz-adv-x="540" 
d="M390 237l-119 -6q-147 -8 -147 -91q0 -38 28.5 -59.5t75.5 -21.5q35 0 64.5 12t51 33t34 49t12.5 60v24zM42 135q0 72 56.5 115.5t166.5 48.5l125 6v7q0 61 -34.5 95t-95.5 34q-95 0 -136 -84l-68 34q26 59 80 91t126 32q47 0 85.5 -14t65.5 -39t42 -60.5t15 -79.5v-321
h-80v80q-27 -46 -71.5 -70t-103.5 -24q-39 0 -71 10.5t-54.5 30t-35 47t-12.5 61.5z" />
    <glyph glyph-name="b" unicode="b" horiz-adv-x="633" 
d="M331 62q39 0 71 14t55 39.5t35.5 60t12.5 74.5q0 41 -12.5 75t-35.5 59.5t-55 39.5t-71 14t-71 -14t-55 -39.5t-35.5 -59.5t-12.5 -75q0 -40 12.5 -74.5t35.5 -60t55 -39.5t71 -14zM343 -14q-61 0 -108.5 26t-77.5 73v-85h-81v722h81v-307q30 47 77.5 73t108.5 26
q53 0 97.5 -19.5t77 -55t51 -84t18.5 -105.5t-18.5 -105.5t-51 -84t-77 -55t-97.5 -19.5z" />
    <glyph glyph-name="c" unicode="c" horiz-adv-x="561" 
d="M46 250q0 57 18.5 105.5t52.5 83.5t81.5 55t105.5 20q74 0 129.5 -32.5t87.5 -95.5l-69 -39q-45 91 -146 91q-40 0 -73 -14t-56 -39.5t-36 -59.5t-13 -75q0 -40 13 -74.5t36 -60t55.5 -39.5t72.5 -14q51 0 88.5 24t59.5 72l70 -38q-32 -66 -88 -100t-131 -34
q-58 0 -105.5 20t-81.5 55t-52.5 83.5t-18.5 105.5z" />
    <glyph glyph-name="d" unicode="d" horiz-adv-x="633" 
d="M302.021 62q-38.998 0 -70.9961 14t-54.9961 39.5q-22.999 25.5 -35.498 60t-12.499 74.5q0 41 12.499 75t35.498 59.5q22.998 25.5 54.9961 39.5t70.9961 14q38.9971 0 70.9951 -14t54.9971 -39.5q22.998 -25.5 35.498 -59.5q12.499 -34 12.499 -75q0 -40 -12.499 -74.5
q-12.5 -34.5 -35.498 -60q-22.999 -25.5 -54.9971 -39.5t-70.9951 -14zM290.021 -14q60.9971 0 108.494 26t77.4951 73v-85h80.9951v722h-80.9951v-307q-29.998 47 -77.4951 73t-108.494 26q-52.9961 0 -97.4932 -19.5q-44.498 -19.5 -76.9961 -55t-50.9961 -84
q-18.499 -48.5 -18.499 -105.5t18.499 -105.5q18.498 -48.5 50.9961 -84t76.9961 -55q44.4971 -19.5 97.4932 -19.5z" />
    <glyph glyph-name="e" unicode="e" 
d="M133 299h323q-1 30 -13.5 56t-33 44.5t-48.5 29t-61 10.5q-66 0 -109.5 -38.5t-57.5 -101.5zM305 -14q-58 0 -105.5 19.5t-81.5 54.5t-53 83t-19 105q0 58 19 106.5t53.5 84t81.5 55.5t102 20q53 0 96.5 -17.5t74.5 -49.5t48.5 -76.5t17.5 -98.5q0 -21 -3 -44h-407
q6 -75 54 -120.5t123 -45.5q95 0 148 82l64 -48q-76 -110 -213 -110z" />
    <glyph glyph-name="f" unicode="f" horiz-adv-x="355" 
d="M183 500h141v-74h-141v-426h-81v426h-86v74h86v42q0 91 46.5 138.5t135.5 47.5h41v-75h-35q-56 0 -81.5 -27t-25.5 -86v-40z" />
    <glyph glyph-name="g" unicode="g" horiz-adv-x="522" 
d="M128 345q0 -46 34 -72.5t94 -26.5q59 0 93.5 26.5t34.5 72.5t-34.5 72.5t-93.5 26.5q-60 0 -94 -26.5t-34 -72.5zM99 -68q0 -35 39 -54.5t112 -19.5q81 0 127.5 22.5t46.5 59.5q0 34 -41 53t-117 19q-81 0 -124 -21t-43 -59zM425 444q34 -42 34 -99q0 -37 -14.5 -68
t-41 -53.5t-64 -35t-83.5 -12.5q-50 0 -89 15q-28 -16 -28 -47q0 -32 31.5 -46.5t102.5 -15.5q116 -2 173.5 -36.5t57.5 -100.5q0 -37 -17.5 -66.5t-50.5 -50t-79.5 -31.5t-105.5 -11q-109 0 -169 36.5t-60 101.5q0 44 27.5 76t75.5 49q-26 13 -41 35.5t-15 50.5q0 50 45 84
q-29 23 -45 55t-16 71q0 37 14.5 68t40.5 53.5t64 35t84 12.5q69 0 120 -28l70 72l47 -47z" />
    <glyph glyph-name="h" unicode="h" horiz-adv-x="574" 
d="M423 0v290q0 70 -32 109t-92 39q-63 0 -102.5 -42.5t-39.5 -115.5v-280h-81v722h81v-295q26 42 67 64.5t93 22.5q43 0 77.5 -15t59 -42.5t37.5 -67t13 -87.5v-302h-81z" />
    <glyph glyph-name="i" unicode="i" horiz-adv-x="233" 
d="M76 500h81v-500h-81v500zM117 607h-1q-24 0 -40.5 16.5t-16.5 40.5t16.5 40.5t40.5 16.5h1q24 0 40.5 -16.5t16.5 -40.5t-16.5 -40.5t-40.5 -16.5z" />
    <glyph glyph-name="j" unicode="j" horiz-adv-x="233" 
d="M76 500h81v-512q0 -194 -169 -194h-29v78h20q54 0 75.5 28t21.5 100v500zM116 607q-24 0 -40.5 16.5t-16.5 40.5t16.5 40.5t40.5 16.5h1q24 0 40.5 -16.5t16.5 -40.5t-16.5 -40.5t-40.5 -16.5h-1z" />
    <glyph glyph-name="k" unicode="k" horiz-adv-x="522" 
d="M397 500h103l-202 -212l204 -288h-95l-161 233l-89 -94v-139h-81v722h81v-478z" />
    <glyph glyph-name="l" unicode="l" horiz-adv-x="233" 
d="M76 0v722h81v-722h-81z" />
    <glyph glyph-name="m" unicode="m" horiz-adv-x="861" 
d="M393 0v297q0 68 -27.5 104.5t-80.5 36.5q-28 0 -52 -10.5t-40.5 -29t-26 -44.5t-9.5 -57v-297h-81v500h81v-69q23 41 60.5 62t85.5 21q53 0 92 -24.5t59 -70.5q27 46 68 70.5t95 24.5q82 0 128 -54t46 -149v-311h-81v297q0 68 -27.5 104.5t-80.5 36.5q-28 0 -52 -10.5
t-40.5 -29t-26 -44.5t-9.5 -57v-297h-81z" />
    <glyph glyph-name="n" unicode="n" horiz-adv-x="574" 
d="M423 0v290q0 70 -32 109t-92 39q-63 0 -102.5 -42.5t-39.5 -115.5v-280h-81v500h81v-73q26 42 67 64.5t93 22.5q43 0 77.5 -15t59 -42.5t37.5 -67t13 -87.5v-302h-81z" />
    <glyph glyph-name="o" unicode="o" horiz-adv-x="608" 
d="M304 -14q-57 0 -104 20t-81.5 55.5t-53.5 84t-19 104.5t19 104.5t53.5 84t81.5 55.5t104 20t104 -20t81.5 -55.5t53.5 -84t19 -104.5t-19 -104.5t-53.5 -84t-81.5 -55.5t-104 -20zM304 62q39 0 71.5 14t55.5 39.5t36 60t13 74.5q0 41 -13 75t-36 59.5t-55.5 39.5
t-71.5 14t-71.5 -14t-55.5 -39.5t-36 -59.5t-13 -75q0 -40 13 -74.5t36 -60t55.5 -39.5t71.5 -14z" />
    <glyph glyph-name="p" unicode="p" horiz-adv-x="633" 
d="M331 62q39 0 71 14t55 39.5t35.5 60t12.5 74.5q0 41 -12.5 75t-35.5 59.5t-55 39.5t-71 14t-71 -14t-55 -39.5t-35.5 -59.5t-12.5 -75q0 -40 12.5 -74.5t35.5 -60t55 -39.5t71 -14zM342 -14q-60 0 -107.5 26t-77.5 73v-285h-81v700h81v-85q30 47 77.5 73t107.5 26
q52 0 97 -20t78 -55t51.5 -83.5t18.5 -105.5t-18.5 -105.5t-51.5 -83.5t-78 -55t-97 -20z" />
    <glyph glyph-name="q" unicode="q" horiz-adv-x="633" 
d="M302.021 62q-38.998 0 -70.9961 14t-54.9961 39.5q-22.999 25.5 -35.498 60t-12.499 74.5q0 41 12.499 75t35.498 59.5q22.998 25.5 54.9961 39.5t70.9961 14q38.9971 0 70.9951 -14t54.9971 -39.5q22.998 -25.5 35.498 -59.5q12.499 -34 12.499 -75q0 -40 -12.499 -74.5
q-12.5 -34.5 -35.498 -60q-22.999 -25.5 -54.9971 -39.5t-70.9951 -14zM291.021 -14q59.9971 0 107.494 26t77.4951 73v-285h80.9951v700h-80.9951v-85q-29.998 47 -77.4951 73t-107.494 26q-51.9961 0 -96.9941 -20q-44.9971 -20 -77.9951 -55t-51.4961 -83.5
q-18.499 -48.5 -18.499 -105.5t18.499 -105.5q18.498 -48.5 51.4961 -83.5t77.9951 -55q44.998 -20 96.9941 -20z" />
    <glyph glyph-name="r" unicode="r" horiz-adv-x="352" 
d="M330 506v-76h-26q-69 0 -108 -44t-39 -122v-264h-81v500h81v-84q44 90 145 90h28z" />
    <glyph glyph-name="s" unicode="s" horiz-adv-x="493" 
d="M252 -14q-75 0 -129.5 31.5t-84.5 92.5l64 38q49 -91 151 -91q53 0 85 21.5t32 57.5q0 31 -23 47t-57.5 26t-74.5 18.5t-74.5 23.5t-57.5 41t-23 72q0 33 13 60.5t37 47.5t58 31t76 11q68 0 117.5 -29t78.5 -85l-64 -37q-41 80 -132 80q-52 0 -80 -21.5t-28 -52.5
q0 -29 23 -43.5t57.5 -23.5t74.5 -17t74.5 -24t57.5 -43.5t23 -75.5q0 -72 -52.5 -114t-141.5 -42z" />
    <glyph glyph-name="t" unicode="t" horiz-adv-x="362" 
d="M185 188q0 -116 108 -116h37v-78h-46q-180 0 -180 187v244h-88v75h88v140h81v-140h143v-75h-143v-237z" />
    <glyph glyph-name="u" unicode="u" horiz-adv-x="574" 
d="M151.025 500v-289.982q0 -69.9961 31.998 -108.993q31.998 -38.998 91.9951 -38.998q62.9961 0 102.493 42.498q39.498 42.4971 39.498 115.493v279.982h80.9951v-499.97h-80.9951v72.9961q-25.999 -41.998 -66.9961 -64.4961q-40.9971 -22.499 -92.9941 -22.499
q-42.998 0 -77.4951 14.999q-34.498 14.999 -58.9971 42.498q-24.498 27.498 -37.4971 66.9951q-12.999 39.498 -12.999 87.4951v301.981h80.9941z" />
    <glyph glyph-name="v" unicode="v" horiz-adv-x="508" 
d="M213 0l-193 500h87l148 -402l147 402h86l-193 -500h-82z" />
    <glyph glyph-name="w" unicode="w" horiz-adv-x="792" 
d="M184 0l-164 500h84l124 -400l131 400h76l131 -398l123 398h83l-164 -500h-84l-128 392l-128 -392h-84z" />
    <glyph glyph-name="x" unicode="x" horiz-adv-x="504" 
d="M301 253l183 -253h-93l-139 204l-140 -204h-92l183 253l-171 247h91l130 -196l129 196h90z" />
    <glyph glyph-name="y" unicode="y" horiz-adv-x="506" 
d="M134 -200l82 209l-196 491h86l151 -389l144 389h85l-268 -700h-84z" />
    <glyph glyph-name="z" unicode="z" horiz-adv-x="495" 
d="M46 78l311 348h-302v74h394v-78l-312 -348h312v-74h-403v78z" />
    <glyph glyph-name="braceleft" unicode="{" horiz-adv-x="409" 
d="M369 -172h-32q-97 0 -146 58t-49 157v134q0 31 -19.5 49.5t-51.5 18.5h-21v86h22q32 0 51 19t19 50v134q0 99 49 157.5t146 58.5h32v-74h-28q-60 0 -90.5 -39.5t-30.5 -106.5v-151q0 -33 -18.5 -57.5t-52.5 -32.5q34 -8 52.5 -33.5t18.5 -57.5v-150q0 -67 30.5 -106.5
t90.5 -39.5h28v-74z" />
    <glyph glyph-name="bar" unicode="|" horiz-adv-x="294" 
d="M108 -172v922h78v-922h-78z" />
    <glyph glyph-name="braceright" unicode="}" horiz-adv-x="409" 
d="M40 -172v74h28q60 0 90.5 39.5t30.5 106.5v150q0 32 18.5 57.5t52.5 33.5q-34 8 -52.5 32.5t-18.5 57.5v151q0 67 -30.5 106.5t-90.5 39.5h-28v74h32q97 0 146 -58.5t49 -157.5v-134q0 -31 19 -50t51 -19h22v-86h-21q-32 0 -51.5 -18.5t-19.5 -49.5v-134q0 -99 -49 -157
t-146 -58h-32z" />
    <glyph glyph-name="asciitilde" unicode="~" horiz-adv-x="578" 
d="M42 317q27 48 66.5 70t86.5 22q34 0 58 -10t44.5 -22.5t40 -22.5t44.5 -10q28 0 53 15t36 45l65 -43q-25 -46 -64 -69.5t-88 -23.5q-34 0 -58 10t-44.5 22.5t-40 22.5t-45.5 10q-29 0 -52.5 -16t-36.5 -45z" />
    <glyph glyph-name="exclamdown" unicode="&#xa1;" horiz-adv-x="246" 
d="M62 443.004q0 -25.999 17.5 -43.498t43.5 -17.499t43.5 17.499t17.5 43.498q0 25.998 -17.5 43.4971t-43.5 17.499t-43.5 -17.499t-17.5 -43.4971zM81 -199.957h82l-3 523.968h-76z" />
    <glyph glyph-name="cent" unicode="&#xa2;" horiz-adv-x="560" 
d="M341 -152h-74v140q-50 6 -90.5 28.5t-69.5 57t-45 79.5t-16 97t16 97t45 79.5t69.5 57t90.5 28.5v149h74v-149q60 -8 106 -40.5t73 -87.5l-67 -40q-24 47 -62.5 70.5t-88.5 23.5q-39 0 -71 -14t-55 -39.5t-35.5 -59.5t-12.5 -75q0 -40 12.5 -74.5t35.5 -60t55 -39.5
t71 -14q50 0 88.5 23.5t62.5 70.5l67 -40q-27 -55 -73 -87.5t-106 -40.5v-140z" />
    <glyph glyph-name="sterling" unicode="&#xa3;" horiz-adv-x="575" 
d="M35 304v72h71q-10 26 -17 53.5t-7 62.5q0 50 16.5 91t47.5 70.5t75 46t98 16.5q85 0 143.5 -40.5t85.5 -117.5l-72 -30q-23 57 -61 84.5t-97 27.5q-74 0 -114 -40t-40 -108q0 -32 7.5 -60t18.5 -56h257v-72h-234q5 -18 8 -37t3 -40q0 -51 -17 -90.5t-45 -62.5h384v-74
h-511v72q51 7 79.5 46t28.5 107q0 43 -11 79h-97z" />
    <glyph glyph-name="yen" unicode="&#xa5;" 
d="M72 279v66h155l-201 355h90l174 -324l174 324h90l-201 -355h155v-66h-181v-92h181v-66h-181v-121h-74v121h-181v66h181v92h-181z" />
    <glyph glyph-name="section" unicode="&#xa7;" horiz-adv-x="494" 
d="M328 265q24 17 36.5 34.5t12.5 39.5q0 28 -18.5 44t-47.5 26.5t-64.5 18t-68.5 18.5q-23 -14 -36.5 -32.5t-13.5 -42.5q0 -29 18.5 -45t48 -26t65 -17t68.5 -18zM245 -16q-75 0 -129.5 31.5t-84.5 92.5l61 36q24 -48 63 -70t92 -22q54 0 86 21.5t32 56.5q0 31 -23 47
t-57 26.5t-74.5 19.5t-74.5 24.5t-57 42.5t-23 74q0 34 14 61t45 50q-22 15 -35 37t-13 56q0 32 13 59.5t37 47t57.5 30.5t74.5 11q67 0 117.5 -29t80.5 -85l-62 -36q-43 82 -138 82q-49 0 -77.5 -20.5t-28.5 -52.5q0 -29 23 -44t57 -25t74 -18.5t74 -24.5t57 -42.5
t23 -73.5q0 -35 -15 -61.5t-44 -49.5q23 -16 36 -39.5t13 -59.5q0 -71 -52.5 -112t-141.5 -41z" />
    <glyph glyph-name="dieresis" unicode="&#xa8;" horiz-adv-x="384" 
d="M90 607q-24 0 -40.5 16.5t-16.5 40.5t16.5 40.5t40.5 16.5t40.5 -16.5t16.5 -40.5t-16.5 -40.5t-40.5 -16.5zM294 607q-24 0 -40.5 16.5t-16.5 40.5t16.5 40.5t40.5 16.5t40.5 -16.5t16.5 -40.5t-16.5 -40.5t-40.5 -16.5z" />
    <glyph glyph-name="copyright" unicode="&#xa9;" horiz-adv-x="932" 
d="M466 -28q68 0 124 24t96 66t62 98.5t22 121.5t-22 121.5t-62 98.5t-96 66t-124 24t-124 -24t-95.5 -66t-61 -98.5t-21.5 -121.5t21.5 -121.5t61 -98.5t95.5 -66t124 -24zM469 85q-44 0 -80 15t-61.5 41t-39.5 62.5t-14 78.5t14 78t39.5 62.5t62 41.5t80.5 15
q52 0 97.5 -24.5t67.5 -72.5l-60 -34q-14 31 -43 48t-63 17q-29 0 -52 -10t-39 -28t-24.5 -42t-8.5 -51t8.5 -51.5t24.5 -42.5t39 -28.5t52 -10.5q40 0 65 18t42 53l60 -34q-25 -50 -67.5 -75.5t-99.5 -25.5zM466 -94q-82 0 -150 29t-117 80t-76 119.5t-27 147.5t27 147.5
t76 118.5t117 79t150 29q83 0 151 -29t116.5 -79t75.5 -118.5t27 -147.5t-27 -147.5t-75.5 -119.5t-116.5 -80t-151 -29z" />
    <glyph glyph-name="ordfeminine" unicode="&#xaa;" horiz-adv-x="312" 
d="M225 461l-60 -2q-67 -3 -67 -41q0 -17 13 -27t36 -10q35 0 56.5 21t21.5 55v4zM35 413q0 42 33 66t94 27l63 2v3q0 27 -17 42.5t-46 15.5q-47 0 -67 -42l-52 25q17 35 48 53t73 18q57 0 90 -30.5t33 -82.5v-175h-62v38q-32 -46 -92 -46q-45 0 -71.5 23.5t-26.5 62.5z" />
    <glyph glyph-name="guillemotleft" unicode="&#xab;" horiz-adv-x="561" 
d="M250 250l203 253l60 -44l-169 -209l169 -209l-60 -44zM40 250l203 253l60 -44l-169 -209l169 -209l-60 -44z" />
    <glyph glyph-name="macron" unicode="&#xaf;" horiz-adv-x="332" 
d="M30 677h272v-66h-272v66z" />
    <glyph glyph-name="plusminus" unicode="&#xb1;" horiz-adv-x="586" 
d="M58 471h196v206h78v-206h196v-76h-196v-206h-78v206h-196v76zM58 107h470v-74h-470v74z" />
    <glyph glyph-name="twosuperior" unicode="&#xb2;" horiz-adv-x="315" 
d="M31 408v65l153 123q56 44 56 90q0 27 -18.5 44t-50.5 17q-60 0 -82 -63l-63 18q16 52 53.5 79.5t91.5 27.5q63 0 100 -33.5t37 -88.5q0 -38 -20 -70.5t-65 -67.5l-102 -79h194v-62h-284z" />
    <glyph glyph-name="threesuperior" unicode="&#xb3;" horiz-adv-x="334" 
d="M175 399q-112 0 -154 100l59 28q27 -66 94 -66q37 0 59 17t22 46q0 25 -17 40t-47 15h-74v61h73q26 0 41.5 14t15.5 37q0 25 -19.5 40.5t-52.5 15.5q-59 0 -85 -55l-58 29q42 88 145 88q63 0 100.5 -30.5t37.5 -81.5q0 -31 -14 -52.5t-39 -32.5q61 -25 61 -93
q0 -54 -40 -87t-108 -33z" />
    <glyph glyph-name="acute" unicode="&#xb4;" horiz-adv-x="208" 
d="M104 744h84l-90 -146h-78z" />
    <glyph glyph-name="uni00B5" unicode="&#xb5;" horiz-adv-x="627" 
d="M76 -200v700h80v-282q0 -76 31.5 -116.5t91.5 -40.5q32 0 58.5 11.5t45 32.5t29 50t10.5 64v281h80v-318q0 -112 93 -112h10v-76h-16q-56 0 -92 21.5t-53 71.5q-23 -48 -63.5 -74.5t-97.5 -26.5q-82 0 -127 56v-242h-80z" />
    <glyph glyph-name="periodcentered" unicode="&#xb7;" horiz-adv-x="230" 
d="M54 289q0 26 17.5 43.5t43.5 17.5t43.5 -17.5t17.5 -43.5t-17.5 -43.5t-43.5 -17.5t-43.5 17.5t-17.5 43.5z" />
    <glyph glyph-name="cedilla" unicode="&#xb8;" horiz-adv-x="282" 
d="M87 -206q-49 0 -91 19l18 59q16 -9 32 -13.5t36 -4.5q79 0 79 62q0 28 -18.5 47.5t-53.5 35.5l51 30q42 -26 62.5 -53.5t20.5 -67.5q0 -54 -35 -84t-101 -30z" />
    <glyph glyph-name="onesuperior" unicode="&#xb9;" horiz-adv-x="218" 
d="M113 408v316l-75 -51l-33 55l107 72h68v-392h-67z" />
    <glyph glyph-name="guillemotright" unicode="&#xbb;" horiz-adv-x="561" 
d="M311 250l-203 -253l-60 44l169 209l-169 209l60 44zM521 250l-203 -253l-60 44l169 209l-169 209l60 44z" />
    <glyph glyph-name="questiondown" unicode="&#xbf;" horiz-adv-x="567" 
d="M359.013 443.004q0 -25.999 -17.499 -43.498t-43.4971 -17.499q-25.999 0 -43.4971 17.499q-17.499 17.499 -17.499 43.498q0 25.998 17.499 43.4971q17.498 17.499 43.4971 17.499q25.998 0 43.4971 -17.499t17.499 -43.4971zM337.014 285.013
q0 -36.9971 -6.99902 -65.4951q-7 -28.499 -21.999 -51.4971q-14.999 -22.999 -37.4971 -41.998q-22.499 -18.998 -52.4971 -36.9971q-40.998 -23.999 -62.4961 -53.9971q-21.499 -29.998 -21.499 -64.9961q0 -49.9971 39.998 -79.9951q39.9971 -29.998 104.993 -29.998
t109.493 31.998t64.4961 91.9941l77.9951 -23.998q-26.998 -84.9951 -91.9941 -130.492t-158.99 -45.4971q-49.9971 0 -91.4941 12.999q-41.498 12.999 -71.4961 36.998q-29.998 23.998 -46.4971 57.9961t-16.499 74.9951q0 53.9971 27.998 96.9941
q27.999 42.998 81.9951 75.9951q26.999 16 44.9971 31.998q17.999 16 29.499 32.998q11.499 16.999 15.999 37.498q4.49902 20.499 4.49902 46.4971v34.998h77.9951v-38.998z" />
    <glyph glyph-name="Agrave" unicode="&#xc0;" horiz-adv-x="662" 
d="M208 262h245l-122 347zM379 700l257 -700h-91l-66 186h-297l-66 -186h-90l257 700h96zM286 789l-111 141h94l105 -141h-88z" />
    <glyph glyph-name="Aacute" unicode="&#xc1;" horiz-adv-x="662" 
d="M208 262h245l-122 347zM379 700l257 -700h-91l-66 186h-297l-66 -186h-90l257 700h96zM400 930h94l-111 -141h-88z" />
    <glyph glyph-name="Acircumflex" unicode="&#xc2;" horiz-adv-x="662" 
d="M208 262h245l-122 347zM379 700l257 -700h-91l-66 186h-297l-66 -186h-90l257 700h96zM294 930h74l160 -141h-94l-103 82l-103 -82h-94z" />
    <glyph glyph-name="Atilde" unicode="&#xc3;" horiz-adv-x="662" 
d="M208 262h245l-122 347zM379 700l257 -700h-91l-66 186h-297l-66 -186h-90l257 700h96zM150 801q0 62 28 95t81 33q32 0 51 -11t33 -24t26 -24t31 -11q23 0 34.5 18t11.5 51h66q0 -63 -28 -96t-79 -33q-31 0 -50.5 11t-34 24t-27.5 24t-31 11q-22 0 -34 -18t-12 -50h-66z
" />
    <glyph glyph-name="Adieresis" unicode="&#xc4;" horiz-adv-x="662" 
d="M208 262h245l-122 347zM379 700l257 -700h-91l-66 186h-297l-66 -186h-90l257 700h96zM233 784q-25 0 -42 17t-17 42t17 42t42 17t42 -17t17 -42t-17 -42t-42 -17zM428 784q-25 0 -42 17t-17 42t17 42t42 17t42 -17t17 -42t-17 -42t-42 -17z" />
    <glyph glyph-name="Aring" unicode="&#xc5;" horiz-adv-x="662" 
d="M208 262h245l-122 347zM379 700l257 -700h-91l-66 186h-297l-66 -186h-90l257 700h96zM331 786q-49 0 -81.5 31.5t-32.5 80.5t32.5 80.5t81.5 31.5t81.5 -31.5t32.5 -80.5t-32.5 -80.5t-81.5 -31.5zM331 842q23 0 38.5 16t15.5 40t-15.5 40t-38.5 16t-38.5 -16t-15.5 -40
t15.5 -40t38.5 -16z" />
    <glyph glyph-name="AE" unicode="&#xc6;" horiz-adv-x="970" 
d="M277 262h205v356zM482 0v188h-248l-108 -188h-100l421 700h463v-78h-344v-218h312v-78h-312v-248h344v-78h-428z" />
    <glyph glyph-name="Ccedilla" unicode="&#xc7;" horiz-adv-x="760" 
d="M417 -16q-77 0 -142.5 27t-113 75.5t-74.5 115.5t-27 148t27 148t74.5 115.5t113 75.5t142.5 27q101 0 180 -45.5t124 -130.5l-75 -42q-35 66 -91.5 101t-134.5 35q-61 0 -111 -20.5t-86 -58t-55.5 -90t-19.5 -115.5t19.5 -115.5t55.5 -90t86 -58t110 -20.5
q79 0 136.5 36t92.5 105l74 -42q-43 -87 -122.5 -134t-182.5 -47zM384 -224q-49 0 -88 19l18 61q32 -18 68 -18q39 0 59 18t20 50t-19 53t-57 38l51 32q44 -26 66.5 -56.5t22.5 -74.5q0 -55 -36 -88.5t-105 -33.5z" />
    <glyph glyph-name="Egrave" unicode="&#xc8;" 
d="M92 700h428v-81h-341v-214h309v-81h-309v-243h341v-81h-428v700zM285 789l-111 141h94l105 -141h-88z" />
    <glyph glyph-name="Eacute" unicode="&#xc9;" 
d="M92 700h428v-81h-341v-214h309v-81h-309v-243h341v-81h-428v700zM369 930h94l-111 -141h-88z" />
    <glyph glyph-name="Ecircumflex" unicode="&#xca;" 
d="M92 700h428v-81h-341v-214h309v-81h-309v-243h341v-81h-428v700zM275 930h74l160 -141h-94l-103 82l-103 -82h-94z" />
    <glyph glyph-name="Edieresis" unicode="&#xcb;" 
d="M92 700h428v-81h-341v-214h309v-81h-309v-243h341v-81h-428v700zM218 784q-25 0 -42 17t-17 42t17 42t42 17t42 -17t17 -42t-17 -42t-42 -17zM413 784q-25 0 -42 17t-17 42t17 42t42 17t42 -17t17 -42t-17 -42t-42 -17z" />
    <glyph glyph-name="Igrave" unicode="&#xcc;" horiz-adv-x="270" 
d="M91 700h87v-700h-87v700zM89 789l-111 141h94l105 -141h-88z" />
    <glyph glyph-name="Iacute" unicode="&#xcd;" horiz-adv-x="270" 
d="M91 700h87v-700h-87v700zM203 930h94l-111 -141h-88z" />
    <glyph glyph-name="Icircumflex" unicode="&#xce;" horiz-adv-x="270" 
d="M91 700h87v-700h-87v700zM97 930h74l160 -141h-94l-103 82l-103 -82h-94z" />
    <glyph glyph-name="Idieresis" unicode="&#xcf;" horiz-adv-x="270" 
d="M91 700h87v-700h-87v700zM36 784q-25 0 -42 17t-17 42t17 42t42 17t42 -17t17 -42t-17 -42t-42 -17zM231 784q-25 0 -42 17t-17 42t17 42t42 17t42 -17t17 -42t-17 -42t-42 -17z" />
    <glyph glyph-name="Eth" unicode="&#xd0;" horiz-adv-x="754" 
d="M216 320v-239h132q60 0 108 20t81 56t51 85.5t18 107.5t-18 107.5t-51 85.5t-81 56t-108 20h-132v-221h151v-78h-151zM36 320v78h93v302h220q78 0 142 -26.5t109 -73.5t69.5 -111t24.5 -139t-24.5 -139t-69.5 -111t-109 -73.5t-142 -26.5h-220v320h-93z" />
    <glyph glyph-name="Ntilde" unicode="&#xd1;" horiz-adv-x="740" 
d="M92 0v700h90l368 -561v561h82v-700h-90l-368 561v-561h-82zM189 801q0 62 28 95t81 33q32 0 51 -11t33 -24t26 -24t31 -11q23 0 34.5 18t11.5 51h66q0 -63 -28 -96t-79 -33q-31 0 -50.5 11t-34 24t-27.5 24t-31 11q-22 0 -34 -18t-12 -50h-66z" />
    <glyph glyph-name="Ograve" unicode="&#xd2;" horiz-adv-x="829" 
d="M415 -16q-76 0 -141.5 27.5t-112.5 76t-74 116t-27 146.5q0 80 27 147t74 115.5t112.5 76t141.5 27.5q77 0 141.5 -27.5t112 -76t74 -115.5t26.5 -147q0 -79 -26.5 -146.5t-74 -116t-112 -76t-141.5 -27.5zM415 66q59 0 108 21t84 58.5t54.5 89.5t19.5 115t-19.5 115.5
t-54.5 90t-84 58t-108 20.5t-108 -20.5t-84.5 -58t-55 -90t-19.5 -115.5t19.5 -115t55 -89.5t84.5 -58.5t108 -21zM379 789l-111 141h94l105 -141h-88z" />
    <glyph glyph-name="Oacute" unicode="&#xd3;" horiz-adv-x="829" 
d="M415 -16q-76 0 -141.5 27.5t-112.5 76t-74 116t-27 146.5q0 80 27 147t74 115.5t112.5 76t141.5 27.5q77 0 141.5 -27.5t112 -76t74 -115.5t26.5 -147q0 -79 -26.5 -146.5t-74 -116t-112 -76t-141.5 -27.5zM415 66q59 0 108 21t84 58.5t54.5 89.5t19.5 115t-19.5 115.5
t-54.5 90t-84 58t-108 20.5t-108 -20.5t-84.5 -58t-55 -90t-19.5 -115.5t19.5 -115t55 -89.5t84.5 -58.5t108 -21zM473 930h94l-111 -141h-88z" />
    <glyph glyph-name="Ocircumflex" unicode="&#xd4;" horiz-adv-x="829" 
d="M415 -16q-76 0 -141.5 27.5t-112.5 76t-74 116t-27 146.5q0 80 27 147t74 115.5t112.5 76t141.5 27.5q77 0 141.5 -27.5t112 -76t74 -115.5t26.5 -147q0 -79 -26.5 -146.5t-74 -116t-112 -76t-141.5 -27.5zM415 66q59 0 108 21t84 58.5t54.5 89.5t19.5 115t-19.5 115.5
t-54.5 90t-84 58t-108 20.5t-108 -20.5t-84.5 -58t-55 -90t-19.5 -115.5t19.5 -115t55 -89.5t84.5 -58.5t108 -21zM378 930h74l160 -141h-94l-103 82l-103 -82h-94z" />
    <glyph glyph-name="Otilde" unicode="&#xd5;" horiz-adv-x="829" 
d="M415 -16q-76 0 -141.5 27.5t-112.5 76t-74 116t-27 146.5q0 80 27 147t74 115.5t112.5 76t141.5 27.5q77 0 141.5 -27.5t112 -76t74 -115.5t26.5 -147q0 -79 -26.5 -146.5t-74 -116t-112 -76t-141.5 -27.5zM415 66q59 0 108 21t84 58.5t54.5 89.5t19.5 115t-19.5 115.5
t-54.5 90t-84 58t-108 20.5t-108 -20.5t-84.5 -58t-55 -90t-19.5 -115.5t19.5 -115t55 -89.5t84.5 -58.5t108 -21zM234 801q0 62 28 95t81 33q32 0 51 -11t33 -24t26 -24t31 -11q23 0 34.5 18t11.5 51h66q0 -63 -28 -96t-79 -33q-31 0 -50.5 11t-34 24t-27.5 24t-31 11
q-22 0 -34 -18t-12 -50h-66z" />
    <glyph glyph-name="Odieresis" unicode="&#xd6;" horiz-adv-x="829" 
d="M415 -16q-76 0 -141.5 27.5t-112.5 76t-74 116t-27 146.5q0 80 27 147t74 115.5t112.5 76t141.5 27.5q77 0 141.5 -27.5t112 -76t74 -115.5t26.5 -147q0 -79 -26.5 -146.5t-74 -116t-112 -76t-141.5 -27.5zM415 66q59 0 108 21t84 58.5t54.5 89.5t19.5 115t-19.5 115.5
t-54.5 90t-84 58t-108 20.5t-108 -20.5t-84.5 -58t-55 -90t-19.5 -115.5t19.5 -115t55 -89.5t84.5 -58.5t108 -21zM317 784q-25 0 -42 17t-17 42t17 42t42 17t42 -17t17 -42t-17 -42t-42 -17zM512 784q-25 0 -42 17t-17 42t17 42t42 17t42 -17t17 -42t-17 -42t-42 -17z" />
    <glyph glyph-name="multiply" unicode="&#xd7;" horiz-adv-x="462" 
d="M92 558l140 -143l145 149l55 -56l-149 -145l142 -138l-55 -55l-140 143l-145 -149l-55 56l149 145l-142 138z" />
    <glyph glyph-name="Oslash" unicode="&#xd8;" horiz-adv-x="829" 
d="M588 574q-35 29 -78.5 44.5t-94.5 15.5q-59 0 -108 -20.5t-84.5 -58t-55 -90t-19.5 -115.5q0 -50 12 -92t35 -77zM241 127q35 -29 78.5 -45t95.5 -16q59 0 108 21t84 58.5t54.5 89.5t19.5 115q0 50 -12 92.5t-35 77.5zM91 -25l-52 52l94 94q-35 46 -54 104t-19 125
q0 80 27 147t74 115.5t112.5 76t141.5 27.5q68 0 126.5 -21.5t104.5 -60.5l93 93l52 -52l-95 -95q35 -46 54 -104.5t19 -125.5q0 -79 -26.5 -146.5t-74 -116t-112 -76t-141.5 -27.5q-69 0 -127.5 21.5t-104.5 61.5z" />
    <glyph glyph-name="Ugrave" unicode="&#xd9;" horiz-adv-x="698" 
d="M350 -16q-58 0 -106.5 19t-83.5 54.5t-54.5 86.5t-19.5 116v440h87v-427q0 -99 48 -151.5t129 -52.5t129 52.5t48 151.5v427h87v-440q0 -65 -19.5 -116t-54.5 -86.5t-83.5 -54.5t-106.5 -19zM326 789l-111 141h94l105 -141h-88z" />
    <glyph glyph-name="Uacute" unicode="&#xda;" horiz-adv-x="698" 
d="M350 -16q-58 0 -106.5 19t-83.5 54.5t-54.5 86.5t-19.5 116v440h87v-427q0 -99 48 -151.5t129 -52.5t129 52.5t48 151.5v427h87v-440q0 -65 -19.5 -116t-54.5 -86.5t-83.5 -54.5t-106.5 -19zM395 930h94l-111 -141h-88z" />
    <glyph glyph-name="Ucircumflex" unicode="&#xdb;" horiz-adv-x="698" 
d="M350 -16q-58 0 -106.5 19t-83.5 54.5t-54.5 86.5t-19.5 116v440h87v-427q0 -99 48 -151.5t129 -52.5t129 52.5t48 151.5v427h87v-440q0 -65 -19.5 -116t-54.5 -86.5t-83.5 -54.5t-106.5 -19zM312 930h74l160 -141h-94l-103 82l-103 -82h-94z" />
    <glyph glyph-name="Udieresis" unicode="&#xdc;" horiz-adv-x="698" 
d="M350 -16q-58 0 -106.5 19t-83.5 54.5t-54.5 86.5t-19.5 116v440h87v-427q0 -99 48 -151.5t129 -52.5t129 52.5t48 151.5v427h87v-440q0 -65 -19.5 -116t-54.5 -86.5t-83.5 -54.5t-106.5 -19zM251 784q-25 0 -42 17t-17 42t17 42t42 17t42 -17t17 -42t-17 -42t-42 -17z
M446 784q-25 0 -42 17t-17 42t17 42t42 17t42 -17t17 -42t-17 -42t-42 -17z" />
    <glyph glyph-name="Yacute" unicode="&#xdd;" horiz-adv-x="612" 
d="M263 0v288l-237 412h98l182 -331l182 331h98l-237 -412v-288h-86zM365 930h94l-111 -141h-88z" />
    <glyph glyph-name="Thorn" unicode="&#xde;" horiz-adv-x="635" 
d="M176 224h183q63 0 102.5 38.5t39.5 103.5q0 66 -39 105t-103 39h-183v-286zM92 0v700h84v-111h189q50 0 91 -16t70 -45t45 -70t16 -91t-16 -91t-45 -70t-69.5 -45t-90.5 -16h-190v-145h-84z" />
    <glyph glyph-name="agrave" unicode="&#xe0;" horiz-adv-x="549" 
d="M394 237l-119 -6q-147 -8 -147 -91q0 -38 28.5 -59.5t75.5 -21.5q35 0 64.5 12t51 33t34 49t12.5 60v24zM46 135q0 72 56.5 115.5t166.5 48.5l125 6v7q0 61 -34.5 95t-95.5 34q-95 0 -136 -84l-68 34q26 59 80 91t126 32q47 0 85.5 -14t65.5 -39t42 -60.5t15 -79.5v-321
h-80v80q-27 -46 -71.5 -70t-103.5 -24q-39 0 -71 10.5t-54.5 30t-35 47t-12.5 61.5zM146 746h84l84 -146h-78z" />
    <glyph glyph-name="aacute" unicode="&#xe1;" horiz-adv-x="549" 
d="M394 237l-119 -6q-147 -8 -147 -91q0 -38 28.5 -59.5t75.5 -21.5q35 0 64.5 12t51 33t34 49t12.5 60v24zM46 135q0 72 56.5 115.5t166.5 48.5l125 6v7q0 61 -34.5 95t-95.5 34q-95 0 -136 -84l-68 34q26 59 80 91t126 32q47 0 85.5 -14t65.5 -39t42 -60.5t15 -79.5v-321
h-80v80q-27 -46 -71.5 -70t-103.5 -24q-39 0 -71 10.5t-54.5 30t-35 47t-12.5 61.5zM307 744h84l-90 -146h-78z" />
    <glyph glyph-name="acircumflex" unicode="&#xe2;" horiz-adv-x="549" 
d="M394 237l-119 -6q-147 -8 -147 -91q0 -38 28.5 -59.5t75.5 -21.5q35 0 64.5 12t51 33t34 49t12.5 60v24zM46 135q0 72 56.5 115.5t166.5 48.5l125 6v7q0 61 -34.5 95t-95.5 34q-95 0 -136 -84l-68 34q26 59 80 91t126 32q47 0 85.5 -14t65.5 -39t42 -60.5t15 -79.5v-321
h-80v80q-27 -46 -71.5 -70t-103.5 -24q-39 0 -71 10.5t-54.5 30t-35 47t-12.5 61.5zM237 742h66l137 -146h-81l-89 92l-89 -92h-81z" />
    <glyph glyph-name="atilde" unicode="&#xe3;" horiz-adv-x="549" 
d="M394 237l-119 -6q-147 -8 -147 -91q0 -38 28.5 -59.5t75.5 -21.5q35 0 64.5 12t51 33t34 49t12.5 60v24zM46 135q0 72 56.5 115.5t166.5 48.5l125 6v7q0 61 -34.5 95t-95.5 34q-95 0 -136 -84l-68 34q26 59 80 91t126 32q47 0 85.5 -14t65.5 -39t42 -60.5t15 -79.5v-321
h-80v80q-27 -46 -71.5 -70t-103.5 -24q-39 0 -71 10.5t-54.5 30t-35 47t-12.5 61.5zM206 660q-38 0 -38 -65h-58q0 64 25 94.5t69 30.5q28 0 44 -10.5t27.5 -23t22 -23t26.5 -10.5q38 0 38 66h58q0 -64 -25 -95t-69 -31q-28 0 -44 10.5t-27.5 23t-21.5 23t-27 10.5z" />
    <glyph glyph-name="adieresis" unicode="&#xe4;" horiz-adv-x="549" 
d="M394 237l-119 -6q-147 -8 -147 -91q0 -38 28.5 -59.5t75.5 -21.5q35 0 64.5 12t51 33t34 49t12.5 60v24zM46 135q0 72 56.5 115.5t166.5 48.5l125 6v7q0 61 -34.5 95t-95.5 34q-95 0 -136 -84l-68 34q26 59 80 91t126 32q47 0 85.5 -14t65.5 -39t42 -60.5t15 -79.5v-321
h-80v80q-27 -46 -71.5 -70t-103.5 -24q-39 0 -71 10.5t-54.5 30t-35 47t-12.5 61.5zM167 607q-24 0 -40.5 16.5t-16.5 40.5t16.5 40.5t40.5 16.5t40.5 -16.5t16.5 -40.5t-16.5 -40.5t-40.5 -16.5zM371 607q-24 0 -40.5 16.5t-16.5 40.5t16.5 40.5t40.5 16.5t40.5 -16.5
t16.5 -40.5t-16.5 -40.5t-40.5 -16.5z" />
    <glyph glyph-name="aring" unicode="&#xe5;" horiz-adv-x="549" 
d="M394 237l-119 -6q-147 -8 -147 -91q0 -38 28.5 -59.5t75.5 -21.5q35 0 64.5 12t51 33t34 49t12.5 60v24zM46 135q0 72 56.5 115.5t166.5 48.5l125 6v7q0 61 -34.5 95t-95.5 34q-95 0 -136 -84l-68 34q26 59 80 91t126 32q47 0 85.5 -14t65.5 -39t42 -60.5t15 -79.5v-321
h-80v80q-27 -46 -71.5 -70t-103.5 -24q-39 0 -71 10.5t-54.5 30t-35 47t-12.5 61.5zM275 584q-49 0 -81 31t-32 79t32 79t81 31t81 -31t32 -79t-32 -79t-81 -31zM275 636q25 0 41 16.5t16 41.5t-16 41.5t-41 16.5t-41 -16.5t-16 -41.5t16 -41.5t41 -16.5z" />
    <glyph glyph-name="ae" unicode="&#xe6;" horiz-adv-x="935" 
d="M395 238l-117 -5q-152 -8 -152 -94q0 -38 27 -59.5t75 -21.5q35 0 65 12.5t53 33.5t36 49t13 60v25zM807 300q-1 31 -13.5 56.5t-33 44t-48.5 29t-61 10.5q-66 0 -110.5 -38.5t-58.5 -101.5h325zM658 -14q-78 0 -137.5 36.5t-90.5 99.5q-25 -64 -78.5 -100t-128.5 -36
q-39 0 -72 10.5t-56 29.5t-36 47t-13 62q0 72 56.5 114.5t167.5 47.5l125 5v10q0 61 -35 95.5t-96 34.5q-46 0 -81.5 -21t-56.5 -64l-66 33q26 59 79 91.5t124 32.5q65 0 113.5 -27.5t71.5 -77.5q34 49 87.5 77t119.5 28q52 0 95 -17.5t74 -49.5t48 -76.5t17 -98.5
q0 -11 -0.5 -21t-2.5 -21h-408q3 -37 17.5 -68t38 -53.5t55 -34.5t68.5 -12q48 0 86 19.5t62 57.5l61 -49q-35 -51 -89 -77.5t-119 -26.5z" />
    <glyph glyph-name="ccedilla" unicode="&#xe7;" horiz-adv-x="560" 
d="M46 250q0 57 18.5 105.5t52.5 83.5t81.5 55t105.5 20q74 0 129.5 -32.5t87.5 -95.5l-69 -39q-45 91 -146 91q-40 0 -73 -14t-56 -39.5t-36 -59.5t-13 -75q0 -40 13 -74.5t36 -60t55.5 -39.5t72.5 -14q51 0 88.5 24t59.5 72l70 -38q-32 -66 -88 -100t-131 -34
q-58 0 -105.5 20t-81.5 55t-52.5 83.5t-18.5 105.5zM276 -206q-49 0 -91 19l18 59q16 -9 32 -13.5t36 -4.5q79 0 79 62q0 28 -18.5 47.5t-53.5 35.5l51 30q42 -26 62.5 -53.5t20.5 -67.5q0 -54 -35 -84t-101 -30z" />
    <glyph glyph-name="egrave" unicode="&#xe8;" horiz-adv-x="584" 
d="M133 299h323q-1 30 -13.5 56t-33 44.5t-48.5 29t-61 10.5q-66 0 -109.5 -38.5t-57.5 -101.5zM305 -14q-58 0 -105.5 19.5t-81.5 54.5t-53 83t-19 105q0 58 19 106.5t53.5 84t81.5 55.5t102 20q53 0 96.5 -17.5t74.5 -49.5t48.5 -76.5t17.5 -98.5q0 -21 -3 -44h-407
q6 -75 54 -120.5t123 -45.5q95 0 148 82l64 -48q-76 -110 -213 -110zM183 746h84l84 -146h-78z" />
    <glyph glyph-name="eacute" unicode="&#xe9;" horiz-adv-x="584" 
d="M133 299h323q-1 30 -13.5 56t-33 44.5t-48.5 29t-61 10.5q-66 0 -109.5 -38.5t-57.5 -101.5zM305 -14q-58 0 -105.5 19.5t-81.5 54.5t-53 83t-19 105q0 58 19 106.5t53.5 84t81.5 55.5t102 20q53 0 96.5 -17.5t74.5 -49.5t48.5 -76.5t17.5 -98.5q0 -21 -3 -44h-407
q6 -75 54 -120.5t123 -45.5q95 0 148 82l64 -48q-76 -110 -213 -110zM337 744h84l-90 -146h-78z" />
    <glyph glyph-name="ecircumflex" unicode="&#xea;" horiz-adv-x="584" 
d="M133 299h323q-1 30 -13.5 56t-33 44.5t-48.5 29t-61 10.5q-66 0 -109.5 -38.5t-57.5 -101.5zM305 -14q-58 0 -105.5 19.5t-81.5 54.5t-53 83t-19 105q0 58 19 106.5t53.5 84t81.5 55.5t102 20q53 0 96.5 -17.5t74.5 -49.5t48.5 -76.5t17.5 -98.5q0 -21 -3 -44h-407
q6 -75 54 -120.5t123 -45.5q95 0 148 82l64 -48q-76 -110 -213 -110zM260 741h66l137 -146h-81l-89 92l-89 -92h-81z" />
    <glyph glyph-name="edieresis" unicode="&#xeb;" horiz-adv-x="584" 
d="M133 299h323q-1 30 -13.5 56t-33 44.5t-48.5 29t-61 10.5q-66 0 -109.5 -38.5t-57.5 -101.5zM305 -14q-58 0 -105.5 19.5t-81.5 54.5t-53 83t-19 105q0 58 19 106.5t53.5 84t81.5 55.5t102 20q53 0 96.5 -17.5t74.5 -49.5t48.5 -76.5t17.5 -98.5q0 -21 -3 -44h-407
q6 -75 54 -120.5t123 -45.5q95 0 148 82l64 -48q-76 -110 -213 -110zM200 607q-24 0 -40.5 16.5t-16.5 40.5t16.5 40.5t40.5 16.5t40.5 -16.5t16.5 -40.5t-16.5 -40.5t-40.5 -16.5zM404 607q-24 0 -40.5 16.5t-16.5 40.5t16.5 40.5t40.5 16.5t40.5 -16.5t16.5 -40.5
t-16.5 -40.5t-40.5 -16.5z" />
    <glyph glyph-name="igrave" unicode="&#xec;" horiz-adv-x="234" 
d="M76 500h82v-500h-82v500zM-4 746h84l84 -146h-78z" />
    <glyph glyph-name="iacute" unicode="&#xed;" horiz-adv-x="234" 
d="M76 500h82v-500h-82v500zM157 744h84l-90 -146h-78z" />
    <glyph glyph-name="icircumflex" unicode="&#xee;" horiz-adv-x="234" 
d="M76 500h82v-500h-82v500zM85 742h66l137 -146h-81l-89 92l-89 -92h-81z" />
    <glyph glyph-name="idieresis" unicode="&#xef;" horiz-adv-x="234" 
d="M76 500h82v-500h-82v500zM15 607q-24 0 -40.5 16.5t-16.5 40.5t16.5 40.5t40.5 16.5t40.5 -16.5t16.5 -40.5t-16.5 -40.5t-40.5 -16.5zM219 607q-24 0 -40.5 16.5t-16.5 40.5t16.5 40.5t40.5 16.5t40.5 -16.5t16.5 -40.5t-16.5 -40.5t-40.5 -16.5z" />
    <glyph glyph-name="eth" unicode="&#xf0;" horiz-adv-x="594" 
d="M292 60q36 0 66.5 13t53 36t35 55t12.5 70t-12.5 69.5t-35 54.5t-53 36t-66.5 13t-66.5 -13t-53 -36t-35.5 -54.5t-13 -69.5t13 -70t35.5 -55t53 -36t66.5 -13zM163 538l94 88q-32 12 -68.5 20.5t-78.5 14.5l10 69q110 -15 193 -52l92 86l41 -44l-77 -72q85 -54 130 -140
t45 -207q0 -151 -67 -233t-184 -82q-55 0 -100.5 18.5t-78 51.5t-50.5 78.5t-18 99.5q0 53 17.5 98t48.5 77.5t75 51t96 18.5q118 0 184 -95q-11 72 -47.5 125.5t-102.5 89.5l-113 -105z" />
    <glyph glyph-name="ntilde" unicode="&#xf1;" horiz-adv-x="574" 
d="M423 0v290q0 70 -32 109t-92 39q-63 0 -102.5 -42.5t-39.5 -115.5v-280h-81v500h81v-73q26 42 67 64.5t93 22.5q43 0 77.5 -15t59 -42.5t37.5 -67t13 -87.5v-302h-81zM229 660q-38 0 -38 -65h-58q0 64 25 94.5t69 30.5q28 0 44 -10.5t27.5 -23t22 -23t26.5 -10.5
q38 0 38 66h58q0 -64 -25 -95t-69 -31q-28 0 -44 10.5t-27.5 23t-21.5 23t-27 10.5z" />
    <glyph glyph-name="ograve" unicode="&#xf2;" horiz-adv-x="608" 
d="M304 -14q-57 0 -104 20t-81.5 55.5t-53.5 84t-19 104.5t19 104.5t53.5 84t81.5 55.5t104 20t104 -20t81.5 -55.5t53.5 -84t19 -104.5t-19 -104.5t-53.5 -84t-81.5 -55.5t-104 -20zM304 62q39 0 71.5 14t55.5 39.5t36 60t13 74.5q0 41 -13 75t-36 59.5t-55.5 39.5
t-71.5 14t-71.5 -14t-55.5 -39.5t-36 -59.5t-13 -75q0 -40 13 -74.5t36 -60t55.5 -39.5t71.5 -14zM171 746h84l84 -146h-78z" />
    <glyph glyph-name="oacute" unicode="&#xf3;" horiz-adv-x="608" 
d="M304 -14q-57 0 -104 20t-81.5 55.5t-53.5 84t-19 104.5t19 104.5t53.5 84t81.5 55.5t104 20t104 -20t81.5 -55.5t53.5 -84t19 -104.5t-19 -104.5t-53.5 -84t-81.5 -55.5t-104 -20zM304 62q39 0 71.5 14t55.5 39.5t36 60t13 74.5q0 41 -13 75t-36 59.5t-55.5 39.5
t-71.5 14t-71.5 -14t-55.5 -39.5t-36 -59.5t-13 -75q0 -40 13 -74.5t36 -60t55.5 -39.5t71.5 -14zM346 744h84l-90 -146h-78z" />
    <glyph glyph-name="ocircumflex" unicode="&#xf4;" horiz-adv-x="608" 
d="M304 -14q-57 0 -104 20t-81.5 55.5t-53.5 84t-19 104.5t19 104.5t53.5 84t81.5 55.5t104 20t104 -20t81.5 -55.5t53.5 -84t19 -104.5t-19 -104.5t-53.5 -84t-81.5 -55.5t-104 -20zM304 62q39 0 71.5 14t55.5 39.5t36 60t13 74.5q0 41 -13 75t-36 59.5t-55.5 39.5
t-71.5 14t-71.5 -14t-55.5 -39.5t-36 -59.5t-13 -75q0 -40 13 -74.5t36 -60t55.5 -39.5t71.5 -14zM271 742h66l137 -146h-81l-89 92l-89 -92h-81z" />
    <glyph glyph-name="otilde" unicode="&#xf5;" horiz-adv-x="608" 
d="M304 -14q-57 0 -104 20t-81.5 55.5t-53.5 84t-19 104.5t19 104.5t53.5 84t81.5 55.5t104 20t104 -20t81.5 -55.5t53.5 -84t19 -104.5t-19 -104.5t-53.5 -84t-81.5 -55.5t-104 -20zM304 62q39 0 71.5 14t55.5 39.5t36 60t13 74.5q0 41 -13 75t-36 59.5t-55.5 39.5
t-71.5 14t-71.5 -14t-55.5 -39.5t-36 -59.5t-13 -75q0 -40 13 -74.5t36 -60t55.5 -39.5t71.5 -14zM245 660q-38 0 -38 -65h-58q0 64 25 94.5t69 30.5q28 0 44 -10.5t27.5 -23t22 -23t26.5 -10.5q38 0 38 66h58q0 -64 -25 -95t-69 -31q-28 0 -44 10.5t-27.5 23t-21.5 23
t-27 10.5z" />
    <glyph glyph-name="odieresis" unicode="&#xf6;" horiz-adv-x="608" 
d="M304 -14q-57 0 -104 20t-81.5 55.5t-53.5 84t-19 104.5t19 104.5t53.5 84t81.5 55.5t104 20t104 -20t81.5 -55.5t53.5 -84t19 -104.5t-19 -104.5t-53.5 -84t-81.5 -55.5t-104 -20zM304 62q39 0 71.5 14t55.5 39.5t36 60t13 74.5q0 41 -13 75t-36 59.5t-55.5 39.5
t-71.5 14t-71.5 -14t-55.5 -39.5t-36 -59.5t-13 -75q0 -40 13 -74.5t36 -60t55.5 -39.5t71.5 -14zM202 607q-24 0 -40.5 16.5t-16.5 40.5t16.5 40.5t40.5 16.5t40.5 -16.5t16.5 -40.5t-16.5 -40.5t-40.5 -16.5zM406 607q-24 0 -40.5 16.5t-16.5 40.5t16.5 40.5t40.5 16.5
t40.5 -16.5t16.5 -40.5t-16.5 -40.5t-40.5 -16.5z" />
    <glyph glyph-name="divide" unicode="&#xf7;" horiz-adv-x="568" 
d="M56 383h456v-72h-456v72zM228 165q0 -24 16 -40t40 -16t40 16t16 40t-16 40t-40 16t-40 -16t-16 -40zM228 529q0 -24 16 -40t40 -16t40 16t16 40t-16 40t-40 16t-40 -16t-16 -40z" />
    <glyph glyph-name="oslash" unicode="&#xf8;" horiz-adv-x="608" 
d="M155 146l256 256q-44 36 -107 36q-39 0 -71.5 -14t-55.5 -39.5t-36 -59.5t-13 -75q0 -29 7 -55.5t20 -48.5zM454 354l-257 -257q22 -17 48.5 -26t58.5 -9q39 0 71.5 14t55.5 39.5t36 60t13 74.5q0 58 -26 104zM20 17l74 74q-48 68 -48 159q0 56 19 104.5t53.5 84
t81.5 55.5t104 20q48 0 89 -14.5t73 -40.5l73 73l49 -49l-74 -74q48 -68 48 -159q0 -56 -19 -104.5t-53.5 -84t-81.5 -55.5t-104 -20q-48 0 -89 14.5t-73 40.5l-73 -73z" />
    <glyph glyph-name="ugrave" unicode="&#xf9;" horiz-adv-x="574" 
d="M151.025 500v-289.982q0 -69.9961 31.998 -108.993q31.998 -38.998 91.9951 -38.998q62.9961 0 102.493 42.498q39.498 42.4971 39.498 115.493v279.982h80.9951v-499.97h-80.9951v72.9961q-25.999 -41.998 -66.9961 -64.4961q-40.9971 -22.499 -92.9941 -22.499
q-42.998 0 -77.4951 14.999q-34.498 14.999 -58.9971 42.498q-24.498 27.498 -37.4971 66.9951q-12.999 39.498 -12.999 87.4951v301.981h80.9941zM168 746h84l84 -146h-78z" />
    <glyph glyph-name="uacute" unicode="&#xfa;" horiz-adv-x="574" 
d="M151.025 500v-289.982q0 -69.9961 31.998 -108.993q31.998 -38.998 91.9951 -38.998q62.9961 0 102.493 42.498q39.498 42.4971 39.498 115.493v279.982h80.9951v-499.97h-80.9951v72.9961q-25.999 -41.998 -66.9961 -64.4961q-40.9971 -22.499 -92.9941 -22.499
q-42.998 0 -77.4951 14.999q-34.498 14.999 -58.9971 42.498q-24.498 27.498 -37.4971 66.9951q-12.999 39.498 -12.999 87.4951v301.981h80.9941zM328 744h84l-90 -146h-78z" />
    <glyph glyph-name="ucircumflex" unicode="&#xfb;" horiz-adv-x="574" 
d="M151.025 500v-289.982q0 -69.9961 31.998 -108.993q31.998 -38.998 91.9951 -38.998q62.9961 0 102.493 42.498q39.498 42.4971 39.498 115.493v279.982h80.9951v-499.97h-80.9951v72.9961q-25.999 -41.998 -66.9961 -64.4961q-40.9971 -22.499 -92.9941 -22.499
q-42.998 0 -77.4951 14.999q-34.498 14.999 -58.9971 42.498q-24.498 27.498 -37.4971 66.9951q-12.999 39.498 -12.999 87.4951v301.981h80.9941zM255 742h66l137 -146h-81l-89 92l-89 -92h-81z" />
    <glyph glyph-name="udieresis" unicode="&#xfc;" horiz-adv-x="574" 
d="M151.025 500v-289.982q0 -69.9961 31.998 -108.993q31.998 -38.998 91.9951 -38.998q62.9961 0 102.493 42.498q39.498 42.4971 39.498 115.493v279.982h80.9951v-499.97h-80.9951v72.9961q-25.999 -41.998 -66.9961 -64.4961q-40.9971 -22.499 -92.9941 -22.499
q-42.998 0 -77.4951 14.999q-34.498 14.999 -58.9971 42.498q-24.498 27.498 -37.4971 66.9951q-12.999 39.498 -12.999 87.4951v301.981h80.9941zM186 607q-24 0 -40.5 16.5t-16.5 40.5t16.5 40.5t40.5 16.5t40.5 -16.5t16.5 -40.5t-16.5 -40.5t-40.5 -16.5zM390 607
q-24 0 -40.5 16.5t-16.5 40.5t16.5 40.5t40.5 16.5t40.5 -16.5t16.5 -40.5t-16.5 -40.5t-40.5 -16.5z" />
    <glyph glyph-name="yacute" unicode="&#xfd;" horiz-adv-x="506" 
d="M134 -200l82 209l-196 491h86l151 -389l144 389h85l-268 -700h-84zM285 744h84l-90 -146h-78z" />
    <glyph glyph-name="thorn" unicode="&#xfe;" horiz-adv-x="638" 
d="M334 62q39 0 71.5 14t55.5 39.5t36 60t13 74.5q0 41 -13 75t-36 59.5t-55.5 39.5t-71.5 14t-71.5 -14t-55.5 -39.5t-36 -59.5t-13 -75q0 -40 13 -74.5t36 -60t55.5 -39.5t71.5 -14zM345 -14q-64 0 -111 27.5t-76 75.5v-289h-82v922h82v-311q29 48 76 75.5t111 27.5
q54 0 99.5 -20t78 -55.5t51 -83.5t18.5 -105t-18.5 -105t-51 -83.5t-78 -55.5t-99.5 -20z" />
    <glyph glyph-name="ydieresis" unicode="&#xff;" horiz-adv-x="506" 
d="M134 -200l82 209l-196 491h86l151 -389l144 389h85l-268 -700h-84zM151 607q-24 0 -40.5 16.5t-16.5 40.5t16.5 40.5t40.5 16.5t40.5 -16.5t16.5 -40.5t-16.5 -40.5t-40.5 -16.5zM355 607q-24 0 -40.5 16.5t-16.5 40.5t16.5 40.5t40.5 16.5t40.5 -16.5t16.5 -40.5
t-16.5 -40.5t-40.5 -16.5z" />
    <glyph glyph-name="Amacron" unicode="&#x100;" horiz-adv-x="662" 
d="M208 262h245l-122 347zM379 700l257 -700h-91l-66 186h-297l-66 -186h-90l257 700h96zM178 869h307v-62h-307v62z" />
    <glyph glyph-name="amacron" unicode="&#x101;" horiz-adv-x="545" 
d="M390 237l-119 -6q-147 -8 -147 -91q0 -38 28.5 -59.5t75.5 -21.5q35 0 64.5 12t51 33t34 49t12.5 60v24zM42 135q0 72 56.5 115.5t166.5 48.5l125 6v7q0 61 -34.5 95t-95.5 34q-95 0 -136 -84l-68 34q26 59 80 91t126 32q47 0 85.5 -14t65.5 -39t42 -60.5t15 -79.5v-321
h-80v80q-27 -46 -71.5 -70t-103.5 -24q-39 0 -71 10.5t-54.5 30t-35 47t-12.5 61.5zM135 677h272v-66h-272v66z" />
    <glyph glyph-name="Abreve" unicode="&#x102;" horiz-adv-x="662" 
d="M208 262h245l-122 347zM379 700l257 -700h-91l-66 186h-297l-66 -186h-90l257 700h96zM332 785q-79 0 -128 38.5t-59 107.5h77q5 -37 35 -59t75 -22t74 22t34 59h77q-10 -69 -58 -107.5t-127 -38.5z" />
    <glyph glyph-name="abreve" unicode="&#x103;" horiz-adv-x="545" 
d="M390 237l-119 -6q-147 -8 -147 -91q0 -38 28.5 -59.5t75.5 -21.5q35 0 64.5 12t51 33t34 49t12.5 60v24zM42 135q0 72 56.5 115.5t166.5 48.5l125 6v7q0 61 -34.5 95t-95.5 34q-95 0 -136 -84l-68 34q26 59 80 91t126 32q47 0 85.5 -14t65.5 -39t42 -60.5t15 -79.5v-321
h-80v80q-27 -46 -71.5 -70t-103.5 -24q-39 0 -71 10.5t-54.5 30t-35 47t-12.5 61.5zM273 607q-70 0 -113.5 37t-51.5 102h75q5 -35 29 -55t61 -20t61 20t29 55h75q-8 -65 -51.5 -102t-113.5 -37z" />
    <glyph glyph-name="Aogonek" unicode="&#x104;" horiz-adv-x="662" 
d="M209 262h242l-121 348zM455 -116q0 37 20 65t65 57l-63 182h-294l-65 -188h-92l257 700h96l257 -700h-2q-62 -30 -89.5 -52t-27.5 -53q0 -27 18 -42.5t47 -15.5q16 0 31.5 4.5t26.5 13.5l19 -57q-37 -23 -84 -23q-56 0 -88 29.5t-32 79.5z" />
    <glyph glyph-name="aogonek" unicode="&#x105;" horiz-adv-x="545" 
d="M391 238l-117 -5q-152 -8 -152 -94q0 -38 27 -59.5t75 -21.5q35 0 65 12.5t53 33.5t36 49t13 60v25zM296 -113q0 39 22 69t73 60v73q-24 -48 -68.5 -75.5t-108.5 -27.5q-79 0 -125.5 41t-46.5 109q0 73 56.5 115.5t167.5 47.5l125 5v8q0 61 -35 95.5t-96 34.5
q-46 0 -81.5 -21t-56.5 -64l-66 33q26 59 80 91.5t126 32.5q46 0 84 -13.5t65.5 -39t42.5 -61t15 -79.5v-321h-2q-57 -29 -83 -50.5t-26 -51.5q0 -26 16.5 -40.5t43.5 -14.5q15 0 30 4.5t25 13.5l19 -57q-35 -23 -81 -23q-54 0 -84.5 29t-30.5 77z" />
    <glyph glyph-name="Cacute" unicode="&#x106;" horiz-adv-x="760" 
d="M417 -16q-77 0 -142.5 27t-113 75.5t-74.5 115.5t-27 148t27 148t74.5 115.5t113 75.5t142.5 27q101 0 180 -45.5t124 -130.5l-75 -42q-35 66 -91.5 101t-134.5 35q-61 0 -111 -20.5t-86 -58t-55.5 -90t-19.5 -115.5t19.5 -115.5t55.5 -90t86 -58t110 -20.5
q79 0 136.5 36t92.5 105l74 -42q-43 -87 -122.5 -134t-182.5 -47zM473 930h94l-111 -141h-88z" />
    <glyph glyph-name="cacute" unicode="&#x107;" horiz-adv-x="560" 
d="M46 250q0 57 18.5 105.5t52.5 83.5t81.5 55t105.5 20q74 0 129.5 -32.5t87.5 -95.5l-69 -39q-45 91 -146 91q-40 0 -73 -14t-56 -39.5t-36 -59.5t-13 -75q0 -40 13 -74.5t36 -60t55.5 -39.5t72.5 -14q51 0 88.5 24t59.5 72l70 -38q-32 -66 -88 -100t-131 -34
q-58 0 -105.5 20t-81.5 55t-52.5 83.5t-18.5 105.5zM346 744h84l-90 -146h-78z" />
    <glyph glyph-name="Ccircumflex" unicode="&#x108;" horiz-adv-x="760" 
d="M417 -16q-77 0 -142.5 27t-113 75.5t-74.5 115.5t-27 148t27 148t74.5 115.5t113 75.5t142.5 27q101 0 180 -45.5t124 -130.5l-75 -42q-35 66 -91.5 101t-134.5 35q-61 0 -111 -20.5t-86 -58t-55.5 -90t-19.5 -115.5t19.5 -115.5t55.5 -90t86 -58t110 -20.5
q79 0 136.5 36t92.5 105l74 -42q-43 -87 -122.5 -134t-182.5 -47zM378 930h74l160 -141h-94l-103 82l-103 -82h-94z" />
    <glyph glyph-name="ccircumflex" unicode="&#x109;" horiz-adv-x="560" 
d="M46 250q0 57 18.5 105.5t52.5 83.5t81.5 55t105.5 20q74 0 129.5 -32.5t87.5 -95.5l-69 -39q-45 91 -146 91q-40 0 -73 -14t-56 -39.5t-36 -59.5t-13 -75q0 -40 13 -74.5t36 -60t55.5 -39.5t72.5 -14q51 0 88.5 24t59.5 72l70 -38q-32 -66 -88 -100t-131 -34
q-58 0 -105.5 20t-81.5 55t-52.5 83.5t-18.5 105.5zM266 742h66l137 -146h-81l-89 92l-89 -92h-81z" />
    <glyph glyph-name="Cdotaccent" unicode="&#x10a;" horiz-adv-x="760" 
d="M417 -16q-77 0 -142.5 27t-113 75.5t-74.5 115.5t-27 148t27 148t74.5 115.5t113 75.5t142.5 27q101 0 180 -45.5t124 -130.5l-75 -42q-35 66 -91.5 101t-134.5 35q-61 0 -111 -20.5t-86 -58t-55.5 -90t-19.5 -115.5t19.5 -115.5t55.5 -90t86 -58t110 -20.5
q79 0 136.5 36t92.5 105l74 -42q-43 -87 -122.5 -134t-182.5 -47zM416 784q-25 0 -42 17t-17 42t17 42t42 17t42 -17t17 -42t-17 -42t-42 -17z" />
    <glyph glyph-name="cdotaccent" unicode="&#x10b;" horiz-adv-x="560" 
d="M46 250q0 57 18.5 105.5t52.5 83.5t81.5 55t105.5 20q74 0 129.5 -32.5t87.5 -95.5l-69 -39q-45 91 -146 91q-40 0 -73 -14t-56 -39.5t-36 -59.5t-13 -75q0 -40 13 -74.5t36 -60t55.5 -39.5t72.5 -14q51 0 88.5 24t59.5 72l70 -38q-32 -66 -88 -100t-131 -34
q-58 0 -105.5 20t-81.5 55t-52.5 83.5t-18.5 105.5zM325 607q-24 0 -40.5 16.5t-16.5 40.5t16.5 40.5t40.5 16.5h1q24 0 40.5 -16.5t16.5 -40.5t-16.5 -40.5t-40.5 -16.5h-1z" />
    <glyph glyph-name="Ccaron" unicode="&#x10c;" horiz-adv-x="760" 
d="M417 -16q-77 0 -142.5 27t-113 75.5t-74.5 115.5t-27 148t27 148t74.5 115.5t113 75.5t142.5 27q101 0 180 -45.5t124 -130.5l-75 -42q-35 66 -91.5 101t-134.5 35q-61 0 -111 -20.5t-86 -58t-55.5 -90t-19.5 -115.5t19.5 -115.5t55.5 -90t86 -58t110 -20.5
q79 0 136.5 36t92.5 105l74 -42q-43 -87 -122.5 -134t-182.5 -47zM317 931l103 -83l103 83h94l-160 -142h-74l-160 142h94z" />
    <glyph glyph-name="ccaron" unicode="&#x10d;" horiz-adv-x="560" 
d="M46 250q0 57 18.5 105.5t52.5 83.5t81.5 55t105.5 20q74 0 129.5 -32.5t87.5 -95.5l-69 -39q-45 91 -146 91q-40 0 -73 -14t-56 -39.5t-36 -59.5t-13 -75q0 -40 13 -74.5t36 -60t55.5 -39.5t72.5 -14q51 0 88.5 24t59.5 72l70 -38q-32 -66 -88 -100t-131 -34
q-58 0 -105.5 20t-81.5 55t-52.5 83.5t-18.5 105.5zM133 742h81l89 -92l89 92h81l-137 -146h-66z" />
    <glyph glyph-name="Dcaron" unicode="&#x10e;" horiz-adv-x="717" 
d="M92 700h220q78 0 142 -26.5t109 -73.5t69.5 -111t24.5 -139t-24.5 -139t-69.5 -111t-109 -73.5t-142 -26.5h-220v700zM179 619v-538h132q60 0 108 20t81 56t51 85.5t18 107.5t-18 107.5t-51 85.5t-81 56t-108 20h-132zM226 931l103 -83l103 83h94l-160 -142h-74l-160 142
h94z" />
    <glyph glyph-name="dcaron" unicode="&#x10f;" horiz-adv-x="804" 
d="M307.021 62q-38.998 0 -70.9961 14t-54.9961 39.5q-22.999 25.5 -35.498 60t-12.499 74.5q0 41 12.499 75t35.498 59.5q22.998 25.5 54.9961 39.5t70.9961 14q38.9971 0 70.9951 -14t54.9971 -39.5q22.998 -25.5 35.498 -59.5q12.499 -34 12.499 -75q0 -40 -12.499 -74.5
q-12.5 -34.5 -35.498 -60q-22.999 -25.5 -54.9971 -39.5t-70.9951 -14zM295.021 -14q60.9971 0 108.494 26t77.4951 73v-85h80.9951v722h-80.9951v-307q-29.998 47 -77.4951 73t-108.494 26q-52.9961 0 -97.4932 -19.5q-44.498 -19.5 -76.9961 -55t-50.9961 -84
q-18.499 -48.5 -18.499 -105.5t18.499 -105.5q18.498 -48.5 50.9961 -84t76.9961 -55q44.4971 -19.5 97.4932 -19.5zM608 647q0 25 16.5 41t40.5 16q26 0 44 -19.5t18 -58.5q0 -42 -21.5 -85t-58.5 -75l-35 34q27 24 40.5 46t20.5 45q-3 -1 -11 -1q-23 0 -38.5 16.5
t-15.5 40.5z" />
    <glyph glyph-name="Dcroat" unicode="&#x110;" horiz-adv-x="754" 
d="M216 320v-239h132q60 0 108 20t81 56t51 85.5t18 107.5t-18 107.5t-51 85.5t-81 56t-108 20h-132v-221h151v-78h-151zM36 320v78h93v302h220q78 0 142 -26.5t109 -73.5t69.5 -111t24.5 -139t-24.5 -139t-69.5 -111t-109 -73.5t-142 -26.5h-220v320h-93z" />
    <glyph glyph-name="dcroat" unicode="&#x111;" horiz-adv-x="671" 
d="M306 62q39 0 71 14t55 39.5t35.5 60t12.5 74.5q0 41 -12.5 75t-35.5 59.5t-55 39.5t-71 14t-71 -14t-55 -39.5t-35.5 -59.5t-12.5 -75q0 -40 12.5 -74.5t35.5 -60t55 -39.5t71 -14zM294 -14q-52 0 -97 19.5t-77.5 55t-51 84t-18.5 105.5t18.5 105.5t51 84t77.5 55
t97 19.5q61 0 108.5 -26t77.5 -73v167h-90v74h90v66h81v-66h80v-74h-80v-582h-81v85q-30 -47 -77.5 -73t-108.5 -26z" />
    <glyph glyph-name="Emacron" unicode="&#x112;" 
d="M92 700h428v-81h-341v-214h309v-81h-309v-243h341v-81h-428v700zM157 869h307v-62h-307v62z" />
    <glyph glyph-name="emacron" unicode="&#x113;" horiz-adv-x="586" 
d="M133 299h323q-1 30 -13.5 56t-33 44.5t-48.5 29t-61 10.5q-66 0 -109.5 -38.5t-57.5 -101.5zM305 -14q-58 0 -105.5 19.5t-81.5 54.5t-53 83t-19 105q0 58 19 106.5t53.5 84t81.5 55.5t102 20q53 0 96.5 -17.5t74.5 -49.5t48.5 -76.5t17.5 -98.5q0 -21 -3 -44h-407
q6 -75 54 -120.5t123 -45.5q95 0 148 82l64 -48q-76 -110 -213 -110zM157 677h272v-66h-272v66z" />
    <glyph glyph-name="Ebreve" unicode="&#x114;" 
d="M92 700h428v-81h-341v-214h309v-81h-309v-243h341v-81h-428v700zM311 785q-79 0 -128 38.5t-59 107.5h77q5 -37 35 -59t75 -22t74 22t34 59h77q-10 -69 -58 -107.5t-127 -38.5z" />
    <glyph glyph-name="ebreve" unicode="&#x115;" horiz-adv-x="584" 
d="M133 299h323q-1 30 -13.5 56t-33 44.5t-48.5 29t-61 10.5q-66 0 -109.5 -38.5t-57.5 -101.5zM305 -14q-58 0 -105.5 19.5t-81.5 54.5t-53 83t-19 105q0 58 19 106.5t53.5 84t81.5 55.5t102 20q53 0 96.5 -17.5t74.5 -49.5t48.5 -76.5t17.5 -98.5q0 -21 -3 -44h-407
q6 -75 54 -120.5t123 -45.5q95 0 148 82l64 -48q-76 -110 -213 -110zM301 607q-70 0 -113.5 37t-51.5 102h75q5 -35 29 -55t61 -20t61 20t29 55h75q-8 -65 -51.5 -102t-113.5 -37z" />
    <glyph glyph-name="Edotaccent" unicode="&#x116;" 
d="M92 700h428v-81h-341v-214h309v-81h-309v-243h341v-81h-428v700zM317 784q-25 0 -42 17t-17 42t17 42t42 17t42 -17t17 -42t-17 -42t-42 -17z" />
    <glyph glyph-name="edotaccent" unicode="&#x117;" horiz-adv-x="584" 
d="M133 299h323q-1 30 -13.5 56t-33 44.5t-48.5 29t-61 10.5q-66 0 -109.5 -38.5t-57.5 -101.5zM305 -14q-58 0 -105.5 19.5t-81.5 54.5t-53 83t-19 105q0 58 19 106.5t53.5 84t81.5 55.5t102 20q53 0 96.5 -17.5t74.5 -49.5t48.5 -76.5t17.5 -98.5q0 -21 -3 -44h-407
q6 -75 54 -120.5t123 -45.5q95 0 148 82l64 -48q-76 -110 -213 -110zM300 607q-24 0 -40.5 16.5t-16.5 40.5t16.5 40.5t40.5 16.5h1q24 0 40.5 -16.5t16.5 -40.5t-16.5 -40.5t-40.5 -16.5h-1z" />
    <glyph glyph-name="Eogonek" unicode="&#x118;" 
d="M315 -116q0 34 17 62t55 54h-295v700h428v-81h-341v-214h309v-81h-309v-243h341v-81h-36q-57 -24 -82 -51t-25 -56q0 -27 18 -41.5t47 -14.5q16 0 31.5 4.5t26.5 13.5l19 -57q-37 -23 -84 -23q-56 0 -88 29.5t-32 79.5z" />
    <glyph glyph-name="eogonek" unicode="&#x119;" horiz-adv-x="584" 
d="M133 299h323q-1 30 -13.5 56t-33 44.5t-48.5 29t-61 10.5q-66 0 -109.5 -38.5t-57.5 -101.5zM273 -106q0 48 36 92q-58 0 -106.5 19t-83.5 53.5t-54 83t-19 106.5t19 106.5t53.5 84t81.5 55.5t102 20q53 0 96.5 -17.5t74.5 -49.5t48.5 -76.5t17.5 -98.5q0 -21 -3 -44
h-407q6 -75 54 -120.5t123 -45.5q95 0 148 82l64 -48q-35 -52 -88 -81q-46 -24 -70.5 -51t-24.5 -59q0 -28 17.5 -45t46.5 -17q14 0 30 4.5t27 13.5l19 -57q-40 -23 -86 -23q-51 0 -83.5 31t-32.5 82z" />
    <glyph glyph-name="Ecaron" unicode="&#x11a;" 
d="M92 700h428v-81h-341v-214h309v-81h-309v-243h341v-81h-428v700zM209 931l103 -83l103 83h94l-160 -142h-74l-160 142h94z" />
    <glyph glyph-name="ecaron" unicode="&#x11b;" horiz-adv-x="584" 
d="M133 299h323q-1 30 -13.5 56t-33 44.5t-48.5 29t-61 10.5q-66 0 -109.5 -38.5t-57.5 -101.5zM305 -14q-58 0 -105.5 19.5t-81.5 54.5t-53 83t-19 105q0 58 19 106.5t53.5 84t81.5 55.5t102 20q53 0 96.5 -17.5t74.5 -49.5t48.5 -76.5t17.5 -98.5q0 -21 -3 -44h-407
q6 -75 54 -120.5t123 -45.5q95 0 148 82l64 -48q-76 -110 -213 -110zM123 742h81l89 -92l89 92h81l-137 -146h-66z" />
    <glyph glyph-name="Gcircumflex" unicode="&#x11c;" horiz-adv-x="787" 
d="M742 316q0 -74 -23 -135.5t-65.5 -105t-102.5 -67.5t-134 -24q-81 0 -146.5 28t-112.5 77.5t-72.5 116.5t-25.5 145q0 80 26.5 147t74 115.5t112.5 75.5t143 27q99 0 177 -43.5t122 -121.5l-69 -46q-32 63 -91 97t-137 34q-61 0 -111 -20.5t-86 -58t-55.5 -90
t-19.5 -116.5t19.5 -116.5t55 -90.5t85.5 -59t110 -21q53 0 96 16t74.5 45.5t49.5 70.5t21 92h-306v78h389q1 -13 1.5 -25t0.5 -25zM376 930h74l160 -141h-94l-103 82l-103 -82h-94z" />
    <glyph glyph-name="gcircumflex" unicode="&#x11d;" horiz-adv-x="513" 
d="M123 345q0 -46 34 -72.5t94 -26.5q59 0 93.5 26.5t34.5 72.5t-34.5 72.5t-93.5 26.5q-60 0 -94 -26.5t-34 -72.5zM94 -68q0 -35 39 -54.5t112 -19.5q81 0 127.5 22.5t46.5 59.5q0 34 -41 53t-117 19q-81 0 -124 -21t-43 -59zM420 444q34 -42 34 -99q0 -37 -14.5 -68
t-41 -53.5t-64 -35t-83.5 -12.5q-50 0 -89 15q-28 -16 -28 -47q0 -32 31.5 -46.5t102.5 -15.5q116 -2 173.5 -36.5t57.5 -100.5q0 -37 -17.5 -66.5t-50.5 -50t-79.5 -31.5t-105.5 -11q-109 0 -169 36.5t-60 101.5q0 44 27.5 76t75.5 49q-26 13 -41 35.5t-15 50.5q0 50 45 84
q-29 23 -45 55t-16 71q0 37 14.5 68t40.5 53.5t64 35t84 12.5q69 0 120 -28l70 72l47 -47zM228 742h66l137 -146h-81l-89 92l-89 -92h-81z" />
    <glyph glyph-name="Gbreve" unicode="&#x11e;" horiz-adv-x="787" 
d="M742 316q0 -74 -23 -135.5t-65.5 -105t-102.5 -67.5t-134 -24q-81 0 -146.5 28t-112.5 77.5t-72.5 116.5t-25.5 145q0 80 26.5 147t74 115.5t112.5 75.5t143 27q99 0 177 -43.5t122 -121.5l-69 -46q-32 63 -91 97t-137 34q-61 0 -111 -20.5t-86 -58t-55.5 -90
t-19.5 -116.5t19.5 -116.5t55 -90.5t85.5 -59t110 -21q53 0 96 16t74.5 45.5t49.5 70.5t21 92h-306v78h389q1 -13 1.5 -25t0.5 -25zM405 785q-79 0 -128 38.5t-59 107.5h77q5 -37 35 -59t75 -22t74 22t34 59h77q-10 -69 -58 -107.5t-127 -38.5z" />
    <glyph glyph-name="gbreve" unicode="&#x11f;" horiz-adv-x="513" 
d="M123 345q0 -46 34 -72.5t94 -26.5q59 0 93.5 26.5t34.5 72.5t-34.5 72.5t-93.5 26.5q-60 0 -94 -26.5t-34 -72.5zM94 -68q0 -35 39 -54.5t112 -19.5q81 0 127.5 22.5t46.5 59.5q0 34 -41 53t-117 19q-81 0 -124 -21t-43 -59zM420 444q34 -42 34 -99q0 -37 -14.5 -68
t-41 -53.5t-64 -35t-83.5 -12.5q-50 0 -89 15q-28 -16 -28 -47q0 -32 31.5 -46.5t102.5 -15.5q116 -2 173.5 -36.5t57.5 -100.5q0 -37 -17.5 -66.5t-50.5 -50t-79.5 -31.5t-105.5 -11q-109 0 -169 36.5t-60 101.5q0 44 27.5 76t75.5 49q-26 13 -41 35.5t-15 50.5q0 50 45 84
q-29 23 -45 55t-16 71q0 37 14.5 68t40.5 53.5t64 35t84 12.5q69 0 120 -28l70 72l47 -47zM262 607q-70 0 -113.5 37t-51.5 102h75q5 -35 29 -55t61 -20t61 20t29 55h75q-8 -65 -51.5 -102t-113.5 -37z" />
    <glyph glyph-name="dotlessi" unicode="&#x131;" horiz-adv-x="234" 
d="M76 500h82v-500h-82v500z" />
    <glyph glyph-name="Lslash" unicode="&#x141;" horiz-adv-x="574" 
d="M10 224v82l98 49v345h87v-301l215 107v-82l-215 -107v-236h341v-81h-428v273z" />
    <glyph glyph-name="lslash" unicode="&#x142;" horiz-adv-x="314" 
d="M16 237v82l102 65v338h81v-286l99 64v-82l-99 -64v-354h-81v302z" />
    <glyph glyph-name="nacute" unicode="&#x144;" horiz-adv-x="574" 
d="M423 0v290q0 70 -32 109t-92 39q-63 0 -102.5 -42.5t-39.5 -115.5v-280h-81v500h81v-73q26 42 67 64.5t93 22.5q43 0 77.5 -15t59 -42.5t37.5 -67t13 -87.5v-302h-81zM327 744h84l-90 -146h-78z" />
    <glyph glyph-name="ncaron" unicode="&#x148;" horiz-adv-x="574" 
d="M423 0v290q0 70 -32 109t-92 39q-63 0 -102.5 -42.5t-39.5 -115.5v-280h-81v500h81v-73q26 42 67 64.5t93 22.5q43 0 77.5 -15t59 -42.5t37.5 -67t13 -87.5v-302h-81zM118 742h81l89 -92l89 92h81l-137 -146h-66z" />
    <glyph glyph-name="Omacron" unicode="&#x14c;" horiz-adv-x="829" 
d="M415 -16q-76 0 -141.5 27.5t-112.5 76t-74 116t-27 146.5q0 80 27 147t74 115.5t112.5 76t141.5 27.5q77 0 141.5 -27.5t112 -76t74 -115.5t26.5 -147q0 -79 -26.5 -146.5t-74 -116t-112 -76t-141.5 -27.5zM415 66q59 0 108 21t84 58.5t54.5 89.5t19.5 115t-19.5 115.5
t-54.5 90t-84 58t-108 20.5t-108 -20.5t-84.5 -58t-55 -90t-19.5 -115.5t19.5 -115t55 -89.5t84.5 -58.5t108 -21zM261 869h307v-62h-307v62z" />
    <glyph glyph-name="omacron" unicode="&#x14d;" horiz-adv-x="608" 
d="M304 -14q-57 0 -104 20t-81.5 55.5t-53.5 84t-19 104.5t19 104.5t53.5 84t81.5 55.5t104 20t104 -20t81.5 -55.5t53.5 -84t19 -104.5t-19 -104.5t-53.5 -84t-81.5 -55.5t-104 -20zM304 62q39 0 71.5 14t55.5 39.5t36 60t13 74.5q0 41 -13 75t-36 59.5t-55.5 39.5
t-71.5 14t-71.5 -14t-55.5 -39.5t-36 -59.5t-13 -75q0 -40 13 -74.5t36 -60t55.5 -39.5t71.5 -14zM168 677h272v-66h-272v66z" />
    <glyph glyph-name="Obreve" unicode="&#x14e;" horiz-adv-x="829" 
d="M415 -16q-76 0 -141.5 27.5t-112.5 76t-74 116t-27 146.5q0 80 27 147t74 115.5t112.5 76t141.5 27.5q77 0 141.5 -27.5t112 -76t74 -115.5t26.5 -147q0 -79 -26.5 -146.5t-74 -116t-112 -76t-141.5 -27.5zM415 66q59 0 108 21t84 58.5t54.5 89.5t19.5 115t-19.5 115.5
t-54.5 90t-84 58t-108 20.5t-108 -20.5t-84.5 -58t-55 -90t-19.5 -115.5t19.5 -115t55 -89.5t84.5 -58.5t108 -21zM416 785q-79 0 -128 38.5t-59 107.5h77q5 -37 35 -59t75 -22t74 22t34 59h77q-10 -69 -58 -107.5t-127 -38.5z" />
    <glyph glyph-name="obreve" unicode="&#x14f;" horiz-adv-x="608" 
d="M304 -14q-57 0 -104 20t-81.5 55.5t-53.5 84t-19 104.5t19 104.5t53.5 84t81.5 55.5t104 20t104 -20t81.5 -55.5t53.5 -84t19 -104.5t-19 -104.5t-53.5 -84t-81.5 -55.5t-104 -20zM304 62q39 0 71.5 14t55.5 39.5t36 60t13 74.5q0 41 -13 75t-36 59.5t-55.5 39.5
t-71.5 14t-71.5 -14t-55.5 -39.5t-36 -59.5t-13 -75q0 -40 13 -74.5t36 -60t55.5 -39.5t71.5 -14zM304 607q-70 0 -113.5 37t-51.5 102h75q5 -35 29 -55t61 -20t61 20t29 55h75q-8 -65 -51.5 -102t-113.5 -37z" />
    <glyph glyph-name="OE" unicode="&#x152;" horiz-adv-x="1129" 
d="M415 66q75 0 133.5 33t92.5 92v318q-34 59 -92.5 92t-133.5 33q-59 0 -108 -20.5t-84.5 -58t-55 -90t-19.5 -115.5t19.5 -115t55 -89.5t84.5 -58.5t108 -21zM409 -16q-75 0 -139 27.5t-110.5 76t-73 116t-26.5 146.5q0 80 26.5 147t73 115.5t110.5 76t139 27.5
q69 0 127.5 -22.5t104.5 -63.5v70h428v-78h-344v-218h312v-78h-312v-248h344v-78h-428v70q-46 -41 -104.5 -63.5t-127.5 -22.5z" />
    <glyph glyph-name="oe" unicode="&#x153;" horiz-adv-x="1014" 
d="M304 62q39 0 71.5 14t55.5 39.5t36 60t13 74.5q0 41 -13 75t-36 59.5t-55.5 39.5t-71.5 14t-71.5 -14t-55.5 -39.5t-36 -59.5t-13 -75q0 -40 13 -74.5t36 -60t55.5 -39.5t71.5 -14zM561 300h325q-1 31 -13.5 56.5t-33 44t-48.5 29t-61 10.5q-66 0 -110.5 -38.5
t-58.5 -101.5zM737 -14q-73 0 -130 32t-89 87q-33 -54 -89 -86.5t-128 -32.5q-56 0 -103 20t-80.5 55.5t-52.5 84t-19 104.5t19 104.5t52.5 84t80.5 55.5t103 20q72 0 128 -32.5t89 -87.5q32 56 88 88t128 32q52 0 95 -17.5t74 -49.5t48 -76.5t17 -98.5q0 -11 -0.5 -21
t-2.5 -21h-408q3 -37 17.5 -68t38 -53.5t55 -34.5t68.5 -12q48 0 86 19.5t62 57.5l61 -49q-35 -51 -89.5 -77.5t-118.5 -26.5z" />
    <glyph glyph-name="sacute" unicode="&#x15b;" horiz-adv-x="493" 
d="M252 -14q-75 0 -129.5 31.5t-84.5 92.5l64 38q49 -91 151 -91q53 0 85 21.5t32 57.5q0 31 -23 47t-57.5 26t-74.5 18.5t-74.5 23.5t-57.5 41t-23 72q0 33 13 60.5t37 47.5t58 31t76 11q68 0 117.5 -29t78.5 -85l-64 -37q-41 80 -132 80q-52 0 -80 -21.5t-28 -52.5
q0 -29 23 -43.5t57.5 -23.5t74.5 -17t74.5 -24t57.5 -43.5t23 -75.5q0 -72 -52.5 -114t-141.5 -42zM285 744h84l-90 -146h-78z" />
    <glyph glyph-name="Scedilla" unicode="&#x15e;" horiz-adv-x="634" 
d="M332 -16q-199 0 -278 166l75 44q60 -130 205 -130q77 0 122 33t45 90q0 35 -18 57.5t-47 37.5t-66.5 24.5t-76 20t-76 23.5t-66.5 34t-47 52.5t-18 78.5q0 45 17 82.5t48 63.5t75 40.5t97 14.5q87 0 153.5 -38.5t102.5 -110.5l-73 -45q-56 114 -184 114q-69 0 -110.5 -31
t-41.5 -82q0 -44 30.5 -67t77 -37.5t100 -26t100 -33t77 -59t30.5 -103.5q0 -49 -17.5 -88.5t-50.5 -67t-80 -42.5t-105 -15zM295 -224q-49 0 -88 19l18 61q32 -18 68 -18q39 0 59 18t20 50t-19 53t-57 38l51 32q44 -26 66.5 -56.5t22.5 -74.5q0 -55 -36 -88.5t-105 -33.5z
" />
    <glyph glyph-name="scedilla" unicode="&#x15f;" horiz-adv-x="493" 
d="M252 -14q-75 0 -129.5 31.5t-84.5 92.5l64 38q49 -91 151 -91q53 0 85 21.5t32 57.5q0 31 -23 47t-57.5 26t-74.5 18.5t-74.5 23.5t-57.5 41t-23 72q0 33 13 60.5t37 47.5t58 31t76 11q68 0 117.5 -29t78.5 -85l-64 -37q-41 80 -132 80q-52 0 -80 -21.5t-28 -52.5
q0 -29 23 -43.5t57.5 -23.5t74.5 -17t74.5 -24t57.5 -43.5t23 -75.5q0 -72 -52.5 -114t-141.5 -42zM217 -206q-49 0 -91 19l18 59q16 -9 32 -13.5t36 -4.5q79 0 79 62q0 28 -18.5 47.5t-53.5 35.5l51 30q42 -26 62.5 -53.5t20.5 -67.5q0 -54 -35 -84t-101 -30z" />
    <glyph glyph-name="Scaron" unicode="&#x160;" horiz-adv-x="619" 
d="M312 -16q-199 0 -278 166l75 44q60 -130 205 -130q77 0 122 33t45 90q0 35 -18 57.5t-47 37.5t-66.5 24.5t-76 20t-76 23.5t-66.5 34t-47 52.5t-18 78.5q0 45 17 82.5t48 63.5t75 40.5t97 14.5q87 0 153.5 -38.5t102.5 -110.5l-73 -45q-56 114 -184 114q-69 0 -110.5 -31
t-41.5 -82q0 -44 30.5 -67t77 -37.5t100 -26t100 -33t77 -59t30.5 -103.5q0 -49 -17.5 -88.5t-50.5 -67t-80 -42.5t-105 -15zM205 931l103 -83l103 83h94l-160 -142h-74l-160 142h94z" />
    <glyph glyph-name="scaron" unicode="&#x161;" horiz-adv-x="493" 
d="M252 -14q-75 0 -129.5 31.5t-84.5 92.5l64 38q49 -91 151 -91q53 0 85 21.5t32 57.5q0 31 -23 47t-57.5 26t-74.5 18.5t-74.5 23.5t-57.5 41t-23 72q0 33 13 60.5t37 47.5t58 31t76 11q68 0 117.5 -29t78.5 -85l-64 -37q-41 80 -132 80q-52 0 -80 -21.5t-28 -52.5
q0 -29 23 -43.5t57.5 -23.5t74.5 -17t74.5 -24t57.5 -43.5t23 -75.5q0 -72 -52.5 -114t-141.5 -42zM78 742h81l89 -92l89 92h81l-137 -146h-66z" />
    <glyph glyph-name="tcaron" unicode="&#x165;" horiz-adv-x="430" 
d="M184 186q0 -116 108 -116h58v-76h-66q-87 0 -133.5 46.5t-46.5 140.5v245h-88v74h88v140h80v-454zM234 647q0 25 16.5 41t40.5 16q26 0 44 -19.5t18 -58.5q0 -42 -21.5 -85t-58.5 -75l-35 34q27 24 40.5 46t20.5 45q-3 -1 -11 -1q-23 0 -38.5 16.5t-15.5 40.5z" />
    <glyph glyph-name="uring" unicode="&#x16f;" horiz-adv-x="574" 
d="M151.025 500v-289.982q0 -69.9961 31.998 -108.993q31.998 -38.998 91.9951 -38.998q62.9961 0 102.493 42.498q39.498 42.4971 39.498 115.493v279.982h80.9951v-499.97h-80.9951v72.9961q-25.999 -41.998 -66.9961 -64.4961q-40.9971 -22.499 -92.9941 -22.499
q-42.998 0 -77.4951 14.999q-34.498 14.999 -58.9971 42.498q-24.498 27.498 -37.4971 66.9951q-12.999 39.498 -12.999 87.4951v301.981h80.9941zM288 584q-49 0 -81 31t-32 79t32 79t81 31t81 -31t32 -79t-32 -79t-81 -31zM288 636q25 0 41 16.5t16 41.5t-16 41.5
t-41 16.5t-41 -16.5t-16 -41.5t16 -41.5t41 -16.5z" />
    <glyph glyph-name="Ycircumflex" unicode="&#x176;" horiz-adv-x="612" 
d="M263 0v288l-237 412h98l182 -331l182 331h98l-237 -412v-288h-86zM269 930h74l160 -141h-94l-103 82l-103 -82h-94z" />
    <glyph glyph-name="ycircumflex" unicode="&#x177;" horiz-adv-x="506" 
d="M134 -200l82 209l-196 491h86l151 -389l144 389h85l-268 -700h-84zM220 742h66l137 -146h-81l-89 92l-89 -92h-81z" />
    <glyph glyph-name="Ydieresis" unicode="&#x178;" horiz-adv-x="612" 
d="M263 0v288l-237 412h98l182 -331l182 331h98l-237 -412v-288h-86zM204 807q-24 0 -40.5 16.5t-16.5 40.5t16.5 40.5t40.5 16.5t40.5 -16.5t16.5 -40.5t-16.5 -40.5t-40.5 -16.5zM408 807q-24 0 -40.5 16.5t-16.5 40.5t16.5 40.5t40.5 16.5t40.5 -16.5t16.5 -40.5
t-16.5 -40.5t-40.5 -16.5z" />
    <glyph glyph-name="zacute" unicode="&#x17a;" horiz-adv-x="495" 
d="M46 78l311 348h-302v74h394v-78l-312 -348h312v-74h-403v78zM278 744h84l-90 -146h-78z" />
    <glyph glyph-name="zdotaccent" unicode="&#x17c;" horiz-adv-x="495" 
d="M46 78l311 348h-302v74h394v-78l-312 -348h312v-74h-403v78zM277 607q-24 0 -40.5 16.5t-16.5 40.5t16.5 40.5t40.5 16.5h1q24 0 40.5 -16.5t16.5 -40.5t-16.5 -40.5t-40.5 -16.5h-1z" />
    <glyph glyph-name="Zcaron" unicode="&#x17d;" horiz-adv-x="673" 
d="M90 700h505v-87l-421 -531h421v-82h-517v88l422 530h-410v82zM167 942h81l89 -92l89 92h81l-137 -146h-66z" />
    <glyph glyph-name="zcaron" unicode="&#x17e;" horiz-adv-x="495" 
d="M46 78l311 348h-302v74h394v-78l-312 -348h312v-74h-403v78zM78 742h81l89 -92l89 92h81l-137 -146h-66z" />
    <glyph glyph-name="uni018F" unicode="&#x18f;" horiz-adv-x="799" 
d="M139 301q3 -54 22 -97.5t52 -74.5t78 -48t99 -17t98.5 17t78.5 47.5t55 74.5t28 98h-511zM389 -16q-75 0 -137 25t-106.5 70t-68.5 108t-24 139q0 14 0.5 26t1.5 25h597q-4 59 -24.5 107t-55 82t-82 52t-105.5 18q-148 0 -225 -128l-72 47q48 78 124 119.5t175 41.5
q79 0 143.5 -26.5t111 -74.5t72 -115t25.5 -149t-25.5 -149.5t-71.5 -116t-110.5 -75t-142.5 -26.5z" />
    <glyph glyph-name="uni0259" unicode="&#x259;" horiz-adv-x="584" 
d="M128 210q2 -69 43.5 -109t111.5 -40q69 0 114 39.5t56 109.5h-325zM283 -14q-54 0 -98 17.5t-75.5 49.5t-48.5 76.5t-17 97.5q0 16 1 30t3 25h406q-8 74 -53 115.5t-119 41.5q-98 0 -151 -79l-62 51q79 103 213 103q58 0 105 -19t80.5 -53.5t52 -83t18.5 -106.5
q0 -59 -18.5 -108t-52.5 -84t-81 -54.5t-103 -19.5z" />
    <glyph glyph-name="uni02BC" unicode="&#x2bc;" horiz-adv-x="248" 
d="M59 650q0 26 17 43t43 17q27 0 46 -20.5t19 -61.5q0 -44 -23 -88t-61 -78l-36 35q29 26 44.5 48t21.5 47q-8 -2 -14 -2q-24 0 -40.5 17t-16.5 43z" />
    <glyph glyph-name="circumflex" unicode="&#x2c6;" horiz-adv-x="380" 
d="M157 742h66l137 -146h-81l-89 92l-89 -92h-81z" />
    <glyph glyph-name="caron" unicode="&#x2c7;" horiz-adv-x="380" 
d="M20 742h81l89 -92l89 92h81l-137 -146h-66z" />
    <glyph glyph-name="uni02C9" unicode="&#x2c9;" horiz-adv-x="352" 
d="M30 704h292v-62h-292v62z" />
    <glyph glyph-name="breve" unicode="&#x2d8;" horiz-adv-x="389" 
d="M194 607q-70 0 -113.5 37t-51.5 102h75q5 -35 29 -55t61 -20t61 20t29 55h75q-8 -65 -51.5 -102t-113.5 -37z" />
    <glyph glyph-name="dotaccent" unicode="&#x2d9;" horiz-adv-x="233" 
d="M116 607q-24 0 -40.5 16.5t-16.5 40.5t16.5 40.5t40.5 16.5h1q24 0 40.5 -16.5t16.5 -40.5t-16.5 -40.5t-40.5 -16.5h-1z" />
    <glyph glyph-name="ring" unicode="&#x2da;" horiz-adv-x="286" 
d="M143 584q-49 0 -81 31t-32 79t32 79t81 31t81 -31t32 -79t-32 -79t-81 -31zM143 636q25 0 41 16.5t16 41.5t-16 41.5t-41 16.5t-41 -16.5t-16 -41.5t16 -41.5t41 -16.5z" />
    <glyph glyph-name="ogonek" unicode="&#x2db;" horiz-adv-x="260" 
d="M41 -113q0 45 30.5 78.5t99.5 69.5l41 -35q-57 -29 -83 -50.5t-26 -51.5q0 -26 16.5 -40.5t43.5 -14.5q15 0 30 4.5t25 13.5l19 -57q-35 -23 -81 -23q-54 0 -84.5 29t-30.5 77z" />
    <glyph glyph-name="tilde" unicode="&#x2dc;" horiz-adv-x="350" 
d="M116 660q-38 0 -38 -65h-58q0 64 25 94.5t69 30.5q28 0 44 -10.5t27.5 -23t22 -23t26.5 -10.5q38 0 38 66h58q0 -64 -25 -95t-69 -31q-28 0 -44 10.5t-27.5 23t-21.5 23t-27 10.5z" />
    <glyph glyph-name="uni0400" unicode="&#x400;" 
d="M92 700h428v-81h-341v-214h309v-81h-309v-243h341v-81h-428v700zM206 946h84l84 -146h-78z" />
    <glyph glyph-name="uni0401" unicode="&#x401;" 
d="M92 700h428v-81h-341v-214h309v-81h-309v-243h341v-81h-428v700zM218 784q-25 0 -42 17t-17 42t17 42t42 17t42 -17t17 -42t-17 -42t-42 -17zM413 784q-25 0 -42 17t-17 42t17 42t42 17t42 -17t17 -42t-17 -42t-42 -17z" />
    <glyph glyph-name="uni0402" unicode="&#x402;" horiz-adv-x="753" 
d="M277 0h-87v619h-148v81h540v-81h-305v-240q38 26 80.5 39.5t93.5 13.5q61 0 108 -20.5t79.5 -57t49.5 -88.5t17 -115q0 -128 -66.5 -203.5t-194.5 -95.5l-13 81q93 14 140.5 69.5t47.5 148.5q0 94 -47.5 148.5t-132.5 54.5q-46 0 -88.5 -16.5t-73.5 -45.5v-292z" />
    <glyph glyph-name="uni0403" unicode="&#x403;" horiz-adv-x="540" 
d="M92 700h410v-81h-323v-619h-87v700zM356 930h94l-111 -141h-88z" />
    <glyph glyph-name="uni0404" unicode="&#x404;" horiz-adv-x="760" 
d="M417.021 -16q102.994 0 182.489 47t122.492 134l-73.9951 42q-34.998 -69 -92.4941 -105q-57.4971 -36 -136.492 -36q-55.9961 0 -103.493 18t-82.4951 51t-56.4971 79q-21.498 46 -26.498 102h392.977v76h-392.977q6 55 28.498 99.5q22.499 44.5 57.4971 76t81.4951 49
t102.493 17.5q77.9951 0 134.992 -35q56.9961 -35 91.9941 -102l72.9951 44q-43.9971 84 -122.992 129.5t-179.989 45.5q-76.9951 0 -142.491 -27t-112.993 -75.5t-74.4951 -115.5t-26.998 -148t26.998 -148t74.4951 -115.5t112.993 -75.5t142.491 -27z" />
    <glyph glyph-name="uni0405" unicode="&#x405;" horiz-adv-x="619" 
d="M312 -16q-199 0 -278 166l75 44q60 -130 205 -130q77 0 122 33t45 90q0 35 -18 57.5t-47 37.5t-66.5 24.5t-76 20t-76 23.5t-66.5 34t-47 52.5t-18 78.5q0 45 17 82.5t48 63.5t75 40.5t97 14.5q87 0 153.5 -38.5t102.5 -110.5l-73 -45q-56 114 -184 114q-69 0 -110.5 -31
t-41.5 -82q0 -44 30.5 -67t77 -37.5t100 -26t100 -33t77 -59t30.5 -103.5q0 -49 -17.5 -88.5t-50.5 -67t-80 -42.5t-105 -15z" />
    <glyph glyph-name="uni0406" unicode="&#x406;" horiz-adv-x="268" 
d="M91 700h87v-700h-87v700z" />
    <glyph glyph-name="uni0407" unicode="&#x407;" horiz-adv-x="267" 
d="M90 700h87v-700h-87v700zM36 784q-25 0 -42 17t-17 42t17 42t42 17t42 -17t17 -42t-17 -42t-42 -17zM231 784q-25 0 -42 17t-17 42t17 42t42 17t42 -17t17 -42t-17 -42t-42 -17z" />
    <glyph glyph-name="uni0408" unicode="&#x408;" horiz-adv-x="581" 
d="M275 68q61 0 98.5 41t37.5 111v480h86v-491q0 -50 -16 -91t-45 -70.5t-70 -45.5t-91 -16t-91 16.5t-70 47.5t-45 76t-16 103v24l86 7v-24q0 -83 37 -125.5t99 -42.5z" />
    <glyph glyph-name="uni0409" unicode="&#x409;" horiz-adv-x="1070" 
d="M36 -8v89h8q31 0 53.5 14t37 54t21.5 111t7 185v255h446v-245h183q52 0 94.5 -16.5t72.5 -46.5t46.5 -72t16.5 -93t-16.5 -93t-47 -71.5t-73.5 -46t-95 -16.5h-264v619h-277v-206q0 -118 -11 -198.5t-35 -130t-60.5 -71t-87.5 -21.5h-19zM609 377v-299h172q75 0 116 41.5
t41 106.5q0 66 -41 108.5t-116 42.5h-172z" />
    <glyph glyph-name="uni040A" unicode="&#x40a;" horiz-adv-x="1073" 
d="M612 80h172q75 0 116 38t41 98q0 61 -41 100t-116 39h-172v-275zM92 0v700h87v-263h350v263h83v-265h183q52 0 94.5 -16t72.5 -44.5t46.5 -68.5t16.5 -89t-16.5 -89t-46.5 -68.5t-72.5 -44t-94.5 -15.5h-266v357h-350v-357h-87z" />
    <glyph glyph-name="uni040B" unicode="&#x40b;" horiz-adv-x="777" 
d="M276 0h-87v619h-147v81h540v-81h-306v-241q38 26 83 40t98 14q112 0 175 -64t63 -185v-183h-87v178q0 82 -42 129t-120 47q-51 0 -95 -17.5t-75 -46.5v-290z" />
    <glyph glyph-name="uni040C" unicode="&#x40c;" horiz-adv-x="641" 
d="M360 370l255 -370h-105l-224 326h-111v-326h-87v700h87v-293h112l222 293h104zM396 930h94l-111 -141h-88z" />
    <glyph glyph-name="uni040D" unicode="&#x40d;" horiz-adv-x="740" 
d="M624 0h-88v558l-361 -558h-91v700h88v-558l361 558h91v-700zM332 789l-111 141h94l105 -141h-88z" />
    <glyph glyph-name="uni040E" unicode="&#x40e;" horiz-adv-x="601" 
d="M312 306l169 394h94l-312 -700h-88l94 211l-243 489h95zM304 785q-79 0 -128 38.5t-59 107.5h77q5 -37 35 -59t75 -22t74 22t34 59h77q-10 -69 -58 -107.5t-127 -38.5z" />
    <glyph glyph-name="uni040F" unicode="&#x40f;" horiz-adv-x="716" 
d="M179 700v-619h358v619h87v-700h-223v-148h-86v148h-223v700h87z" />
    <glyph glyph-name="uni0410" unicode="&#x410;" horiz-adv-x="662" 
d="M208 262h245l-122 347zM379 700l257 -700h-91l-66 186h-297l-66 -186h-90l257 700h96z" />
    <glyph glyph-name="uni0411" unicode="&#x411;" horiz-adv-x="614" 
d="M162 334v-254h182q62 0 100 35t38 92q0 59 -37.5 93t-100.5 34h-182zM79 700h423v-82h-340v-204h183q51 0 91.5 -15t69.5 -42t44.5 -65.5t15.5 -85.5q0 -46 -15.5 -84t-44.5 -65t-69.5 -42t-91.5 -15h-266v700z" />
    <glyph glyph-name="uni0412" unicode="&#x412;" horiz-adv-x="637" 
d="M175 322v-244h198q60 0 96 34t36 90q0 53 -36 86.5t-96 33.5h-198zM175 400h179q55 0 88 31.5t33 82.5q0 48 -33 78t-88 30h-179v-222zM92 700h269q45 0 81.5 -12t62.5 -35t40 -56t14 -75q0 -111 -104 -153q66 -19 100 -65t34 -112q0 -45 -15.5 -80.5t-43.5 -60t-67 -38
t-86 -13.5h-285v700z" />
    <glyph glyph-name="uni0413" unicode="&#x413;" horiz-adv-x="540" 
d="M92 700h410v-81h-323v-619h-87v700z" />
    <glyph glyph-name="uni0414" unicode="&#x414;" horiz-adv-x="762" 
d="M539 81v538h-284v-118q0 -127 -11 -234.5t-44 -185.5h339zM42 -154v235h64q19 30 31 75.5t19 102.5t10 123.5t3 138.5v179h457v-619h94v-235h-86v154h-506v-154h-86z" />
    <glyph glyph-name="uni0415" unicode="&#x415;" 
d="M92 700h428v-81h-341v-214h309v-81h-309v-243h341v-81h-428v700z" />
    <glyph glyph-name="uni0416" unicode="&#x416;" horiz-adv-x="955" 
d="M827 0l-194 326h-112v-326h-87v326h-113l-193 -326h-102l223 368l-212 332h102l181 -293h114v293h87v-293h113l182 293h102l-212 -332l223 -368h-102z" />
    <glyph glyph-name="uni0417" unicode="&#x417;" horiz-adv-x="610" 
d="M302 -16q-197 0 -280 177l76 39q31 -70 81 -103t123 -33q81 0 128 36.5t47 96.5q0 55 -39.5 88.5t-102.5 33.5h-146v82h142q60 0 96.5 30.5t36.5 81.5q0 55 -44 89t-118 34q-65 0 -110.5 -29t-73.5 -90l-77 37q40 83 106.5 122.5t156.5 39.5q56 0 101.5 -14.5t77.5 -40.5
t49 -61.5t17 -77.5q0 -56 -29.5 -97t-83.5 -61q126 -46 126 -169q0 -47 -18.5 -86t-52.5 -66.5t-82 -43t-107 -15.5z" />
    <glyph glyph-name="uni0418" unicode="&#x418;" horiz-adv-x="724" 
d="M632 0h-88v558l-361 -558h-91v700h88v-558l361 558h91v-700z" />
    <glyph glyph-name="uni0419" unicode="&#x419;" horiz-adv-x="740" 
d="M624 0h-88v558l-361 -558h-91v700h88v-558l361 558h91v-700zM371 785q-79 0 -128 38.5t-59 107.5h77q5 -37 35 -59t75 -22t74 22t34 59h77q-10 -69 -58 -107.5t-127 -38.5z" />
    <glyph glyph-name="uni041A" unicode="&#x41a;" horiz-adv-x="645" 
d="M364 370l255 -370h-105l-224 326h-111v-326h-87v700h87v-293h112l222 293h104z" />
    <glyph glyph-name="uni041B" unicode="&#x41b;" horiz-adv-x="708" 
d="M28 82h8q36 0 60.5 15.5t38.5 56.5t20 112t6 181v253h455v-700h-87v619h-282v-202q0 -119 -10.5 -200t-34 -130.5t-62 -70.5t-94.5 -21h-18v87z" />
    <glyph glyph-name="uni041C" unicode="&#x41c;" horiz-adv-x="878" 
d="M440 196l234 504h112v-700h-86v572l-227 -491h-68l-227 491v-572h-86v700h114z" />
    <glyph glyph-name="uni041D" unicode="&#x41d;" horiz-adv-x="716" 
d="M92 700h87v-289h358v289h87v-700h-87v330h-358v-330h-87v700z" />
    <glyph glyph-name="uni041E" unicode="&#x41e;" horiz-adv-x="829" 
d="M415 -16q-76 0 -141.5 27.5t-112.5 76t-74 116t-27 146.5q0 80 27 147t74 115.5t112.5 76t141.5 27.5q77 0 141.5 -27.5t112 -76t74 -115.5t26.5 -147q0 -79 -26.5 -146.5t-74 -116t-112 -76t-141.5 -27.5zM415 66q59 0 108 21t84 58.5t54.5 89.5t19.5 115t-19.5 115.5
t-54.5 90t-84 58t-108 20.5t-108 -20.5t-84.5 -58t-55 -90t-19.5 -115.5t19.5 -115t55 -89.5t84.5 -58.5t108 -21z" />
    <glyph glyph-name="uni041F" unicode="&#x41f;" horiz-adv-x="716" 
d="M92 700h532v-700h-87v619h-358v-619h-87v700z" />
    <glyph glyph-name="uni0420" unicode="&#x420;" horiz-adv-x="627" 
d="M175 336h176q65 0 104.5 38t39.5 104q0 32 -10.5 58t-29.5 44.5t-45.5 29t-58.5 10.5h-176v-284zM92 0v700h262q50 0 91.5 -16t71 -45t46 -69.5t16.5 -90.5t-16.5 -91t-46 -70.5t-71 -45.5t-91.5 -16h-179v-256h-83z" />
    <glyph glyph-name="uni0421" unicode="&#x421;" horiz-adv-x="760" 
d="M417 -16q-77 0 -142.5 27t-113 75.5t-74.5 115.5t-27 148t27 148t74.5 115.5t113 75.5t142.5 27q101 0 180 -45.5t124 -130.5l-75 -42q-35 66 -91.5 101t-134.5 35q-61 0 -111 -20.5t-86 -58t-55.5 -90t-19.5 -115.5t19.5 -115.5t55.5 -90t86 -58t110 -20.5
q79 0 136.5 36t92.5 105l74 -42q-43 -87 -122.5 -134t-182.5 -47z" />
    <glyph glyph-name="uni0422" unicode="&#x422;" horiz-adv-x="595" 
d="M557 700v-81h-216v-619h-87v619h-216v81h519z" />
    <glyph glyph-name="uni0423" unicode="&#x423;" horiz-adv-x="601" 
d="M312 306l169 394h94l-312 -700h-88l94 211l-243 489h95z" />
    <glyph glyph-name="uni0424" unicode="&#x424;" horiz-adv-x="888" 
d="M402 576q-121 -1 -188.5 -60.5t-67.5 -162.5t67.5 -162.5t188.5 -60.5v446zM486 130q121 1 188.5 60.5t67.5 162.5t-67.5 162.5t-188.5 60.5v-446zM486 -14h-84v66q-79 0 -142.5 21.5t-108 61t-68 95t-23.5 123.5t23.5 123.5t68 95t108 61t142.5 21.5v60h84v-60
q80 0 143 -21.5t107.5 -61t68 -95t23.5 -123.5t-23.5 -123.5t-68 -95t-107.5 -61t-143 -21.5v-66z" />
    <glyph glyph-name="uni0425" unicode="&#x425;" horiz-adv-x="626" 
d="M26 0l235 363l-218 337h98l174 -274l173 274h95l-218 -337l235 -363h-100l-188 298l-189 -298h-97z" />
    <glyph glyph-name="uni0426" unicode="&#x426;" horiz-adv-x="754" 
d="M179 700v-619h352v619h87v-619h94v-235h-86v154h-534v700h87z" />
    <glyph glyph-name="uni0427" unicode="&#x427;" horiz-adv-x="691" 
d="M599 0h-87v310q-40 -27 -86.5 -41.5t-101.5 -14.5q-115 0 -181.5 65t-66.5 193v188h87v-182q0 -88 43.5 -134t127.5 -46q52 0 99.5 17.5t78.5 45.5v299h87v-700z" />
    <glyph glyph-name="uni0428" unicode="&#x428;" horiz-adv-x="953" 
d="M92 700h87v-619h254v619h87v-619h254v619h87v-700h-769v700z" />
    <glyph glyph-name="uni0429" unicode="&#x429;" horiz-adv-x="997" 
d="M92 700h87v-620h254v620h87v-620h254v620h87v-620h94v-234h-86v154h-777v700z" />
    <glyph glyph-name="uni042A" unicode="&#x42a;" horiz-adv-x="753" 
d="M209 0v619h-154v81h237v-256h181q53 0 96 -16t73 -45.5t46.5 -70t16.5 -90.5q0 -49 -16.5 -90t-46.5 -70.5t-73 -45.5t-96 -16h-264zM292 80h175q71 0 112.5 38t41.5 104t-41.5 104t-112.5 38h-175v-284z" />
    <glyph glyph-name="uni042B" unicode="&#x42b;" horiz-adv-x="861" 
d="M769 700v-700h-83v700h83zM92 0v700h83v-256h175q53 0 96 -16t73 -45.5t46.5 -70t16.5 -90.5q0 -49 -16.5 -90t-46.5 -70.5t-73 -45.5t-96 -16h-258zM175 80h169q71 0 112.5 38t41.5 104t-41.5 104t-112.5 38h-169v-284z" />
    <glyph glyph-name="uni042C" unicode="&#x42c;" horiz-adv-x="636" 
d="M92 0v700h83v-256h181q53 0 96 -16t73 -45.5t46.5 -70t16.5 -90.5q0 -49 -16.5 -90t-46.5 -70.5t-73 -45.5t-96 -16h-264zM175 80h175q71 0 112.5 38t41.5 104t-41.5 104t-112.5 38h-175v-284z" />
    <glyph glyph-name="uni042D" unicode="&#x42d;" horiz-adv-x="760" 
d="M343 -16q-103 0 -182.5 47t-122.5 134l74 42q35 -69 92.5 -105t136.5 -36q56 0 103.5 18t82.5 51t56.5 79t26.5 102h-393v76h393q-6 55 -28.5 99.5t-57.5 76t-81.5 49t-102.5 17.5q-78 0 -135 -35t-92 -102l-73 44q44 84 123 129.5t180 45.5q77 0 142.5 -27t113 -75.5
t74.5 -115.5t27 -148t-27 -148t-74.5 -115.5t-113 -75.5t-142.5 -27z" />
    <glyph glyph-name="uni042E" unicode="&#x42e;" horiz-adv-x="1103" 
d="M689 68q58 0 106.5 20.5t84 58t55.5 89.5t20 114q0 60 -20 112t-55.5 89.5t-84 59t-106.5 21.5t-107 -21.5t-84.5 -59t-55.5 -89.5t-20 -112q0 -62 20 -114t55.5 -89.5t84.5 -58t107 -20.5zM689 -14q-73 0 -136 25.5t-110.5 71.5t-75.5 108.5t-32 135.5h-156v-327h-87
v700h87v-292h159q9 67 39.5 123t76.5 96.5t106 63.5t129 23q76 0 141 -27.5t112 -76.5t74 -115.5t27 -144.5t-27 -144.5t-74 -115.5t-112 -76.5t-141 -27.5z" />
    <glyph glyph-name="uni042F" unicode="&#x42f;" horiz-adv-x="634" 
d="M459 336v284h-176q-32 0 -58.5 -10.5t-45.5 -29t-29.5 -44.5t-10.5 -58q0 -66 39.5 -104t104.5 -38h176zM542 0h-83v256h-159l-176 -256h-98l185 265q-72 19 -114 75.5t-42 138.5q0 50 16.5 90.5t46 69.5t71 45t91.5 16h262v-700z" />
    <glyph glyph-name="uni0430" unicode="&#x430;" horiz-adv-x="540" 
d="M390 237l-119 -6q-147 -8 -147 -91q0 -38 28.5 -59.5t75.5 -21.5q35 0 64.5 12t51 33t34 49t12.5 60v24zM42 135q0 72 56.5 115.5t166.5 48.5l125 6v7q0 61 -34.5 95t-95.5 34q-95 0 -136 -84l-68 34q26 59 80 91t126 32q47 0 85.5 -14t65.5 -39t42 -60.5t15 -79.5v-321
h-80v80q-27 -46 -71.5 -70t-103.5 -24q-39 0 -71 10.5t-54.5 30t-35 47t-12.5 61.5z" />
    <glyph glyph-name="uni0431" unicode="&#x431;" horiz-adv-x="611" 
d="M315 61q37 0 68 13t53.5 37t35 57t12.5 73t-12.5 73t-35 57t-53.5 37t-68 13t-68.5 -13t-54 -37t-35 -57t-12.5 -73t12.5 -73t35 -57t54 -37t68.5 -13zM314 -14q-60 0 -108 21.5t-81 62t-51 98.5t-18 130v32q0 92 17 159.5t53 113t92 70.5t134 31l170 14l4 -78l-167 -13
q-58 -4 -99.5 -20t-68.5 -45t-41 -72.5t-16 -104.5q29 54 78 82t115 28q53 0 96.5 -18.5t75 -52t49 -80t17.5 -102.5q0 -57 -18 -104t-51 -81t-79.5 -52.5t-102.5 -18.5z" />
    <glyph glyph-name="uni0432" unicode="&#x432;" horiz-adv-x="506" 
d="M152 70h156q35 0 58.5 20t23.5 58q0 37 -23.5 57.5t-58.5 20.5h-156v-156zM152 294h148q33 0 52 19t19 49q0 29 -19 48.5t-52 19.5h-148v-136zM76 0v500h226q66 0 106 -36t40 -95q0 -38 -18.5 -64.5t-50.5 -40.5q42 -12 65.5 -44.5t23.5 -80.5q0 -63 -43 -101t-115 -38
h-234z" />
    <glyph glyph-name="uni0433" unicode="&#x433;" horiz-adv-x="402" 
d="M76 500h306v-75h-225v-425h-81v500z" />
    <glyph glyph-name="uni0434" unicode="&#x434;" horiz-adv-x="596" 
d="M409 75v350h-202v-57q0 -57 -2.5 -101.5t-7 -80t-12 -62.5t-17.5 -49h241zM28 -130v205h54q12 16 20.5 40t14 63t8 95.5t2.5 137.5v89h363v-425h78v-205h-80v130h-380v-130h-80z" />
    <glyph glyph-name="uni0435" unicode="&#x435;" horiz-adv-x="584" 
d="M133 299h323q-1 30 -13.5 56t-33 44.5t-48.5 29t-61 10.5q-66 0 -109.5 -38.5t-57.5 -101.5zM305 -14q-58 0 -105.5 19.5t-81.5 54.5t-53 83t-19 105q0 58 19 106.5t53.5 84t81.5 55.5t102 20q53 0 96.5 -17.5t74.5 -49.5t48.5 -76.5t17.5 -98.5q0 -21 -3 -44h-407
q6 -75 54 -120.5t123 -45.5q95 0 148 82l64 -48q-76 -110 -213 -110z" />
    <glyph glyph-name="uni0436" unicode="&#x436;" horiz-adv-x="755" 
d="M254 296h83v204h81v-204h83l135 204h88l-159 -238l170 -262h-90l-143 222h-84v-222h-81v222h-84l-143 -222h-90l170 262l-159 238h88z" />
    <glyph glyph-name="uni0437" unicode="&#x437;" horiz-adv-x="469" 
d="M233 -14q-156 0 -215 137l70 30q40 -97 145 -97q55 0 88.5 23.5t33.5 63.5q0 38 -28 59.5t-73 21.5h-106v71h106q41 0 65.5 18.5t24.5 50.5q0 35 -29.5 57.5t-80.5 22.5q-95 0 -133 -87l-69 31q29 63 81 94.5t124 31.5q84 0 133 -39.5t49 -104.5q0 -80 -76 -110
q42 -13 65 -44.5t23 -76.5q0 -35 -14.5 -63.5t-40.5 -48.5t-62.5 -30.5t-80.5 -10.5z" />
    <glyph glyph-name="uni0438" unicode="&#x438;" horiz-adv-x="578" 
d="M157 500v-382l263 382h82v-500h-81v382l-263 -382h-82v500h81z" />
    <glyph glyph-name="uni0439" unicode="&#x439;" horiz-adv-x="578" 
d="M157 500v-382l263 382h82v-500h-81v382l-263 -382h-82v500h81zM289 607q-70 0 -113.5 37t-51.5 102h75q5 -35 29 -55t61 -20t61 20t29 55h75q-8 -65 -51.5 -102t-113.5 -37z" />
    <glyph glyph-name="uni043A" unicode="&#x43a;" horiz-adv-x="522" 
d="M239 221h-82v-221h-81v500h81v-205h81l167 205h93l-195 -237l199 -263h-97z" />
    <glyph glyph-name="uni043B" unicode="&#x43b;" horiz-adv-x="562" 
d="M24 76h12q26 0 43 11t26.5 38.5t13.5 74t4 116.5v184h363v-500h-81v425h-202v-129q0 -82 -8.5 -139t-27 -92.5t-49 -51t-74.5 -15.5h-20v78z" />
    <glyph glyph-name="uni043C" unicode="&#x43c;" horiz-adv-x="680" 
d="M341 167l163 333h100v-500h-78v380l-154 -311h-64l-154 311v-380h-78v500h102z" />
    <glyph glyph-name="uni043D" unicode="&#x43d;" horiz-adv-x="572" 
d="M496 500v-500h-81v228h-258v-228h-81v500h81v-197h258v197h81z" />
    <glyph glyph-name="uni043E" unicode="&#x43e;" horiz-adv-x="608" 
d="M304 -14q-57 0 -104 20t-81.5 55.5t-53.5 84t-19 104.5t19 104.5t53.5 84t81.5 55.5t104 20t104 -20t81.5 -55.5t53.5 -84t19 -104.5t-19 -104.5t-53.5 -84t-81.5 -55.5t-104 -20zM304 62q39 0 71.5 14t55.5 39.5t36 60t13 74.5q0 41 -13 75t-36 59.5t-55.5 39.5
t-71.5 14t-71.5 -14t-55.5 -39.5t-36 -59.5t-13 -75q0 -40 13 -74.5t36 -60t55.5 -39.5t71.5 -14z" />
    <glyph glyph-name="uni043F" unicode="&#x43f;" horiz-adv-x="572" 
d="M76 500h420v-500h-81v425h-258v-425h-81v500z" />
    <glyph glyph-name="uni0440" unicode="&#x440;" horiz-adv-x="638" 
d="M332 62q39 0 71 14t55 39.5t35.5 60t12.5 74.5q0 41 -12.5 75t-35.5 59.5t-55 39.5t-71 14t-71 -14t-55 -39.5t-35.5 -59.5t-12.5 -75q0 -40 12.5 -74.5t35.5 -60t55 -39.5t71 -14zM343 -14q-60 0 -107.5 26t-77.5 73v-285h-81v700h81v-85q30 47 77.5 73t107.5 26
q52 0 97 -20t78 -55t51.5 -83.5t18.5 -105.5t-18.5 -105.5t-51.5 -83.5t-78 -55t-97 -20z" />
    <glyph glyph-name="uni0441" unicode="&#x441;" horiz-adv-x="561" 
d="M46 250q0 57 18.5 105.5t52.5 83.5t81.5 55t105.5 20q74 0 129.5 -32.5t87.5 -95.5l-69 -39q-45 91 -146 91q-40 0 -73 -14t-56 -39.5t-36 -59.5t-13 -75q0 -40 13 -74.5t36 -60t55.5 -39.5t72.5 -14q51 0 88.5 24t59.5 72l70 -38q-32 -66 -88 -100t-131 -34
q-58 0 -105.5 20t-81.5 55t-52.5 83.5t-18.5 105.5z" />
    <glyph glyph-name="uni0442" unicode="&#x442;" horiz-adv-x="464" 
d="M444 500v-74h-172v-426h-80v426h-172v74h424z" />
    <glyph glyph-name="uni0443" unicode="&#x443;" horiz-adv-x="506" 
d="M134 -200l82 209l-196 491h86l151 -389l144 389h85l-268 -700h-84z" />
    <glyph glyph-name="uni0444" unicode="&#x444;" horiz-adv-x="695" 
d="M308 722h79v-209q60 -2 108.5 -22.5t82.5 -56t52.5 -82.5t18.5 -102t-18.5 -102t-52.5 -82.5t-82.5 -56t-108.5 -22.5v-187h-79v187q-60 2 -108.5 22.5t-82.5 56t-52.5 82.5t-18.5 102t18.5 102t52.5 82.5t82.5 56t108.5 22.5v209zM387 62q40 1 73.5 15t57.5 39t37.5 59
t13.5 75t-13.5 75t-37.5 59t-57.5 39t-73.5 15v-376zM308 62v376q-40 -1 -73.5 -15t-57.5 -39t-37.5 -59t-13.5 -75t13.5 -75t37.5 -59t57.5 -39t73.5 -15z" />
    <glyph glyph-name="uni0445" unicode="&#x445;" horiz-adv-x="504" 
d="M301 253l183 -253h-93l-139 204l-140 -204h-92l183 253l-171 247h91l130 -196l129 196h90z" />
    <glyph glyph-name="uni0446" unicode="&#x446;" horiz-adv-x="598" 
d="M76 0v500h81v-425h254v425h81v-425h78v-205h-80v130h-414z" />
    <glyph glyph-name="uni0447" unicode="&#x447;" horiz-adv-x="548" 
d="M472 0h-81v215q-28 -21 -65 -32.5t-82 -11.5q-96 0 -143 52.5t-47 142.5v134h81v-114q0 -78 32.5 -109t86.5 -31q41 0 77.5 14t59.5 37v203h81v-500z" />
    <glyph glyph-name="uni0448" unicode="&#x448;" horiz-adv-x="755" 
d="M76 0v500h81v-425h180v425h81v-425h180v425h81v-500h-603z" />
    <glyph glyph-name="uni0449" unicode="&#x449;" horiz-adv-x="783" 
d="M76 0v500h81v-425h180v425h81v-425h180v425h81v-425h78v-205h-80v130h-601z" />
    <glyph glyph-name="uni044A" unicode="&#x44a;" horiz-adv-x="584" 
d="M230 500v-168h136q39 0 71 -12t55 -34t35.5 -52.5t12.5 -67.5q0 -36 -12.5 -66.5t-35.5 -52.5t-54.5 -34.5t-70.5 -12.5h-214v425h-133v75h210zM230 71h130q48 0 75 26.5t27 69.5q0 42 -27 68t-75 26h-130v-190z" />
    <glyph glyph-name="uni044B" unicode="&#x44b;" horiz-adv-x="702" 
d="M545 500h81v-500h-81v500zM153 71h126q48 0 75 26.5t27 69.5q0 42 -27 68t-75 26h-126v-190zM287 0h-211v500h77v-168h132q39 0 71 -12t55 -34t35.5 -52.5t12.5 -67.5q0 -36 -12.5 -66.5t-35 -52.5t-54 -34.5t-70.5 -12.5z" />
    <glyph glyph-name="uni044C" unicode="&#x44c;" horiz-adv-x="507" 
d="M153 71h130q48 0 75 27t27 69t-27 68t-75 26h-130v-190zM290 0h-214v500h77v-168h136q39 0 71 -12t55 -34t35.5 -52.5t12.5 -67.5q0 -36 -12.5 -66.5t-35 -52.5t-54.5 -34.5t-71 -12.5z" />
    <glyph glyph-name="uni044D" unicode="&#x44d;" horiz-adv-x="560" 
d="M256 -14q-74 0 -129 33.5t-87 96.5l64 37q24 -45 63.5 -69t90.5 -24q70 0 117 43t57 114h-262v70h261q-11 69 -57.5 111t-115.5 42q-51 0 -90.5 -24t-63.5 -69l-64 37q32 63 87 96.5t129 33.5q57 0 104.5 -20t81.5 -55t53 -83.5t19 -105.5t-19 -105.5t-53 -83.5
t-81.5 -55t-104.5 -20z" />
    <glyph glyph-name="uni044E" unicode="&#x44e;" horiz-adv-x="827" 
d="M526 62q37 0 68.5 14t55 39.5t36.5 60t13 74.5q0 41 -13 75t-36.5 59.5t-55 39.5t-68.5 14t-68.5 -14t-55 -39.5t-36.5 -59.5t-13 -75q0 -40 13 -74.5t36.5 -60t55 -39.5t68.5 -14zM528 -14q-51 0 -94.5 17t-76.5 48t-53.5 73t-26.5 91h-109v-215h-80v500h80v-211h109
q6 49 27 90t54 71t76 47t94 17q56 0 102 -20t80 -55.5t52.5 -84t18.5 -104.5t-18.5 -104.5t-52.5 -84t-80 -55.5t-102 -20z" />
    <glyph glyph-name="uni044F" unicode="&#x44f;" horiz-adv-x="505" 
d="M349 427h-129q-48 0 -75 -25.5t-27 -65.5t27 -65t75 -25h129v181zM212 500h217v-500h-80v173h-117l-114 -173h-93l121 183q-51 17 -79.5 57t-28.5 96q0 36 12.5 66.5t35.5 52t55 33.5t71 12z" />
    <glyph glyph-name="uni0450" unicode="&#x450;" horiz-adv-x="586" 
d="M133 299h323q-1 30 -13.5 56t-33 44.5t-48.5 29t-61 10.5q-66 0 -109.5 -38.5t-57.5 -101.5zM305 -14q-58 0 -105.5 19.5t-81.5 54.5t-53 83t-19 105q0 58 19 106.5t53.5 84t81.5 55.5t102 20q53 0 96.5 -17.5t74.5 -49.5t48.5 -76.5t17.5 -98.5q0 -21 -3 -44h-407
q6 -75 54 -120.5t123 -45.5q95 0 148 82l64 -48q-76 -110 -213 -110zM175 746h84l84 -146h-78z" />
    <glyph glyph-name="uni0451" unicode="&#x451;" horiz-adv-x="586" 
d="M133 299h323q-1 30 -13.5 56t-33 44.5t-48.5 29t-61 10.5q-66 0 -109.5 -38.5t-57.5 -101.5zM305 -14q-58 0 -105.5 19.5t-81.5 54.5t-53 83t-19 105q0 58 19 106.5t53.5 84t81.5 55.5t102 20q53 0 96.5 -17.5t74.5 -49.5t48.5 -76.5t17.5 -98.5q0 -21 -3 -44h-407
q6 -75 54 -120.5t123 -45.5q95 0 148 82l64 -48q-76 -110 -213 -110zM200 607q-24 0 -40.5 16.5t-16.5 40.5t16.5 40.5t40.5 16.5t40.5 -16.5t16.5 -40.5t-16.5 -40.5t-40.5 -16.5zM404 607q-24 0 -40.5 16.5t-16.5 40.5t16.5 40.5t40.5 16.5t40.5 -16.5t16.5 -40.5
t-16.5 -40.5t-40.5 -16.5z" />
    <glyph glyph-name="uni0452" unicode="&#x452;" horiz-adv-x="604" 
d="M30 630h78v92h80v-92h168v-66h-168v-157q47 93 156 93q44 0 79 -15t60 -42.5t38 -67t13 -87.5v-300q0 -194 -168 -194h-29v78h20q54 0 75.5 28t21.5 100v267q0 76 -31.5 117t-91.5 41q-32 0 -58.5 -11.5t-45 -32.5t-29 -50t-10.5 -64v-267h-80v564h-78v66z" />
    <glyph glyph-name="uni0453" unicode="&#x453;" horiz-adv-x="402" 
d="M76 500h306v-75h-225v-425h-81v500zM268 744h84l-90 -146h-78z" />
    <glyph glyph-name="uni0454" unicode="&#x454;" horiz-adv-x="560" 
d="M304 -14q-57 0 -104.5 20t-81.5 55t-53 83.5t-19 105.5t19 105.5t53 83.5t81.5 55t104.5 20q74 0 129 -33.5t87 -96.5l-64 -37q-24 45 -63.5 69t-90.5 24q-69 0 -115.5 -42t-57.5 -111h261v-70h-262q10 -71 57 -114t117 -43q51 0 90.5 24t63.5 69l64 -37
q-32 -63 -87 -96.5t-129 -33.5z" />
    <glyph glyph-name="uni0455" unicode="&#x455;" horiz-adv-x="493" 
d="M252 -14q-75 0 -129.5 31.5t-84.5 92.5l64 38q49 -91 151 -91q53 0 85 21.5t32 57.5q0 31 -23 47t-57.5 26t-74.5 18.5t-74.5 23.5t-57.5 41t-23 72q0 33 13 60.5t37 47.5t58 31t76 11q68 0 117.5 -29t78.5 -85l-64 -37q-41 80 -132 80q-52 0 -80 -21.5t-28 -52.5
q0 -29 23 -43.5t57.5 -23.5t74.5 -17t74.5 -24t57.5 -43.5t23 -75.5q0 -72 -52.5 -114t-141.5 -42z" />
    <glyph glyph-name="uni0456" unicode="&#x456;" horiz-adv-x="233" 
d="M76 500h81v-500h-81v500zM117 607h-1q-24 0 -40.5 16.5t-16.5 40.5t16.5 40.5t40.5 16.5h1q24 0 40.5 -16.5t16.5 -40.5t-16.5 -40.5t-40.5 -16.5z" />
    <glyph glyph-name="uni0457" unicode="&#x457;" horiz-adv-x="233" 
d="M76 500h81v-500h-81v500zM-25 664q0 23 16 39t39 16t39 -16t16 -39t-16 -39t-39 -16t-39 16t-16 39zM148 664q0 23 16 39t39 16t39 -16t16 -39t-16 -39t-39 -16t-39 16t-16 39z" />
    <glyph glyph-name="uni0458" unicode="&#x458;" horiz-adv-x="233" 
d="M76 500h81v-512q0 -194 -169 -194h-29v78h20q54 0 75.5 28t21.5 100v500zM116 607q-24 0 -40.5 16.5t-16.5 40.5t16.5 40.5t40.5 16.5h1q24 0 40.5 -16.5t16.5 -40.5t-16.5 -40.5t-40.5 -16.5h-1z" />
    <glyph glyph-name="uni0459" unicode="&#x459;" horiz-adv-x="824" 
d="M475 72h123q48 0 75 27t27 70q0 42 -27 68t-75 26h-123v-191zM24 -6v78h12q26 0 43 11.5t27 39.5t14.5 75t4.5 117v185h350v-165h129q39 0 71 -12t55 -34t35.5 -53t12.5 -68t-12.5 -67.5t-35 -53t-54.5 -35t-71 -12.5h-206v426h-200v-132q0 -84 -8 -141t-26.5 -92.5
t-48 -51t-72.5 -15.5h-20z" />
    <glyph glyph-name="uni045A" unicode="&#x45a;" horiz-adv-x="845" 
d="M420 500h76v-177h137q36 0 66.5 -12t52.5 -33.5t34.5 -51t12.5 -64.5t-12.5 -65t-34.5 -51.5t-52.5 -33.5t-66.5 -12h-213v251h-252v-251h-80v500h80v-177h252v177zM496 72h130q42 0 68.5 26t26.5 65t-26.5 63.5t-68.5 24.5h-130v-179z" />
    <glyph glyph-name="uni045B" unicode="&#x45b;" horiz-adv-x="618" 
d="M32 630h78v92h80v-92h168v-66h-168v-157q47 93 156 93q44 0 79 -15t60 -42.5t38 -67t13 -87.5v-288h-80v267q0 76 -31.5 117t-91.5 41q-32 0 -58.5 -11.5t-45 -32.5t-29 -50t-10.5 -64v-267h-80v564h-78v66z" />
    <glyph glyph-name="uni045C" unicode="&#x45c;" horiz-adv-x="518" 
d="M239 221h-82v-221h-81v500h81v-205h81l167 205h93l-195 -237l199 -263h-97zM308 744h84l-90 -146h-78z" />
    <glyph glyph-name="uni045D" unicode="&#x45d;" horiz-adv-x="602" 
d="M169 500v-382l263 382h82v-500h-81v382l-263 -382h-82v500h81zM189 746h84l84 -146h-78z" />
    <glyph glyph-name="uni045E" unicode="&#x45e;" horiz-adv-x="506" 
d="M134 -200l82 209l-196 491h86l151 -389l144 389h85l-268 -700h-84zM253 607q-70 0 -113.5 37t-51.5 102h75q5 -35 29 -55t61 -20t61 20t29 55h75q-8 -65 -51.5 -102t-113.5 -37z" />
    <glyph glyph-name="uni045F" unicode="&#x45f;" horiz-adv-x="596" 
d="M88 0v500h80v-426h260v426h80v-500h-173v-130h-74v130h-173z" />
    <glyph glyph-name="uni0490" unicode="&#x490;" horiz-adv-x="544" 
d="M92 700h330v116h80v-197h-323v-619h-87v700z" />
    <glyph glyph-name="uni0491" unicode="&#x491;" horiz-adv-x="402" 
d="M308 610h74v-185h-225v-425h-81v500h232v110z" />
    <glyph glyph-name="uni04D8" unicode="&#x4d8;" horiz-adv-x="799" 
d="M139 301q3 -54 22 -97.5t52 -74.5t78 -48t99 -17t98.5 17t78.5 47.5t55 74.5t28 98h-511zM389 -16q-75 0 -137 25t-106.5 70t-68.5 108t-24 139q0 14 0.5 26t1.5 25h597q-4 59 -24.5 107t-55 82t-82 52t-105.5 18q-148 0 -225 -128l-72 47q48 78 124 119.5t175 41.5
q79 0 143.5 -26.5t111 -74.5t72 -115t25.5 -149t-25.5 -149.5t-71.5 -116t-110.5 -75t-142.5 -26.5z" />
    <glyph glyph-name="uni04D9" unicode="&#x4d9;" horiz-adv-x="584" 
d="M128 210q2 -69 43.5 -109t111.5 -40q69 0 114 39.5t56 109.5h-325zM283 -14q-54 0 -98 17.5t-75.5 49.5t-48.5 76.5t-17 97.5q0 16 1 30t3 25h406q-8 74 -53 115.5t-119 41.5q-98 0 -151 -79l-62 51q79 103 213 103q58 0 105 -19t80.5 -53.5t52 -83t18.5 -106.5
q0 -59 -18.5 -108t-52.5 -84t-81 -54.5t-103 -19.5z" />
    <glyph glyph-name="uni04DA" unicode="&#x4da;" horiz-adv-x="799" 
d="M139 301q3 -54 22 -97.5t52 -74.5t78 -48t99 -17t98.5 17t78.5 47.5t55 74.5t28 98h-511zM389 -16q-75 0 -137 25t-106.5 70t-68.5 108t-24 139q0 14 0.5 26t1.5 25h597q-4 59 -24.5 107t-55 82t-82 52t-105.5 18q-148 0 -225 -128l-72 47q48 78 124 119.5t175 41.5
q79 0 143.5 -26.5t111 -74.5t72 -115t25.5 -149t-25.5 -149.5t-71.5 -116t-110.5 -75t-142.5 -26.5zM302 784q-25 0 -42 17t-17 42t17 42t42 17t42 -17t17 -42t-17 -42t-42 -17zM497 784q-25 0 -42 17t-17 42t17 42t42 17t42 -17t17 -42t-17 -42t-42 -17z" />
    <glyph glyph-name="uni04DB" unicode="&#x4db;" horiz-adv-x="586" 
d="M130 210q2 -69 43.5 -109t111.5 -40q69 0 114 39.5t56 109.5h-325zM285 -14q-54 0 -98 17.5t-75.5 49.5t-48.5 76.5t-17 97.5q0 16 1 30t3 25h406q-8 74 -53 115.5t-119 41.5q-98 0 -151 -79l-62 51q79 103 213 103q58 0 105 -19t80.5 -53.5t52 -83t18.5 -106.5
q0 -59 -18.5 -108t-52.5 -84t-81 -54.5t-103 -19.5zM191 607q-24 0 -40.5 16.5t-16.5 40.5t16.5 40.5t40.5 16.5t40.5 -16.5t16.5 -40.5t-16.5 -40.5t-40.5 -16.5zM395 607q-24 0 -40.5 16.5t-16.5 40.5t16.5 40.5t40.5 16.5t40.5 -16.5t16.5 -40.5t-16.5 -40.5t-40.5 -16.5
z" />
    <glyph glyph-name="uni04DE" unicode="&#x4de;" horiz-adv-x="601" 
d="M209 -16q-197 0 -280 177l76 39q31 -70 81 -103t123 -33q81 0 128 36.5t47 96.5q0 55 -39.5 88.5t-102.5 33.5h-146v82h142q60 0 96.5 30.5t36.5 81.5q0 55 -44 89t-118 34q-65 0 -110.5 -29t-73.5 -90l-77 37q40 83 106.5 122.5t156.5 39.5q56 0 101.5 -14.5t77.5 -40.5
t49 -61.5t17 -77.5q0 -56 -29.5 -97t-83.5 -61q126 -46 126 -169q0 -47 -18.5 -86t-52.5 -66.5t-82 -43t-107 -15.5zM203 784q-25 0 -42 17t-17 42t17 42t42 17t42 -17t17 -42t-17 -42t-42 -17zM398 784q-25 0 -42 17t-17 42t17 42t42 17t42 -17t17 -42t-17 -42t-42 -17z
" />
    <glyph glyph-name="uni04DF" unicode="&#x4df;" horiz-adv-x="484" 
d="M247 -14q-156 0 -215 137l70 30q40 -97 145 -97q55 0 88.5 23.5t33.5 63.5q0 38 -28 59.5t-73 21.5h-106v71h106q41 0 65.5 18.5t24.5 50.5q0 35 -29.5 57.5t-80.5 22.5q-95 0 -133 -87l-69 31q29 63 81 94.5t124 31.5q84 0 133 -39.5t49 -104.5q0 -80 -76 -110
q42 -13 65 -44.5t23 -76.5q0 -35 -14.5 -63.5t-40.5 -48.5t-62.5 -30.5t-80.5 -10.5zM140 607q-24 0 -40.5 16.5t-16.5 40.5t16.5 40.5t40.5 16.5t40.5 -16.5t16.5 -40.5t-16.5 -40.5t-40.5 -16.5zM344 607q-24 0 -40.5 16.5t-16.5 40.5t16.5 40.5t40.5 16.5t40.5 -16.5
t16.5 -40.5t-16.5 -40.5t-40.5 -16.5z" />
    <glyph glyph-name="uni04E2" unicode="&#x4e2;" horiz-adv-x="724" 
d="M632 0h-88v558l-361 -558h-91v700h88v-558l361 558h91v-700zM225 869h307v-62h-307v62z" />
    <glyph glyph-name="uni04E3" unicode="&#x4e3;" horiz-adv-x="578" 
d="M157 500v-382l263 382h82v-500h-81v382l-263 -382h-82v500h81zM153 677h272v-66h-272v66z" />
    <glyph glyph-name="uni04E4" unicode="&#x4e4;" horiz-adv-x="724" 
d="M632 0h-88v558l-361 -558h-91v700h88v-558l361 558h91v-700zM280 784q-25 0 -42 17t-17 42t17 42t42 17t42 -17t17 -42t-17 -42t-42 -17zM475 784q-25 0 -42 17t-17 42t17 42t42 17t42 -17t17 -42t-17 -42t-42 -17z" />
    <glyph glyph-name="uni04E5" unicode="&#x4e5;" horiz-adv-x="578" 
d="M157 500v-382l263 382h82v-500h-81v382l-263 -382h-82v500h81zM187 607q-24 0 -40.5 16.5t-16.5 40.5t16.5 40.5t40.5 16.5t40.5 -16.5t16.5 -40.5t-16.5 -40.5t-40.5 -16.5zM391 607q-24 0 -40.5 16.5t-16.5 40.5t16.5 40.5t40.5 16.5t40.5 -16.5t16.5 -40.5
t-16.5 -40.5t-40.5 -16.5z" />
    <glyph glyph-name="uni04E6" unicode="&#x4e6;" horiz-adv-x="829" 
d="M415 -16q-76 0 -141.5 27.5t-112.5 76t-74 116t-27 146.5q0 80 27 147t74 115.5t112.5 76t141.5 27.5q77 0 141.5 -27.5t112 -76t74 -115.5t26.5 -147q0 -79 -26.5 -146.5t-74 -116t-112 -76t-141.5 -27.5zM415 66q59 0 108 21t84 58.5t54.5 89.5t19.5 115t-19.5 115.5
t-54.5 90t-84 58t-108 20.5t-108 -20.5t-84.5 -58t-55 -90t-19.5 -115.5t19.5 -115t55 -89.5t84.5 -58.5t108 -21zM317 784q-25 0 -42 17t-17 42t17 42t42 17t42 -17t17 -42t-17 -42t-42 -17zM512 784q-25 0 -42 17t-17 42t17 42t42 17t42 -17t17 -42t-17 -42t-42 -17z" />
    <glyph glyph-name="uni04E7" unicode="&#x4e7;" horiz-adv-x="608" 
d="M304 -14q-57 0 -104 20t-81.5 55.5t-53.5 84t-19 104.5t19 104.5t53.5 84t81.5 55.5t104 20t104 -20t81.5 -55.5t53.5 -84t19 -104.5t-19 -104.5t-53.5 -84t-81.5 -55.5t-104 -20zM304 62q39 0 71.5 14t55.5 39.5t36 60t13 74.5q0 41 -13 75t-36 59.5t-55.5 39.5
t-71.5 14t-71.5 -14t-55.5 -39.5t-36 -59.5t-13 -75q0 -40 13 -74.5t36 -60t55.5 -39.5t71.5 -14zM202 607q-24 0 -40.5 16.5t-16.5 40.5t16.5 40.5t40.5 16.5t40.5 -16.5t16.5 -40.5t-16.5 -40.5t-40.5 -16.5zM406 607q-24 0 -40.5 16.5t-16.5 40.5t16.5 40.5t40.5 16.5
t40.5 -16.5t16.5 -40.5t-16.5 -40.5t-40.5 -16.5z" />
    <glyph glyph-name="uni04F8" unicode="&#x4f8;" horiz-adv-x="879" 
d="M774 700v-700h-83v700h83zM97 0v700h83v-256h175q53 0 96 -16t73 -45.5t46.5 -70t16.5 -90.5q0 -49 -16.5 -90t-46.5 -70.5t-73 -45.5t-96 -16h-258zM180 80h169q71 0 112.5 38t41.5 104t-41.5 104t-112.5 38h-169v-284zM342 784q-25 0 -42 17t-17 42t17 42t42 17t42 -17
t17 -42t-17 -42t-42 -17zM537 784q-25 0 -42 17t-17 42t17 42t42 17t42 -17t17 -42t-17 -42t-42 -17z" />
    <glyph glyph-name="uni04F9" unicode="&#x4f9;" horiz-adv-x="728" 
d="M556 500h81v-500h-81v500zM164 71h126q48 0 75 26.5t27 69.5q0 42 -27 68t-75 26h-126v-190zM298 0h-211v500h77v-168h132q39 0 71 -12t55 -34t35.5 -52.5t12.5 -67.5q0 -36 -12.5 -66.5t-35 -52.5t-54 -34.5t-70.5 -12.5zM262 607q-24 0 -40.5 16.5t-16.5 40.5
t16.5 40.5t40.5 16.5t40.5 -16.5t16.5 -40.5t-16.5 -40.5t-40.5 -16.5zM466 607q-24 0 -40.5 16.5t-16.5 40.5t16.5 40.5t40.5 16.5t40.5 -16.5t16.5 -40.5t-16.5 -40.5t-40.5 -16.5z" />
    <glyph glyph-name="endash" unicode="&#x2013;" horiz-adv-x="582" 
d="M56 306h470v-74h-470v74z" />
    <glyph glyph-name="emdash" unicode="&#x2014;" horiz-adv-x="722" 
d="M56 306h610v-74h-610v74z" />
    <glyph glyph-name="quoteleft" unicode="&#x2018;" horiz-adv-x="215" 
d="M167.003 528.003q0 -24.998 -16.499 -40.9971t-40.4971 -15.999q-25.999 0 -43.998 19.499t-17.999 58.4961q0 41.998 21.499 84.9951t58.4961 74.9951l34.998 -33.998q-26.998 -23.998 -40.4971 -45.9971t-20.499 -44.9971q3 1 10.999 1q22.999 0 38.498 -16.499
t15.499 -40.498z" />
    <glyph glyph-name="quoteright" unicode="&#x2019;" horiz-adv-x="215" 
d="M48 647q0 25 16.5 41t40.5 16q26 0 44 -19.5t18 -58.5q0 -42 -21.5 -85t-58.5 -75l-35 34q27 24 40.5 46t20.5 45q-3 -1 -11 -1q-23 0 -38.5 16.5t-15.5 40.5z" />
    <glyph glyph-name="quotesinglbase" unicode="&#x201a;" horiz-adv-x="215" 
d="M48 55q0 25 16.5 41t40.5 16q26 0 44 -19.5t18 -58.5q0 -42 -21.5 -85t-58.5 -75l-35 34q27 24 40.5 46t20.5 45q-3 -1 -11 -1q-23 0 -38.5 16.5t-15.5 40.5z" />
    <glyph glyph-name="quotedblleft" unicode="&#x201c;" horiz-adv-x="385" 
d="M167.003 527.003q0 -24.998 -16.499 -40.9971t-40.4971 -15.999q-25.999 0 -43.998 19.499t-17.999 58.4961q0 41.998 21.499 84.9951t58.4961 74.9951l34.998 -33.998q-26.998 -23.998 -40.4971 -45.9971t-20.499 -44.9971q3 1 10.999 1q22.999 0 38.498 -16.499
t15.499 -40.498zM337.003 527.003q0 -24.998 -16.499 -40.9971t-40.4971 -15.999q-25.999 0 -43.998 19.499t-17.999 58.4961q0 41.998 21.499 84.9951t58.4961 74.9951l34.998 -33.998q-26.998 -23.998 -40.4971 -45.9971t-20.499 -44.9971q3 1 10.999 1
q22.999 0 38.498 -16.499t15.499 -40.498z" />
    <glyph glyph-name="quotedblright" unicode="&#x201d;" horiz-adv-x="385" 
d="M218 647q0 25 16.5 41t40.5 16q26 0 44 -19.5t18 -58.5q0 -42 -21.5 -85t-58.5 -75l-35 34q27 24 40.5 46t20.5 45q-3 -1 -11 -1q-23 0 -38.5 16.5t-15.5 40.5zM48 647q0 25 16.5 41t40.5 16q26 0 44 -19.5t18 -58.5q0 -42 -21.5 -85t-58.5 -75l-35 34q27 24 40.5 46
t20.5 45q-3 -1 -11 -1q-23 0 -38.5 16.5t-15.5 40.5z" />
    <glyph glyph-name="quotedblbase" unicode="&#x201e;" horiz-adv-x="385" 
d="M218 55q0 25 16.5 41t40.5 16q26 0 44 -19.5t18 -58.5q0 -42 -21.5 -85t-58.5 -75l-35 34q27 24 40.5 46t20.5 45q-3 -1 -11 -1q-23 0 -38.5 16.5t-15.5 40.5zM48 55q0 25 16.5 41t40.5 16q26 0 44 -19.5t18 -58.5q0 -42 -21.5 -85t-58.5 -75l-35 34q27 24 40.5 46
t20.5 45q-3 -1 -11 -1q-23 0 -38.5 16.5t-15.5 40.5z" />
    <glyph glyph-name="ellipsis" unicode="&#x2026;" horiz-adv-x="564" 
d="M66 57q0 26 17.5 43.5t43.5 17.5t43.5 -17.5t17.5 -43.5t-17.5 -43.5t-43.5 -17.5t-43.5 17.5t-17.5 43.5zM228 57q0 26 17.5 43.5t43.5 17.5t43.5 -17.5t17.5 -43.5t-17.5 -43.5t-43.5 -17.5t-43.5 17.5t-17.5 43.5zM390 57q0 26 17.5 43.5t43.5 17.5t43.5 -17.5
t17.5 -43.5t-17.5 -43.5t-43.5 -17.5t-43.5 17.5t-17.5 43.5z" />
    <glyph glyph-name="perthousand" unicode="&#x2030;" horiz-adv-x="1164" 
d="M203 -22l484 719l-60 39l-484 -719zM210 360q-34 0 -62 13.5t-48.5 37t-32 55.5t-11.5 69t11.5 69t32 55.5t48.5 37t62 13.5t62 -13.5t48.5 -37t32 -55.5t11.5 -69t-11.5 -69t-32 -55.5t-48.5 -37t-62 -13.5zM210 428q35 0 59.5 29.5t24.5 77.5t-24.5 77.5t-59.5 29.5
t-59.5 -29.5t-24.5 -77.5t24.5 -77.5t59.5 -29.5zM620 -10q-34 0 -62 13.5t-48.5 37t-32 55.5t-11.5 69t11.5 69t32 55.5t48.5 37t62 13.5t62 -13.5t48.5 -37t32 -55.5t11.5 -69t-11.5 -69t-32 -55.5t-48.5 -37t-62 -13.5zM620 58q35 0 59.5 29.5t24.5 77.5t-24.5 77.5
t-59.5 29.5t-59.5 -29.5t-24.5 -77.5t24.5 -77.5t59.5 -29.5zM980 -10q-34 0 -62 13.5t-48.5 37t-32 55.5t-11.5 69t11.5 69t32 55.5t48.5 37t62 13.5t62 -13.5t48.5 -37t32 -55.5t11.5 -69t-11.5 -69t-32 -55.5t-48.5 -37t-62 -13.5zM980 58q35 0 59.5 29.5t24.5 77.5
t-24.5 77.5t-59.5 29.5t-59.5 -29.5t-24.5 -77.5t24.5 -77.5t59.5 -29.5z" />
    <glyph glyph-name="guilsinglleft" unicode="&#x2039;" horiz-adv-x="351" 
d="M40 250l203 253l60 -44l-169 -209l169 -209l-60 -44z" />
    <glyph glyph-name="guilsinglright" unicode="&#x203a;" horiz-adv-x="351" 
d="M311 250l-203 -253l-60 44l169 209l-169 209l60 44z" />
    <glyph glyph-name="lira" unicode="&#x20a4;" horiz-adv-x="575" 
d="M35 217v68h102q-5 22 -11.5 40.5t-14.5 37.5h-76v68h54q-3 14 -5 29t-2 32q0 50 16.5 91t47.5 70.5t75 46t98 16.5q85 0 143.5 -40.5t85.5 -117.5l-72 -30q-23 57 -61 84.5t-97 27.5q-74 0 -114 -40t-40 -108q0 -29 8 -61h255v-68h-233q7 -19 13 -38t11 -40h209v-68h-203
q-2 -48 -19 -84t-43 -59h384v-74h-511v72q50 7 78 44t30 101h-108z" />
    <glyph glyph-name="Euro" unicode="&#x20ac;" horiz-adv-x="676" 
d="M28 239v71h53q-1 10 -1 19.5v20.5q0 12 0.5 23.5t1.5 22.5h-54v71h66q14 57 40.5 103t64 78.5t84.5 50t101 17.5q88 0 155 -45t102 -129l-74 -32q-27 62 -73.5 93.5t-108.5 31.5q-76 0 -128.5 -45t-75.5 -123h284v-71h-298q-1 -11 -1.5 -22.5t-0.5 -23.5q0 -11 0.5 -20.5
t1.5 -19.5h298v-71h-286q22 -82 76.5 -128t132.5 -46q133 0 180 132l74 -32q-35 -93 -101.5 -137t-151.5 -44q-56 0 -104.5 18t-86.5 51.5t-65 80.5t-41 105h-64z" />
    <glyph glyph-name="uni20B4" unicode="&#x20b4;" horiz-adv-x="620" 
d="M42 392v70h394q8 13 13 29t5 33q0 26 -10.5 48t-29.5 38.5t-46 25.5t-60 9q-55 0 -96.5 -25t-70.5 -73l-59 45q38 59 94.5 91.5t131.5 32.5q49 0 89.5 -14t69 -39t44 -59t15.5 -73q0 -40 -14 -69h66v-70h-536zM312 -16q-54 0 -98 14.5t-75 40t-48 61t-17 78.5q0 37 13 66
h-45v70h536v-70h-419q-13 -26 -13 -55q0 -58 45 -95.5t121 -37.5q64 0 111 28t73 82l63 -41q-74 -141 -247 -141z" />
    <glyph glyph-name="uni20B8" unicode="&#x20b8;" horiz-adv-x="555" 
d="M517 565v-81h-196v-484h-87v484h-196v81h479zM38 625v75h479v-75h-479z" />
    <glyph glyph-name="uni20BA" unicode="&#x20ba;" horiz-adv-x="591" 
d="M37 175l-24 65l96 35v96l-72 -26l-24 65l96 35v255h80v-225l225 82l24 -65l-249 -91v-96l225 82l24 -65l-249 -91v-157h165q54 0 91 32.5t43 86.5l79 -10q-14 -89 -66.5 -136t-140.5 -47h-251v201z" />
    <glyph glyph-name="uni20BC" unicode="&#x20bc;" horiz-adv-x="750" 
d="M334 700h82v-113q134 -12 201.5 -140t67.5 -369v-78h-82v72q0 211 -45.5 317t-141.5 119v-436h-82v436q-96 -13 -141.5 -119t-45.5 -317v-72h-82v78q0 241 67.5 369t201.5 140v113z" />
    <glyph glyph-name="uni20BD" unicode="&#x20bd;" horiz-adv-x="628" 
d="M203 363h154q65 0 104 35t39 95t-39.5 94.5t-103.5 34.5h-154v-259zM32 120v72h93v97h-93v74h93v337h233q49 0 89.5 -14.5t70 -41.5t46 -64.5t16.5 -84.5t-16 -85t-45.5 -65t-70 -41.5t-89.5 -14.5h-156v-97h240v-72h-240v-120h-78v120h-93z" />
    <glyph glyph-name="uni2116" unicode="&#x2116;" horiz-adv-x="1074" 
d="M865 442q40 0 65.5 28t25.5 72q0 45 -25.5 72t-65.5 27q-42 0 -67.5 -27.5t-25.5 -71.5q0 -45 25.5 -72.5t67.5 -27.5zM92 0v700h90l348 -561v561h82v-700h-90l-348 561v-561h-82zM710 226v77h308v-77h-308zM864 375q-36 0 -66.5 12.5t-52 35t-34 53t-12.5 66.5
q0 35 12.5 65.5t34 53t52 35t66.5 12.5t66.5 -12.5t52 -35t34 -52.5t12.5 -66q0 -35 -12.5 -65.5t-34 -53t-52 -35.5t-66.5 -13z" />
    <glyph glyph-name="minus" unicode="&#x2212;" horiz-adv-x="550" 
d="M40 403h470v-78h-470v78z" />
    <glyph glyph-name="a.ss01" horiz-adv-x="633" 
d="M302 62q39 0 71 14t55 39.5t35.5 60t12.5 74.5q0 41 -12.5 75t-35.5 59.5t-55 39.5t-71 14t-71 -14t-55 -39.5t-35.5 -59.5t-12.5 -75q0 -40 12.5 -74.5t35.5 -60t55 -39.5t71 -14zM290 -14q-52 0 -97 19.5t-77.5 55t-51 84t-18.5 105.5t18.5 105.5t51 84t77.5 55
t97 19.5q61 0 108.5 -26t77.5 -73v85h81v-500h-81v85q-30 -47 -77.5 -73t-108.5 -26z" />
    <glyph glyph-name="uni0430.ss01" horiz-adv-x="633" 
d="M302 62q39 0 71 14t55 39.5t35.5 60t12.5 74.5q0 41 -12.5 75t-35.5 59.5t-55 39.5t-71 14t-71 -14t-55 -39.5t-35.5 -59.5t-12.5 -75q0 -40 12.5 -74.5t35.5 -60t55 -39.5t71 -14zM290 -14q-52 0 -97 19.5t-77.5 55t-51 84t-18.5 105.5t18.5 105.5t51 84t77.5 55
t97 19.5q61 0 108.5 -26t77.5 -73v85h81v-500h-81v85q-30 -47 -77.5 -73t-108.5 -26z" />
    <glyph glyph-name="g.ss02" horiz-adv-x="616" 
d="M293 89q37 0 67.5 13t52.5 36.5t34 55.5t12 70t-12 70t-34 55.5t-52.5 36.5t-67.5 13t-68 -13t-53 -36.5t-34 -55.5t-12 -70t12 -70t34 -55.5t53 -36.5t68 -13zM281 14q-51 0 -94 19t-74.5 52.5t-49 79t-17.5 99.5t17.5 99.5t49 79t74.5 52.5t94 19q60 0 105 -25.5
t73 -70.5v82h81v-456q0 -60 -17.5 -107.5t-50.5 -81t-80 -51.5t-106 -18q-78 0 -136 32.5t-93 95.5l64 43q56 -96 165 -96q82 0 127.5 49.5t45.5 137.5v62q-28 -45 -73 -70.5t-105 -25.5z" />
    <glyph glyph-name="J.1" horiz-adv-x="365" 
d="M199 700h84v-472q0 -117 -53.5 -176.5t-155.5 -59.5h-38v80h30q69 0 101 39t32 126v463z" />
    <glyph glyph-name="grave.case" horiz-adv-x="259" 
d="M141 789l-111 141h94l105 -141h-88z" />
    <glyph glyph-name="dieresis.case" horiz-adv-x="385" 
d="M95 784q-25 0 -42 17t-17 42t17 42t42 17t42 -17t17 -42t-17 -42t-42 -17zM290 784q-25 0 -42 17t-17 42t17 42t42 17t42 -17t17 -42t-17 -42t-42 -17z" />
    <glyph glyph-name="macron.case" horiz-adv-x="367" 
d="M30 869h307v-62h-307v62z" />
    <glyph glyph-name="acute.case" horiz-adv-x="259" 
d="M135 930h94l-111 -141h-88z" />
    <glyph glyph-name="circumflex.case" horiz-adv-x="454" 
d="M190 930h74l160 -141h-94l-103 82l-103 -82h-94z" />
    <glyph glyph-name="caron.case" horiz-adv-x="454" 
d="M124 931l103 -83l103 83h94l-160 -142h-74l-160 142h94z" />
    <glyph glyph-name="breve.case" horiz-adv-x="432" 
d="M217 785q-79 0 -128 38.5t-59 107.5h77q5 -37 35 -59t75 -22t74 22t34 59h77q-10 -69 -58 -107.5t-127 -38.5z" />
    <glyph glyph-name="dotaccent.case" horiz-adv-x="174" 
d="M87 784q-25 0 -42 17t-17 42t17 42t42 17t42 -17t17 -42t-17 -42t-42 -17z" />
    <glyph glyph-name="ring.case" horiz-adv-x="290" 
d="M145 786q-49 0 -81.5 31.5t-32.5 80.5t32.5 80.5t81.5 31.5t81.5 -31.5t32.5 -80.5t-32.5 -80.5t-81.5 -31.5zM145 842q23 0 38.5 16t15.5 40t-15.5 40t-38.5 16t-38.5 -16t-15.5 -40t15.5 -40t38.5 -16z" />
    <glyph glyph-name="tilde.case" horiz-adv-x="424" 
d="M31 801q0 62 28 95t81 33q32 0 51 -11t33 -24t26 -24t31 -11q23 0 34.5 18t11.5 51h66q0 -63 -28 -96t-79 -33q-31 0 -50.5 11t-34 24t-27.5 24t-31 11q-22 0 -34 -18t-12 -50h-66z" />
    <glyph glyph-name="agrave.ss01" horiz-adv-x="637" 
d="M306 62q39 0 71 14t55 39.5t35.5 60t12.5 74.5q0 41 -12.5 75t-35.5 59.5t-55 39.5t-71 14t-71 -14t-55 -39.5t-35.5 -59.5t-12.5 -75q0 -40 12.5 -74.5t35.5 -60t55 -39.5t71 -14zM294 -14q-52 0 -97 19.5t-77.5 55t-51 84t-18.5 105.5t18.5 105.5t51 84t77.5 55
t97 19.5q61 0 108.5 -26t77.5 -73v85h81v-500h-81v85q-30 -47 -77.5 -73t-108.5 -26zM171 746h84l84 -146h-78z" />
    <glyph glyph-name="aacute.ss01" horiz-adv-x="637" 
d="M306 62q39 0 71 14t55 39.5t35.5 60t12.5 74.5q0 41 -12.5 75t-35.5 59.5t-55 39.5t-71 14t-71 -14t-55 -39.5t-35.5 -59.5t-12.5 -75q0 -40 12.5 -74.5t35.5 -60t55 -39.5t71 -14zM294 -14q-52 0 -97 19.5t-77.5 55t-51 84t-18.5 105.5t18.5 105.5t51 84t77.5 55
t97 19.5q61 0 108.5 -26t77.5 -73v85h81v-500h-81v85q-30 -47 -77.5 -73t-108.5 -26zM346 744h84l-90 -146h-78z" />
    <glyph glyph-name="acircumflex.ss01" horiz-adv-x="637" 
d="M306 62q39 0 71 14t55 39.5t35.5 60t12.5 74.5q0 41 -12.5 75t-35.5 59.5t-55 39.5t-71 14t-71 -14t-55 -39.5t-35.5 -59.5t-12.5 -75q0 -40 12.5 -74.5t35.5 -60t55 -39.5t71 -14zM294 -14q-52 0 -97 19.5t-77.5 55t-51 84t-18.5 105.5t18.5 105.5t51 84t77.5 55
t97 19.5q61 0 108.5 -26t77.5 -73v85h81v-500h-81v85q-30 -47 -77.5 -73t-108.5 -26zM271 742h66l137 -146h-81l-89 92l-89 -92h-81z" />
    <glyph glyph-name="atilde.ss01" horiz-adv-x="637" 
d="M306 62q39 0 71 14t55 39.5t35.5 60t12.5 74.5q0 41 -12.5 75t-35.5 59.5t-55 39.5t-71 14t-71 -14t-55 -39.5t-35.5 -59.5t-12.5 -75q0 -40 12.5 -74.5t35.5 -60t55 -39.5t71 -14zM294 -14q-52 0 -97 19.5t-77.5 55t-51 84t-18.5 105.5t18.5 105.5t51 84t77.5 55
t97 19.5q61 0 108.5 -26t77.5 -73v85h81v-500h-81v85q-30 -47 -77.5 -73t-108.5 -26zM245 660q-38 0 -38 -65h-58q0 64 25 94.5t69 30.5q28 0 44 -10.5t27.5 -23t22 -23t26.5 -10.5q38 0 38 66h58q0 -64 -25 -95t-69 -31q-28 0 -44 10.5t-27.5 23t-21.5 23t-27 10.5z" />
    <glyph glyph-name="adieresis.ss01" horiz-adv-x="637" 
d="M306 62q39 0 71 14t55 39.5t35.5 60t12.5 74.5q0 41 -12.5 75t-35.5 59.5t-55 39.5t-71 14t-71 -14t-55 -39.5t-35.5 -59.5t-12.5 -75q0 -40 12.5 -74.5t35.5 -60t55 -39.5t71 -14zM294 -14q-52 0 -97 19.5t-77.5 55t-51 84t-18.5 105.5t18.5 105.5t51 84t77.5 55
t97 19.5q61 0 108.5 -26t77.5 -73v85h81v-500h-81v85q-30 -47 -77.5 -73t-108.5 -26zM202 607q-24 0 -40.5 16.5t-16.5 40.5t16.5 40.5t40.5 16.5t40.5 -16.5t16.5 -40.5t-16.5 -40.5t-40.5 -16.5zM406 607q-24 0 -40.5 16.5t-16.5 40.5t16.5 40.5t40.5 16.5t40.5 -16.5
t16.5 -40.5t-16.5 -40.5t-40.5 -16.5z" />
    <glyph glyph-name="aring.ss01" horiz-adv-x="637" 
d="M315 584q-49 0 -81 31t-32 79t32 79t81 31t81 -31t32 -79t-32 -79t-81 -31zM315 636q25 0 41 16.5t16 41.5t-16 41.5t-41 16.5t-41 -16.5t-16 -41.5t16 -41.5t41 -16.5zM306 62q39 0 71 14t55 39.5t35.5 60t12.5 74.5q0 41 -12.5 75t-35.5 59.5t-55 39.5t-71 14t-71 -14
t-55 -39.5t-35.5 -59.5t-12.5 -75q0 -40 12.5 -74.5t35.5 -60t55 -39.5t71 -14zM294 -14q-52 0 -97 19.5t-77.5 55t-51 84t-18.5 105.5t18.5 105.5t51 84t77.5 55t97 19.5q61 0 108.5 -26t77.5 -73v85h81v-500h-81v85q-30 -47 -77.5 -73t-108.5 -26z" />
    <glyph glyph-name="amacron.ss01" horiz-adv-x="637" 
d="M182 681h272v-66h-272v66zM306 62q39 0 71 14t55 39.5t35.5 60t12.5 74.5q0 41 -12.5 75t-35.5 59.5t-55 39.5t-71 14t-71 -14t-55 -39.5t-35.5 -59.5t-12.5 -75q0 -40 12.5 -74.5t35.5 -60t55 -39.5t71 -14zM294 -14q-52 0 -97 19.5t-77.5 55t-51 84t-18.5 105.5
t18.5 105.5t51 84t77.5 55t97 19.5q61 0 108.5 -26t77.5 -73v85h81v-500h-81v85q-30 -47 -77.5 -73t-108.5 -26z" />
    <glyph glyph-name="abreve.ss01" horiz-adv-x="637" 
d="M315 607q-70 0 -113.5 37t-51.5 102h75q5 -35 29 -55t61 -20t61 20t29 55h75q-8 -65 -51.5 -102t-113.5 -37zM306 62q39 0 71 14t55 39.5t35.5 60t12.5 74.5q0 41 -12.5 75t-35.5 59.5t-55 39.5t-71 14t-71 -14t-55 -39.5t-35.5 -59.5t-12.5 -75q0 -40 12.5 -74.5
t35.5 -60t55 -39.5t71 -14zM294 -14q-52 0 -97 19.5t-77.5 55t-51 84t-18.5 105.5t18.5 105.5t51 84t77.5 55t97 19.5q61 0 108.5 -26t77.5 -73v85h81v-500h-81v85q-30 -47 -77.5 -73t-108.5 -26z" />
    <glyph glyph-name="aogonek.ss01" horiz-adv-x="638" 
d="M304 63q38 0 70.5 14t56 38.5t36.5 59t13 75.5t-13 75.5t-36.5 59t-56 38.5t-70.5 14t-70.5 -14t-56 -38.5t-36.5 -59t-13 -75.5t13 -75.5t36.5 -59t56 -38.5t70.5 -14zM293 -14q-52 0 -97.5 20t-78.5 55t-52 83.5t-19 105.5t19 105.5t52 83.5t78.5 55t97.5 20
q61 0 109 -26t78 -73v85h81v-500q-57 -29 -83 -50.5t-26 -51.5q0 -26 16.5 -40.5t43.5 -14.5q15 0 30 4.5t25 13.5l19 -57q-35 -23 -81 -23q-54 0 -84.5 29t-30.5 77q0 38 21 67.5t69 58.5v72q-30 -47 -78 -73t-109 -26z" />
    <glyph glyph-name="gcircumflex.ss02" horiz-adv-x="617" 
d="M294 89q37 0 67.5 13t52.5 36.5t34 55.5t12 70t-12 70t-34 55.5t-52.5 36.5t-67.5 13t-68 -13t-53 -36.5t-34 -55.5t-12 -70t12 -70t34 -55.5t53 -36.5t68 -13zM282 14q-51 0 -94 19t-74.5 52.5t-49 79t-17.5 99.5t17.5 99.5t49 79t74.5 52.5t94 19q60 0 105 -25.5
t73 -70.5v82h81v-456q0 -60 -17.5 -107.5t-50.5 -81t-80 -51.5t-106 -18q-78 0 -136 32.5t-93 95.5l64 43q56 -96 165 -96q82 0 127.5 49.5t45.5 137.5v62q-28 -45 -73 -70.5t-105 -25.5zM271 742h66l137 -146h-81l-89 92l-89 -92h-81z" />
    <glyph glyph-name="gbreve.ss02" horiz-adv-x="617" 
d="M294 89q37 0 67.5 13t52.5 36.5t34 55.5t12 70t-12 70t-34 55.5t-52.5 36.5t-67.5 13t-68 -13t-53 -36.5t-34 -55.5t-12 -70t12 -70t34 -55.5t53 -36.5t68 -13zM282 14q-51 0 -94 19t-74.5 52.5t-49 79t-17.5 99.5t17.5 99.5t49 79t74.5 52.5t94 19q60 0 105 -25.5
t73 -70.5v82h81v-456q0 -60 -17.5 -107.5t-50.5 -81t-80 -51.5t-106 -18q-78 0 -136 32.5t-93 95.5l64 43q56 -96 165 -96q82 0 127.5 49.5t45.5 137.5v62q-28 -45 -73 -70.5t-105 -25.5zM315 607q-70 0 -113.5 37t-51.5 102h75q5 -35 29 -55t61 -20t61 20t29 55h75
q-8 -65 -51.5 -102t-113.5 -37z" />
    <glyph glyph-name="cedilla.case" horiz-adv-x="282" 
d="M88 -224q-49 0 -88 19l18 61q32 -18 68 -18q39 0 59 18t20 50t-19 53t-57 38l51 32q44 -26 66.5 -56.5t22.5 -74.5q0 -55 -36 -88.5t-105 -33.5z" />
    </font>
</defs>
</svg>
