<svg width="296" height="7" viewBox="0 0 296 7" fill="none" xmlns="http://www.w3.org/2000/svg">
<path d="M0.333333 3.5791C0.333333 5.05186 1.52724 6.24577 3 6.24577C4.47276 6.24577 5.66667 5.05186 5.66667 3.5791C5.66667 2.10634 4.47276 0.912435 3 0.912435C1.52724 0.912435 0.333333 2.10634 0.333333 3.5791ZM290.333 3.5791C290.333 5.05186 291.527 6.24577 293 6.24577C294.473 6.24577 295.667 5.05186 295.667 3.5791C295.667 2.10634 294.473 0.912435 293 0.912435C291.527 0.912435 290.333 2.10634 290.333 3.5791ZM3 4.0791H293V3.0791H3V4.0791Z" fill="#4C240A" fill-opacity="0.5"/>
</svg>
