<svg width="432" height="565" viewBox="0 0 432 565" fill="none" xmlns="http://www.w3.org/2000/svg">
<path d="M23.407 523.819C22.8673 524.283 22.2968 524.701 21.6954 525.088C19.3054 526.588 16.7457 527.346 13.9856 527.331H13.8931C10.0536 527.253 6.76923 525.908 4.05537 523.309C2.7447 522.009 1.727 520.54 1.03312 518.9C0.339232 517.261 0 515.543 0 513.734C0 512.604 0.154196 511.491 0.44717 510.392C0.570527 509.882 0.740143 509.402 0.925179 508.923C0.956018 508.876 0.971438 508.83 0.971438 508.799C0.971438 508.706 0.940599 508.613 0.8635 508.536C0.786402 508.459 0.693884 508.428 0.585947 508.428H0.323813V507.654L6.55335 507.685V508.474L6.2758 508.459C5.55107 508.459 4.94971 508.753 4.4717 509.356C4.44086 509.387 4.3946 509.433 4.37918 509.48C4.11705 509.866 3.88575 510.269 3.66988 510.671C2.63676 512.635 2.12791 514.584 2.11249 516.503C2.11249 518.993 2.92973 521.081 4.61048 522.783C6.38374 524.423 8.54249 525.242 11.0867 525.242C11.7035 525.242 12.3511 525.196 12.9988 525.103C11.0713 524.252 9.52934 522.968 8.40371 521.282C7.26266 519.596 6.70755 517.725 6.70755 515.683C6.70755 512.929 7.75608 510.501 9.83774 508.428C11.904 506.479 14.402 505.489 17.3163 505.442H17.4088C19.3362 505.442 21.2174 505.984 23.037 507.051C24.8565 508.149 26.1517 509.603 26.9536 511.367C27.4624 512.496 27.7091 513.718 27.6937 514.987C27.6937 516.58 27.2774 518.189 26.4755 519.797C25.7046 521.313 24.6714 522.644 23.3762 523.788L23.407 523.819ZM9.23637 520.664C9.63728 521.623 10.2849 522.412 11.1638 523.015C12.0427 523.618 13.045 523.943 14.1707 523.974H14.3557C15.4967 523.974 16.607 523.757 17.6555 523.309C18.7195 522.86 19.6909 522.257 20.5852 521.514C21.4796 520.772 22.2814 519.937 22.9753 519.008C23.6692 518.08 24.2397 517.137 24.6714 516.178C24.9336 515.605 25.1957 514.987 25.427 514.321C25.6583 513.641 25.7817 512.976 25.7817 512.295C25.7817 511.831 25.72 511.413 25.5966 511.058C25.3036 510.269 24.8873 509.588 24.3322 509.031C23.2528 508.01 21.8805 507.5 20.2152 507.5C19.7834 507.5 19.3362 507.531 18.8582 507.608C16.5299 507.995 14.3865 509.093 12.4437 510.918C11.1792 512.14 10.2232 513.486 9.60644 514.956C9.09759 516.162 8.83546 517.322 8.82004 518.421C8.82004 519.21 8.95882 519.968 9.23637 520.679V520.664Z" fill="#F3EBE1" fill-opacity="0.5"/>
<path d="M4.67821 493.347H4.92493V494.105H0.314453L0.406971 475.496H1.19337V475.743C1.19337 476.857 1.64054 477.754 2.53488 478.435L7.29956 481.451C7.46917 480.09 7.93176 478.837 8.68732 477.692C9.48915 476.455 10.5377 475.449 11.8175 474.676C13.4057 473.732 15.1173 473.268 16.9368 473.268C19.4657 473.268 21.7169 474.181 23.6598 475.96C23.6906 475.96 23.7215 475.991 23.7523 476.037C23.7832 476.068 23.8294 476.13 23.8911 476.192C25.1555 477.46 26.127 478.899 26.79 480.507C27.453 482.101 27.7923 483.787 27.7769 485.535C27.7769 487.639 27.268 489.634 26.2966 491.49C26.2041 491.645 26.1578 491.815 26.1578 492.001C26.1578 492.279 26.2503 492.527 26.4353 492.743C26.6204 492.96 26.8671 493.099 27.1601 493.145C27.268 493.145 27.3605 493.161 27.4685 493.161H27.7306V493.919L19.3115 493.888V493.115L19.589 493.13C20.0824 493.13 20.545 492.975 20.9459 492.666L21.2389 492.388L21.2543 492.372C21.7323 491.908 22.1795 491.413 22.5958 490.887C24.6312 488.242 25.6489 485.55 25.6644 482.812C25.6644 480.786 25.1093 478.992 23.9682 477.46C23.8294 477.275 23.6906 477.089 23.5364 476.919L23.3514 476.733C23.3514 476.733 23.3052 476.702 23.2897 476.656C23.2589 476.625 23.2281 476.609 23.2126 476.578C22.3954 475.82 21.4702 475.403 20.4525 475.325H20.0516C17.8003 475.325 15.6878 476.037 13.7141 477.507C11.7404 478.976 10.3681 480.848 9.6125 483.122C9.38121 483.88 9.25785 484.591 9.25785 485.303C9.25785 485.674 9.28869 486.03 9.35037 486.37L9.44289 486.912L1.16253 481.668L1.13169 489.912C1.16253 490.887 1.51719 491.707 2.19565 492.372C2.87412 493.037 3.70678 493.362 4.67821 493.377V493.347Z" fill="#F3EBE1" fill-opacity="0.5"/>
<path d="M27.0106 453.605H27.8278L27.797 461.866H26.9798L26.9952 461.603C26.9952 460.999 26.7793 460.489 26.363 460.087C25.9466 459.685 25.4532 459.483 24.8518 459.483L5.4385 459.406V461.773H4.74462L4.71378 461.572C4.6521 461.293 4.60584 461.061 4.55958 460.907C4.45165 460.489 4.31287 460.087 4.11241 459.7C3.74234 459.019 3.24891 458.432 2.61671 457.921C2.30832 457.689 1.9845 457.488 1.64527 457.302C1.46023 457.21 1.29062 457.132 1.10558 457.055C1.02848 457.024 0.843449 456.962 0.550476 456.869L0.380859 456.807V455.848L24.8827 455.957C25.4841 455.957 25.9929 455.755 26.4092 455.338C26.8256 454.92 27.0414 454.425 27.0414 453.853V453.59L27.0106 453.605Z" fill="#F3EBE1" fill-opacity="0.5"/>
<path d="M26.9636 435.354V435.385C26.9636 435.988 27.0561 436.7 27.2258 437.535C27.4108 438.37 27.5804 439.097 27.7654 439.747C27.9505 440.397 28.043 440.721 28.043 440.721V440.752L28.0584 441.309L27.9042 441.371L27.6575 441.479C26.5165 441.897 25.3291 442.098 24.1264 442.098C23.0624 442.098 22.0293 441.943 21.0116 441.634C19.9939 441.325 19.0379 440.876 18.159 440.257C17.8814 440.056 17.6039 439.855 17.3418 439.623C16.8792 439.252 16.3703 438.71 15.7844 437.983C15.1984 437.256 14.7667 436.406 14.4737 435.431C14.2424 434.487 14.1191 433.513 14.1036 432.523V432.399C14.1036 431.703 14.1036 430.976 14.0728 430.218C13.9494 428.284 13.5639 426.722 12.8855 425.516C12.5617 424.897 12.1453 424.371 11.6673 423.922C11.0197 423.334 10.3104 423.041 9.50857 423.041C9.07682 423.041 8.66049 423.133 8.24416 423.319C8.21332 423.319 8.16706 423.35 8.15164 423.35C7.08769 423.86 6.06999 424.804 5.12939 426.181C3.6491 428.315 2.7856 430.481 2.58515 432.662C2.55431 432.987 2.53889 433.296 2.53889 433.59C2.53889 434.224 2.58515 434.874 2.70851 435.508C2.75477 435.771 2.81644 436.019 2.89354 436.282C2.92438 436.483 2.98606 436.653 3.06316 436.823C3.35613 437.504 3.78788 438.03 4.38925 438.432C4.97519 438.819 5.63824 439.02 6.37838 439.02H6.6251V439.793H3.8033L3.7262 439.685C2.98606 438.803 2.35385 437.844 1.84501 436.792C0.919826 434.812 0.472656 432.786 0.472656 430.713C0.472656 429.568 0.626853 428.439 0.904407 427.356C1.41326 425.516 2.2305 424.077 3.38697 423.056C4.54345 422.081 5.90037 421.54 7.44234 421.463H7.75073C9.1385 421.463 10.4338 421.911 11.6211 422.778C12.9472 423.799 13.8723 425.237 14.3812 427.062C14.7513 428.408 14.9209 429.924 14.9209 431.61V432.523C14.9209 432.832 14.9209 433.173 14.9517 433.544C14.9826 433.915 15.0442 434.317 15.1367 434.72C15.3372 435.524 15.7227 436.328 16.2778 437.133C17.1259 438.386 18.1898 439.329 19.4851 439.932C20.3332 440.35 21.2583 440.567 22.2298 440.567C22.7695 440.567 23.2937 440.489 23.8026 440.335C24.3114 440.18 24.7894 439.932 25.2212 439.592C25.1133 439.314 24.9591 438.834 24.7432 438.154C24.5273 437.473 24.3269 436.73 24.1264 435.926C23.9259 435.122 23.8334 434.441 23.8334 433.869V433.838C23.8334 433.142 23.8951 432.43 24.003 431.734C24.111 431.038 24.2189 430.342 24.3577 429.661C24.4811 429.011 24.589 428.362 24.6969 427.728C24.8049 427.031 24.8511 426.366 24.8665 425.763V425.562C24.8665 424.077 24.6044 422.839 24.0647 421.819L23.8489 421.447H24.2806C25.3137 421.586 26.1618 421.989 26.8248 422.685C27.4879 423.381 27.9351 424.154 28.1818 424.99C28.3514 425.577 28.4285 426.212 28.4285 426.908C28.4285 427.511 28.3668 428.099 28.2743 428.687C28.1664 429.259 28.0584 429.785 27.9351 430.249C27.8425 430.574 27.7654 430.883 27.6883 431.208C27.4879 431.873 27.3183 432.554 27.1795 433.235C27.0253 433.931 26.9482 434.611 26.9482 435.307L26.9636 435.354Z" fill="#F3EBE1" fill-opacity="0.5"/>
<path d="M23.9441 406.629C23.4045 407.093 22.8339 407.511 22.2326 407.897C19.8425 409.398 17.2828 410.156 14.5227 410.14H14.4302C10.5907 410.063 7.30634 408.717 4.59248 406.118C3.28181 404.819 2.26411 403.35 1.57023 401.71C0.876342 400.07 0.537109 398.353 0.537109 396.543C0.537109 395.414 0.691306 394.3 0.984279 393.202C1.10764 392.691 1.27725 392.212 1.46229 391.732C1.49313 391.686 1.49313 391.64 1.49313 391.609C1.49313 391.516 1.46229 391.423 1.38519 391.346C1.30809 391.268 1.21557 391.237 1.10764 391.237H0.845502V390.464L7.07504 390.495V391.284L6.79749 391.268C6.07276 391.268 5.4714 391.562 4.99339 392.166C4.96255 392.196 4.91629 392.243 4.90087 392.289C4.63874 392.676 4.40744 393.078 4.19157 393.48C3.15845 395.445 2.6496 397.394 2.63418 399.312C2.63418 401.803 3.45142 403.891 5.13216 405.592C6.90543 407.232 9.06418 408.052 11.6084 408.052C12.2252 408.052 12.8728 408.006 13.5205 407.913C11.593 407.062 10.051 405.778 8.90998 404.092C7.76893 402.406 7.21382 400.534 7.21382 398.492C7.21382 395.739 8.26235 393.31 10.344 391.237C12.4102 389.288 14.9082 388.298 17.8225 388.252H17.9151C19.8425 388.252 21.7237 388.793 23.5432 389.861C25.3627 390.959 26.658 392.413 27.4598 394.176C27.9687 395.306 28.2154 396.528 28.2 397.796C28.2 399.389 27.7836 400.998 26.9818 402.607C26.2108 404.123 25.1777 405.453 23.8825 406.598L23.9441 406.629ZM9.77348 403.489C10.1744 404.448 10.822 405.237 11.7009 405.84C12.5799 406.443 13.5821 406.768 14.7078 406.799H14.8928C16.0339 406.799 17.1441 406.582 18.1926 406.134C19.2566 405.685 20.228 405.082 21.1223 404.339C22.0167 403.597 22.8185 402.762 23.5124 401.834C24.2063 400.905 24.7768 399.962 25.2085 399.003C25.4861 398.43 25.7328 397.812 25.9641 397.147C26.1954 396.466 26.3188 395.801 26.3188 395.12C26.3188 394.656 26.2571 394.238 26.1337 393.883C25.8408 393.094 25.4244 392.413 24.8693 391.856C23.7899 390.835 22.4176 390.325 20.7523 390.325C20.3205 390.325 19.8734 390.356 19.3953 390.433C17.067 390.82 14.9236 391.918 12.9808 393.743C11.7164 394.965 10.7603 396.311 10.1436 397.781C9.6347 398.987 9.37257 400.147 9.35715 401.246C9.35715 402.035 9.49593 402.793 9.77348 403.504V403.489Z" fill="#F3EBE1" fill-opacity="0.5"/>
<path d="M5.04191 358.55C5.58159 358.071 6.1367 357.638 6.72265 357.267C9.12811 355.782 11.7032 355.039 14.4479 355.039H14.5404C18.2565 355.055 21.5409 356.4 24.3782 359.061C25.6888 360.36 26.6911 361.83 27.385 363.47C28.0634 365.109 28.4027 366.826 28.4027 368.636C28.4027 369.75 28.2485 370.879 27.9709 371.977C27.8322 372.488 27.6625 372.967 27.4621 373.447C27.4621 373.478 27.4621 373.524 27.4467 373.571C27.4467 373.663 27.4775 373.741 27.5546 373.818C27.6317 373.896 27.7242 373.942 27.8322 373.942H28.0943V374.715L21.8647 374.684V373.896L22.1423 373.911C22.867 373.911 23.4684 373.617 23.9464 373.014C23.9772 372.967 24.0081 372.921 24.0389 372.89C24.2856 372.472 24.5169 372.086 24.7482 371.668C25.7659 369.719 26.2748 367.77 26.2902 365.852C26.2902 363.346 25.4729 361.242 23.7922 359.571C22.0344 357.932 19.8756 357.112 17.3314 357.112C16.7146 357.112 16.067 357.158 15.4193 357.251C17.3468 358.102 18.8888 359.386 20.0298 361.072C21.1709 362.758 21.726 364.63 21.726 366.687C21.726 369.425 20.6774 371.838 18.5958 373.911C16.5295 375.876 14.0316 376.866 11.1018 376.912H11.0093C9.08185 376.912 7.21608 376.371 5.39656 375.303C3.57704 374.205 2.28179 372.751 1.47997 370.956C0.971119 369.827 0.708984 368.621 0.708984 367.352C0.708984 365.759 1.12532 364.15 1.92714 362.51C2.71354 361.01 3.74666 359.68 5.04191 358.535V358.55ZM19.2126 361.706C18.8117 360.732 18.164 359.943 17.2851 359.355C16.4062 358.767 15.4039 358.442 14.2783 358.396H14.0932C12.9522 358.396 11.842 358.612 10.7934 359.061C9.72948 359.51 8.75804 360.113 7.8637 360.855C6.96936 361.598 6.16754 362.433 5.47366 363.361C4.77977 364.289 4.20925 365.218 3.77749 366.177C3.49994 366.749 3.25323 367.368 3.02193 368.048C2.79064 368.729 2.66728 369.41 2.66728 370.09C2.66728 370.539 2.72896 370.941 2.85232 371.328C3.12987 372.117 3.5462 372.797 4.10131 373.354C5.1961 374.375 6.56845 374.886 8.23377 374.886C8.66552 374.886 9.11269 374.855 9.5907 374.777C11.9037 374.391 14.047 373.277 16.0053 371.436C17.2543 370.229 18.2103 368.884 18.8425 367.414C19.3513 366.208 19.6135 365.047 19.6289 363.949C19.6289 363.129 19.4901 362.387 19.2126 361.691V361.706Z" fill="#F3EBE1" fill-opacity="0.5"/>
<path d="M27.5633 335.673H28.3806L28.3497 343.933H27.5325L27.5479 343.67C27.5479 343.067 27.332 342.556 26.9157 342.154C26.4994 341.752 25.9905 341.551 25.4046 341.551L5.99124 341.474V343.84H5.29736L5.26652 343.639C5.20484 343.361 5.15858 343.129 5.11232 342.974C5.0198 342.556 4.8656 342.154 4.66515 341.767C4.29508 341.087 3.80165 340.499 3.16944 339.988C2.86105 339.756 2.53724 339.555 2.19801 339.37C2.02839 339.277 1.84335 339.2 1.65832 339.122C1.58122 339.091 1.39618 339.029 1.10321 338.937L0.933594 338.875V337.916L25.4354 338.024C26.0368 338.024 26.5456 337.823 26.962 337.405C27.3783 336.988 27.5942 336.493 27.5942 335.92V335.657L27.5633 335.673Z" fill="#F3EBE1" fill-opacity="0.5"/>
<path d="M24.3406 320.669C23.8009 321.133 23.2304 321.551 22.629 321.937C20.239 323.438 17.6793 324.196 14.9192 324.18H14.8267C10.9872 324.103 7.70282 322.757 4.98896 320.158C3.67829 318.859 2.66059 317.39 1.96671 315.75C1.27283 314.11 0.933594 312.393 0.933594 310.583C0.933594 309.454 1.08779 308.34 1.38076 307.242C1.50412 306.732 1.67374 306.252 1.85877 305.772C1.88961 305.726 1.90503 305.68 1.90503 305.649C1.90503 305.556 1.87419 305.463 1.79709 305.386C1.72 305.308 1.62748 305.277 1.51954 305.277H1.25741V304.504L7.48695 304.535V305.324L7.20939 305.308C6.48467 305.308 5.8833 305.602 5.40529 306.206C5.35903 306.237 5.3282 306.283 5.31278 306.329C5.05064 306.716 4.81935 307.118 4.60347 307.52C3.57035 309.485 3.06151 311.434 3.04609 313.352C3.04609 315.843 3.86333 317.931 5.54407 319.632C7.31733 321.272 9.47608 322.092 12.0203 322.092C12.6371 322.092 13.2847 322.046 13.9324 321.953C12.0049 321.102 10.4629 319.818 9.32189 318.132C8.18083 316.446 7.62572 314.574 7.62572 312.532C7.62572 309.779 8.67426 307.35 10.7559 305.277C12.8221 303.328 15.3201 302.338 18.2344 302.292H18.327C20.2544 302.292 22.1356 302.833 23.9551 303.901C25.7747 304.999 27.0699 306.453 27.8717 308.217C28.3806 309.346 28.6273 310.568 28.6119 311.836C28.6119 313.43 28.1955 315.038 27.3937 316.647C26.6227 318.163 25.5896 319.493 24.2944 320.638L24.3406 320.669ZM10.17 317.513C10.5709 318.472 11.2185 319.261 12.0974 319.865C12.9763 320.468 13.9786 320.793 15.1043 320.824H15.2893C16.4303 320.824 17.5406 320.607 18.5891 320.158C19.6531 319.71 20.6245 319.107 21.5188 318.364C22.4132 317.622 23.215 316.786 23.9089 315.858C24.6028 314.93 25.1733 313.986 25.605 313.027C25.8672 312.455 26.1293 311.836 26.3606 311.171C26.5919 310.49 26.7153 309.825 26.7153 309.145C26.7153 308.681 26.6536 308.263 26.5302 307.907C26.2372 307.118 25.8209 306.438 25.2658 305.881C24.1864 304.86 22.8141 304.349 21.1488 304.349C20.717 304.349 20.2698 304.38 19.7918 304.458C17.4635 304.844 15.3201 305.943 13.3773 307.768C12.1128 308.99 11.1568 310.336 10.54 311.805C10.0312 313.012 9.76906 314.172 9.75364 315.27C9.75364 316.059 9.89241 316.817 10.17 317.529V317.513Z" fill="#F3EBE1" fill-opacity="0.5"/>
<path d="M27.7997 282.815H28.6169L28.5861 291.076H27.7688L27.7842 290.813C27.7842 290.209 27.5684 289.699 27.152 289.297C26.7357 288.894 26.2269 288.693 25.6409 288.693L6.22757 288.616V290.983H5.53368L5.50284 290.782C5.44116 290.503 5.39491 290.271 5.34865 290.117C5.25613 289.699 5.10193 289.297 4.90148 288.91C4.53141 288.229 4.03798 287.642 3.40577 287.131C3.09738 286.899 2.77357 286.698 2.43433 286.512C2.26472 286.419 2.07968 286.342 1.89465 286.265C1.81755 286.234 1.63251 286.172 1.33954 286.079L1.16992 286.017V285.058L25.6717 285.167C26.2731 285.167 26.782 284.965 27.1983 284.548C27.6146 284.13 27.8305 283.635 27.8305 283.063V282.8L27.7997 282.815Z" fill="#F3EBE1" fill-opacity="0.5"/>
<path d="M24.6687 249.002C24.1291 249.466 23.5585 249.884 22.9572 250.271C20.5671 251.771 18.0075 252.529 15.2473 252.514H15.1548C11.3153 252.436 8.03095 251.091 5.31709 248.492C4.00642 247.193 2.98872 245.723 2.29484 244.083C1.60095 242.444 1.26172 240.727 1.26172 238.917C1.26172 237.788 1.41592 236.674 1.70889 235.575C1.83225 235.065 2.00186 234.585 2.1869 234.106C2.21774 234.06 2.23316 234.013 2.23316 233.982C2.23316 233.889 2.20232 233.797 2.12522 233.719C2.04812 233.642 1.9556 233.611 1.84767 233.611H1.58553V232.838L7.81507 232.868V233.657L7.53752 233.642C6.81279 233.642 6.21143 233.936 5.73342 234.539C5.68716 234.57 5.65632 234.616 5.6409 234.663C5.37877 235.05 5.14747 235.452 4.9316 235.854C3.89848 237.818 3.38963 239.768 3.37421 241.686C3.37421 244.176 4.19145 246.264 5.87219 247.966C7.64545 249.606 9.8042 250.426 12.3484 250.426C12.9652 250.426 13.6129 250.379 14.2605 250.286C12.333 249.436 10.7911 248.152 9.66543 246.466C8.52437 244.779 7.96927 242.908 7.96927 240.866C7.96927 238.112 9.0178 235.684 11.0995 233.611C13.1657 231.662 15.6637 230.672 18.578 230.625H18.6705C20.598 230.625 22.4792 231.167 24.2987 232.234C26.1182 233.333 27.4135 234.787 28.2153 236.55C28.7241 237.679 28.9708 238.901 28.9554 240.17C28.9554 241.763 28.5391 243.372 27.7373 244.981C26.9663 246.496 25.9332 247.827 24.6379 248.971L24.6687 249.002ZM10.4981 245.862C10.899 246.821 11.5466 247.61 12.4255 248.213C13.3045 248.817 14.3067 249.142 15.4324 249.173H15.6174C16.7585 249.173 17.8687 248.956 18.9172 248.507C19.9812 248.059 20.9526 247.456 21.847 246.713C22.7413 245.971 23.5431 245.135 24.237 244.207C24.9309 243.279 25.5014 242.335 25.9332 241.376C26.1953 240.804 26.4574 240.185 26.6887 239.52C26.92 238.839 27.0434 238.174 27.0434 237.494C27.0434 237.03 26.9817 236.612 26.8583 236.256C26.5654 235.467 26.149 234.787 25.5939 234.23C24.5146 233.209 23.1422 232.698 21.4769 232.698C21.0451 232.698 20.598 232.729 20.12 232.807C17.7916 233.193 15.6483 234.292 13.7054 236.117C12.441 237.339 11.4849 238.685 10.8682 240.154C10.3593 241.361 10.0972 242.521 10.0818 243.619C10.0818 244.408 10.2205 245.166 10.4981 245.878V245.862Z" fill="#F3EBE1" fill-opacity="0.5"/>
<path d="M28.1258 211.149H28.9431L28.9122 219.409H28.095L28.1104 219.146C28.1104 218.543 27.8945 218.032 27.4782 217.63C27.0619 217.228 26.5684 217.027 25.9671 217.027L6.55374 216.949V219.316H5.85986L5.82902 219.115C5.76734 218.837 5.72108 218.604 5.67482 218.45C5.56688 218.032 5.4281 217.63 5.22765 217.243C4.85758 216.563 4.36415 215.975 3.73194 215.464C3.42355 215.232 3.09974 215.031 2.76051 214.846C2.57547 214.753 2.40585 214.675 2.22082 214.598C2.14372 214.567 1.95868 214.505 1.66571 214.412L1.49609 214.351V213.392L25.9979 213.5C26.5993 213.5 27.1081 213.299 27.5245 212.881C27.9408 212.463 28.1567 211.968 28.1567 211.396V211.133L28.1258 211.149Z" fill="#F3EBE1" fill-opacity="0.5"/>
<path d="M5.61705 196.253L5.86377 196.3L5.74041 197.042L1.20703 196.315L4.36806 177.985L5.13904 178.108L5.09278 178.34C4.90775 179.439 5.20072 180.382 5.9717 181.202L10.1659 184.915C10.5668 183.6 11.2298 182.44 12.1704 181.419C13.1727 180.32 14.3754 179.485 15.7632 178.928C17.4902 178.248 19.2634 178.046 21.0521 178.34C23.5501 178.743 25.6163 179.98 27.2508 182.037C27.2817 182.053 27.2971 182.084 27.3279 182.13C27.3588 182.177 27.3896 182.223 27.4359 182.3C28.469 183.754 29.1937 185.317 29.5792 187.003C29.9801 188.689 30.0264 190.391 29.718 192.108C29.3633 194.18 28.5461 196.068 27.2662 197.769C27.1429 197.908 27.0812 198.079 27.0504 198.264C27.0041 198.543 27.0504 198.806 27.1891 199.053C27.3279 199.301 27.5592 199.471 27.8522 199.564C27.9447 199.595 28.0526 199.61 28.1452 199.625L28.4073 199.656L28.2685 200.414L19.9727 199.069L20.1115 198.311L20.3737 198.372C20.8671 198.45 21.3297 198.372 21.7923 198.14L22.1161 197.908H22.1315C22.6712 197.522 23.1955 197.104 23.7043 196.64C26.156 194.351 27.6055 191.845 28.0835 189.138C28.4227 187.127 28.1606 185.286 27.2971 183.6C27.1891 183.399 27.0812 183.198 26.9579 182.997L26.8037 182.78C26.8037 182.78 26.7728 182.734 26.7574 182.703C26.7266 182.672 26.6957 182.641 26.6957 182.61C26.0018 181.744 25.1692 181.187 24.1823 180.955L23.7814 180.893C21.561 180.537 19.356 180.924 17.1664 182.068C14.9768 183.213 13.3115 184.837 12.1858 186.972C11.8312 187.684 11.5999 188.38 11.4765 189.06C11.4148 189.432 11.384 189.787 11.384 190.128V190.669L4.09051 184.203L2.68732 192.34C2.56396 193.299 2.77984 194.165 3.33494 194.923C3.89005 195.681 4.66103 196.145 5.61705 196.3V196.253Z" fill="#F3EBE1" fill-opacity="0.5"/>
<path d="M12.4858 162.392L12.7171 162.469L12.4704 163.212L8.04492 161.866L14.9375 140.519L15.7085 140.751L15.6314 140.983C15.323 141.942 15.508 142.824 16.2019 143.628L33.7803 161.789C34.0733 162.052 34.3508 162.222 34.6284 162.299C34.8597 162.376 35.0756 162.376 35.2606 162.315C35.5998 162.222 35.8311 161.959 35.9699 161.541L36.0316 161.294L36.818 161.526L34.2892 169.368L33.5028 169.136L33.5953 168.889C33.7341 168.44 33.7495 167.961 33.5953 167.435C33.4565 166.909 33.2098 166.46 32.8397 166.043C27.4891 160.567 21.1516 154.07 13.8119 146.552L10.1112 158.014C9.81818 158.927 9.89528 159.809 10.3579 160.659C10.8205 161.51 11.5298 162.083 12.4549 162.361L12.4858 162.392Z" fill="#F3EBE1" fill-opacity="0.5"/>
<path d="M48.4037 124.492L45.3815 123.1L39.0594 136.001L38.5197 135.753L27.0938 112.891L28.9595 109.07L29.6997 109.41L29.5455 109.627C29.3142 110.168 29.2833 110.71 29.4838 111.251C29.6843 111.777 30.0543 112.179 30.594 112.427L46.1987 119.589L46.5842 118.8C47.0005 117.903 47.0314 117.005 46.7076 116.124C46.3683 115.242 45.767 114.592 44.8726 114.19L44.6259 114.082L44.9651 113.386L49.1747 115.319L46.9234 119.929L49.9457 121.321C50.4854 121.569 51.0405 121.6 51.5956 121.398C52.1507 121.213 52.567 120.842 52.8137 120.331L52.9063 120.084L53.6464 120.424L50.0074 127.849L49.2672 127.509L49.406 127.277C49.6527 126.735 49.6835 126.194 49.4985 125.652C49.2981 125.111 48.9434 124.724 48.4037 124.477V124.492ZM29.4221 115.783L38.8281 134.671L44.6567 122.775L29.4221 115.783Z" fill="#F3EBE1" fill-opacity="0.5"/>
<path d="M64.5455 101.165L65.2394 101.598L60.6443 108.559L59.9505 108.126L60.1047 107.925C60.4285 107.414 60.5364 106.873 60.3976 106.316C60.2743 105.759 59.9505 105.326 59.457 105.017L43.0968 94.9L41.7861 96.8955L41.2002 96.5397L41.2773 96.3541C41.3852 96.0756 41.4623 95.8745 41.524 95.7198C41.6782 95.3177 41.7707 94.9 41.8015 94.4669C41.8632 93.7089 41.7707 92.9355 41.524 92.193C41.4006 91.8372 41.231 91.4969 41.046 91.172C40.938 91.0019 40.8301 90.8472 40.7221 90.6925C40.6759 90.6306 40.5525 90.4914 40.3521 90.2439L40.2441 90.1047L40.7838 89.3003L61.4153 102.062C61.9242 102.371 62.4639 102.464 63.0498 102.34C63.6358 102.217 64.0829 101.907 64.4067 101.412L64.5301 101.18L64.5455 101.165Z" fill="#F3EBE1" fill-opacity="0.5"/>
<path d="M70.4954 87.4138C69.7707 87.4293 69.0614 87.4138 68.3521 87.321C65.5303 86.9807 63.0631 85.9443 60.9815 84.2118L60.9044 84.1499C58.0209 81.6904 56.4173 78.6121 56.0935 74.9305C55.9547 73.1207 56.1706 71.3572 56.7411 69.6711C57.3116 67.985 58.1905 66.4536 59.4087 65.0924C60.1642 64.2261 61.0278 63.4836 61.9838 62.8339C62.4155 62.5246 62.8781 62.2616 63.3407 62.0141C63.387 61.9986 63.4332 61.9677 63.4641 61.9367C63.5257 61.8594 63.5566 61.7821 63.5566 61.6738C63.5566 61.581 63.5103 61.4881 63.4178 61.4108L63.2019 61.2561L63.7416 60.6528L68.4754 64.5664L67.9358 65.1697L67.7507 64.9841C67.1956 64.52 66.548 64.3808 65.777 64.551C65.7307 64.551 65.6691 64.5664 65.6228 64.5819C65.1602 64.7211 64.713 64.8758 64.2813 65.046C62.1842 65.8967 60.4881 67.0569 59.1928 68.5264C57.5275 70.4136 56.7565 72.5329 56.8953 74.8686C57.1574 77.2199 58.2522 79.1999 60.1951 80.8087C60.6731 81.1954 61.1819 81.5666 61.7525 81.8915C60.8581 80.0352 60.5343 78.1016 60.7965 76.0907C61.0586 74.0952 61.8758 72.3163 63.2482 70.754C65.0985 68.6502 67.504 67.4591 70.48 67.1807C73.3635 66.995 75.9231 67.7839 78.1744 69.5938L78.2515 69.6557C79.7164 70.8777 80.7957 72.4555 81.4588 74.4046C82.1064 76.3846 82.1372 78.3027 81.5513 80.1435C81.1812 81.3191 80.5644 82.4019 79.7009 83.3765C78.637 84.583 77.2492 85.5576 75.5531 86.2846C73.9494 86.9498 72.2841 87.321 70.5263 87.3984L70.4954 87.4138ZM61.7833 76.1526C61.4441 77.1426 61.4132 78.1326 61.6908 79.1535C61.9684 80.159 62.508 81.0407 63.3407 81.7677L63.4795 81.8915C64.343 82.6185 65.3453 83.129 66.4555 83.4538C67.5657 83.7787 68.7067 83.9334 69.8941 83.9179C71.0814 83.9179 72.2378 83.7632 73.3943 83.5002C74.5508 83.2373 75.6147 82.866 76.5862 82.4019C77.1721 82.139 77.7735 81.8296 78.4057 81.4583C79.0379 81.0871 79.5776 80.6385 80.0248 80.128C80.3332 79.7722 80.5644 79.4165 80.7186 79.0607C81.027 78.2718 81.1504 77.4983 81.1041 76.7249C80.9654 75.2708 80.2561 74.0333 78.9916 72.9815C78.6678 72.703 78.2978 72.4555 77.8814 72.208C75.846 71.0479 73.4714 70.5529 70.773 70.723C68.9843 70.8622 67.3652 71.2954 65.9158 72.0224C64.713 72.6257 63.7416 73.3372 63.0015 74.188C62.4772 74.7913 62.0763 75.441 61.7987 76.168L61.7833 76.1526Z" fill="#F3EBE1" fill-opacity="0.5"/>
<path d="M98.2638 63.9467H98.233C97.7396 64.3489 97.2153 64.8594 96.6602 65.5246C96.1051 66.1743 95.6271 66.7775 95.2262 67.3189C94.8253 67.8603 94.6248 68.1233 94.6094 68.1388V68.1697L94.1468 68.51L94.008 68.4327L93.7613 68.3089C92.7128 67.7057 91.803 66.9477 91.0475 66.0196C90.3844 65.2152 89.8601 64.3335 89.4746 63.3744C89.0737 62.4153 88.8579 61.4099 88.7962 60.3735C88.7962 60.0331 88.7808 59.7083 88.7962 59.368C88.7962 58.7956 88.9195 58.0531 89.1508 57.1714C89.3667 56.2742 89.783 55.4234 90.3844 54.5881C91.0012 53.8147 91.7105 53.1186 92.4969 52.4998L92.6048 52.4225C93.1754 51.9894 93.7459 51.5253 94.3473 51.0303C95.8275 49.7309 96.8452 48.447 97.4004 47.1941C97.6933 46.5598 97.8629 45.9256 97.9246 45.2759C97.9863 44.4251 97.7704 43.6981 97.277 43.0948C97.0149 42.77 96.6756 42.507 96.2747 42.3059C96.2439 42.2905 96.213 42.275 96.1822 42.2595C95.1028 41.78 93.6996 41.5944 92.0035 41.749C89.3513 41.9656 87.0846 42.6772 85.188 43.8837C84.9104 44.0694 84.6483 44.2395 84.417 44.4251C83.8927 44.8273 83.4147 45.2605 82.9676 45.7555C82.7979 45.9566 82.6283 46.1576 82.4587 46.3897C82.3354 46.5444 82.2274 46.6991 82.1503 46.8537C81.7957 47.5034 81.6415 48.1686 81.7031 48.8492C81.7648 49.5453 82.0115 50.1641 82.4741 50.7209L82.6283 50.9066L81.9961 51.3861L80.2383 49.2514L80.2691 49.1431C80.5158 48.0294 80.9013 46.9466 81.4256 45.9101C82.4433 43.9766 83.7848 42.3678 85.4655 41.0684C86.3907 40.3569 87.3776 39.769 88.4415 39.2895C90.2456 38.5161 91.911 38.2376 93.4529 38.4697C94.964 38.7326 96.2439 39.4287 97.277 40.527L97.462 40.759C98.3255 41.8109 98.7881 43.0639 98.8344 44.5025C98.8344 46.1576 98.2639 47.7355 97.1228 49.2669C96.2593 50.3806 95.1645 51.4634 93.7922 52.5153L93.0674 53.0722C92.8207 53.2578 92.5432 53.4899 92.2656 53.7374C91.9726 53.9849 91.6951 54.2788 91.4329 54.6191C90.9087 55.2688 90.5078 56.0577 90.1994 56.9858C89.7214 58.4089 89.6288 59.8011 89.9527 61.1624C90.1531 62.075 90.5386 62.8949 91.1554 63.6374C91.4946 64.0396 91.8801 64.3953 92.3273 64.6892C92.7745 64.9832 93.2679 65.1842 93.823 65.2925C93.9926 65.045 94.2856 64.6119 94.6865 64.0396C95.1028 63.4517 95.5654 62.833 96.0897 62.1833C96.6139 61.5336 97.1074 61.0386 97.57 60.6828H97.6008C98.1713 60.2188 98.7727 59.832 99.4049 59.4608C100.037 59.105 100.669 58.7647 101.286 58.4399C101.887 58.115 102.473 57.8056 103.059 57.4808C103.692 57.125 104.247 56.7538 104.74 56.3825L104.91 56.2588C106.112 55.3306 106.945 54.3561 107.423 53.3197L107.593 52.933L107.855 53.2733C108.41 54.1241 108.61 55.0213 108.456 55.9649C108.302 56.9085 107.978 57.7283 107.439 58.4244C107.068 58.9039 106.606 59.368 106.035 59.8166C105.542 60.1878 105.033 60.5281 104.509 60.8066C103.969 61.085 103.491 61.3325 103.029 61.5336C102.72 61.6728 102.396 61.7966 102.103 61.9358C101.44 62.1988 100.793 62.4927 100.145 62.8175C99.4974 63.1424 98.8961 63.5136 98.341 63.9467H98.2638Z" fill="#F3EBE1" fill-opacity="0.5"/>
<path d="M120.06 45.2456C119.382 44.9981 118.734 44.7042 118.117 44.3638C115.635 43.0026 113.784 41.1309 112.535 38.7641L112.489 38.6868C110.808 35.3455 110.531 31.9115 111.672 28.3846C112.258 26.6521 113.152 25.1207 114.339 23.7749C115.527 22.4291 116.961 21.3463 118.611 20.5265C119.659 20.016 120.754 19.6293 121.895 19.3818C122.419 19.258 122.944 19.1807 123.468 19.1188C123.529 19.1188 123.576 19.1188 123.607 19.0879C123.699 19.0414 123.761 18.9796 123.792 18.8868C123.822 18.7939 123.822 18.7011 123.761 18.5929L123.622 18.3763L124.347 18.0205L127.169 23.3882L126.444 23.744L126.336 23.5119C126.012 22.8932 125.457 22.5065 124.686 22.3672C124.64 22.3518 124.578 22.3363 124.516 22.3363C124.038 22.2899 123.56 22.2744 123.098 22.2744C120.816 22.2899 118.796 22.7385 117.022 23.6047C114.725 24.734 113.183 26.4046 112.397 28.6166C111.703 30.8905 111.934 33.1335 113.09 35.3146C113.368 35.856 113.707 36.382 114.093 36.8924C114 34.8351 114.463 32.9324 115.496 31.1844C116.529 29.4365 117.994 28.0907 119.875 27.1626C122.419 25.9096 125.118 25.7085 127.97 26.5283C130.715 27.4255 132.766 29.1116 134.138 31.6021L134.184 31.6794C135.063 33.3501 135.433 35.2063 135.279 37.2637C135.094 39.3365 134.37 41.1154 133.105 42.6159C132.288 43.5749 131.301 44.3329 130.114 44.9207C128.649 45.6478 126.983 46.019 125.133 46.0654C123.391 46.0963 121.695 45.8179 120.045 45.2301L120.06 45.2456ZM116.467 31.6176C115.773 32.4065 115.342 33.3191 115.187 34.3555C115.033 35.392 115.187 36.3974 115.681 37.3874L115.773 37.5576C116.298 38.5476 117.007 39.3984 117.901 40.0945C118.796 40.806 119.798 41.3629 120.893 41.796C121.988 42.2292 123.129 42.5231 124.3 42.7087C125.472 42.8788 126.598 42.9407 127.677 42.8788C128.325 42.8479 129.003 42.786 129.728 42.6777C130.453 42.5695 131.131 42.3529 131.748 42.059C132.18 41.8424 132.535 41.6104 132.797 41.332C133.383 40.7287 133.814 40.0481 134.077 39.321C134.524 37.9288 134.354 36.5212 133.599 35.0826C133.398 34.7113 133.167 34.3401 132.874 33.9688C131.455 32.1435 129.466 30.8132 126.891 29.9624C125.179 29.4365 123.514 29.2354 121.88 29.3591C120.538 29.4674 119.351 29.7768 118.333 30.2718C117.608 30.6276 116.976 31.0916 116.452 31.664L116.467 31.6176Z" fill="#F3EBE1" fill-opacity="0.5"/>
<path d="M156.658 33.6286L156.905 34.3866L148.779 36.9235L148.532 36.1655L148.794 36.1036C149.38 35.9025 149.812 35.5622 150.074 35.0518C150.336 34.5413 150.382 34.0153 150.197 33.4739L144.23 15.592L141.901 16.3191L141.686 15.6848L141.871 15.592C142.133 15.4528 142.333 15.3291 142.472 15.2517C142.857 15.0352 143.197 14.7722 143.505 14.4628C144.06 13.9214 144.476 13.2717 144.785 12.5292C144.924 12.1734 145.016 11.8177 145.093 11.4464C145.124 11.2608 145.14 11.0597 145.17 10.8741C145.17 10.7967 145.17 10.6111 145.17 10.3017V10.1316L146.111 9.83765L153.651 32.3911C153.836 32.948 154.191 33.3502 154.731 33.6132C155.27 33.8761 155.81 33.9071 156.38 33.7369L156.627 33.6441L156.658 33.6286Z" fill="#F3EBE1" fill-opacity="0.5"/>
<path d="M202.971 4.16055C203.511 4.64008 203.989 5.15055 204.436 5.67649C206.163 7.87305 207.15 10.2862 207.366 12.9468V13.0396C207.659 16.6284 206.548 19.8923 204.05 22.8623C202.817 24.239 201.383 25.3218 199.764 26.1262C198.129 26.9306 196.387 27.3947 194.536 27.5339C193.38 27.6267 192.223 27.5803 191.067 27.3947C190.527 27.3018 190.018 27.1781 189.51 27.0234C189.479 27.0234 189.433 27.0234 189.371 27.0234C189.278 27.0234 189.201 27.0698 189.124 27.1472C189.047 27.2245 189.016 27.3173 189.016 27.4256L189.062 27.6886L188.245 27.7504L187.767 21.7486L188.584 21.6867V21.9496C188.646 22.6457 189.001 23.2026 189.664 23.6048C189.71 23.6203 189.756 23.6512 189.803 23.6821H189.818C190.25 23.8832 190.682 24.0843 191.113 24.27C193.21 25.0898 195.246 25.4147 197.219 25.2754C199.81 25.0743 201.892 24.0998 203.48 22.3518C205.022 20.5111 205.685 18.3764 205.484 15.9168C205.438 15.3135 205.33 14.7103 205.176 14.0915C204.451 16.0251 203.264 17.6029 201.629 18.8404C199.98 20.0779 198.114 20.774 195.986 20.9287C193.164 21.1453 190.604 20.3409 188.291 18.5156C186.102 16.6748 184.868 14.3545 184.591 11.5237V11.4309C184.437 9.57462 184.837 7.73384 185.778 5.89305C186.765 4.05227 188.153 2.67554 189.926 1.76289C191.052 1.17507 192.27 0.81929 193.58 0.726477C195.215 0.602727 196.911 0.865696 198.653 1.51539C200.257 2.14961 201.707 3.03133 203.002 4.19148L202.971 4.16055ZM200.889 18.0825C201.861 17.6184 202.616 16.9223 203.156 16.0251C203.696 15.1279 203.942 14.1379 203.896 13.0551V12.8695C203.788 11.7712 203.464 10.7193 202.925 9.72931C202.385 8.73931 201.676 7.85759 200.828 7.05321C199.98 6.24883 199.054 5.55274 198.052 4.94946C197.05 4.34617 196.032 3.88211 195.014 3.5418C194.413 3.32523 193.75 3.13961 193.025 2.96945C192.301 2.79929 191.591 2.73742 190.897 2.79929C190.435 2.83023 190.018 2.92304 189.633 3.07773C188.847 3.40258 188.184 3.86664 187.659 4.45445C186.703 5.58368 186.287 6.9604 186.426 8.56915C186.457 8.98681 186.534 9.41993 186.642 9.86853C187.228 12.0806 188.554 14.0451 190.604 15.7776C191.961 16.8914 193.411 17.6957 194.968 18.1907C196.248 18.5929 197.466 18.7476 198.607 18.6548C199.44 18.5929 200.211 18.3918 200.889 18.067V18.0825Z" fill="#F3EBE1" fill-opacity="0.5"/>
<path d="M227.781 25.8793L227.75 26.6682L219.223 26.3897L219.254 25.6008L219.516 25.6318C220.132 25.6318 220.672 25.4461 221.088 25.0594C221.52 24.6727 221.736 24.1932 221.767 23.6054L222.43 4.82626L219.994 4.74891L220.024 4.08376L220.24 4.05282C220.533 4.00641 220.765 3.96001 220.934 3.92907C221.366 3.85173 221.782 3.71251 222.183 3.52688C222.893 3.18657 223.525 2.72251 224.064 2.13469C224.311 1.84078 224.542 1.54688 224.727 1.20656C224.82 1.03641 224.913 0.866252 224.99 0.696095C225.02 0.618751 225.082 0.448594 225.205 0.170156L225.267 0L226.254 0.0309375L225.406 23.7291C225.391 24.3015 225.576 24.8119 225.992 25.2296C226.408 25.6472 226.902 25.8638 227.503 25.8947H227.765L227.781 25.8793Z" fill="#F3EBE1" fill-opacity="0.5"/>
<path d="M243.071 23.7446C242.67 23.1568 242.33 22.5535 242.038 21.9193C240.866 19.4134 240.48 16.8456 240.912 14.2159V14.1231C241.59 10.457 243.441 7.51788 246.509 5.32131C248.036 4.25397 249.686 3.51147 251.474 3.09381C253.248 2.67615 255.067 2.61428 256.902 2.89272C258.059 3.06287 259.169 3.38772 260.248 3.83631C260.742 4.03741 261.22 4.26944 261.682 4.51694C261.728 4.54788 261.775 4.56334 261.806 4.57881C261.913 4.57881 262.006 4.57881 262.083 4.51694C262.16 4.45506 262.222 4.37772 262.237 4.26944V4.00647L263.07 4.13022L262.114 10.0857L261.297 9.96195L261.358 9.71445C261.466 9.01835 261.25 8.3996 260.711 7.85819C260.68 7.81179 260.634 7.78085 260.587 7.74991C260.217 7.44054 259.847 7.1621 259.477 6.88366C257.627 5.59975 255.715 4.81084 253.756 4.51694C251.212 4.13022 248.961 4.60975 246.972 5.95553C245.044 7.4096 243.872 9.35867 243.472 11.7873C243.379 12.3905 243.333 12.9938 243.333 13.6281C244.505 11.911 246.031 10.6271 247.928 9.79179C249.824 8.95648 251.829 8.69351 253.911 9.01835C256.732 9.45148 259.045 10.7973 260.849 13.1021C262.53 15.376 263.178 17.9129 262.777 20.7128V20.8056C262.469 22.6618 261.636 24.3634 260.264 25.9412C258.86 27.519 257.195 28.54 255.268 29.035C254.034 29.3443 252.754 29.4062 251.459 29.2051C249.84 28.9576 248.252 28.3234 246.725 27.3025C245.291 26.3434 244.088 25.1523 243.101 23.7446H243.071ZM248.406 10.658C247.357 10.9055 246.463 11.4005 245.723 12.143C244.983 12.901 244.505 13.8137 244.289 14.8656L244.258 15.0512C244.088 16.1495 244.15 17.2323 244.443 18.3151C244.736 19.3979 245.214 20.4188 245.846 21.3934C246.478 22.3679 247.219 23.2496 248.051 24.054C248.899 24.8584 249.778 25.539 250.688 26.1114C251.228 26.4517 251.829 26.792 252.477 27.1168C253.14 27.4417 253.803 27.6582 254.497 27.7665C254.975 27.8439 255.406 27.8439 255.792 27.7665C256.64 27.6118 257.395 27.3025 258.043 26.8539C259.246 25.9721 259.971 24.7346 260.233 23.1414C260.294 22.7237 260.325 22.2906 260.325 21.8265C260.279 19.5371 259.477 17.3251 257.904 15.1904C256.84 13.7982 255.607 12.6845 254.204 11.8646C253.047 11.184 251.906 10.7663 250.78 10.5962C249.979 10.4724 249.192 10.4879 248.421 10.6426L248.406 10.658Z" fill="#F3EBE1" fill-opacity="0.5"/>
<path d="M276.252 30.1503C275.974 29.5161 275.743 28.8509 275.558 28.1857C274.849 25.5096 274.957 22.9264 275.851 20.4049L275.882 20.3121C277.192 16.8162 279.567 14.2484 282.975 12.5932C284.671 11.8043 286.429 11.3557 288.264 11.2474C290.099 11.1391 291.887 11.3866 293.645 11.9745C294.755 12.3457 295.789 12.8407 296.775 13.4749C297.223 13.7534 297.654 14.0627 298.071 14.3876C298.117 14.434 298.148 14.4495 298.179 14.4649C298.271 14.4959 298.364 14.4959 298.472 14.4649C298.58 14.434 298.626 14.3567 298.672 14.2484L298.749 14.0009L299.52 14.2638L297.485 19.9564L296.714 19.6934L296.822 19.4613C297.053 18.7962 296.96 18.1465 296.529 17.5278C296.498 17.4813 296.467 17.4349 296.436 17.404C296.128 17.0482 295.819 16.6924 295.496 16.3676C293.907 14.7898 292.165 13.6915 290.284 13.0573C287.847 12.2374 285.535 12.3302 283.345 13.3202C281.171 14.4185 279.675 16.1356 278.842 18.4559C278.642 19.0282 278.472 19.6315 278.364 20.2503C279.829 18.7653 281.572 17.7598 283.592 17.2648C285.612 16.7698 287.632 16.8471 289.621 17.5278C292.319 18.4249 294.339 20.1574 295.696 22.7253C296.93 25.2467 297.099 27.8609 296.205 30.537L296.174 30.6298C295.542 32.3933 294.416 33.9401 292.782 35.2704C291.116 36.5698 289.282 37.3123 287.292 37.467C286.013 37.5598 284.764 37.4051 283.499 36.9875C281.942 36.4615 280.508 35.5798 279.182 34.3114C277.948 33.1203 276.977 31.7436 276.267 30.1967L276.252 30.1503ZM283.9 18.1774C282.836 18.2393 281.849 18.5796 280.986 19.1829C280.107 19.8017 279.475 20.606 279.074 21.627L279.012 21.7971C278.642 22.849 278.503 23.9318 278.596 25.0456C278.688 26.1593 278.966 27.2421 279.413 28.3095C279.86 29.3768 280.415 30.3668 281.094 31.3104C281.772 32.254 282.512 33.0739 283.314 33.7854C283.777 34.2186 284.301 34.6517 284.887 35.0694C285.473 35.487 286.105 35.8273 286.753 36.0439C287.215 36.1986 287.632 36.2759 288.017 36.2759C288.881 36.2759 289.682 36.0903 290.407 35.7654C291.749 35.1003 292.689 34.0175 293.229 32.4861C293.368 32.0839 293.476 31.6662 293.568 31.2022C293.938 28.9437 293.553 26.6234 292.396 24.2567C291.61 22.6943 290.592 21.3949 289.359 20.3431C288.341 19.4768 287.292 18.8735 286.213 18.5178C285.442 18.2548 284.671 18.1465 283.869 18.162L283.9 18.1774Z" fill="#F3EBE1" fill-opacity="0.5"/>
<path d="M307.617 42.2914C307.463 41.6107 307.386 40.9146 307.339 40.234C307.201 37.4806 307.817 34.9592 309.205 32.6543L309.251 32.577C311.256 29.4059 314.093 27.333 317.779 26.374C319.598 25.9254 321.418 25.8171 323.237 26.0646C325.057 26.3121 326.753 26.8845 328.356 27.7971C329.374 28.3695 330.284 29.0655 331.117 29.8545C331.502 30.2102 331.857 30.597 332.196 30.9991C332.227 31.0456 332.258 31.0765 332.288 31.092C332.381 31.1384 332.473 31.1538 332.566 31.1384C332.674 31.1229 332.751 31.061 332.797 30.9682L332.921 30.7362L333.63 31.1384L330.484 36.3359L329.775 35.9337L329.929 35.7171C330.299 35.1138 330.33 34.4642 330.037 33.7681C330.037 33.7216 330.006 33.6752 329.975 33.6288C329.76 33.2112 329.513 32.8245 329.266 32.4377C328.033 30.597 326.552 29.1738 324.841 28.1993C322.62 26.9463 320.338 26.5751 317.979 27.132C315.635 27.7971 313.8 29.1893 312.52 31.3085C312.212 31.8345 311.934 32.3913 311.688 32.9791C313.43 31.7881 315.342 31.1538 317.424 31.0456C319.506 30.9373 321.464 31.4168 323.283 32.4532C325.735 33.8454 327.37 35.9337 328.187 38.7181C328.881 41.4251 328.526 44.0084 327.092 46.4679L327.046 46.5453C326.059 48.154 324.64 49.4534 322.774 50.4434C320.878 51.4025 318.935 51.7737 316.946 51.5417C315.681 51.387 314.479 51.0003 313.338 50.3506C311.919 49.5462 310.685 48.4015 309.652 46.9011C308.681 45.4934 308.018 43.962 307.632 42.3068L307.617 42.2914ZM317.547 32.0046C316.483 31.8654 315.466 32.0046 314.479 32.4377C313.492 32.8709 312.705 33.5515 312.104 34.4642L312.012 34.6188C311.426 35.5779 311.071 36.6143 310.948 37.7281C310.824 38.8418 310.871 39.9556 311.086 41.0848C311.302 42.214 311.657 43.2968 312.135 44.3487C312.613 45.4006 313.168 46.3442 313.8 47.195C314.17 47.7054 314.602 48.2314 315.08 48.7573C315.574 49.2987 316.113 49.7318 316.715 50.0722C317.131 50.3042 317.532 50.4589 317.917 50.5362C318.765 50.6909 319.583 50.6754 320.354 50.4898C321.803 50.1031 322.944 49.2059 323.792 47.8137C324.008 47.4579 324.209 47.0557 324.378 46.6226C325.211 44.4725 325.288 42.1367 324.64 39.5843C324.178 37.9137 323.453 36.4442 322.466 35.1757C321.649 34.1393 320.739 33.3349 319.752 32.7781C319.043 32.3759 318.303 32.1129 317.532 31.9891L317.547 32.0046Z" fill="#F3EBE1" fill-opacity="0.5"/>
<path d="M346.277 44.7812L346.107 44.9668L345.521 44.4563L348.59 41.146L362.884 53.552L362.359 54.1088L362.174 53.9541C361.326 53.2116 360.339 52.9487 359.214 53.1498L353.724 54.5884C354.65 55.6093 355.313 56.7849 355.713 58.0998C356.13 59.5074 356.222 60.9306 355.976 62.3692C355.636 64.1481 354.865 65.6949 353.663 67.0098C351.967 68.8351 349.792 69.8561 347.125 70.0881C347.094 70.0881 347.063 70.1035 347.001 70.1035C346.94 70.1035 346.878 70.1035 346.801 70.1035C344.981 70.1809 343.224 69.9179 341.543 69.3456C339.862 68.7732 338.351 67.8915 337.009 66.7314C335.39 65.3237 334.188 63.6531 333.386 61.704C333.324 61.5338 333.216 61.3792 333.077 61.2554C332.862 61.0698 332.599 60.9615 332.322 60.9615C332.044 60.9615 331.767 61.0388 331.52 61.2245C331.443 61.2863 331.366 61.3637 331.304 61.4256L331.135 61.6267L330.533 61.1162L336.146 55.0524L336.747 55.5629L336.562 55.7485C336.238 56.1043 336.053 56.5374 336.007 57.0324V57.4191H336.038C336.084 58.0843 336.177 58.734 336.3 59.3992C336.994 62.6321 338.382 65.1535 340.494 66.9943C342.052 68.3556 343.81 69.129 345.752 69.3146C345.984 69.3301 346.23 69.3456 346.462 69.361H346.724C346.724 69.361 346.786 69.3456 346.816 69.361C346.863 69.361 346.893 69.361 346.924 69.361C348.05 69.2682 348.991 68.8815 349.731 68.1854L349.993 67.8915C351.489 66.2673 352.337 64.2564 352.522 61.8587C352.707 59.461 352.167 57.2335 350.918 55.1607C350.486 54.4956 350.008 53.9232 349.469 53.4591C349.191 53.2116 348.883 52.9951 348.574 52.8095L348.096 52.5155L357.641 50.0096L351.303 44.5027C350.532 43.884 349.669 43.5901 348.698 43.6519C347.726 43.7138 346.924 44.0851 346.277 44.7812Z" fill="#F3EBE1" fill-opacity="0.5"/>
<path d="M372.508 69.3317L372.307 69.4709L371.814 68.8521L375.499 66.1296L389.531 83.8878L388.899 84.3519L388.745 84.1662C388.112 83.3619 387.264 83.0061 386.185 83.0834L360.727 86.502C360.342 86.5794 360.033 86.7186 359.802 86.8887C359.617 87.028 359.478 87.1981 359.416 87.3837C359.293 87.7086 359.386 88.0334 359.663 88.3892L359.833 88.5903L359.185 89.0698L354.02 82.542L354.667 82.0625L354.821 82.279C355.114 82.6503 355.515 82.9287 356.04 83.1144C356.564 83.3 357.088 83.3773 357.643 83.3155C365.353 82.2481 374.497 80.9797 385.059 79.5256L377.519 69.9814C376.918 69.2234 376.116 68.7748 375.129 68.6511C374.142 68.5273 373.263 68.7593 372.477 69.3317H372.508Z" fill="#F3EBE1" fill-opacity="0.5"/>
<path d="M387.817 126.364C388.125 125.73 388.464 125.127 388.865 124.555C390.438 122.265 392.489 120.595 395.018 119.543L395.11 119.512C398.672 118.104 402.234 118.089 405.781 119.434C407.523 120.115 409.049 121.09 410.36 122.327C411.671 123.565 412.689 125.019 413.413 126.674C413.876 127.71 414.184 128.793 414.369 129.922C414.462 130.433 414.508 130.943 414.523 131.469C414.523 131.531 414.523 131.562 414.539 131.608C414.585 131.701 414.647 131.763 414.739 131.809C414.832 131.856 414.94 131.856 415.032 131.809L415.264 131.686L415.587 132.413L409.867 134.779L409.543 134.052L409.79 133.975C410.453 133.697 410.884 133.202 411.069 132.459C411.085 132.413 411.1 132.366 411.1 132.304C411.177 131.84 411.224 131.392 411.27 130.928C411.409 128.731 411.085 126.751 410.314 124.972C409.312 122.683 407.693 121.074 405.457 120.161C403.159 119.342 400.846 119.419 398.502 120.378C397.932 120.61 397.361 120.904 396.806 121.244C398.934 121.291 400.862 121.878 402.604 122.992C404.346 124.106 405.626 125.606 406.459 127.494C407.569 130.03 407.6 132.645 406.552 135.352C405.441 137.935 403.56 139.807 400.908 140.951L400.815 140.982C399.042 141.709 397.099 141.941 394.987 141.663C392.874 141.338 391.086 140.518 389.621 139.188C388.696 138.337 387.971 137.316 387.447 136.141C386.799 134.671 386.521 133.047 386.598 131.252C386.691 129.566 387.092 127.958 387.801 126.395L387.817 126.364ZM402.111 123.827C401.34 123.1 400.43 122.621 399.381 122.404C398.317 122.188 397.269 122.281 396.236 122.667L396.066 122.745C395.018 123.178 394.092 123.812 393.306 124.632C392.52 125.452 391.872 126.38 391.348 127.401C390.839 128.437 390.438 129.505 390.176 130.618C389.914 131.732 389.775 132.815 389.775 133.867C389.76 134.485 389.775 135.151 389.852 135.862C389.914 136.574 390.083 137.239 390.361 137.858C390.546 138.291 390.777 138.647 391.039 138.925C391.625 139.544 392.288 139.992 393.028 140.286C394.432 140.812 395.897 140.75 397.439 140.116C397.839 139.946 398.24 139.745 398.641 139.497C400.63 138.244 402.142 136.419 403.175 133.99C403.838 132.382 404.161 130.788 404.131 129.195C404.115 127.896 403.868 126.736 403.421 125.715C403.097 124.988 402.666 124.353 402.126 123.797L402.111 123.827Z" fill="#F3EBE1" fill-opacity="0.5"/>
<path d="M417.458 149.504L417.212 149.566L417.011 148.839L421.452 147.664L426.51 165.592L425.754 165.793L425.692 165.561C425.384 164.494 424.706 163.751 423.657 163.318L418.245 161.647C418.461 162.993 418.353 164.323 417.952 165.638C417.52 167.046 416.795 168.283 415.778 169.351C414.498 170.666 412.987 171.563 411.229 172.027C408.792 172.677 406.372 172.398 403.997 171.176C403.966 171.176 403.935 171.161 403.889 171.13C403.843 171.099 403.781 171.068 403.719 171.021C402.147 170.124 400.82 168.995 399.726 167.618C398.646 166.257 397.86 164.726 397.382 163.04C396.811 161.013 396.734 158.971 397.151 156.914C397.197 156.744 397.181 156.558 397.151 156.388C397.074 156.11 396.919 155.893 396.688 155.738C396.457 155.584 396.179 155.506 395.871 155.537C395.763 155.537 395.67 155.568 395.578 155.599L395.331 155.692L395.115 154.949L403.241 152.799L403.457 153.542L403.195 153.588C402.717 153.712 402.316 153.975 402.008 154.377L401.807 154.717L401.792 154.733C401.468 155.305 401.175 155.893 400.913 156.512C399.679 159.59 399.448 162.436 400.188 165.097C400.743 167.061 401.777 168.624 403.303 169.815C403.488 169.954 403.673 170.093 403.874 170.217L404.105 170.341C404.105 170.341 404.151 170.372 404.182 170.403C404.228 170.403 404.259 170.434 404.275 170.449C405.277 170.96 406.279 171.13 407.281 170.944L407.667 170.836C409.841 170.263 411.676 169.01 413.172 167.092C414.667 165.174 415.469 163.009 415.577 160.626C415.593 159.838 415.5 159.11 415.315 158.43C415.207 158.074 415.084 157.734 414.929 157.424L414.698 156.929L424.135 159.838L421.884 151.887C421.575 150.958 421.005 150.262 420.172 149.798C419.34 149.334 418.445 149.226 417.505 149.473L417.458 149.504Z" fill="#F3EBE1" fill-opacity="0.5"/>
<path d="M404.837 193.236L404.019 193.345L402.832 185.162L403.649 185.053V185.316C403.773 185.92 404.05 186.384 404.513 186.724C404.975 187.064 405.515 187.188 406.101 187.111L425.329 184.512L424.99 182.176L425.669 182.083L425.73 182.285C425.838 182.563 425.915 182.764 425.977 182.919C426.131 183.321 426.347 183.692 426.609 184.048C427.072 184.667 427.658 185.193 428.352 185.61C428.691 185.796 429.045 185.966 429.4 186.09C429.585 186.152 429.77 186.214 429.971 186.26C430.048 186.26 430.248 186.306 430.541 186.368L430.726 186.399L430.865 187.358L406.61 190.638C406.024 190.715 405.546 190.994 405.191 191.458C404.837 191.922 404.698 192.448 404.775 193.02L404.837 193.267V193.236Z" fill="#F3EBE1" fill-opacity="0.5"/>
<path d="M404.854 210.824V210.793C404.854 210.189 404.762 209.478 404.577 208.642C404.392 207.807 404.207 207.08 404.022 206.43C403.837 205.796 403.744 205.471 403.744 205.456V205.425L403.729 204.868L403.883 204.806L404.13 204.698C405.271 204.28 406.458 204.064 407.661 204.064C408.725 204.064 409.758 204.203 410.791 204.512C411.809 204.806 412.765 205.27 413.644 205.858C413.921 206.059 414.199 206.26 414.461 206.492C414.923 206.864 415.448 207.405 416.034 208.117C416.62 208.844 417.067 209.679 417.36 210.653C417.606 211.597 417.73 212.572 417.745 213.546V213.67C417.745 214.366 417.761 215.093 417.791 215.851C417.915 217.785 418.331 219.347 419.01 220.538C419.349 221.157 419.75 221.683 420.243 222.131C420.891 222.704 421.616 222.997 422.402 222.997C422.834 222.997 423.25 222.905 423.666 222.719C423.697 222.719 423.743 222.688 423.759 222.688C424.823 222.162 425.825 221.219 426.766 219.842C428.231 217.692 429.079 215.526 429.264 213.345C429.294 213.02 429.295 212.711 429.295 212.417C429.295 211.783 429.233 211.133 429.125 210.499C429.079 210.236 429.002 209.988 428.94 209.725C428.894 209.524 428.847 209.354 428.77 209.184C428.477 208.503 428.03 207.977 427.444 207.591C426.858 207.204 426.18 207.018 425.455 207.018H425.208V206.245H428.03L428.107 206.338C428.863 207.204 429.495 208.163 430.004 209.215C430.944 211.179 431.407 213.206 431.407 215.294C431.407 216.439 431.268 217.568 430.991 218.651C430.497 220.507 429.68 221.93 428.539 222.967C427.382 223.957 426.041 224.498 424.499 224.591H424.191C422.803 224.591 421.508 224.173 420.305 223.307C418.963 222.286 418.038 220.863 417.514 219.037C417.144 217.692 416.959 216.176 416.943 214.49V213.577C416.943 213.268 416.928 212.927 416.897 212.556C416.866 212.185 416.805 211.783 416.697 211.38C416.496 210.576 416.111 209.787 415.54 208.983C414.677 207.73 413.613 206.802 412.302 206.198C411.454 205.781 410.529 205.58 409.557 205.58C409.018 205.58 408.493 205.657 407.985 205.812C407.476 205.966 406.998 206.214 406.566 206.57C406.674 206.848 406.828 207.328 407.044 208.008C407.26 208.689 407.476 209.431 407.676 210.22C407.877 211.025 407.969 211.705 407.985 212.278V212.309C407.985 213.005 407.938 213.716 407.83 214.412C407.722 215.108 407.614 215.805 407.491 216.485C407.383 217.135 407.275 217.785 407.167 218.434C407.059 219.13 407.013 219.795 407.013 220.399V220.6C407.013 222.085 407.291 223.322 407.846 224.328L408.062 224.699H407.614C406.581 224.575 405.733 224.173 405.07 223.477C404.407 222.781 403.945 222.023 403.698 221.172C403.528 220.6 403.451 219.95 403.451 219.254C403.451 218.651 403.497 218.063 403.605 217.475C403.713 216.903 403.806 216.377 403.929 215.897C404.022 215.572 404.099 215.263 404.176 214.938C404.361 214.273 404.531 213.592 404.669 212.912C404.808 212.216 404.885 211.535 404.885 210.839L404.854 210.824Z" fill="#F3EBE1" fill-opacity="0.5"/>
<path d="M408.064 239.503C408.604 239.039 409.159 238.606 409.76 238.219C412.135 236.703 414.695 235.929 417.455 235.929H417.547C421.387 235.976 424.671 237.306 427.4 239.874C428.727 241.158 429.744 242.627 430.454 244.267C431.163 245.907 431.517 247.624 431.517 249.418C431.517 250.547 431.379 251.661 431.086 252.759C430.962 253.27 430.808 253.765 430.608 254.244C430.577 254.291 430.577 254.337 430.577 254.368C430.577 254.461 430.608 254.554 430.685 254.631C430.762 254.709 430.854 254.739 430.962 254.739H431.225V255.513H424.995V254.739H425.257C425.982 254.755 426.583 254.446 427.046 253.842C427.077 253.811 427.123 253.765 427.138 253.719C427.385 253.316 427.632 252.93 427.848 252.512C428.865 250.532 429.359 248.598 429.359 246.665C429.359 244.174 428.511 242.086 426.83 240.4C425.041 238.776 422.882 237.971 420.338 237.971C419.721 237.971 419.074 238.018 418.426 238.126C420.369 238.977 421.911 240.23 423.052 241.916C424.209 243.602 424.779 245.474 424.779 247.516C424.779 250.269 423.761 252.698 421.711 254.786C419.66 256.75 417.162 257.756 414.247 257.818H414.155C412.212 257.818 410.346 257.292 408.511 256.24C406.692 255.142 405.381 253.719 404.564 251.94C404.055 250.81 403.793 249.604 403.793 248.32C403.793 246.727 404.194 245.118 404.98 243.494C405.736 241.978 406.769 240.632 408.049 239.472L408.064 239.503ZM422.266 242.55C421.849 241.591 421.202 240.818 420.323 240.214C419.444 239.611 418.426 239.302 417.316 239.271H417.131C415.99 239.271 414.88 239.503 413.831 239.967C412.783 240.431 411.811 241.034 410.917 241.777C410.023 242.535 409.236 243.37 408.542 244.298C407.848 245.226 407.293 246.17 406.861 247.144C406.599 247.717 406.353 248.335 406.121 249.016C405.89 249.697 405.782 250.377 405.782 251.042C405.782 251.507 405.844 251.924 405.983 252.28C406.276 253.069 406.707 253.734 407.262 254.291C408.342 255.296 409.714 255.807 411.395 255.791C411.827 255.791 412.274 255.745 412.752 255.683C415.08 255.281 417.208 254.167 419.135 252.326C420.384 251.089 421.325 249.743 421.957 248.274C422.466 247.067 422.713 245.907 422.713 244.793C422.713 244.004 422.574 243.246 422.281 242.535L422.266 242.55Z" fill="#F3EBE1" fill-opacity="0.5"/>
<path d="M427.307 287.455C426.768 287.934 426.212 288.368 425.626 288.754C423.236 290.255 420.661 291.013 417.917 291.028H417.824C414.108 291.028 410.824 289.713 407.971 287.084C406.645 285.8 405.627 284.33 404.933 282.691C404.239 281.051 403.885 279.334 403.885 277.539C403.885 276.426 404.024 275.296 404.301 274.198C404.44 273.688 404.609 273.193 404.795 272.713C404.795 272.682 404.795 272.636 404.81 272.589C404.81 272.497 404.779 272.419 404.702 272.342C404.625 272.265 404.532 272.218 404.424 272.218H404.162V271.445H410.392V272.234H410.13C409.405 272.218 408.804 272.528 408.341 273.131C408.31 273.177 408.279 273.224 408.249 273.255C408.002 273.672 407.771 274.074 407.539 274.477C406.537 276.441 406.044 278.375 406.044 280.293C406.044 282.799 406.892 284.887 408.572 286.558C410.346 288.182 412.504 288.986 415.049 288.986C415.665 288.986 416.313 288.94 416.961 288.832C415.018 287.981 413.476 286.728 412.335 285.042C411.178 283.356 410.608 281.499 410.608 279.442C410.608 276.704 411.625 274.291 413.676 272.187C415.727 270.207 418.225 269.202 421.155 269.14H421.247C423.175 269.14 425.041 269.666 426.86 270.718C428.68 271.816 429.99 273.255 430.807 275.033C431.332 276.163 431.594 277.369 431.594 278.638C431.594 280.231 431.193 281.84 430.407 283.479C429.636 284.98 428.602 286.31 427.323 287.47L427.307 287.455ZM413.106 284.392C413.522 285.367 414.17 286.14 415.049 286.728C415.927 287.316 416.93 287.625 418.055 287.656H418.24C419.382 287.656 420.492 287.424 421.54 286.96C422.589 286.496 423.56 285.893 424.455 285.15C425.349 284.392 426.135 283.557 426.829 282.629C427.523 281.701 428.078 280.757 428.51 279.798C428.772 279.226 429.019 278.607 429.25 277.926C429.481 277.246 429.589 276.565 429.589 275.884C429.589 275.436 429.528 275.033 429.389 274.647C429.111 273.858 428.68 273.193 428.124 272.636C427.03 271.63 425.642 271.12 423.977 271.135C423.545 271.135 423.098 271.166 422.62 271.244C420.307 271.646 418.179 272.775 416.236 274.616C414.987 275.838 414.046 277.184 413.414 278.653C412.905 279.86 412.659 281.02 412.659 282.134C412.659 282.954 412.797 283.696 413.09 284.392H413.106Z" fill="#F3EBE1" fill-opacity="0.5"/>
<path d="M404.952 310.488H404.135L404.119 302.228H404.936L404.921 302.491C404.921 303.094 405.152 303.589 405.569 303.991C405.985 304.394 406.494 304.595 407.08 304.595L426.493 304.548V302.182H427.172L427.218 302.383C427.279 302.661 427.341 302.893 427.372 303.048C427.48 303.466 427.634 303.868 427.835 304.254C428.205 304.935 428.714 305.523 429.346 306.033C429.654 306.265 429.978 306.467 430.317 306.637C430.502 306.729 430.672 306.807 430.857 306.869C430.934 306.9 431.119 306.962 431.412 307.054L431.582 307.116V308.075L407.095 308.122C406.494 308.122 405.985 308.323 405.569 308.74C405.152 309.158 404.936 309.653 404.936 310.225V310.488H404.952Z" fill="#F3EBE1" fill-opacity="0.5"/>
<path d="M408.261 325.479C408.801 325.014 409.356 324.581 409.957 324.195C412.332 322.679 414.892 321.905 417.652 321.905H417.744C421.584 321.952 424.868 323.282 427.598 325.85C428.924 327.134 429.941 328.603 430.651 330.243C431.36 331.883 431.715 333.6 431.715 335.394C431.715 336.523 431.576 337.637 431.283 338.735C431.159 339.246 431.005 339.741 430.805 340.22C430.774 340.267 430.774 340.313 430.774 340.344C430.774 340.437 430.805 340.53 430.882 340.607C430.959 340.684 431.052 340.715 431.159 340.715H431.422V341.489H425.192V340.715H425.454C426.179 340.731 426.78 340.421 427.243 339.818C427.274 339.787 427.32 339.741 427.335 339.694C427.598 339.292 427.829 338.905 428.045 338.488C429.062 336.508 429.556 334.574 429.556 332.641C429.556 330.15 428.708 328.062 427.027 326.376C425.238 324.752 423.08 323.947 420.535 323.947C419.919 323.947 419.271 323.994 418.623 324.102C420.566 324.953 422.108 326.206 423.249 327.892C424.406 329.578 424.976 331.45 424.976 333.491C424.976 336.245 423.958 338.673 421.892 340.762C419.841 342.726 417.343 343.732 414.429 343.794H414.337C412.409 343.794 410.528 343.268 408.693 342.216C406.874 341.118 405.563 339.694 404.746 337.915C404.237 336.786 403.975 335.58 403.975 334.296C403.975 332.702 404.376 331.094 405.162 329.47C405.917 327.954 406.935 326.608 408.23 325.448L408.261 325.479ZM422.447 328.526C422.031 327.567 421.383 326.793 420.504 326.19C419.626 325.587 418.608 325.277 417.498 325.247H417.313C416.172 325.247 415.061 325.479 414.013 325.943C412.964 326.407 411.977 327.01 411.098 327.752C410.204 328.51 409.418 329.346 408.724 330.274C408.03 331.202 407.475 332.146 407.043 333.12C406.781 333.692 406.534 334.311 406.303 334.992C406.072 335.672 405.964 336.353 405.964 337.018C405.964 337.482 406.025 337.9 406.164 338.256C406.457 339.045 406.889 339.71 407.444 340.267C408.523 341.272 409.911 341.783 411.576 341.767C412.008 341.767 412.455 341.721 412.933 341.659C415.262 341.257 417.39 340.143 419.317 338.302C420.582 337.065 421.507 335.719 422.139 334.249C422.648 333.043 422.895 331.883 422.895 330.769C422.895 329.98 422.756 329.222 422.463 328.51L422.447 328.526Z" fill="#F3EBE1" fill-opacity="0.5"/>
<path d="M405.067 363.347H404.25L404.234 355.086H405.052L405.036 355.349C405.036 355.953 405.267 356.448 405.684 356.85C406.1 357.252 406.609 357.453 407.195 357.453L426.608 357.407V355.04H427.287L427.333 355.241C427.395 355.52 427.456 355.752 427.487 355.906C427.595 356.324 427.749 356.726 427.95 357.113C428.32 357.793 428.829 358.381 429.461 358.892C429.769 359.124 430.093 359.325 430.432 359.495C430.617 359.588 430.787 359.665 430.972 359.727C431.049 359.758 431.234 359.82 431.527 359.913L431.697 359.975V360.934L407.21 360.98C406.609 360.98 406.1 361.181 405.684 361.599C405.267 362.016 405.052 362.511 405.052 363.084V363.347H405.067Z" fill="#F3EBE1" fill-opacity="0.5"/>
<path d="M408.429 397.129C408.969 396.665 409.524 396.232 410.125 395.845C412.5 394.329 415.06 393.556 417.82 393.556H417.912C421.752 393.602 425.036 394.932 427.765 397.5C429.092 398.784 430.109 400.254 430.819 401.893C431.528 403.533 431.883 405.25 431.883 407.044C431.883 408.174 431.744 409.287 431.451 410.386C431.327 410.896 431.173 411.391 430.973 411.871C430.942 411.917 430.942 411.964 430.942 411.994C430.942 412.087 430.973 412.18 431.05 412.257C431.127 412.335 431.219 412.366 431.327 412.366H431.59V413.139H425.36V412.366H425.622C426.347 412.381 426.948 412.072 427.411 411.469C427.442 411.438 427.488 411.391 427.503 411.345C427.766 410.943 427.997 410.556 428.213 410.138C429.23 408.158 429.724 406.225 429.724 404.291C429.724 401.801 428.876 399.712 427.195 398.026C425.406 396.402 423.248 395.598 420.703 395.598C420.087 395.598 419.439 395.644 418.791 395.752C420.734 396.603 422.276 397.856 423.417 399.542C424.574 401.228 425.144 403.1 425.144 405.142C425.144 407.895 424.126 410.324 422.06 412.412C420.009 414.377 417.511 415.382 414.597 415.444H414.505C412.577 415.444 410.696 414.918 408.861 413.866C407.042 412.768 405.731 411.345 404.914 409.566C404.405 408.437 404.143 407.23 404.143 405.946C404.143 404.353 404.544 402.744 405.33 401.12C406.085 399.604 407.103 398.258 408.398 397.098L408.429 397.129ZM422.615 400.176C422.199 399.217 421.551 398.444 420.672 397.841C419.794 397.237 418.776 396.928 417.666 396.897H417.481C416.34 396.897 415.229 397.129 414.181 397.593C413.132 398.057 412.145 398.66 411.266 399.403C410.372 400.161 409.586 400.996 408.892 401.924C408.198 402.852 407.643 403.796 407.211 404.771C406.949 405.343 406.702 405.962 406.471 406.642C406.24 407.323 406.132 408.004 406.132 408.669C406.132 409.133 406.193 409.55 406.332 409.906C406.625 410.695 407.057 411.36 407.612 411.917C408.691 412.923 410.079 413.433 411.745 413.418C412.176 413.418 412.623 413.371 413.101 413.309C415.43 412.907 417.558 411.793 419.485 409.953C420.75 408.715 421.675 407.369 422.307 405.9C422.816 404.693 423.063 403.533 423.063 402.419C423.063 401.63 422.924 400.872 422.631 400.161L422.615 400.176Z" fill="#F3EBE1" fill-opacity="0.5"/>
<path d="M405.227 434.998H404.41L404.395 426.738H405.212L405.196 427.001C405.196 427.604 405.428 428.099 405.844 428.501C406.26 428.903 406.769 429.105 407.371 429.105L426.784 429.058V426.691H427.462L427.493 426.893C427.555 427.171 427.617 427.403 427.647 427.558C427.755 427.975 427.91 428.377 428.11 428.764C428.48 429.445 428.989 430.033 429.621 430.543C429.93 430.775 430.253 430.976 430.593 431.146C430.778 431.239 430.947 431.317 431.132 431.378C431.209 431.409 431.394 431.471 431.687 431.564L431.857 431.626V432.585L407.371 432.631C406.769 432.631 406.26 432.832 405.844 433.25C405.428 433.668 405.212 434.163 405.212 434.735V434.998H405.227Z" fill="#F3EBE1" fill-opacity="0.5"/>
<path d="M427.418 447.141H427.171V446.383H431.766L431.812 464.961H431.026V464.729C431.026 463.615 430.563 462.733 429.669 462.053L424.889 459.067C424.719 460.428 424.272 461.681 423.516 462.842C422.715 464.095 421.682 465.1 420.417 465.873C418.829 466.833 417.117 467.297 415.298 467.312C412.769 467.312 410.518 466.43 408.559 464.667C408.529 464.667 408.498 464.636 408.467 464.59C408.436 464.559 408.39 464.497 408.328 464.435C407.048 463.166 406.077 461.743 405.398 460.15C404.72 458.557 404.381 456.886 404.381 455.138C404.381 453.034 404.859 451.039 405.815 449.167C405.907 449.012 405.953 448.827 405.953 448.657C405.953 448.378 405.861 448.131 405.676 447.914C405.491 447.698 405.244 447.574 404.936 447.512C404.828 447.512 404.735 447.497 404.627 447.497H404.365V446.739H412.784V447.497H412.522C412.029 447.481 411.582 447.636 411.165 447.945L410.872 448.224L410.857 448.239C410.394 448.703 409.947 449.214 409.531 449.74C407.511 452.4 406.509 455.092 406.509 457.845C406.509 459.872 407.095 461.65 408.236 463.182C408.374 463.368 408.529 463.538 408.683 463.723L408.868 463.909C408.868 463.909 408.914 463.94 408.929 463.986C408.96 464.017 408.991 464.033 409.007 464.064C409.839 464.806 410.764 465.224 411.782 465.301H412.183C414.434 465.301 416.547 464.559 418.505 463.074C420.463 461.604 421.82 459.717 422.576 457.443C422.807 456.685 422.915 455.958 422.915 455.262C422.915 454.891 422.884 454.535 422.823 454.195L422.73 453.653L431.041 458.851V450.606C430.98 449.631 430.625 448.811 429.931 448.162C429.237 447.512 428.42 447.172 427.433 447.172L427.418 447.141Z" fill="#F3EBE1" fill-opacity="0.5"/>
<path d="M427.485 479.501H427.239V478.728H431.88L431.926 501.08H431.125V500.848C431.125 499.842 430.662 499.054 429.768 498.481L407.363 486.276C407.008 486.122 406.684 486.044 406.391 486.044C406.145 486.044 405.944 486.106 405.775 486.214C405.482 486.4 405.343 486.709 405.343 487.158V487.421H404.541V479.192H405.343V479.455C405.327 479.919 405.466 480.383 405.759 480.847C406.052 481.311 406.438 481.667 406.916 481.961C413.716 485.627 421.78 489.973 431.109 495.016L431.078 483.012C431.078 482.053 430.724 481.234 430.014 480.553C429.305 479.872 428.457 479.547 427.485 479.547V479.501Z" fill="#F3EBE1" fill-opacity="0.5"/>
<path d="M407.622 526.682H410.968L410.937 512.389H411.523L432.001 528.26V532.498H431.183L431.214 532.235C431.183 531.647 430.968 531.152 430.551 530.75C430.135 530.348 429.626 530.147 429.025 530.147L411.739 530.178V531.044C411.77 532.034 412.125 532.854 412.819 533.504C413.513 534.153 414.345 534.494 415.332 534.494H415.594V535.267H410.937V530.178H407.591C406.99 530.178 406.481 530.394 406.065 530.797C405.649 531.199 405.433 531.694 405.433 532.282V532.544H404.631V524.315H405.433V524.578C405.433 525.166 405.649 525.661 406.065 526.079C406.481 526.481 406.99 526.682 407.591 526.682H407.622ZM428.624 526.635L411.739 513.518L411.77 526.682L428.624 526.651V526.635Z" fill="#F3EBE1" fill-opacity="0.5"/>
<path d="M389.045 538.623V537.834H397.572V538.623H397.31C396.693 538.623 396.169 538.824 395.752 539.226C395.336 539.628 395.136 540.123 395.136 540.696V559.49H397.587V560.155L397.372 560.186C397.079 560.248 396.847 560.295 396.678 560.341C396.246 560.434 395.83 560.589 395.444 560.79C394.75 561.145 394.133 561.64 393.609 562.244C393.362 562.538 393.162 562.847 392.977 563.187C392.884 563.357 392.807 563.528 392.73 563.698C392.699 563.775 392.638 563.945 392.545 564.239L392.483 564.409H391.497V540.696C391.497 540.123 391.281 539.628 390.849 539.211C390.417 538.808 389.908 538.607 389.307 538.607H389.045V538.623Z" fill="#F3EBE1" fill-opacity="0.5"/>
<path d="M373.538 541.808C374.016 542.319 374.464 542.876 374.849 543.448C376.422 545.753 377.193 548.228 377.193 550.888V550.981C377.131 554.709 375.759 557.88 373.091 560.525C371.75 561.809 370.239 562.784 368.542 563.464C366.846 564.145 365.073 564.485 363.223 564.485C362.051 564.485 360.894 564.346 359.769 564.068C359.244 563.944 358.736 563.789 358.242 563.604C358.196 563.573 358.15 563.573 358.103 563.573C357.995 563.573 357.918 563.604 357.841 563.681C357.764 563.743 357.733 563.836 357.733 563.944V564.207H356.931V558.19H357.749V558.453C357.733 559.149 358.042 559.737 358.674 560.185C358.705 560.216 358.751 560.247 358.813 560.278C359.214 560.525 359.63 560.757 360.046 560.959C362.082 561.949 364.102 562.428 366.075 562.428C368.65 562.428 370.809 561.608 372.552 559.984C374.232 558.252 375.065 556.163 375.065 553.704C375.065 553.1 375.019 552.482 374.911 551.863C374.032 553.735 372.721 555.22 370.979 556.333C369.236 557.447 367.309 558.004 365.196 558.004C362.344 558.004 359.846 557.014 357.687 555.019C355.667 553.023 354.619 550.61 354.572 547.795V547.702C354.572 545.83 355.112 544.005 356.207 542.257C357.332 540.493 358.828 539.225 360.648 538.452C361.82 537.957 363.069 537.709 364.395 537.709C366.029 537.709 367.694 538.096 369.375 538.869C370.948 539.612 372.32 540.602 373.523 541.839L373.538 541.808ZM370.347 555.544C371.333 555.142 372.151 554.524 372.767 553.673C373.384 552.822 373.708 551.847 373.754 550.765V550.579C373.754 549.465 373.523 548.398 373.045 547.377C372.567 546.356 371.95 545.412 371.179 544.546C370.408 543.68 369.529 542.922 368.573 542.241C367.617 541.576 366.63 541.019 365.644 540.602C365.058 540.339 364.41 540.107 363.716 539.875C363.022 539.658 362.313 539.55 361.619 539.55C361.141 539.55 360.709 539.612 360.339 539.735C359.522 540.014 358.828 540.432 358.258 540.973C357.209 542.025 356.7 543.355 356.7 544.964C356.7 545.382 356.731 545.815 356.808 546.279C357.209 548.537 358.366 550.594 360.262 552.466C361.542 553.688 362.93 554.601 364.441 555.204C365.69 555.699 366.893 555.947 368.034 555.947C368.851 555.947 369.622 555.807 370.362 555.544H370.347Z" fill="#F3EBE1" fill-opacity="0.5"/>
<path d="M335.874 538.778H335.905C336.522 538.778 337.262 538.685 338.126 538.515C338.989 538.329 339.745 538.159 340.408 537.973C341.071 537.788 341.41 537.71 341.425 537.71H341.456L342.027 537.695L342.088 537.85L342.196 538.097C342.628 539.211 342.844 540.34 342.844 541.516C342.844 542.537 342.69 543.542 342.381 544.532C342.073 545.522 341.595 546.45 340.978 547.301C340.778 547.58 340.562 547.843 340.331 548.09C339.945 548.539 339.39 549.034 338.634 549.606C337.894 550.178 337.015 550.596 336.013 550.89C335.026 551.122 334.039 551.246 333.022 551.261H332.883C332.158 551.261 331.403 551.261 330.632 551.292C328.627 551.416 327.023 551.802 325.79 552.452C325.158 552.777 324.603 553.164 324.155 553.628C323.554 554.262 323.261 554.958 323.261 555.716C323.261 556.134 323.354 556.536 323.554 556.938C323.554 556.969 323.585 557 323.585 557.031C324.125 558.067 325.096 559.042 326.53 559.955C328.75 561.378 330.986 562.198 333.238 562.399C333.577 562.43 333.885 562.43 334.194 562.43C334.857 562.43 335.52 562.368 336.183 562.259C336.445 562.213 336.722 562.151 336.985 562.074H337C337.185 562.043 337.37 561.981 337.54 561.904H337.555C338.249 561.625 338.789 561.192 339.19 560.62C339.59 560.047 339.791 559.398 339.791 558.686V558.439H340.593V561.177L340.5 561.254C339.59 561.981 338.604 562.584 337.524 563.079C335.489 563.976 333.392 564.425 331.248 564.425C330.061 564.425 328.905 564.286 327.779 564.023C325.867 563.543 324.387 562.754 323.323 561.641C322.305 560.527 321.75 559.212 321.657 557.727V557.433C321.657 556.087 322.105 554.834 322.999 553.674C324.063 552.375 325.528 551.478 327.409 550.967C328.797 550.611 330.354 550.426 332.112 550.426H333.053C333.376 550.426 333.731 550.426 334.116 550.395C334.502 550.364 334.903 550.302 335.335 550.209C336.167 550.008 336.985 549.637 337.817 549.095C339.112 548.276 340.068 547.224 340.701 545.971C341.132 545.151 341.348 544.254 341.348 543.31C341.348 542.8 341.271 542.289 341.102 541.779C340.947 541.284 340.685 540.82 340.331 540.402C340.038 540.495 339.544 540.65 338.835 540.866C338.141 541.083 337.37 541.268 336.537 541.469C335.705 541.655 335.011 541.763 334.425 541.763H334.394C333.669 541.763 332.945 541.717 332.22 541.609C331.495 541.516 330.786 541.392 330.077 541.284C329.398 541.175 328.735 541.067 328.072 540.974C327.347 540.882 326.669 540.82 326.052 540.835H325.836C324.31 540.835 323.03 541.098 321.981 541.624L321.596 541.825V541.407C321.734 540.402 322.151 539.582 322.86 538.932C323.585 538.283 324.371 537.85 325.235 537.618C325.836 537.463 326.499 537.37 327.224 537.37C327.841 537.37 328.457 537.417 329.059 537.525C329.66 537.618 330.2 537.726 330.678 537.834C331.002 537.927 331.341 538.004 331.665 538.082C332.359 538.267 333.053 538.422 333.762 538.577C334.471 538.716 335.18 538.793 335.905 538.793L335.874 538.778Z" fill="#F3EBE1" fill-opacity="0.5"/>
<path d="M306.207 541.841C306.685 542.352 307.132 542.909 307.517 543.481C309.09 545.786 309.861 548.261 309.861 550.922V551.014C309.799 554.742 308.427 557.913 305.759 560.559C304.418 561.843 302.907 562.817 301.211 563.498C299.514 564.178 297.741 564.519 295.891 564.519C294.719 564.519 293.562 564.379 292.437 564.101C291.913 563.977 291.404 563.823 290.91 563.637C290.864 563.606 290.818 563.606 290.772 563.606C290.664 563.606 290.587 563.637 290.509 563.714C290.432 563.776 290.401 563.869 290.401 563.977V564.24H289.6V558.223H290.417V558.486C290.401 559.182 290.71 559.77 291.342 560.218C291.373 560.249 291.419 560.28 291.481 560.311C291.882 560.559 292.298 560.791 292.73 560.992C294.765 561.982 296.77 562.461 298.759 562.461C301.334 562.461 303.493 561.641 305.235 560.017C306.916 558.285 307.749 556.196 307.749 553.737C307.749 553.134 307.702 552.515 307.594 551.896C306.715 553.768 305.405 555.253 303.662 556.367C301.92 557.48 299.992 558.037 297.88 558.037C295.027 558.037 292.529 557.047 290.371 555.052C288.351 553.056 287.302 550.643 287.256 547.828V547.735C287.256 545.863 287.796 544.038 288.89 542.29C290.016 540.527 291.512 539.258 293.331 538.485C294.503 537.99 295.752 537.742 297.078 537.742C298.713 537.742 300.378 538.129 302.059 538.902C303.632 539.645 305.004 540.635 306.207 541.872V541.841ZM303.015 555.562C304.002 555.16 304.819 554.541 305.436 553.69C306.052 552.84 306.376 551.865 306.422 550.782V550.597C306.422 549.483 306.191 548.416 305.713 547.395C305.235 546.374 304.618 545.43 303.847 544.564C303.076 543.698 302.197 542.94 301.241 542.259C300.285 541.594 299.299 541.037 298.312 540.619C297.726 540.356 297.078 540.124 296.384 539.892C295.69 539.676 294.981 539.567 294.287 539.567C293.809 539.567 293.377 539.629 293.007 539.753C292.19 540.032 291.496 540.449 290.926 540.991C289.877 542.042 289.368 543.373 289.368 544.982C289.368 545.399 289.415 545.832 289.492 546.296C289.893 548.555 291.049 550.612 292.946 552.484C294.226 553.706 295.613 554.619 297.124 555.222C298.373 555.717 299.561 555.964 300.717 555.964C301.534 555.964 302.305 555.825 303.046 555.562H303.015Z" fill="#F3EBE1" fill-opacity="0.5"/>
<path d="M267.078 538.669V537.88H275.605V538.669H275.343C274.726 538.669 274.202 538.87 273.785 539.272C273.369 539.674 273.169 540.169 273.169 540.742V559.536H275.62V560.201L275.405 560.232C275.112 560.294 274.88 560.341 274.711 560.387C274.279 560.48 273.863 560.634 273.462 560.836C272.768 561.191 272.151 561.686 271.627 562.29C271.38 562.584 271.18 562.893 270.995 563.233C270.902 563.403 270.825 563.574 270.748 563.744C270.717 563.821 270.655 563.991 270.563 564.285L270.501 564.455H269.514V540.742C269.514 540.169 269.298 539.674 268.867 539.257C268.435 538.854 267.926 538.653 267.325 538.653H267.062L267.078 538.669Z" fill="#F3EBE1" fill-opacity="0.5"/>
<path d="M226.592 560.387C226.098 559.877 225.651 559.336 225.25 558.763C223.693 556.443 222.922 553.952 222.922 551.292V551.199C222.922 547.595 224.294 544.424 227.024 541.67C228.365 540.386 229.876 539.412 231.572 538.747C233.268 538.082 235.042 537.741 236.892 537.741C238.049 537.741 239.205 537.88 240.346 538.143C240.87 538.283 241.379 538.437 241.873 538.623C241.903 538.623 241.95 538.623 242.011 538.638C242.104 538.638 242.181 538.607 242.274 538.53C242.351 538.468 242.397 538.375 242.397 538.267V538.004H243.199V544.022H242.381V543.759C242.397 543.062 242.089 542.475 241.456 542.026C241.41 541.995 241.364 541.964 241.318 541.933H241.302C240.901 541.701 240.485 541.469 240.053 541.253C238.033 540.278 236.029 539.799 234.039 539.799C231.449 539.799 229.29 540.618 227.563 542.243C225.882 543.96 225.05 546.048 225.05 548.507C225.05 549.111 225.096 549.73 225.204 550.348C226.083 548.477 227.394 546.992 229.121 545.878C230.863 544.764 232.79 544.207 234.918 544.207C237.74 544.207 240.238 545.197 242.397 547.193C244.432 549.188 245.481 551.601 245.527 554.432V554.525C245.527 556.381 244.987 558.191 243.893 559.954C242.767 561.718 241.271 562.986 239.421 563.76C238.249 564.27 237.015 564.518 235.705 564.518C234.07 564.518 232.39 564.131 230.709 563.358C229.151 562.6 227.779 561.609 226.576 560.372L226.592 560.387ZM229.768 546.651C228.766 547.038 227.949 547.672 227.347 548.523C226.731 549.374 226.407 550.348 226.376 551.431V551.617C226.376 552.73 226.607 553.798 227.085 554.819C227.563 555.84 228.18 556.783 228.951 557.65C229.722 558.516 230.601 559.274 231.541 559.954C232.497 560.62 233.469 561.176 234.456 561.594C235.042 561.857 235.689 562.089 236.399 562.321C237.108 562.538 237.802 562.646 238.511 562.646C238.974 562.646 239.39 562.584 239.791 562.46C240.608 562.182 241.302 561.78 241.873 561.238C242.921 560.171 243.43 558.841 243.43 557.232C243.43 556.814 243.384 556.381 243.307 555.917C242.906 553.674 241.734 551.617 239.837 549.73C238.573 548.523 237.185 547.61 235.674 546.992C234.425 546.497 233.238 546.249 232.081 546.249C231.248 546.249 230.462 546.388 229.753 546.651H229.768Z" fill="#F3EBE1" fill-opacity="0.5"/>
<path d="M202.85 538.7V537.911H211.377V538.7H211.115C210.498 538.7 209.973 538.901 209.557 539.303C209.141 539.706 208.94 540.201 208.94 540.773V559.567H211.392V560.233L211.176 560.264C210.883 560.325 210.652 560.372 210.482 560.418C210.051 560.511 209.634 560.666 209.249 560.867C208.555 561.223 207.938 561.718 207.414 562.321C207.167 562.615 206.967 562.924 206.782 563.264C206.689 563.435 206.612 563.605 206.535 563.775C206.504 563.852 206.442 564.022 206.35 564.316L206.288 564.486H205.301V540.773C205.301 540.201 205.085 539.706 204.669 539.288C204.237 538.886 203.729 538.685 203.127 538.685H202.865L202.85 538.7Z" fill="#F3EBE1" fill-opacity="0.5"/>
<path d="M187.345 541.888C187.823 542.398 188.27 542.955 188.656 543.527C190.229 545.832 191 548.307 191 550.968V551.061C190.938 554.789 189.566 557.96 186.898 560.605C185.556 561.889 184.045 562.863 182.349 563.544C180.653 564.225 178.88 564.565 177.029 564.565C175.857 564.565 174.701 564.426 173.575 564.147C173.051 564.024 172.542 563.869 172.049 563.683C172.003 563.652 171.956 563.652 171.91 563.652C171.802 563.652 171.725 563.683 171.648 563.761C171.571 563.822 171.54 563.915 171.54 564.024V564.287H170.738V558.269H171.555V558.532C171.54 559.228 171.848 559.816 172.481 560.265C172.511 560.296 172.558 560.327 172.619 560.358C173.02 560.605 173.437 560.837 173.853 561.038C175.888 562.028 177.908 562.508 179.882 562.508C182.457 562.508 184.616 561.688 186.358 560.064C188.039 558.331 188.872 556.243 188.872 553.783C188.872 553.18 188.825 552.561 188.717 551.942C187.839 553.814 186.528 555.299 184.785 556.413C183.043 557.527 181.116 558.084 179.003 558.084C176.15 558.084 173.652 557.094 171.494 555.098C169.474 553.103 168.425 550.69 168.379 547.874V547.781C168.379 545.91 168.919 544.084 170.013 542.336C171.139 540.573 172.635 539.304 174.454 538.531C175.626 538.036 176.875 537.789 178.201 537.789C179.836 537.789 181.501 538.175 183.182 538.949C184.755 539.691 186.127 540.681 187.33 541.919L187.345 541.888ZM184.169 555.609C185.155 555.206 185.973 554.588 186.59 553.737C187.206 552.886 187.53 551.912 187.576 550.829V550.643C187.576 549.529 187.345 548.462 186.867 547.441C186.389 546.42 185.772 545.477 185.001 544.61C184.23 543.744 183.351 542.986 182.395 542.305C181.439 541.64 180.452 541.083 179.466 540.666C178.88 540.403 178.232 540.171 177.538 539.939C176.844 539.722 176.135 539.614 175.441 539.614C174.963 539.614 174.531 539.676 174.161 539.799C173.344 540.078 172.65 540.496 172.08 541.037C171.031 542.089 170.522 543.419 170.522 545.028C170.522 545.446 170.553 545.879 170.63 546.343C171.031 548.601 172.188 550.659 174.084 552.53C175.364 553.752 176.752 554.665 178.263 555.268C179.512 555.763 180.715 556.011 181.856 556.011C182.673 556.011 183.444 555.872 184.184 555.609H184.169Z" fill="#F3EBE1" fill-opacity="0.5"/>
<path d="M153.056 541.902C153.534 542.412 153.981 542.969 154.367 543.542C155.939 545.847 156.71 548.322 156.71 550.982V551.075C156.649 554.803 155.276 557.974 152.609 560.619C151.267 561.903 149.756 562.878 148.06 563.558C146.364 564.239 144.591 564.579 142.74 564.579C141.568 564.579 140.412 564.44 139.286 564.162C138.762 564.038 138.253 563.883 137.76 563.698C137.713 563.667 137.667 563.667 137.621 563.667C137.513 563.667 137.436 563.697 137.359 563.775C137.282 563.837 137.251 563.93 137.251 564.038V564.301H136.449V558.283H137.266V558.546C137.251 559.242 137.559 559.83 138.191 560.279C138.222 560.31 138.269 560.341 138.33 560.372C138.731 560.619 139.147 560.851 139.564 561.052C141.599 562.042 143.619 562.522 145.593 562.522C148.168 562.522 150.327 561.702 152.069 560.078C153.75 558.345 154.583 556.257 154.583 553.797C154.583 553.194 154.536 552.575 154.428 551.957C153.549 553.828 152.239 555.313 150.496 556.427C148.754 557.541 146.826 558.098 144.714 558.098C141.861 558.098 139.363 557.108 137.205 555.112C135.185 553.117 134.136 550.704 134.09 547.888V547.796C134.09 545.924 134.63 544.099 135.724 542.351C136.85 540.587 138.346 539.319 140.165 538.545C141.337 538.05 142.586 537.803 143.912 537.803C145.547 537.803 147.212 538.189 148.893 538.963C150.466 539.705 151.838 540.695 153.041 541.933L153.056 541.902ZM149.88 555.623C150.866 555.221 151.684 554.602 152.3 553.751C152.917 552.9 153.241 551.926 153.287 550.843V550.657C153.287 549.544 153.056 548.476 152.578 547.455C152.1 546.434 151.483 545.491 150.712 544.624C149.941 543.758 149.062 543 148.106 542.32C147.15 541.654 146.163 541.098 145.177 540.68C144.591 540.417 143.943 540.185 143.249 539.953C142.555 539.736 141.846 539.628 141.152 539.628C140.674 539.628 140.242 539.69 139.872 539.814C139.055 540.092 138.361 540.51 137.791 541.051C136.742 542.103 136.233 543.433 136.233 545.042C136.233 545.46 136.264 545.893 136.341 546.357C136.742 548.615 137.898 550.673 139.795 552.544C141.075 553.767 142.463 554.679 143.974 555.282C145.223 555.777 146.426 556.025 147.567 556.025C148.384 556.025 149.155 555.886 149.895 555.623H149.88Z" fill="#F3EBE1" fill-opacity="0.5"/>
<path d="M118.765 541.902C119.243 542.412 119.69 542.969 120.076 543.542C121.649 545.847 122.42 548.322 122.42 550.982V551.075C122.358 554.803 120.986 557.974 118.318 560.619C116.977 561.903 115.465 562.878 113.769 563.558C112.073 564.239 110.3 564.579 108.449 564.579C107.278 564.579 106.121 564.44 104.995 564.162C104.471 564.038 103.962 563.883 103.469 563.698C103.423 563.667 103.376 563.667 103.33 563.667C103.222 563.667 103.145 563.697 103.068 563.775C102.991 563.837 102.96 563.93 102.96 564.038V564.301H102.158V558.283H102.975V558.546C102.96 559.242 103.268 559.83 103.901 560.279C103.932 560.31 103.978 560.341 104.039 560.372C104.44 560.619 104.857 560.851 105.288 561.052C107.324 562.042 109.328 562.522 111.318 562.522C113.893 562.522 116.051 561.702 117.794 560.078C119.475 558.345 120.307 556.257 120.307 553.797C120.307 553.194 120.261 552.575 120.153 551.957C119.274 553.828 117.963 555.313 116.221 556.427C114.479 557.541 112.551 558.098 110.439 558.098C107.586 558.098 105.088 557.108 102.929 555.112C100.909 553.117 99.8607 550.704 99.8145 547.888V547.796C99.8145 545.924 100.354 544.099 101.449 542.351C102.575 540.587 104.07 539.319 105.89 538.545C107.062 538.05 108.311 537.803 109.637 537.803C111.271 537.803 112.937 538.189 114.617 538.963C116.19 539.705 117.562 540.695 118.765 541.933V541.902ZM115.589 555.638C116.576 555.236 117.393 554.617 118.01 553.767C118.626 552.916 118.95 551.941 118.997 550.858V550.673C118.997 549.559 118.765 548.492 118.287 547.471C117.809 546.45 117.192 545.506 116.421 544.64C115.65 543.774 114.772 543.016 113.816 542.335C112.859 541.67 111.873 541.113 110.886 540.695C110.3 540.432 109.652 540.2 108.958 539.968C108.264 539.752 107.555 539.644 106.861 539.644C106.383 539.644 105.951 539.705 105.581 539.829C104.764 540.108 104.07 540.525 103.5 541.067C102.451 542.119 101.942 543.449 101.942 545.058C101.942 545.475 101.989 545.908 102.066 546.372C102.467 548.631 103.623 550.688 105.52 552.56C106.8 553.782 108.187 554.695 109.698 555.298C110.947 555.793 112.135 556.04 113.291 556.04C114.108 556.04 114.879 555.901 115.62 555.638H115.589Z" fill="#F3EBE1" fill-opacity="0.5"/>
<path d="M87.381 560.202V559.955H88.1674V564.41H68.9545V563.652H69.2012C70.3423 563.652 71.2674 563.219 71.9613 562.337L75.0607 557.712C73.6575 557.557 72.3622 557.108 71.1595 556.381C69.8797 555.608 68.8311 554.602 68.0293 553.365C67.0425 551.818 66.5645 550.178 66.5645 548.415C66.5645 545.971 67.4742 543.79 69.3091 541.887C69.3091 541.856 69.34 541.825 69.3862 541.794C69.4325 541.763 69.4788 541.717 69.5404 541.671C70.8511 540.433 72.3314 539.489 73.9813 538.84C75.6312 538.19 77.3582 537.865 79.1623 537.865C81.3365 537.865 83.3873 538.329 85.3302 539.273C85.4998 539.366 85.6694 539.397 85.8699 539.397C86.1628 539.397 86.425 539.304 86.6408 539.134C86.8567 538.948 86.9955 538.716 87.0572 538.422C87.0572 538.329 87.0726 538.221 87.0726 538.128V537.865H87.859V546.017H87.0572V545.754C87.0726 545.275 86.9184 544.842 86.5946 544.439L86.3016 544.161H86.2862C85.8082 543.682 85.2839 543.264 84.7442 542.846C81.9995 540.882 79.224 539.907 76.3868 539.907C74.2897 539.907 72.4548 540.464 70.8665 541.578C70.6815 541.717 70.4965 541.856 70.3114 541.995L70.1264 542.181C70.1264 542.181 70.0956 542.227 70.0493 542.243C70.0185 542.274 70.003 542.305 69.9722 542.32C69.2012 543.125 68.7695 544.022 68.6924 544.996V545.383C68.6924 547.564 69.4479 549.606 70.9745 551.509C72.501 553.411 74.4285 554.726 76.7877 555.453C77.5587 555.67 78.3142 555.778 79.039 555.778C79.4244 555.778 79.7945 555.747 80.1492 555.685L80.7043 555.592L75.3228 563.636H83.8345C84.8367 563.59 85.6848 563.25 86.3633 562.584C87.0418 561.919 87.381 561.115 87.381 560.171V560.202Z" fill="#F3EBE1" fill-opacity="0.5"/>
<path d="M53.9706 560.188V559.94H54.7725V564.426H31.6738V563.653H31.9205C32.9691 563.653 33.7863 563.22 34.3568 562.338L47.001 540.682C47.1706 540.341 47.2477 540.016 47.2477 539.738C47.2477 539.506 47.186 539.305 47.0781 539.15C46.893 538.872 46.5692 538.732 46.1066 538.732H45.8445V537.959H54.3407V538.748H54.0786C53.6006 538.732 53.1226 538.872 52.6446 539.15C52.1665 539.429 51.7965 539.8 51.5035 540.264C47.6948 546.838 43.1923 554.65 37.9805 563.668H50.3933C51.3801 563.668 52.2282 563.328 52.9375 562.632C53.6314 561.951 53.9861 561.131 53.9861 560.188H53.9706Z" fill="#F3EBE1" fill-opacity="0.5"/>
</svg>
